<?xml version="1.0" encoding="utf-8"?>
<!-- Generator: Adobe Illustrator 16.0.3, SVG Export Plug-In . SVG Version: 6.00 Build 0)  -->
<!DOCTYPE svg PUBLIC "-//W3C//DTD SVG 1.1//EN" "http://www.w3.org/Graphics/SVG/1.1/DTD/svg11.dtd">
<svg version="1.1"
	 id="svg2985" sodipodi:docname="DHT22.svg" inkscape:version="0.92.2 5c3e80d, 2017-08-06" xmlns:dc="http://purl.org/dc/elements/1.1/" xmlns:cc="http://creativecommons.org/ns#" xmlns:rdf="http://www.w3.org/1999/02/22-rdf-syntax-ns#" xmlns:svg="http://www.w3.org/2000/svg" xmlns:sodipodi="http://sodipodi.sourceforge.net/DTD/sodipodi-0.dtd" xmlns:inkscape="http://www.inkscape.org/namespaces/inkscape"
	 xmlns="http://www.w3.org/2000/svg" xmlns:xlink="http://www.w3.org/1999/xlink" x="0px" y="0px" width="65.721px"
	 height="101.193px" viewBox="0 0 65.721 101.193" enable-background="new 0 0 65.721 101.193" xml:space="preserve">
<sodipodi:namedview  id="namedview142" inkscape:window-y="322" inkscape:window-x="241" inkscape:window-height="802" inkscape:window-width="1440" inkscape:current-layer="g1564" inkscape:pageshadow="2" inkscape:pageopacity="0" inkscape:cy="56.995785" inkscape:cx="52.070625" inkscape:zoom="2.535036" borderopacity="1" bordercolor="#666666" pagecolor="#ffffff" showgrid="false" inkscape:window-maximized="0" fit-margin-top="0" fit-margin-left="0" guidetolerance="10" gridtolerance="10" objecttolerance="10" fit-margin-bottom="0" fit-margin-right="0" inkscape:measure-end="136.538,-18.9675" inkscape:measure-start="93.4428,-18.6886">
	</sodipodi:namedview>
<g>
	<path fill="#414F25" d="M13.199,20.922v70.334h39.937V20.922H13.199z M32.883,81.61c-2.178,0-3.942-1.766-3.942-3.942
		c0-2.178,1.765-3.942,3.942-3.942c2.177,0,3.941,1.765,3.941,3.942C36.824,79.844,35.059,81.61,32.883,81.61z"/>
	<path fill="#E6E6E6" d="M22.107,6.959h21.508c6.492,0,11.755,3.843,11.755,8.584v32.729c0,4.741-5.263,8.585-11.755,8.585H22.107
		c-6.491,0-11.754-3.844-11.754-8.585V15.543C10.353,10.802,15.616,6.959,22.107,6.959z"/>
	<ellipse fill="#1E1E1E" cx="33.168" cy="13.682" rx="4.261" ry="3.216"/>
	<ellipse fill="none" stroke="#1E1E1E" stroke-width="0.0762" cx="33.168" cy="13.682" rx="4.261" ry="3.216"/>
	<rect x="10.79" y="24.714" fill="#C3C3C3" width="46.095" height="32.973"/>
	<path fill="#C3C3C3" d="M11.059,18.241h3.259c0.155,0,0.281,0.092,0.281,0.205v11.235c0,0.113-0.126,0.205-0.281,0.205h-3.259
		c-0.155,0-0.281-0.092-0.281-0.205V18.446C10.778,18.333,10.904,18.241,11.059,18.241z"/>
	<path fill="#C3C3C3" d="M53.411,18.241h3.213c0.155,0,0.281,0.092,0.281,0.205v11.235c0,0.113-0.126,0.205-0.281,0.205h-3.213
		c-0.155,0-0.281-0.092-0.281-0.205V18.446C53.13,18.333,53.256,18.241,53.411,18.241z"/>
	<path fill="#C3C3C3" d="M11.716,51.434h1.946c0.518,0,0.938,0.307,0.938,0.685v9.598c0,0.378-0.42,0.685-0.938,0.685h-1.946
		c-0.518,0-0.938-0.307-0.938-0.685v-9.598C10.778,51.741,11.198,51.434,11.716,51.434z"/>
	<path fill="#C3C3C3" d="M51.141,56.322h4.806c0.518,0,0.938,0.307,0.938,0.685v4.71c0,0.378-0.42,0.685-0.938,0.685h-4.806
		c-0.518,0-0.938-0.307-0.938-0.685v-4.71C50.204,56.629,50.624,56.322,51.141,56.322z"/>
	<rect x="13.76" y="21.051" fill="#C3C3C3" width="40.164" height="38.736"/>
	<rect x="12.351" y="18.176" fill="#C3C3C3" width="42.497" height="44.226"/>
	<line fill="none" stroke="#8C8C8C" stroke-width="0.762" x1="37.909" y1="61.975" x2="37.92" y2="71.747"/>
	<line fill="none" stroke="#8C8C8C" stroke-width="0.762" x1="48.353" y1="61.969" x2="48.364" y2="71.74"/>
	<line fill="none" stroke="#8C8C8C" stroke-width="0.762" x1="17.02" y1="61.969" x2="17.031" y2="71.74"/>
	<line fill="none" stroke="#8C8C8C" stroke-width="0.762" x1="27.465" y1="61.969" x2="27.475" y2="71.74"/>
	<rect x="45.123" y="25.756" fill="#CBCBCB" width="10.414" height="2.822"/>
	<rect x="45.123" y="31.461" fill="#CBCBCB" width="10.414" height="2.822"/>
	<rect x="45.129" y="37.167" fill="#CBCBCB" width="10.408" height="2.821"/>
	<rect x="45.124" y="42.872" fill="#CBCBCB" width="10.413" height="2.822"/>
	<rect x="45.123" y="48.578" fill="#CBCBCB" width="10.414" height="2.821"/>
	<rect x="10.27" y="25.756" fill="#CBCBCB" width="2.895" height="2.822"/>
	<rect x="10.27" y="31.461" fill="#CBCBCB" width="2.895" height="2.822"/>
	<rect x="10.27" y="37.167" fill="#CBCBCB" width="2.895" height="2.821"/>
	<rect x="10.27" y="42.872" fill="#CBCBCB" width="2.895" height="2.822"/>
	<rect x="10.27" y="48.578" fill="#CBCBCB" width="2.895" height="2.821"/>
	<rect x="23.749" y="25.755" fill="#1E1E1E" width="3.864" height="2.822"/>
	<rect x="31.15" y="25.755" fill="#1E1E1E" width="3.864" height="2.822"/>
	<rect x="38.139" y="25.755" fill="#1E1E1E" width="3.865" height="2.822"/>
	<path fill="#1E1E1E" d="M45.13,25.755h6.509c0.852,0,1.547,0.252,1.547,0.561v1.701c0,0.309-0.695,0.561-1.547,0.561H45.13V25.755z
		"/>
	<rect x="13.167" y="25.755" fill="#1E1E1E" width="7.045" height="2.822"/>
	<rect x="23.749" y="31.461" fill="#1E1E1E" width="3.864" height="2.822"/>
	<rect x="31.15" y="31.461" fill="#1E1E1E" width="3.864" height="2.822"/>
	<rect x="38.139" y="31.461" fill="#1E1E1E" width="3.865" height="2.822"/>
	<path fill="#1E1E1E" d="M45.13,31.461h6.509c0.852,0,1.547,0.252,1.547,0.56v1.702c0,0.308-0.695,0.561-1.547,0.561H45.13V31.461z"
		/>
	<rect x="13.167" y="31.461" fill="#1E1E1E" width="7.045" height="2.822"/>
	<rect x="23.749" y="37.166" fill="#1E1E1E" width="3.864" height="2.822"/>
	<rect x="31.15" y="37.166" fill="#1E1E1E" width="3.864" height="2.822"/>
	<rect x="38.139" y="37.166" fill="#1E1E1E" width="3.865" height="2.822"/>
	<path fill="#1E1E1E" d="M45.13,37.166h6.509c0.852,0,1.547,0.252,1.547,0.561v1.701c0,0.309-0.695,0.561-1.547,0.561H45.13V37.166z
		"/>
	<rect x="13.167" y="37.166" fill="#1E1E1E" width="7.045" height="2.822"/>
	<rect x="23.749" y="42.871" fill="#1E1E1E" width="3.864" height="2.822"/>
	<rect x="31.15" y="42.871" fill="#1E1E1E" width="3.864" height="2.822"/>
	<rect x="38.139" y="42.871" fill="#1E1E1E" width="3.865" height="2.822"/>
	<path fill="#1E1E1E" d="M45.13,42.871h6.509c0.852,0,1.547,0.252,1.547,0.561v1.702c0,0.308-0.695,0.561-1.547,0.561H45.13V42.871z
		"/>
	<rect x="13.167" y="42.871" fill="#1E1E1E" width="7.045" height="2.822"/>
	<rect x="23.749" y="48.577" fill="#1E1E1E" width="3.864" height="2.822"/>
	<rect x="31.15" y="48.577" fill="#1E1E1E" width="3.864" height="2.822"/>
	<rect x="38.139" y="48.577" fill="#1E1E1E" width="3.865" height="2.822"/>
	<path fill="#1E1E1E" d="M45.13,48.577h6.509c0.852,0,1.547,0.252,1.547,0.561v1.701c0,0.309-0.695,0.561-1.547,0.561H45.13V48.577z
		"/>
	<rect x="13.167" y="48.577" fill="#1E1E1E" width="7.045" height="2.822"/>
	<rect x="20.213" y="17.844" fill="#F0F0F0" width="3.536" height="41.988"/>
	<path fill="#F0F0F0" d="M20.472,16.998h3.031c0.134,0,0.241,0.078,0.241,0.176v1.896c0,0.098-0.107,0.177-0.241,0.177h-3.031
		c-0.134,0-0.242-0.079-0.242-0.177v-1.896C20.23,17.076,20.339,16.998,20.472,16.998z"/>
	<rect x="27.614" y="17.844" fill="#F0F0F0" width="3.536" height="41.988"/>
	<path fill="#F0F0F0" d="M27.874,16.998h3.031c0.134,0,0.241,0.078,0.241,0.176v1.896c0,0.098-0.107,0.177-0.241,0.177h-3.031
		c-0.134,0-0.242-0.079-0.242-0.177v-1.896C27.632,17.076,27.74,16.998,27.874,16.998z"/>
	<rect x="35.015" y="17.844" fill="#F0F0F0" width="3.536" height="41.988"/>
	<path fill="#F0F0F0" d="M35.275,16.998h3.031c0.134,0,0.241,0.078,0.241,0.176v1.896c0,0.098-0.107,0.177-0.241,0.177h-3.031
		c-0.134,0-0.242-0.079-0.242-0.177v-1.896C35.033,17.076,35.141,16.998,35.275,16.998z"/>
	<rect x="42.006" y="17.844" fill="#F0F0F0" width="3.536" height="41.988"/>
	<path fill="#F0F0F0" d="M42.265,16.998h3.031c0.133,0,0.241,0.078,0.241,0.176v1.896c0,0.098-0.108,0.177-0.241,0.177h-3.031
		c-0.134,0-0.242-0.079-0.242-0.177v-1.896C42.023,17.076,42.132,16.998,42.265,16.998z"/>
	<rect x="10.795" y="21.976" fill="#F0F0F0" width="44.554" height="3.77"/>
	<path fill="#F0F0F0" d="M9.823,21.985h4.212c0.205,0,0.372,0.121,0.372,0.271v3.227c0,0.149-0.167,0.271-0.372,0.271H9.823
		c-0.205,0-0.372-0.122-0.372-0.271v-3.227C9.451,22.106,9.618,21.985,9.823,21.985z"/>
	<path fill="#F0F0F0" d="M51.353,21.985h4.421c0.206,0,0.372,0.121,0.372,0.271v3.227c0,0.149-0.166,0.271-0.372,0.271h-4.421
		c-0.206,0-0.372-0.122-0.372-0.271v-3.227C50.981,22.106,51.147,21.985,51.353,21.985z"/>
	<rect x="10.795" y="28.624" fill="#F0F0F0" width="44.554" height="2.825"/>
	<path fill="#F0F0F0" d="M9.823,28.631h4.212c0.205,0,0.372,0.121,0.372,0.271v2.281c0,0.15-0.167,0.271-0.372,0.271H9.823
		c-0.205,0-0.372-0.121-0.372-0.271v-2.281C9.451,28.752,9.618,28.631,9.823,28.631z"/>
	<path fill="#F0F0F0" d="M51.353,28.631h4.421c0.206,0,0.372,0.121,0.372,0.271v2.281c0,0.15-0.166,0.271-0.372,0.271h-4.421
		c-0.206,0-0.372-0.121-0.372-0.271v-2.281C50.981,28.752,51.147,28.631,51.353,28.631z"/>
	<rect x="10.795" y="34.287" fill="#F0F0F0" width="44.554" height="2.867"/>
	<path fill="#F0F0F0" d="M9.823,34.294h4.212c0.205,0,0.372,0.121,0.372,0.271v2.325c0,0.149-0.167,0.271-0.372,0.271H9.823
		c-0.205,0-0.372-0.122-0.372-0.271v-2.325C9.451,34.415,9.618,34.294,9.823,34.294z"/>
	<path fill="#F0F0F0" d="M51.353,34.294h4.421c0.206,0,0.372,0.121,0.372,0.271v2.325c0,0.149-0.166,0.271-0.372,0.271h-4.421
		c-0.206,0-0.372-0.122-0.372-0.271v-2.325C50.981,34.415,51.147,34.294,51.353,34.294z"/>
	<rect x="10.795" y="39.992" fill="#F0F0F0" width="44.554" height="2.868"/>
	<path fill="#F0F0F0" d="M9.823,39.999h4.212c0.205,0,0.372,0.121,0.372,0.271v2.324c0,0.15-0.167,0.271-0.372,0.271H9.823
		c-0.205,0-0.372-0.121-0.372-0.271V40.27C9.451,40.12,9.618,39.999,9.823,39.999z"/>
	<path fill="#F0F0F0" d="M51.353,39.999h4.421c0.206,0,0.372,0.121,0.372,0.271v2.324c0,0.15-0.166,0.271-0.372,0.271h-4.421
		c-0.206,0-0.372-0.121-0.372-0.271V40.27C50.981,40.12,51.147,39.999,51.353,39.999z"/>
	<rect x="10.795" y="45.698" fill="#F0F0F0" width="44.554" height="2.867"/>
	<path fill="#F0F0F0" d="M9.823,45.704h4.212c0.205,0,0.372,0.122,0.372,0.271v2.325c0,0.149-0.167,0.271-0.372,0.271H9.823
		c-0.205,0-0.372-0.122-0.372-0.271v-2.325C9.451,45.826,9.618,45.704,9.823,45.704z"/>
	<path fill="#F0F0F0" d="M51.353,45.704h4.421c0.206,0,0.372,0.122,0.372,0.271v2.325c0,0.149-0.166,0.271-0.372,0.271h-4.421
		c-0.206,0-0.372-0.122-0.372-0.271v-2.325C50.981,45.826,51.147,45.704,51.353,45.704z"/>
	<rect x="9.967" y="52.936" fill="#F0F0F0" width="46.096" height="7.755"/>
	<path fill="#F0F0F0" d="M10.237,51.414h3.259c0.155,0,0.281,0.092,0.281,0.205v2.328c0,0.113-0.126,0.206-0.281,0.206h-3.259
		c-0.155,0-0.281-0.093-0.281-0.206v-2.328C9.956,51.506,10.082,51.414,10.237,51.414z"/>
	<path fill="#F0F0F0" d="M52.589,51.414h3.213c0.155,0,0.281,0.092,0.281,0.205v2.328c0,0.113-0.126,0.206-0.281,0.206h-3.213
		c-0.155,0-0.281-0.093-0.281-0.206v-2.328C52.307,51.506,52.433,51.414,52.589,51.414z"/>
	<path fill="#F0F0F0" d="M10.893,59.22h1.946c0.518,0,0.938,0.307,0.938,0.686v1.21c0,0.378-0.42,0.685-0.938,0.685h-1.946
		c-0.519,0-0.938-0.307-0.938-0.685v-1.21C9.956,59.527,10.375,59.22,10.893,59.22z"/>
	<path fill="#F0F0F0" d="M53.245,59.22h1.88c0.518,0,0.938,0.307,0.938,0.686v1.21c0,0.378-0.42,0.685-0.938,0.685h-1.88
		c-0.518,0-0.938-0.307-0.938-0.685v-1.21C52.307,59.527,52.727,59.22,53.245,59.22z"/>
	<rect x="12.938" y="52.074" fill="#F0F0F0" width="40.163" height="9.111"/>
	<rect x="11.529" y="51.398" fill="#F0F0F0" width="42.497" height="10.402"/>
	<path fill="#F0F0F0" d="M11.309,16.99h9.427c1.015,0,1.837,0.602,1.837,1.342v4.026c0,0.74-0.822,1.342-1.837,1.342h-9.427
		c-1.015,0-1.837-0.602-1.837-1.342v-4.026C9.472,17.592,10.295,16.99,11.309,16.99z"/>
	<path fill="#F0F0F0" d="M45.008,16.99h9.28c1.015,0,1.837,0.602,1.837,1.342v4.026c0,0.74-0.822,1.342-1.837,1.342h-9.28
		c-1.015,0-1.837-0.602-1.837-1.342v-4.026C43.171,17.592,43.993,16.99,45.008,16.99z"/>
	<rect x="23.751" y="19.899" fill="#323232" width="3.853" height="2.078"/>
	<rect x="31.152" y="19.899" fill="#323232" width="3.853" height="2.078"/>
	<rect x="38.562" y="19.899" fill="#323232" width="3.27" height="2.078"/>
	<path fill="none" stroke="#78786E" stroke-width="0.25" d="M23.749,20.814c3.863,0,3.863,0,3.863,0"/>
	<path fill="none" stroke="#78786E" stroke-width="0.0762" d="M31.151,20.683c1.21-0.005,1.874,0.426,1.951,1.287"/>
	
		<linearGradient id="SVGID_1_" gradientUnits="userSpaceOnUse" x1="-278.6409" y1="447.0974" x2="-277.6409" y2="447.0974" gradientTransform="matrix(-1.244457e-007 -2.0792 2.847 -9.088296e-008 -1247.2017 -559.4164)">
		<stop  offset="0" style="stop-color:#A8A89E"/>
		<stop  offset="1" style="stop-color:#FFFFFF"/>
	</linearGradient>
	<rect x="23.751" y="17.843" fill="url(#SVGID_1_)" width="3.853" height="2.079"/>
	
		<linearGradient id="SVGID_2_" gradientUnits="userSpaceOnUse" x1="-278.6409" y1="447.0974" x2="-277.6409" y2="447.0974" gradientTransform="matrix(-1.244457e-007 -2.0792 2.847 -9.088296e-008 -1239.8032 -559.4164)">
		<stop  offset="0" style="stop-color:#A8A89E"/>
		<stop  offset="1" style="stop-color:#FFFFFF"/>
	</linearGradient>
	<rect x="31.152" y="17.843" fill="url(#SVGID_2_)" width="3.853" height="2.079"/>
	
		<linearGradient id="SVGID_3_" gradientUnits="userSpaceOnUse" x1="-278.6409" y1="447.0974" x2="-277.6409" y2="447.0974" gradientTransform="matrix(-1.244457e-007 -2.0792 2.847 -9.088296e-008 -1232.6821 -559.4164)">
		<stop  offset="0" style="stop-color:#A8A89E"/>
		<stop  offset="1" style="stop-color:#FFFFFF"/>
	</linearGradient>
	<rect x="38.562" y="17.843" fill="url(#SVGID_3_)" width="3.27" height="2.079"/>
	<path d="M37.972,83.885h3.767c0.841,0,1.522,0.498,1.522,1.112v2.751c0,0.614-0.682,1.112-1.522,1.112h-3.767
		c-0.842,0-1.523-0.498-1.523-1.112v-2.751C36.449,84.383,37.131,83.885,37.972,83.885z"/>
	<polygon fill="#8C8C8C" points="16.995,78.456 17.038,82.9 15.454,82.912 15.411,78.468 	"/>
	<polygon points="17.092,79.299 17.115,81.827 15.355,81.84 15.332,79.311 	"/>
	<rect x="18.139" y="78.725" fill="#999999" width="1.507" height="4.037"/>
	<rect x="18.002" y="79.455" width="1.759" height="2.32"/>
	<ellipse fill="#FFFFFF" cx="16.902" cy="85.867" rx="0.1" ry="1.17"/>
	<ellipse fill="#FFFFFF" cx="17.503" cy="86.233" rx="0.101" ry="0.805"/>
	<path d="M24.346,83.885h3.768c0.841,0,1.522,0.498,1.522,1.112v2.751c0,0.614-0.682,1.112-1.522,1.112h-3.768
		c-0.841,0-1.522-0.498-1.522-1.112v-2.751C22.824,84.383,23.506,83.885,24.346,83.885z"/>
	<path d="M31.159,83.885h3.768c0.841,0,1.522,0.498,1.522,1.112v2.751c0,0.614-0.682,1.112-1.522,1.112h-3.768
		c-0.841,0-1.522-0.498-1.522-1.112v-2.751C29.636,84.383,30.318,83.885,31.159,83.885z"/>
	<rect x="38.21" y="85.682" fill="#8C8C8C" width="3.217" height="15.511"/>
	<rect x="31.475" y="85.682" fill="#8C8C8C" width="3.217" height="15.511"/>
	<rect x="24.636" y="85.682" fill="#8C8C8C" width="3.218" height="15.511"/>
</g>
</svg>
