G04 MADE WITH FRITZING*
G04 WWW.FRITZING.ORG*
G04 DOUBLE SIDED*
G04 HOLES PLATED*
G04 CONTOUR ON CENTER OF CONTOUR VECTOR*
%ASAXBY*%
%FSLAX23Y23*%
%MOIN*%
%OFA0B0*%
%SFA1.0B1.0*%
%ADD10R,3.543310X2.125980X3.527310X2.109980*%
%ADD11C,0.008000*%
%ADD12R,0.001000X0.001000*%
%LNSILK0*%
G90*
G70*
G54D11*
X4Y2122D02*
X3539Y2122D01*
X3539Y4D01*
X4Y4D01*
X4Y2122D01*
D02*
G54D12*
X179Y1926D02*
X212Y1926D01*
X179Y1925D02*
X213Y1925D01*
X179Y1924D02*
X213Y1924D01*
X179Y1923D02*
X212Y1923D01*
X179Y1922D02*
X187Y1922D01*
X179Y1921D02*
X188Y1921D01*
X180Y1920D02*
X191Y1920D01*
X182Y1919D02*
X193Y1919D01*
X185Y1918D02*
X195Y1918D01*
X187Y1917D02*
X197Y1917D01*
X189Y1916D02*
X200Y1916D01*
X192Y1915D02*
X202Y1915D01*
X194Y1914D02*
X204Y1914D01*
X196Y1913D02*
X207Y1913D01*
X198Y1912D02*
X209Y1912D01*
X201Y1911D02*
X211Y1911D01*
X203Y1910D02*
X213Y1910D01*
X205Y1909D02*
X213Y1909D01*
X179Y1908D02*
X213Y1908D01*
X179Y1907D02*
X213Y1907D01*
X179Y1906D02*
X213Y1906D01*
X179Y1905D02*
X213Y1905D01*
X179Y1893D02*
X182Y1893D01*
X210Y1893D02*
X212Y1893D01*
X179Y1892D02*
X182Y1892D01*
X209Y1892D02*
X213Y1892D01*
X179Y1891D02*
X182Y1891D01*
X209Y1891D02*
X213Y1891D01*
X179Y1890D02*
X182Y1890D01*
X209Y1890D02*
X213Y1890D01*
X179Y1889D02*
X182Y1889D01*
X209Y1889D02*
X213Y1889D01*
X179Y1888D02*
X182Y1888D01*
X209Y1888D02*
X213Y1888D01*
X179Y1887D02*
X182Y1887D01*
X209Y1887D02*
X213Y1887D01*
X179Y1886D02*
X182Y1886D01*
X209Y1886D02*
X213Y1886D01*
X179Y1885D02*
X182Y1885D01*
X209Y1885D02*
X213Y1885D01*
X179Y1884D02*
X182Y1884D01*
X194Y1884D02*
X197Y1884D01*
X209Y1884D02*
X213Y1884D01*
X179Y1883D02*
X182Y1883D01*
X194Y1883D02*
X197Y1883D01*
X209Y1883D02*
X213Y1883D01*
X179Y1882D02*
X182Y1882D01*
X194Y1882D02*
X198Y1882D01*
X209Y1882D02*
X213Y1882D01*
X179Y1881D02*
X182Y1881D01*
X194Y1881D02*
X198Y1881D01*
X209Y1881D02*
X213Y1881D01*
X179Y1880D02*
X182Y1880D01*
X194Y1880D02*
X198Y1880D01*
X209Y1880D02*
X213Y1880D01*
X179Y1879D02*
X182Y1879D01*
X194Y1879D02*
X198Y1879D01*
X209Y1879D02*
X213Y1879D01*
X179Y1878D02*
X182Y1878D01*
X194Y1878D02*
X198Y1878D01*
X209Y1878D02*
X213Y1878D01*
X179Y1877D02*
X182Y1877D01*
X194Y1877D02*
X198Y1877D01*
X209Y1877D02*
X213Y1877D01*
X179Y1876D02*
X213Y1876D01*
X179Y1875D02*
X213Y1875D01*
X179Y1874D02*
X213Y1874D01*
X179Y1873D02*
X213Y1873D01*
X179Y1872D02*
X213Y1872D01*
X180Y1828D02*
X181Y1828D01*
X210Y1828D02*
X212Y1828D01*
X179Y1827D02*
X182Y1827D01*
X209Y1827D02*
X213Y1827D01*
X179Y1826D02*
X182Y1826D01*
X209Y1826D02*
X213Y1826D01*
X120Y1825D02*
X134Y1825D01*
X148Y1825D02*
X150Y1825D01*
X179Y1825D02*
X182Y1825D01*
X209Y1825D02*
X213Y1825D01*
X119Y1824D02*
X135Y1824D01*
X147Y1824D02*
X151Y1824D01*
X179Y1824D02*
X182Y1824D01*
X209Y1824D02*
X213Y1824D01*
X118Y1823D02*
X135Y1823D01*
X147Y1823D02*
X151Y1823D01*
X179Y1823D02*
X182Y1823D01*
X209Y1823D02*
X213Y1823D01*
X118Y1822D02*
X136Y1822D01*
X147Y1822D02*
X151Y1822D01*
X179Y1822D02*
X182Y1822D01*
X209Y1822D02*
X213Y1822D01*
X118Y1821D02*
X121Y1821D01*
X132Y1821D02*
X136Y1821D01*
X147Y1821D02*
X151Y1821D01*
X179Y1821D02*
X182Y1821D01*
X209Y1821D02*
X213Y1821D01*
X118Y1820D02*
X121Y1820D01*
X132Y1820D02*
X136Y1820D01*
X147Y1820D02*
X151Y1820D01*
X179Y1820D02*
X182Y1820D01*
X209Y1820D02*
X213Y1820D01*
X118Y1819D02*
X121Y1819D01*
X132Y1819D02*
X136Y1819D01*
X147Y1819D02*
X151Y1819D01*
X179Y1819D02*
X182Y1819D01*
X209Y1819D02*
X213Y1819D01*
X118Y1818D02*
X121Y1818D01*
X132Y1818D02*
X136Y1818D01*
X147Y1818D02*
X151Y1818D01*
X179Y1818D02*
X182Y1818D01*
X209Y1818D02*
X213Y1818D01*
X118Y1817D02*
X121Y1817D01*
X132Y1817D02*
X136Y1817D01*
X147Y1817D02*
X151Y1817D01*
X179Y1817D02*
X183Y1817D01*
X209Y1817D02*
X213Y1817D01*
X118Y1816D02*
X121Y1816D01*
X132Y1816D02*
X136Y1816D01*
X147Y1816D02*
X151Y1816D01*
X179Y1816D02*
X183Y1816D01*
X208Y1816D02*
X212Y1816D01*
X118Y1815D02*
X121Y1815D01*
X132Y1815D02*
X136Y1815D01*
X147Y1815D02*
X151Y1815D01*
X179Y1815D02*
X185Y1815D01*
X206Y1815D02*
X212Y1815D01*
X118Y1814D02*
X121Y1814D01*
X132Y1814D02*
X136Y1814D01*
X147Y1814D02*
X151Y1814D01*
X180Y1814D02*
X187Y1814D01*
X204Y1814D02*
X212Y1814D01*
X118Y1813D02*
X121Y1813D01*
X132Y1813D02*
X136Y1813D01*
X147Y1813D02*
X151Y1813D01*
X181Y1813D02*
X189Y1813D01*
X202Y1813D02*
X211Y1813D01*
X118Y1812D02*
X121Y1812D01*
X132Y1812D02*
X151Y1812D01*
X182Y1812D02*
X191Y1812D01*
X200Y1812D02*
X209Y1812D01*
X118Y1811D02*
X121Y1811D01*
X132Y1811D02*
X151Y1811D01*
X184Y1811D02*
X194Y1811D01*
X198Y1811D02*
X207Y1811D01*
X118Y1810D02*
X121Y1810D01*
X132Y1810D02*
X151Y1810D01*
X186Y1810D02*
X205Y1810D01*
X118Y1809D02*
X122Y1809D01*
X132Y1809D02*
X151Y1809D01*
X188Y1809D02*
X203Y1809D01*
X118Y1808D02*
X122Y1808D01*
X190Y1808D02*
X201Y1808D01*
X119Y1807D02*
X123Y1807D01*
X192Y1807D02*
X199Y1807D01*
X119Y1806D02*
X123Y1806D01*
X120Y1805D02*
X123Y1805D01*
X179Y1795D02*
X182Y1795D01*
X210Y1795D02*
X212Y1795D01*
X121Y1794D02*
X148Y1794D01*
X179Y1794D02*
X182Y1794D01*
X209Y1794D02*
X213Y1794D01*
X119Y1793D02*
X149Y1793D01*
X179Y1793D02*
X182Y1793D01*
X209Y1793D02*
X213Y1793D01*
X118Y1792D02*
X150Y1792D01*
X179Y1792D02*
X182Y1792D01*
X209Y1792D02*
X213Y1792D01*
X118Y1791D02*
X151Y1791D01*
X179Y1791D02*
X182Y1791D01*
X209Y1791D02*
X213Y1791D01*
X118Y1790D02*
X151Y1790D01*
X179Y1790D02*
X182Y1790D01*
X209Y1790D02*
X213Y1790D01*
X118Y1789D02*
X121Y1789D01*
X147Y1789D02*
X151Y1789D01*
X179Y1789D02*
X182Y1789D01*
X209Y1789D02*
X213Y1789D01*
X118Y1788D02*
X121Y1788D01*
X147Y1788D02*
X151Y1788D01*
X179Y1788D02*
X182Y1788D01*
X209Y1788D02*
X213Y1788D01*
X118Y1787D02*
X121Y1787D01*
X147Y1787D02*
X151Y1787D01*
X179Y1787D02*
X182Y1787D01*
X209Y1787D02*
X213Y1787D01*
X118Y1786D02*
X121Y1786D01*
X147Y1786D02*
X151Y1786D01*
X179Y1786D02*
X182Y1786D01*
X209Y1786D02*
X213Y1786D01*
X118Y1785D02*
X121Y1785D01*
X147Y1785D02*
X151Y1785D01*
X179Y1785D02*
X182Y1785D01*
X209Y1785D02*
X213Y1785D01*
X118Y1784D02*
X121Y1784D01*
X147Y1784D02*
X151Y1784D01*
X179Y1784D02*
X183Y1784D01*
X209Y1784D02*
X213Y1784D01*
X118Y1783D02*
X121Y1783D01*
X147Y1783D02*
X151Y1783D01*
X179Y1783D02*
X184Y1783D01*
X207Y1783D02*
X212Y1783D01*
X118Y1782D02*
X121Y1782D01*
X147Y1782D02*
X151Y1782D01*
X180Y1782D02*
X186Y1782D01*
X205Y1782D02*
X212Y1782D01*
X118Y1781D02*
X121Y1781D01*
X147Y1781D02*
X151Y1781D01*
X180Y1781D02*
X188Y1781D01*
X203Y1781D02*
X211Y1781D01*
X118Y1780D02*
X121Y1780D01*
X147Y1780D02*
X151Y1780D01*
X181Y1780D02*
X190Y1780D01*
X202Y1780D02*
X210Y1780D01*
X118Y1779D02*
X121Y1779D01*
X147Y1779D02*
X151Y1779D01*
X183Y1779D02*
X192Y1779D01*
X200Y1779D02*
X209Y1779D01*
X118Y1778D02*
X121Y1778D01*
X147Y1778D02*
X151Y1778D01*
X185Y1778D02*
X207Y1778D01*
X118Y1777D02*
X121Y1777D01*
X147Y1777D02*
X151Y1777D01*
X187Y1777D02*
X205Y1777D01*
X118Y1776D02*
X151Y1776D01*
X189Y1776D02*
X203Y1776D01*
X118Y1775D02*
X150Y1775D01*
X191Y1775D02*
X201Y1775D01*
X119Y1774D02*
X150Y1774D01*
X193Y1774D02*
X198Y1774D01*
X120Y1773D02*
X148Y1773D01*
X203Y1763D02*
X211Y1763D01*
X118Y1762D02*
X120Y1762D01*
X148Y1762D02*
X150Y1762D01*
X200Y1762D02*
X212Y1762D01*
X118Y1761D02*
X121Y1761D01*
X147Y1761D02*
X151Y1761D01*
X198Y1761D02*
X213Y1761D01*
X118Y1760D02*
X121Y1760D01*
X147Y1760D02*
X151Y1760D01*
X195Y1760D02*
X213Y1760D01*
X118Y1759D02*
X121Y1759D01*
X147Y1759D02*
X151Y1759D01*
X193Y1759D02*
X212Y1759D01*
X118Y1758D02*
X121Y1758D01*
X147Y1758D02*
X151Y1758D01*
X190Y1758D02*
X202Y1758D01*
X118Y1757D02*
X121Y1757D01*
X147Y1757D02*
X151Y1757D01*
X187Y1757D02*
X199Y1757D01*
X118Y1756D02*
X121Y1756D01*
X147Y1756D02*
X151Y1756D01*
X185Y1756D02*
X196Y1756D01*
X118Y1755D02*
X121Y1755D01*
X147Y1755D02*
X151Y1755D01*
X182Y1755D02*
X194Y1755D01*
X118Y1754D02*
X121Y1754D01*
X147Y1754D02*
X151Y1754D01*
X180Y1754D02*
X191Y1754D01*
X118Y1753D02*
X121Y1753D01*
X147Y1753D02*
X151Y1753D01*
X179Y1753D02*
X189Y1753D01*
X118Y1752D02*
X121Y1752D01*
X147Y1752D02*
X151Y1752D01*
X179Y1752D02*
X187Y1752D01*
X118Y1751D02*
X122Y1751D01*
X147Y1751D02*
X151Y1751D01*
X179Y1751D02*
X189Y1751D01*
X118Y1750D02*
X123Y1750D01*
X145Y1750D02*
X150Y1750D01*
X180Y1750D02*
X191Y1750D01*
X119Y1749D02*
X125Y1749D01*
X143Y1749D02*
X150Y1749D01*
X182Y1749D02*
X194Y1749D01*
X119Y1748D02*
X127Y1748D01*
X141Y1748D02*
X149Y1748D01*
X185Y1748D02*
X197Y1748D01*
X121Y1747D02*
X129Y1747D01*
X139Y1747D02*
X148Y1747D01*
X187Y1747D02*
X199Y1747D01*
X122Y1746D02*
X131Y1746D01*
X137Y1746D02*
X146Y1746D01*
X190Y1746D02*
X202Y1746D01*
X124Y1745D02*
X144Y1745D01*
X193Y1745D02*
X212Y1745D01*
X126Y1744D02*
X142Y1744D01*
X195Y1744D02*
X213Y1744D01*
X128Y1743D02*
X140Y1743D01*
X198Y1743D02*
X213Y1743D01*
X130Y1742D02*
X138Y1742D01*
X200Y1742D02*
X212Y1742D01*
X203Y1741D02*
X211Y1741D01*
X119Y1731D02*
X149Y1731D01*
X118Y1730D02*
X150Y1730D01*
X118Y1729D02*
X151Y1729D01*
X118Y1728D02*
X150Y1728D01*
X119Y1727D02*
X149Y1727D01*
X132Y1726D02*
X136Y1726D01*
X132Y1725D02*
X136Y1725D01*
X132Y1724D02*
X136Y1724D01*
X132Y1723D02*
X136Y1723D01*
X132Y1722D02*
X136Y1722D01*
X132Y1721D02*
X136Y1721D01*
X132Y1720D02*
X136Y1720D01*
X132Y1719D02*
X136Y1719D01*
X132Y1718D02*
X136Y1718D01*
X132Y1717D02*
X136Y1717D01*
X132Y1716D02*
X136Y1716D01*
X132Y1715D02*
X136Y1715D01*
X132Y1714D02*
X136Y1714D01*
X118Y1713D02*
X150Y1713D01*
X118Y1712D02*
X151Y1712D01*
X118Y1711D02*
X151Y1711D01*
X119Y1710D02*
X150Y1710D01*
X192Y1697D02*
X199Y1697D01*
X190Y1696D02*
X201Y1696D01*
X188Y1695D02*
X203Y1695D01*
X186Y1694D02*
X205Y1694D01*
X184Y1693D02*
X194Y1693D01*
X198Y1693D02*
X207Y1693D01*
X182Y1692D02*
X191Y1692D01*
X200Y1692D02*
X209Y1692D01*
X181Y1691D02*
X189Y1691D01*
X202Y1691D02*
X211Y1691D01*
X180Y1690D02*
X187Y1690D01*
X204Y1690D02*
X211Y1690D01*
X179Y1689D02*
X185Y1689D01*
X206Y1689D02*
X212Y1689D01*
X179Y1688D02*
X184Y1688D01*
X208Y1688D02*
X212Y1688D01*
X179Y1687D02*
X183Y1687D01*
X209Y1687D02*
X213Y1687D01*
X179Y1686D02*
X182Y1686D01*
X209Y1686D02*
X213Y1686D01*
X179Y1685D02*
X182Y1685D01*
X209Y1685D02*
X213Y1685D01*
X179Y1684D02*
X213Y1684D01*
X179Y1683D02*
X213Y1683D01*
X179Y1682D02*
X213Y1682D01*
X179Y1681D02*
X213Y1681D01*
X179Y1680D02*
X213Y1680D01*
X179Y1679D02*
X182Y1679D01*
X209Y1679D02*
X213Y1679D01*
X179Y1678D02*
X182Y1678D01*
X209Y1678D02*
X213Y1678D01*
X179Y1677D02*
X182Y1677D01*
X209Y1677D02*
X213Y1677D01*
X180Y1676D02*
X181Y1676D01*
X210Y1676D02*
X212Y1676D01*
X119Y1668D02*
X127Y1668D01*
X118Y1667D02*
X138Y1667D01*
X118Y1666D02*
X139Y1666D01*
X118Y1665D02*
X140Y1665D01*
X179Y1665D02*
X211Y1665D01*
X119Y1664D02*
X141Y1664D01*
X179Y1664D02*
X212Y1664D01*
X137Y1663D02*
X141Y1663D01*
X179Y1663D02*
X213Y1663D01*
X138Y1662D02*
X141Y1662D01*
X179Y1662D02*
X213Y1662D01*
X138Y1661D02*
X141Y1661D01*
X179Y1661D02*
X212Y1661D01*
X138Y1660D02*
X141Y1660D01*
X179Y1660D02*
X187Y1660D01*
X138Y1659D02*
X141Y1659D01*
X179Y1659D02*
X189Y1659D01*
X138Y1658D02*
X141Y1658D01*
X181Y1658D02*
X192Y1658D01*
X137Y1657D02*
X141Y1657D01*
X183Y1657D02*
X194Y1657D01*
X137Y1656D02*
X141Y1656D01*
X186Y1656D02*
X196Y1656D01*
X136Y1655D02*
X140Y1655D01*
X188Y1655D02*
X198Y1655D01*
X135Y1654D02*
X140Y1654D01*
X190Y1654D02*
X201Y1654D01*
X135Y1653D02*
X139Y1653D01*
X193Y1653D02*
X203Y1653D01*
X134Y1652D02*
X138Y1652D01*
X195Y1652D02*
X205Y1652D01*
X133Y1651D02*
X138Y1651D01*
X197Y1651D02*
X208Y1651D01*
X118Y1650D02*
X150Y1650D01*
X199Y1650D02*
X210Y1650D01*
X118Y1649D02*
X151Y1649D01*
X202Y1649D02*
X212Y1649D01*
X118Y1648D02*
X151Y1648D01*
X204Y1648D02*
X213Y1648D01*
X119Y1647D02*
X150Y1647D01*
X180Y1647D02*
X213Y1647D01*
X179Y1646D02*
X213Y1646D01*
X179Y1645D02*
X213Y1645D01*
X179Y1644D02*
X213Y1644D01*
X180Y1643D02*
X213Y1643D01*
X121Y1636D02*
X124Y1636D01*
X120Y1635D02*
X125Y1635D01*
X119Y1634D02*
X125Y1634D01*
X139Y1634D02*
X141Y1634D01*
X118Y1633D02*
X124Y1633D01*
X138Y1633D02*
X141Y1633D01*
X118Y1632D02*
X122Y1632D01*
X138Y1632D02*
X141Y1632D01*
X183Y1632D02*
X194Y1632D01*
X210Y1632D02*
X212Y1632D01*
X118Y1631D02*
X121Y1631D01*
X138Y1631D02*
X141Y1631D01*
X181Y1631D02*
X194Y1631D01*
X209Y1631D02*
X213Y1631D01*
X118Y1630D02*
X121Y1630D01*
X138Y1630D02*
X141Y1630D01*
X180Y1630D02*
X194Y1630D01*
X209Y1630D02*
X213Y1630D01*
X118Y1629D02*
X121Y1629D01*
X138Y1629D02*
X141Y1629D01*
X180Y1629D02*
X194Y1629D01*
X209Y1629D02*
X213Y1629D01*
X118Y1628D02*
X121Y1628D01*
X138Y1628D02*
X141Y1628D01*
X179Y1628D02*
X194Y1628D01*
X209Y1628D02*
X213Y1628D01*
X118Y1627D02*
X121Y1627D01*
X138Y1627D02*
X141Y1627D01*
X179Y1627D02*
X183Y1627D01*
X190Y1627D02*
X194Y1627D01*
X209Y1627D02*
X213Y1627D01*
X118Y1626D02*
X121Y1626D01*
X138Y1626D02*
X141Y1626D01*
X179Y1626D02*
X182Y1626D01*
X190Y1626D02*
X194Y1626D01*
X209Y1626D02*
X213Y1626D01*
X118Y1625D02*
X121Y1625D01*
X138Y1625D02*
X141Y1625D01*
X179Y1625D02*
X182Y1625D01*
X190Y1625D02*
X194Y1625D01*
X209Y1625D02*
X213Y1625D01*
X118Y1624D02*
X122Y1624D01*
X138Y1624D02*
X142Y1624D01*
X179Y1624D02*
X182Y1624D01*
X190Y1624D02*
X194Y1624D01*
X209Y1624D02*
X213Y1624D01*
X118Y1623D02*
X148Y1623D01*
X179Y1623D02*
X182Y1623D01*
X190Y1623D02*
X194Y1623D01*
X209Y1623D02*
X213Y1623D01*
X119Y1622D02*
X149Y1622D01*
X179Y1622D02*
X182Y1622D01*
X191Y1622D02*
X193Y1622D01*
X209Y1622D02*
X213Y1622D01*
X120Y1621D02*
X149Y1621D01*
X179Y1621D02*
X182Y1621D01*
X207Y1621D02*
X212Y1621D01*
X122Y1620D02*
X148Y1620D01*
X179Y1620D02*
X182Y1620D01*
X206Y1620D02*
X212Y1620D01*
X138Y1619D02*
X142Y1619D01*
X179Y1619D02*
X182Y1619D01*
X205Y1619D02*
X211Y1619D01*
X138Y1618D02*
X141Y1618D01*
X179Y1618D02*
X182Y1618D01*
X204Y1618D02*
X210Y1618D01*
X138Y1617D02*
X141Y1617D01*
X179Y1617D02*
X182Y1617D01*
X202Y1617D02*
X209Y1617D01*
X138Y1616D02*
X141Y1616D01*
X179Y1616D02*
X182Y1616D01*
X201Y1616D02*
X207Y1616D01*
X179Y1615D02*
X183Y1615D01*
X199Y1615D02*
X206Y1615D01*
X179Y1614D02*
X205Y1614D01*
X180Y1613D02*
X204Y1613D01*
X181Y1612D02*
X202Y1612D01*
X182Y1611D02*
X201Y1611D01*
X124Y1605D02*
X136Y1605D01*
X122Y1604D02*
X137Y1604D01*
X121Y1603D02*
X139Y1603D01*
X120Y1602D02*
X139Y1602D01*
X119Y1601D02*
X140Y1601D01*
X118Y1600D02*
X123Y1600D01*
X136Y1600D02*
X141Y1600D01*
X118Y1599D02*
X122Y1599D01*
X137Y1599D02*
X141Y1599D01*
X118Y1598D02*
X121Y1598D01*
X138Y1598D02*
X141Y1598D01*
X118Y1597D02*
X121Y1597D01*
X138Y1597D02*
X141Y1597D01*
X118Y1596D02*
X121Y1596D01*
X138Y1596D02*
X141Y1596D01*
X118Y1595D02*
X121Y1595D01*
X138Y1595D02*
X141Y1595D01*
X118Y1594D02*
X121Y1594D01*
X138Y1594D02*
X141Y1594D01*
X118Y1593D02*
X121Y1593D01*
X138Y1593D02*
X141Y1593D01*
X118Y1592D02*
X121Y1592D01*
X138Y1592D02*
X141Y1592D01*
X118Y1591D02*
X121Y1591D01*
X138Y1591D02*
X141Y1591D01*
X118Y1590D02*
X122Y1590D01*
X137Y1590D02*
X141Y1590D01*
X118Y1589D02*
X123Y1589D01*
X136Y1589D02*
X141Y1589D01*
X119Y1588D02*
X125Y1588D01*
X134Y1588D02*
X140Y1588D01*
X120Y1587D02*
X139Y1587D01*
X120Y1586D02*
X139Y1586D01*
X121Y1585D02*
X137Y1585D01*
X123Y1584D02*
X136Y1584D01*
X122Y1573D02*
X137Y1573D01*
X121Y1572D02*
X138Y1572D01*
X120Y1571D02*
X139Y1571D01*
X119Y1570D02*
X140Y1570D01*
X119Y1569D02*
X123Y1569D01*
X136Y1569D02*
X141Y1569D01*
X118Y1568D02*
X122Y1568D01*
X137Y1568D02*
X141Y1568D01*
X118Y1567D02*
X122Y1567D01*
X138Y1567D02*
X141Y1567D01*
X118Y1566D02*
X121Y1566D01*
X138Y1566D02*
X141Y1566D01*
X179Y1566D02*
X182Y1566D01*
X209Y1566D02*
X212Y1566D01*
X118Y1565D02*
X121Y1565D01*
X138Y1565D02*
X141Y1565D01*
X179Y1565D02*
X184Y1565D01*
X207Y1565D02*
X213Y1565D01*
X118Y1564D02*
X121Y1564D01*
X138Y1564D02*
X141Y1564D01*
X179Y1564D02*
X186Y1564D01*
X206Y1564D02*
X213Y1564D01*
X118Y1563D02*
X121Y1563D01*
X138Y1563D02*
X141Y1563D01*
X180Y1563D02*
X187Y1563D01*
X204Y1563D02*
X212Y1563D01*
X118Y1562D02*
X121Y1562D01*
X138Y1562D02*
X141Y1562D01*
X181Y1562D02*
X189Y1562D01*
X202Y1562D02*
X210Y1562D01*
X118Y1561D02*
X121Y1561D01*
X138Y1561D02*
X141Y1561D01*
X183Y1561D02*
X191Y1561D01*
X201Y1561D02*
X209Y1561D01*
X118Y1560D02*
X121Y1560D01*
X138Y1560D02*
X141Y1560D01*
X185Y1560D02*
X193Y1560D01*
X199Y1560D02*
X207Y1560D01*
X118Y1559D02*
X121Y1559D01*
X138Y1559D02*
X141Y1559D01*
X186Y1559D02*
X194Y1559D01*
X197Y1559D02*
X205Y1559D01*
X118Y1558D02*
X122Y1558D01*
X137Y1558D02*
X141Y1558D01*
X188Y1558D02*
X203Y1558D01*
X119Y1557D02*
X123Y1557D01*
X136Y1557D02*
X141Y1557D01*
X190Y1557D02*
X202Y1557D01*
X119Y1556D02*
X140Y1556D01*
X191Y1556D02*
X200Y1556D01*
X120Y1555D02*
X139Y1555D01*
X190Y1555D02*
X201Y1555D01*
X121Y1554D02*
X138Y1554D01*
X189Y1554D02*
X203Y1554D01*
X122Y1553D02*
X137Y1553D01*
X187Y1553D02*
X195Y1553D01*
X197Y1553D02*
X205Y1553D01*
X185Y1552D02*
X193Y1552D01*
X198Y1552D02*
X206Y1552D01*
X183Y1551D02*
X191Y1551D01*
X200Y1551D02*
X208Y1551D01*
X182Y1550D02*
X190Y1550D01*
X202Y1550D02*
X210Y1550D01*
X180Y1549D02*
X188Y1549D01*
X203Y1549D02*
X211Y1549D01*
X179Y1548D02*
X186Y1548D01*
X205Y1548D02*
X212Y1548D01*
X179Y1547D02*
X185Y1547D01*
X207Y1547D02*
X213Y1547D01*
X179Y1546D02*
X183Y1546D01*
X209Y1546D02*
X213Y1546D01*
X180Y1545D02*
X181Y1545D01*
X210Y1545D02*
X212Y1545D01*
X122Y1542D02*
X124Y1542D01*
X120Y1541D02*
X125Y1541D01*
X119Y1540D02*
X125Y1540D01*
X140Y1540D02*
X140Y1540D01*
X119Y1539D02*
X124Y1539D01*
X138Y1539D02*
X141Y1539D01*
X118Y1538D02*
X123Y1538D01*
X138Y1538D02*
X141Y1538D01*
X118Y1537D02*
X121Y1537D01*
X138Y1537D02*
X141Y1537D01*
X118Y1536D02*
X121Y1536D01*
X138Y1536D02*
X141Y1536D01*
X118Y1535D02*
X121Y1535D01*
X138Y1535D02*
X141Y1535D01*
X118Y1534D02*
X121Y1534D01*
X138Y1534D02*
X141Y1534D01*
X207Y1534D02*
X213Y1534D01*
X118Y1533D02*
X121Y1533D01*
X138Y1533D02*
X141Y1533D01*
X206Y1533D02*
X213Y1533D01*
X118Y1532D02*
X121Y1532D01*
X138Y1532D02*
X141Y1532D01*
X205Y1532D02*
X213Y1532D01*
X118Y1531D02*
X121Y1531D01*
X138Y1531D02*
X141Y1531D01*
X206Y1531D02*
X213Y1531D01*
X118Y1530D02*
X122Y1530D01*
X138Y1530D02*
X141Y1530D01*
X207Y1530D02*
X213Y1530D01*
X118Y1529D02*
X148Y1529D01*
X209Y1529D02*
X213Y1529D01*
X119Y1528D02*
X149Y1528D01*
X209Y1528D02*
X213Y1528D01*
X120Y1527D02*
X149Y1527D01*
X209Y1527D02*
X213Y1527D01*
X121Y1526D02*
X149Y1526D01*
X209Y1526D02*
X213Y1526D01*
X124Y1525D02*
X147Y1525D01*
X180Y1525D02*
X213Y1525D01*
X138Y1524D02*
X141Y1524D01*
X179Y1524D02*
X213Y1524D01*
X138Y1523D02*
X141Y1523D01*
X179Y1523D02*
X213Y1523D01*
X138Y1522D02*
X141Y1522D01*
X179Y1522D02*
X213Y1522D01*
X139Y1521D02*
X140Y1521D01*
X180Y1521D02*
X213Y1521D01*
X209Y1520D02*
X213Y1520D01*
X209Y1519D02*
X213Y1519D01*
X209Y1518D02*
X213Y1518D01*
X209Y1517D02*
X213Y1517D01*
X206Y1516D02*
X213Y1516D01*
X206Y1515D02*
X213Y1515D01*
X205Y1514D02*
X213Y1514D01*
X206Y1513D02*
X213Y1513D01*
X208Y1512D02*
X212Y1512D01*
X118Y1510D02*
X121Y1510D01*
X127Y1510D02*
X137Y1510D01*
X118Y1509D02*
X121Y1509D01*
X127Y1509D02*
X138Y1509D01*
X118Y1508D02*
X121Y1508D01*
X127Y1508D02*
X139Y1508D01*
X118Y1507D02*
X121Y1507D01*
X127Y1507D02*
X140Y1507D01*
X118Y1506D02*
X121Y1506D01*
X127Y1506D02*
X130Y1506D01*
X136Y1506D02*
X141Y1506D01*
X118Y1505D02*
X121Y1505D01*
X127Y1505D02*
X130Y1505D01*
X137Y1505D02*
X141Y1505D01*
X118Y1504D02*
X121Y1504D01*
X127Y1504D02*
X130Y1504D01*
X138Y1504D02*
X141Y1504D01*
X118Y1503D02*
X121Y1503D01*
X127Y1503D02*
X130Y1503D01*
X138Y1503D02*
X141Y1503D01*
X118Y1502D02*
X121Y1502D01*
X127Y1502D02*
X130Y1502D01*
X138Y1502D02*
X141Y1502D01*
X118Y1501D02*
X121Y1501D01*
X127Y1501D02*
X130Y1501D01*
X138Y1501D02*
X141Y1501D01*
X118Y1500D02*
X121Y1500D01*
X127Y1500D02*
X130Y1500D01*
X138Y1500D02*
X141Y1500D01*
X118Y1499D02*
X121Y1499D01*
X127Y1499D02*
X130Y1499D01*
X138Y1499D02*
X141Y1499D01*
X118Y1498D02*
X121Y1498D01*
X127Y1498D02*
X130Y1498D01*
X138Y1498D02*
X141Y1498D01*
X118Y1497D02*
X121Y1497D01*
X127Y1497D02*
X130Y1497D01*
X138Y1497D02*
X141Y1497D01*
X118Y1496D02*
X121Y1496D01*
X127Y1496D02*
X130Y1496D01*
X138Y1496D02*
X141Y1496D01*
X118Y1495D02*
X122Y1495D01*
X127Y1495D02*
X130Y1495D01*
X137Y1495D02*
X141Y1495D01*
X118Y1494D02*
X123Y1494D01*
X127Y1494D02*
X130Y1494D01*
X136Y1494D02*
X140Y1494D01*
X119Y1493D02*
X140Y1493D01*
X120Y1492D02*
X139Y1492D01*
X121Y1491D02*
X138Y1491D01*
X122Y1490D02*
X137Y1490D01*
X119Y1479D02*
X140Y1479D01*
X118Y1478D02*
X141Y1478D01*
X118Y1477D02*
X141Y1477D01*
X118Y1476D02*
X141Y1476D01*
X120Y1475D02*
X139Y1475D01*
X121Y1474D02*
X125Y1474D01*
X120Y1473D02*
X124Y1473D01*
X119Y1472D02*
X124Y1472D01*
X119Y1471D02*
X123Y1471D01*
X118Y1470D02*
X122Y1470D01*
X118Y1469D02*
X122Y1469D01*
X118Y1468D02*
X121Y1468D01*
X192Y1468D02*
X199Y1468D01*
X118Y1467D02*
X121Y1467D01*
X190Y1467D02*
X202Y1467D01*
X118Y1466D02*
X121Y1466D01*
X188Y1466D02*
X204Y1466D01*
X118Y1465D02*
X121Y1465D01*
X186Y1465D02*
X206Y1465D01*
X118Y1464D02*
X121Y1464D01*
X184Y1464D02*
X193Y1464D01*
X198Y1464D02*
X208Y1464D01*
X118Y1463D02*
X122Y1463D01*
X182Y1463D02*
X191Y1463D01*
X200Y1463D02*
X209Y1463D01*
X118Y1462D02*
X139Y1462D01*
X181Y1462D02*
X189Y1462D01*
X202Y1462D02*
X211Y1462D01*
X119Y1461D02*
X141Y1461D01*
X180Y1461D02*
X187Y1461D01*
X204Y1461D02*
X212Y1461D01*
X120Y1460D02*
X141Y1460D01*
X179Y1460D02*
X185Y1460D01*
X206Y1460D02*
X212Y1460D01*
X121Y1459D02*
X141Y1459D01*
X179Y1459D02*
X183Y1459D01*
X208Y1459D02*
X212Y1459D01*
X129Y1458D02*
X140Y1458D01*
X179Y1458D02*
X182Y1458D01*
X209Y1458D02*
X213Y1458D01*
X179Y1457D02*
X182Y1457D01*
X209Y1457D02*
X213Y1457D01*
X179Y1456D02*
X182Y1456D01*
X209Y1456D02*
X213Y1456D01*
X179Y1455D02*
X213Y1455D01*
X179Y1454D02*
X213Y1454D01*
X179Y1453D02*
X213Y1453D01*
X179Y1452D02*
X213Y1452D01*
X179Y1451D02*
X183Y1451D01*
X209Y1451D02*
X213Y1451D01*
X179Y1450D02*
X182Y1450D01*
X209Y1450D02*
X213Y1450D01*
X179Y1449D02*
X182Y1449D01*
X209Y1449D02*
X213Y1449D01*
X179Y1448D02*
X182Y1448D01*
X209Y1448D02*
X213Y1448D01*
X180Y1447D02*
X181Y1447D01*
X210Y1447D02*
X212Y1447D01*
X118Y1445D02*
X120Y1445D01*
X118Y1444D02*
X121Y1444D01*
X118Y1443D02*
X121Y1443D01*
X118Y1442D02*
X121Y1442D01*
X118Y1441D02*
X121Y1441D01*
X118Y1440D02*
X121Y1440D01*
X118Y1439D02*
X149Y1439D01*
X118Y1438D02*
X150Y1438D01*
X118Y1437D02*
X151Y1437D01*
X118Y1436D02*
X151Y1436D01*
X180Y1436D02*
X181Y1436D01*
X203Y1436D02*
X208Y1436D01*
X118Y1435D02*
X151Y1435D01*
X179Y1435D02*
X183Y1435D01*
X201Y1435D02*
X210Y1435D01*
X118Y1434D02*
X121Y1434D01*
X147Y1434D02*
X151Y1434D01*
X179Y1434D02*
X184Y1434D01*
X200Y1434D02*
X211Y1434D01*
X118Y1433D02*
X121Y1433D01*
X147Y1433D02*
X151Y1433D01*
X179Y1433D02*
X186Y1433D01*
X199Y1433D02*
X212Y1433D01*
X118Y1432D02*
X121Y1432D01*
X147Y1432D02*
X151Y1432D01*
X180Y1432D02*
X188Y1432D01*
X198Y1432D02*
X212Y1432D01*
X118Y1431D02*
X121Y1431D01*
X147Y1431D02*
X151Y1431D01*
X182Y1431D02*
X190Y1431D01*
X198Y1431D02*
X202Y1431D01*
X209Y1431D02*
X213Y1431D01*
X118Y1430D02*
X121Y1430D01*
X147Y1430D02*
X151Y1430D01*
X183Y1430D02*
X191Y1430D01*
X198Y1430D02*
X201Y1430D01*
X209Y1430D02*
X213Y1430D01*
X118Y1429D02*
X120Y1429D01*
X148Y1429D02*
X150Y1429D01*
X185Y1429D02*
X193Y1429D01*
X198Y1429D02*
X201Y1429D01*
X209Y1429D02*
X213Y1429D01*
X187Y1428D02*
X195Y1428D01*
X198Y1428D02*
X201Y1428D01*
X209Y1428D02*
X213Y1428D01*
X188Y1427D02*
X201Y1427D01*
X209Y1427D02*
X213Y1427D01*
X190Y1426D02*
X201Y1426D01*
X209Y1426D02*
X213Y1426D01*
X192Y1425D02*
X201Y1425D01*
X209Y1425D02*
X213Y1425D01*
X194Y1424D02*
X201Y1424D01*
X209Y1424D02*
X213Y1424D01*
X195Y1423D02*
X201Y1423D01*
X209Y1423D02*
X213Y1423D01*
X197Y1422D02*
X201Y1422D01*
X209Y1422D02*
X213Y1422D01*
X198Y1421D02*
X201Y1421D01*
X209Y1421D02*
X213Y1421D01*
X198Y1420D02*
X201Y1420D01*
X209Y1420D02*
X213Y1420D01*
X198Y1419D02*
X201Y1419D01*
X209Y1419D02*
X213Y1419D01*
X180Y1418D02*
X213Y1418D01*
X179Y1417D02*
X213Y1417D01*
X124Y1416D02*
X130Y1416D01*
X139Y1416D02*
X145Y1416D01*
X179Y1416D02*
X213Y1416D01*
X122Y1415D02*
X132Y1415D01*
X137Y1415D02*
X147Y1415D01*
X179Y1415D02*
X213Y1415D01*
X120Y1414D02*
X133Y1414D01*
X135Y1414D02*
X148Y1414D01*
X180Y1414D02*
X212Y1414D01*
X120Y1413D02*
X149Y1413D01*
X119Y1412D02*
X125Y1412D01*
X128Y1412D02*
X140Y1412D01*
X143Y1412D02*
X150Y1412D01*
X118Y1411D02*
X123Y1411D01*
X131Y1411D02*
X138Y1411D01*
X146Y1411D02*
X150Y1411D01*
X118Y1410D02*
X122Y1410D01*
X132Y1410D02*
X137Y1410D01*
X147Y1410D02*
X150Y1410D01*
X118Y1409D02*
X121Y1409D01*
X132Y1409D02*
X136Y1409D01*
X147Y1409D02*
X151Y1409D01*
X118Y1408D02*
X121Y1408D01*
X132Y1408D02*
X136Y1408D01*
X147Y1408D02*
X151Y1408D01*
X118Y1407D02*
X121Y1407D01*
X132Y1407D02*
X136Y1407D01*
X147Y1407D02*
X151Y1407D01*
X118Y1406D02*
X121Y1406D01*
X132Y1406D02*
X136Y1406D01*
X147Y1406D02*
X151Y1406D01*
X118Y1405D02*
X121Y1405D01*
X132Y1405D02*
X136Y1405D01*
X147Y1405D02*
X151Y1405D01*
X118Y1404D02*
X121Y1404D01*
X132Y1404D02*
X136Y1404D01*
X147Y1404D02*
X151Y1404D01*
X118Y1403D02*
X121Y1403D01*
X132Y1403D02*
X136Y1403D01*
X147Y1403D02*
X151Y1403D01*
X118Y1402D02*
X121Y1402D01*
X132Y1402D02*
X136Y1402D01*
X147Y1402D02*
X151Y1402D01*
X118Y1401D02*
X121Y1401D01*
X132Y1401D02*
X136Y1401D01*
X147Y1401D02*
X151Y1401D01*
X118Y1400D02*
X121Y1400D01*
X132Y1400D02*
X136Y1400D01*
X147Y1400D02*
X151Y1400D01*
X118Y1399D02*
X151Y1399D01*
X118Y1398D02*
X151Y1398D01*
X118Y1397D02*
X151Y1397D01*
X118Y1396D02*
X151Y1396D01*
X118Y1395D02*
X151Y1395D01*
X206Y1370D02*
X213Y1370D01*
X205Y1369D02*
X213Y1369D01*
X206Y1368D02*
X213Y1368D01*
X206Y1367D02*
X213Y1367D01*
X209Y1366D02*
X213Y1366D01*
X209Y1365D02*
X213Y1365D01*
X209Y1364D02*
X213Y1364D01*
X209Y1363D02*
X213Y1363D01*
X209Y1362D02*
X213Y1362D01*
X179Y1361D02*
X213Y1361D01*
X179Y1360D02*
X213Y1360D01*
X179Y1359D02*
X213Y1359D01*
X180Y1358D02*
X213Y1358D01*
X209Y1357D02*
X213Y1357D01*
X209Y1356D02*
X213Y1356D01*
X209Y1355D02*
X213Y1355D01*
X209Y1354D02*
X213Y1354D01*
X207Y1353D02*
X213Y1353D01*
X206Y1352D02*
X213Y1352D01*
X205Y1351D02*
X213Y1351D01*
X206Y1350D02*
X213Y1350D01*
X206Y1349D02*
X213Y1349D01*
X183Y1338D02*
X184Y1338D01*
X207Y1338D02*
X208Y1338D01*
X181Y1337D02*
X186Y1337D01*
X206Y1337D02*
X210Y1337D01*
X180Y1336D02*
X187Y1336D01*
X205Y1336D02*
X211Y1336D01*
X179Y1335D02*
X189Y1335D01*
X206Y1335D02*
X212Y1335D01*
X179Y1334D02*
X190Y1334D01*
X207Y1334D02*
X212Y1334D01*
X179Y1333D02*
X182Y1333D01*
X185Y1333D02*
X191Y1333D01*
X209Y1333D02*
X213Y1333D01*
X179Y1332D02*
X182Y1332D01*
X186Y1332D02*
X192Y1332D01*
X209Y1332D02*
X213Y1332D01*
X179Y1331D02*
X182Y1331D01*
X187Y1331D02*
X194Y1331D01*
X209Y1331D02*
X213Y1331D01*
X179Y1330D02*
X182Y1330D01*
X189Y1330D02*
X195Y1330D01*
X209Y1330D02*
X213Y1330D01*
X179Y1329D02*
X182Y1329D01*
X190Y1329D02*
X196Y1329D01*
X209Y1329D02*
X213Y1329D01*
X179Y1328D02*
X182Y1328D01*
X191Y1328D02*
X198Y1328D01*
X209Y1328D02*
X213Y1328D01*
X179Y1327D02*
X182Y1327D01*
X192Y1327D02*
X199Y1327D01*
X209Y1327D02*
X213Y1327D01*
X179Y1326D02*
X182Y1326D01*
X194Y1326D02*
X200Y1326D01*
X209Y1326D02*
X213Y1326D01*
X179Y1325D02*
X182Y1325D01*
X195Y1325D02*
X201Y1325D01*
X209Y1325D02*
X213Y1325D01*
X179Y1324D02*
X182Y1324D01*
X196Y1324D02*
X203Y1324D01*
X209Y1324D02*
X213Y1324D01*
X179Y1323D02*
X182Y1323D01*
X198Y1323D02*
X204Y1323D01*
X209Y1323D02*
X213Y1323D01*
X179Y1322D02*
X182Y1322D01*
X199Y1322D02*
X205Y1322D01*
X209Y1322D02*
X213Y1322D01*
X179Y1321D02*
X183Y1321D01*
X200Y1321D02*
X207Y1321D01*
X209Y1321D02*
X213Y1321D01*
X179Y1320D02*
X185Y1320D01*
X201Y1320D02*
X213Y1320D01*
X180Y1319D02*
X186Y1319D01*
X203Y1319D02*
X212Y1319D01*
X180Y1318D02*
X186Y1318D01*
X204Y1318D02*
X212Y1318D01*
X181Y1317D02*
X186Y1317D01*
X205Y1317D02*
X211Y1317D01*
X183Y1316D02*
X185Y1316D01*
X207Y1316D02*
X209Y1316D01*
D02*
G04 End of Silk0*
M02*