G04 MADE WITH FRITZING*
G04 WWW.FRITZING.ORG*
G04 DOUBLE SIDED*
G04 HOLES PLATED*
G04 CONTOUR ON CENTER OF CONTOUR VECTOR*
%ASAXBY*%
%FSLAX23Y23*%
%MOIN*%
%OFA0B0*%
%SFA1.0B1.0*%
%ADD10C,0.092000*%
%ADD11C,0.135984*%
%ADD12C,0.088740*%
%ADD13C,0.128110*%
%ADD14C,0.085000*%
%ADD15C,0.072992*%
%ADD16C,0.090000*%
%ADD17C,0.049370*%
%ADD18C,0.076929*%
%ADD19C,0.084803*%
%ADD20C,0.080000*%
%ADD21C,0.079000*%
%ADD22C,0.088000*%
%ADD23C,0.080866*%
%ADD24C,0.092677*%
%ADD25C,0.076000*%
%ADD26C,0.120000*%
%ADD27C,0.075000*%
%ADD28R,0.092000X0.092000*%
%ADD29R,0.072992X0.072992*%
%ADD30R,0.085000X0.085000*%
%ADD31R,0.079000X0.079000*%
%ADD32R,0.088000X0.088000*%
%LNMASK1*%
G90*
G70*
G54D10*
X2980Y1006D03*
X2980Y708D03*
G54D11*
X3305Y201D03*
X3305Y1301D03*
G54D12*
X674Y1800D03*
G54D13*
X3106Y1795D03*
G54D11*
X2097Y516D03*
G54D14*
X308Y609D03*
X708Y609D03*
G54D15*
X961Y609D03*
X863Y609D03*
G54D11*
X130Y186D03*
G54D16*
X2208Y1609D03*
X2318Y1609D03*
X2208Y1609D03*
X2318Y1609D03*
G54D14*
X908Y1209D03*
X1308Y1209D03*
G54D17*
X2056Y1251D03*
G54D18*
X2108Y1609D03*
G54D12*
X2908Y1609D03*
G54D19*
X3308Y1609D03*
X3108Y1609D03*
G54D17*
X2808Y1158D03*
X2907Y1338D03*
G54D20*
X1408Y609D03*
X1508Y609D03*
G54D14*
X1508Y1009D03*
X1508Y1309D03*
X1608Y1009D03*
X1608Y1309D03*
X1708Y1009D03*
X1708Y1309D03*
X1808Y1009D03*
X1808Y1309D03*
X1908Y1009D03*
X1908Y1309D03*
X2008Y1009D03*
X2008Y1309D03*
X2108Y1009D03*
X2108Y1309D03*
X2208Y1009D03*
X2208Y1309D03*
X2308Y1009D03*
X2308Y1309D03*
X2408Y1009D03*
X2408Y1309D03*
X2508Y1009D03*
X2508Y1309D03*
X2608Y1009D03*
X2608Y1309D03*
X2708Y1009D03*
X2708Y1309D03*
X2808Y1009D03*
X2808Y1309D03*
X1008Y709D03*
X1408Y709D03*
G54D21*
X2308Y609D03*
X2408Y609D03*
G54D22*
X508Y1009D03*
X508Y909D03*
G54D15*
X3241Y1469D03*
X3143Y1469D03*
G54D16*
X2308Y309D03*
X2308Y419D03*
X2308Y309D03*
X2308Y419D03*
X2408Y309D03*
X2408Y419D03*
X2408Y309D03*
X2408Y419D03*
G54D12*
X2508Y1609D03*
X2608Y1609D03*
X2708Y1609D03*
X1508Y1609D03*
X1608Y1609D03*
X1708Y1609D03*
X1808Y1609D03*
X1908Y1609D03*
X1608Y709D03*
X1708Y709D03*
G54D23*
X2408Y1609D03*
G54D12*
X2808Y1609D03*
X2008Y1609D03*
G54D24*
X1508Y709D03*
X1808Y709D03*
X1908Y709D03*
X2008Y709D03*
X2508Y709D03*
X2608Y709D03*
X2708Y709D03*
X2808Y709D03*
X608Y809D03*
X708Y809D03*
X808Y809D03*
X608Y1109D03*
G54D12*
X708Y1109D03*
X808Y1109D03*
G54D18*
X2708Y309D03*
X2808Y309D03*
X2908Y309D03*
X3008Y309D03*
X3008Y509D03*
X2808Y509D03*
X2708Y509D03*
X2608Y509D03*
G54D17*
X2961Y1245D03*
X808Y1709D03*
X3308Y1709D03*
G54D10*
X1308Y1109D03*
X1010Y1109D03*
G54D25*
X293Y896D03*
X293Y995D03*
X215Y995D03*
X215Y896D03*
G54D26*
X108Y709D03*
X108Y1183D03*
G54D25*
X293Y896D03*
X293Y995D03*
X215Y995D03*
X215Y896D03*
G54D26*
X108Y709D03*
X108Y1183D03*
G54D27*
X3108Y709D03*
X3187Y709D03*
X3266Y709D03*
X3344Y709D03*
G54D14*
X3075Y936D03*
X3075Y1336D03*
G54D12*
X3008Y1409D03*
X3008Y1509D03*
X908Y809D03*
X908Y1109D03*
G54D18*
X2908Y509D03*
G54D24*
X459Y480D03*
X459Y376D03*
X459Y272D03*
X295Y1886D03*
X295Y1777D03*
X295Y1671D03*
X295Y1566D03*
X295Y1456D03*
X295Y1351D03*
X1142Y999D03*
G54D28*
X2980Y1007D03*
G54D29*
X961Y609D03*
G54D30*
X1508Y1009D03*
G54D31*
X2308Y609D03*
G54D32*
X508Y1009D03*
G54D29*
X3241Y1469D03*
G54D28*
X1309Y1109D03*
G04 End of Mask1*
M02*