; NON-PLATED HOLES START AT T1
; THROUGH (PLATED) HOLES START AT T100
M48
INCH
T1C0.118110
T2C0.078740
T3C0.125984
T100C0.027000
T101C0.025000
T102C0.027559
T103C0.042000
T104C0.038000
T105C0.030000
T106C0.031496
T107C0.036000
T108C0.090000
T109C0.031497
T110C0.015748
T111C0.040000
T112C0.035000
T113C0.035433
%
T1
X031055Y017947
T2
X006736Y018000
T3
X020971Y005159
X001304Y001863
X033045Y013011
X033045Y002011
T100
X024082Y006085
X023082Y006085
T101
X031082Y007085
X033444Y007085
X032656Y007085
X031870Y007085
T102
X021082Y016085
X030082Y005085
X029082Y003085
X027082Y005085
X033082Y016085
X028082Y005085
X027082Y003085
X029082Y005085
X026082Y005085
X030082Y003085
X031082Y016085
X028082Y003085
T103
X029804Y010058
X013082Y011085
X010102Y011085
X029804Y007078
T104
X005082Y009085
X005082Y010085
T105
X014082Y006085
X015084Y006085
T106
X029082Y016085
X030082Y014085
X020082Y016085
X016082Y016085
X017082Y016085
X018082Y016085
X027082Y016085
X030082Y015085
X019082Y016085
X025082Y016085
X009082Y008085
X016082Y007085
X007082Y011085
X008082Y011085
X015082Y016085
X026082Y016085
X009082Y011085
X024082Y016085
X028082Y016085
X017082Y007085
T107
X002152Y009947
X002932Y008963
X002932Y009947
X002152Y008963
T108
X001082Y011825
X001082Y007085
T109
X008626Y006085
X032413Y014691
X009611Y006085
X031428Y014691
T110
X029068Y013377
X033082Y017085
X029608Y012445
X008082Y017085
X020564Y012511
X028082Y011577
T111
X024082Y003085
X023082Y003085
X022082Y016085
X023182Y016085
X024082Y004185
X023082Y004185
T112
X020082Y010085
X007082Y006085
X017082Y010085
X015082Y010085
X020082Y013085
X030749Y013363
X003082Y006085
X010082Y007085
X026082Y010085
X023082Y010085
X019082Y013085
X023082Y013085
X017082Y013085
X014082Y007085
X026082Y013085
X019082Y010085
X015082Y013085
X025082Y010085
X016082Y010085
X018082Y013085
X016082Y013085
X022082Y013085
X025082Y013085
X009082Y012085
X028082Y010085
X021082Y013085
X022082Y010085
X024082Y010085
X030749Y009363
X018082Y010085
X024082Y013085
X021082Y010085
X027082Y010085
X028082Y013085
X013082Y012085
X027082Y013085
T113
X004585Y003759
X002952Y016713
X002952Y017765
X027082Y007085
X026082Y007085
X004585Y004799
X002952Y015658
X002952Y018861
X018082Y007085
X028082Y007085
X011419Y009994
X002952Y013510
X015082Y007085
X002952Y014562
X006082Y011085
X007082Y008085
X004585Y002719
X025082Y007085
X019082Y007085
X006082Y008085
X008082Y008085
X020082Y007085
T00
M30
