solid CATIA STL
  facet normal  0.000000e+000  0.000000e+000  1.000000e+000
    outer loop
      vertex  2.150000e+001  2.739843e+001  1.600000e+000
      vertex  1.990000e+001  2.749843e+001  1.600000e+000
      vertex  3.750000e+000  2.749843e+001  1.600000e+000
    endloop
  endfacet
  facet normal  0.000000e+000  -0.000000e+000  1.000000e+000
    outer loop
      vertex -1.990000e+001  8.749843e+001  1.600000e+000
      vertex  1.990000e+001  8.749843e+001  1.600000e+000
      vertex  2.142658e+001  8.786195e+001  1.600000e+000
    endloop
  endfacet
  facet normal  0.000000e+000  0.000000e+000  9.999999e-001
    outer loop
      vertex -1.990000e+001  8.749843e+001  1.600000e+000
      vertex  2.142658e+001  8.786195e+001  1.600000e+000
      vertex -2.142658e+001  8.786195e+001  1.600000e+000
    endloop
  endfacet
  facet normal  0.000000e+000  0.000000e+000  1.000000e+000
    outer loop
      vertex -1.990000e+001  8.749843e+001  1.600000e+000
      vertex -2.142658e+001  8.786195e+001  1.600000e+000
      vertex -2.150000e+001  8.739843e+001  1.600000e+000
    endloop
  endfacet
  facet normal  -0.000000e+000  0.000000e+000  1.000000e+000
    outer loop
      vertex -1.990000e+001  8.749843e+001  1.600000e+000
      vertex -2.150000e+001  8.739843e+001  1.600000e+000
      vertex -2.150000e+001  2.739843e+001  1.600000e+000
    endloop
  endfacet
  facet normal  0.000000e+000  0.000000e+000  1.000000e+000
    outer loop
      vertex -1.990000e+001  8.749843e+001  1.600000e+000
      vertex -2.150000e+001  2.739843e+001  1.600000e+000
      vertex -1.990000e+001  2.749843e+001  1.600000e+000
    endloop
  endfacet
  facet normal  0.000000e+000  0.000000e+000  1.000000e+000
    outer loop
      vertex -3.750000e+000  2.589843e+001  1.600000e+000
      vertex -3.750000e+000  2.749843e+001  1.600000e+000
      vertex -1.990000e+001  2.749843e+001  1.600000e+000
    endloop
  endfacet
  facet normal  0.000000e+000  0.000000e+000  1.000000e+000
    outer loop
      vertex -3.750000e+000  2.589843e+001  1.600000e+000
      vertex -1.990000e+001  2.749843e+001  1.600000e+000
      vertex -2.150000e+001  2.739843e+001  1.600000e+000
    endloop
  endfacet
  facet normal  0.000000e+000  0.000000e+000  1.000000e+000
    outer loop
      vertex -3.750000e+000  2.589843e+001  1.600000e+000
      vertex -2.150000e+001  2.739843e+001  1.600000e+000
      vertex -2.142658e+001  2.693490e+001  1.600000e+000
    endloop
  endfacet
  facet normal  0.000000e+000  0.000000e+000  1.000000e+000
    outer loop
      vertex -3.750000e+000  2.589843e+001  1.600000e+000
      vertex -2.142658e+001  2.693490e+001  1.600000e+000
      vertex -2.121353e+001  2.651675e+001  1.600000e+000
    endloop
  endfacet
  facet normal  0.000000e+000  0.000000e+000  1.000000e+000
    outer loop
      vertex -3.750000e+000  2.589843e+001  1.600000e+000
      vertex -2.121353e+001  2.651675e+001  1.600000e+000
      vertex -2.088168e+001  2.618490e+001  1.600000e+000
    endloop
  endfacet
  facet normal  0.000000e+000  0.000000e+000  9.999999e-001
    outer loop
      vertex -3.750000e+000  2.589843e+001  1.600000e+000
      vertex -2.088168e+001  2.618490e+001  1.600000e+000
      vertex -2.046353e+001  2.597185e+001  1.600000e+000
    endloop
  endfacet
  facet normal  0.000000e+000  0.000000e+000  1.000000e+000
    outer loop
      vertex -3.750000e+000  2.589843e+001  1.600000e+000
      vertex -2.046353e+001  2.597185e+001  1.600000e+000
      vertex -2.000000e+001  2.589843e+001  1.600000e+000
    endloop
  endfacet
  facet normal  0.000000e+000  -0.000000e+000  1.000000e+000
    outer loop
      vertex  3.750000e+000  2.589843e+001  1.600000e+000
      vertex  2.000000e+001  2.589843e+001  1.600000e+000
      vertex  2.046353e+001  2.597185e+001  1.600000e+000
    endloop
  endfacet
  facet normal  0.000000e+000  -0.000000e+000  9.999999e-001
    outer loop
      vertex  3.750000e+000  2.589843e+001  1.600000e+000
      vertex  2.046353e+001  2.597185e+001  1.600000e+000
      vertex  2.088168e+001  2.618490e+001  1.600000e+000
    endloop
  endfacet
  facet normal  0.000000e+000  -0.000000e+000  1.000000e+000
    outer loop
      vertex  3.750000e+000  2.589843e+001  1.600000e+000
      vertex  2.088168e+001  2.618490e+001  1.600000e+000
      vertex  2.121353e+001  2.651675e+001  1.600000e+000
    endloop
  endfacet
  facet normal  0.000000e+000  -0.000000e+000  1.000000e+000
    outer loop
      vertex  3.750000e+000  2.589843e+001  1.600000e+000
      vertex  2.121353e+001  2.651675e+001  1.600000e+000
      vertex  2.142658e+001  2.693490e+001  1.600000e+000
    endloop
  endfacet
  facet normal  0.000000e+000  -0.000000e+000  1.000000e+000
    outer loop
      vertex  3.750000e+000  2.589843e+001  1.600000e+000
      vertex  2.142658e+001  2.693490e+001  1.600000e+000
      vertex  2.150000e+001  2.739843e+001  1.600000e+000
    endloop
  endfacet
  facet normal  0.000000e+000  0.000000e+000  1.000000e+000
    outer loop
      vertex  3.750000e+000  2.589843e+001  1.600000e+000
      vertex  2.150000e+001  2.739843e+001  1.600000e+000
      vertex  3.750000e+000  2.749843e+001  1.600000e+000
    endloop
  endfacet
  facet normal  -0.000000e+000  0.000000e+000  1.000000e+000
    outer loop
      vertex  2.000000e+001  8.889843e+001  1.600000e+000
      vertex -2.000000e+001  8.889843e+001  1.600000e+000
      vertex  2.046353e+001  8.882501e+001  1.600000e+000
    endloop
  endfacet
  facet normal  0.000000e+000  0.000000e+000  1.000000e+000
    outer loop
      vertex  2.046353e+001  8.882501e+001  1.600000e+000
      vertex -2.000000e+001  8.889843e+001  1.600000e+000
      vertex -2.046353e+001  8.882501e+001  1.600000e+000
    endloop
  endfacet
  facet normal  -0.000000e+000  0.000000e+000  1.000000e+000
    outer loop
      vertex  2.046353e+001  8.882501e+001  1.600000e+000
      vertex -2.046353e+001  8.882501e+001  1.600000e+000
      vertex  2.088168e+001  8.861195e+001  1.600000e+000
    endloop
  endfacet
  facet normal  0.000000e+000  0.000000e+000  1.000000e+000
    outer loop
      vertex  2.088168e+001  8.861195e+001  1.600000e+000
      vertex -2.046353e+001  8.882501e+001  1.600000e+000
      vertex -2.088168e+001  8.861195e+001  1.600000e+000
    endloop
  endfacet
  facet normal  -0.000000e+000  0.000000e+000  9.999999e-001
    outer loop
      vertex  2.088168e+001  8.861195e+001  1.600000e+000
      vertex -2.088168e+001  8.861195e+001  1.600000e+000
      vertex  2.121353e+001  8.828011e+001  1.600000e+000
    endloop
  endfacet
  facet normal  0.000000e+000  0.000000e+000  1.000000e+000
    outer loop
      vertex  2.121353e+001  8.828011e+001  1.600000e+000
      vertex -2.088168e+001  8.861195e+001  1.600000e+000
      vertex -2.121353e+001  8.828011e+001  1.600000e+000
    endloop
  endfacet
  facet normal  -0.000000e+000  0.000000e+000  1.000000e+000
    outer loop
      vertex  2.121353e+001  8.828011e+001  1.600000e+000
      vertex -2.121353e+001  8.828011e+001  1.600000e+000
      vertex  2.142658e+001  8.786195e+001  1.600000e+000
    endloop
  endfacet
  facet normal  0.000000e+000  0.000000e+000  1.000000e+000
    outer loop
      vertex  2.142658e+001  8.786195e+001  1.600000e+000
      vertex -2.121353e+001  8.828011e+001  1.600000e+000
      vertex -2.142658e+001  8.786195e+001  1.600000e+000
    endloop
  endfacet
  facet normal  0.000000e+000  0.000000e+000  1.000000e+000
    outer loop
      vertex  1.990000e+001  2.749843e+001  1.600000e+000
      vertex  2.150000e+001  2.739843e+001  1.600000e+000
      vertex  1.990000e+001  8.749843e+001  1.600000e+000
    endloop
  endfacet
  facet normal  0.000000e+000  0.000000e+000  1.000000e+000
    outer loop
      vertex  1.990000e+001  8.749843e+001  1.600000e+000
      vertex  2.150000e+001  2.739843e+001  1.600000e+000
      vertex  2.150000e+001  8.739843e+001  1.600000e+000
    endloop
  endfacet
  facet normal  0.000000e+000  0.000000e+000  1.000000e+000
    outer loop
      vertex  1.990000e+001  8.749843e+001  1.600000e+000
      vertex  2.150000e+001  8.739843e+001  1.600000e+000
      vertex  2.142658e+001  8.786195e+001  1.600000e+000
    endloop
  endfacet
  facet normal  0.000000e+000  0.000000e+000 -1.000000e+000
    outer loop
      vertex  2.150000e+001  8.739843e+001  0.000000e+000
      vertex -2.142658e+001  8.786195e+001  0.000000e+000
      vertex  2.142658e+001  8.786195e+001  0.000000e+000
    endloop
  endfacet
  facet normal  0.000000e+000  0.000000e+000 -1.000000e+000
    outer loop
      vertex  2.142658e+001  8.786195e+001  0.000000e+000
      vertex -2.142658e+001  8.786195e+001  0.000000e+000
      vertex -2.121353e+001  8.828011e+001  0.000000e+000
    endloop
  endfacet
  facet normal  0.000000e+000  0.000000e+000 -1.000000e+000
    outer loop
      vertex  2.142658e+001  8.786195e+001  0.000000e+000
      vertex -2.121353e+001  8.828011e+001  0.000000e+000
      vertex  2.121353e+001  8.828011e+001  0.000000e+000
    endloop
  endfacet
  facet normal  0.000000e+000  0.000000e+000 -1.000000e+000
    outer loop
      vertex  2.121353e+001  8.828011e+001  0.000000e+000
      vertex -2.121353e+001  8.828011e+001  0.000000e+000
      vertex -2.088168e+001  8.861195e+001  0.000000e+000
    endloop
  endfacet
  facet normal  0.000000e+000  0.000000e+000 -9.999999e-001
    outer loop
      vertex  2.121353e+001  8.828011e+001  0.000000e+000
      vertex -2.088168e+001  8.861195e+001  0.000000e+000
      vertex  2.088168e+001  8.861195e+001  0.000000e+000
    endloop
  endfacet
  facet normal  0.000000e+000  0.000000e+000 -1.000000e+000
    outer loop
      vertex  2.088168e+001  8.861195e+001  0.000000e+000
      vertex -2.088168e+001  8.861195e+001  0.000000e+000
      vertex -2.046353e+001  8.882501e+001  0.000000e+000
    endloop
  endfacet
  facet normal  0.000000e+000  0.000000e+000 -1.000000e+000
    outer loop
      vertex  2.088168e+001  8.861195e+001  0.000000e+000
      vertex -2.046353e+001  8.882501e+001  0.000000e+000
      vertex  2.046353e+001  8.882501e+001  0.000000e+000
    endloop
  endfacet
  facet normal  0.000000e+000  0.000000e+000 -1.000000e+000
    outer loop
      vertex  2.046353e+001  8.882501e+001  0.000000e+000
      vertex -2.046353e+001  8.882501e+001  0.000000e+000
      vertex -2.000000e+001  8.889843e+001  0.000000e+000
    endloop
  endfacet
  facet normal  0.000000e+000  0.000000e+000 -1.000000e+000
    outer loop
      vertex  2.046353e+001  8.882501e+001  0.000000e+000
      vertex -2.000000e+001  8.889843e+001  0.000000e+000
      vertex  2.000000e+001  8.889843e+001  0.000000e+000
    endloop
  endfacet
  facet normal  0.000000e+000  0.000000e+000 -1.000000e+000
    outer loop
      vertex -2.142658e+001  8.786195e+001  0.000000e+000
      vertex  2.150000e+001  8.739843e+001  0.000000e+000
      vertex -2.150000e+001  8.739843e+001  0.000000e+000
    endloop
  endfacet
  facet normal  0.000000e+000  0.000000e+000 -1.000000e+000
    outer loop
      vertex -2.150000e+001  8.739843e+001  0.000000e+000
      vertex  2.150000e+001  8.739843e+001  0.000000e+000
      vertex  2.150000e+001  2.739843e+001  0.000000e+000
    endloop
  endfacet
  facet normal  0.000000e+000  0.000000e+000 -1.000000e+000
    outer loop
      vertex -2.150000e+001  8.739843e+001  0.000000e+000
      vertex  2.150000e+001  2.739843e+001  0.000000e+000
      vertex -2.150000e+001  2.739843e+001  0.000000e+000
    endloop
  endfacet
  facet normal  0.000000e+000  0.000000e+000 -1.000000e+000
    outer loop
      vertex -2.150000e+001  2.739843e+001  0.000000e+000
      vertex  2.150000e+001  2.739843e+001  0.000000e+000
      vertex  2.142658e+001  2.693490e+001  0.000000e+000
    endloop
  endfacet
  facet normal  0.000000e+000  0.000000e+000 -1.000000e+000
    outer loop
      vertex -2.150000e+001  2.739843e+001  0.000000e+000
      vertex  2.142658e+001  2.693490e+001  0.000000e+000
      vertex -2.142658e+001  2.693490e+001  0.000000e+000
    endloop
  endfacet
  facet normal  0.000000e+000  0.000000e+000 -1.000000e+000
    outer loop
      vertex -2.142658e+001  2.693490e+001  0.000000e+000
      vertex  2.142658e+001  2.693490e+001  0.000000e+000
      vertex  2.121353e+001  2.651675e+001  0.000000e+000
    endloop
  endfacet
  facet normal  0.000000e+000  0.000000e+000 -1.000000e+000
    outer loop
      vertex -2.142658e+001  2.693490e+001  0.000000e+000
      vertex  2.121353e+001  2.651675e+001  0.000000e+000
      vertex -2.121353e+001  2.651675e+001  0.000000e+000
    endloop
  endfacet
  facet normal  0.000000e+000  0.000000e+000 -1.000000e+000
    outer loop
      vertex -2.121353e+001  2.651675e+001  0.000000e+000
      vertex  2.121353e+001  2.651675e+001  0.000000e+000
      vertex  2.088168e+001  2.618490e+001  0.000000e+000
    endloop
  endfacet
  facet normal  0.000000e+000  0.000000e+000 -9.999999e-001
    outer loop
      vertex -2.121353e+001  2.651675e+001  0.000000e+000
      vertex  2.088168e+001  2.618490e+001  0.000000e+000
      vertex -2.088168e+001  2.618490e+001  0.000000e+000
    endloop
  endfacet
  facet normal  0.000000e+000  0.000000e+000 -1.000000e+000
    outer loop
      vertex -2.088168e+001  2.618490e+001  0.000000e+000
      vertex  2.088168e+001  2.618490e+001  0.000000e+000
      vertex  2.046353e+001  2.597185e+001  0.000000e+000
    endloop
  endfacet
  facet normal  0.000000e+000  0.000000e+000 -1.000000e+000
    outer loop
      vertex -2.088168e+001  2.618490e+001  0.000000e+000
      vertex  2.046353e+001  2.597185e+001  0.000000e+000
      vertex -2.046353e+001  2.597185e+001  0.000000e+000
    endloop
  endfacet
  facet normal  0.000000e+000  0.000000e+000 -1.000000e+000
    outer loop
      vertex -2.046353e+001  2.597185e+001  0.000000e+000
      vertex  2.046353e+001  2.597185e+001  0.000000e+000
      vertex  2.000000e+001  2.589843e+001  0.000000e+000
    endloop
  endfacet
  facet normal  0.000000e+000  0.000000e+000 -9.999999e-001
    outer loop
      vertex -2.046353e+001  2.597185e+001  0.000000e+000
      vertex  2.000000e+001  2.589843e+001  0.000000e+000
      vertex -2.000000e+001  2.589843e+001  0.000000e+000
    endloop
  endfacet
  facet normal  1.000000e+000  0.000000e+000  0.000000e+000
    outer loop
      vertex  2.150000e+001  2.739843e+001  1.600000e+000
      vertex  2.150000e+001  2.739843e+001  0.000000e+000
      vertex  2.150000e+001  8.739843e+001  1.600000e+000
    endloop
  endfacet
  facet normal  1.000000e+000  0.000000e+000  0.000000e+000
    outer loop
      vertex  2.150000e+001  8.739843e+001  1.600000e+000
      vertex  2.150000e+001  2.739843e+001  0.000000e+000
      vertex  2.150000e+001  8.739843e+001  0.000000e+000
    endloop
  endfacet
  facet normal  0.000000e+000  1.000000e+000  0.000000e+000
    outer loop
      vertex -2.000000e+001  8.889843e+001  1.600000e+000
      vertex  2.000000e+001  8.889843e+001  1.600000e+000
      vertex -2.000000e+001  8.889843e+001  0.000000e+000
    endloop
  endfacet
  facet normal  0.000000e+000  1.000000e+000  0.000000e+000
    outer loop
      vertex -2.000000e+001  8.889843e+001  0.000000e+000
      vertex  2.000000e+001  8.889843e+001  1.600000e+000
      vertex  2.000000e+001  8.889843e+001  0.000000e+000
    endloop
  endfacet
  facet normal  1.564394e-001  9.876875e-001  0.000000e+000
    outer loop
      vertex  2.000000e+001  8.889843e+001  0.000000e+000
      vertex  2.000000e+001  8.889843e+001  1.600000e+000
      vertex  2.046353e+001  8.882501e+001  0.000000e+000
    endloop
  endfacet
  facet normal  1.564394e-001  9.876875e-001  -0.000000e+000
    outer loop
      vertex  2.046353e+001  8.882501e+001  0.000000e+000
      vertex  2.000000e+001  8.889843e+001  1.600000e+000
      vertex  2.046353e+001  8.882501e+001  1.600000e+000
    endloop
  endfacet
  facet normal  4.539896e-001  8.910070e-001  0.000000e+000
    outer loop
      vertex  2.046353e+001  8.882501e+001  0.000000e+000
      vertex  2.046353e+001  8.882501e+001  1.600000e+000
      vertex  2.088168e+001  8.861195e+001  0.000000e+000
    endloop
  endfacet
  facet normal  4.539896e-001  8.910070e-001  -0.000000e+000
    outer loop
      vertex  2.088168e+001  8.861195e+001  0.000000e+000
      vertex  2.046353e+001  8.882501e+001  1.600000e+000
      vertex  2.088168e+001  8.861195e+001  1.600000e+000
    endloop
  endfacet
  facet normal  7.071068e-001  7.071068e-001  0.000000e+000
    outer loop
      vertex  2.088168e+001  8.861195e+001  0.000000e+000
      vertex  2.088168e+001  8.861195e+001  1.600000e+000
      vertex  2.121353e+001  8.828011e+001  0.000000e+000
    endloop
  endfacet
  facet normal  7.071068e-001  7.071068e-001  -0.000000e+000
    outer loop
      vertex  2.121353e+001  8.828011e+001  0.000000e+000
      vertex  2.088168e+001  8.861195e+001  1.600000e+000
      vertex  2.121353e+001  8.828011e+001  1.600000e+000
    endloop
  endfacet
  facet normal  8.910070e-001  4.539896e-001  0.000000e+000
    outer loop
      vertex  2.121353e+001  8.828011e+001  0.000000e+000
      vertex  2.121353e+001  8.828011e+001  1.600000e+000
      vertex  2.142658e+001  8.786195e+001  0.000000e+000
    endloop
  endfacet
  facet normal  8.910070e-001  4.539896e-001  -0.000000e+000
    outer loop
      vertex  2.142658e+001  8.786195e+001  0.000000e+000
      vertex  2.121353e+001  8.828011e+001  1.600000e+000
      vertex  2.142658e+001  8.786195e+001  1.600000e+000
    endloop
  endfacet
  facet normal  9.876881e-001  1.564361e-001  0.000000e+000
    outer loop
      vertex  2.142658e+001  8.786195e+001  0.000000e+000
      vertex  2.142658e+001  8.786195e+001  1.600000e+000
      vertex  2.150000e+001  8.739843e+001  0.000000e+000
    endloop
  endfacet
  facet normal  9.876881e-001  1.564361e-001  -0.000000e+000
    outer loop
      vertex  2.150000e+001  8.739843e+001  0.000000e+000
      vertex  2.142658e+001  8.786195e+001  1.600000e+000
      vertex  2.150000e+001  8.739843e+001  1.600000e+000
    endloop
  endfacet
  facet normal  0.000000e+000 -1.000000e+000  0.000000e+000
    outer loop
      vertex -2.000000e+001  2.589843e+001  0.000000e+000
      vertex  2.000000e+001  2.589843e+001  0.000000e+000
      vertex  2.000000e+001  2.589843e+001  1.600000e+000
    endloop
  endfacet
  facet normal  -0.000000e+000 -1.000000e+000  0.000000e+000
    outer loop
      vertex -2.000000e+001  2.589843e+001  0.000000e+000
      vertex  2.000000e+001  2.589843e+001  1.600000e+000
      vertex  3.750000e+000  2.589843e+001  1.600000e+000
    endloop
  endfacet
  facet normal  -0.000000e+000 -1.000000e+000  0.000000e+000
    outer loop
      vertex -2.000000e+001  2.589843e+001  0.000000e+000
      vertex  3.750000e+000  2.589843e+001  1.600000e+000
      vertex -3.750000e+000  2.589843e+001  1.600000e+000
    endloop
  endfacet
  facet normal  -0.000000e+000 -1.000000e+000  0.000000e+000
    outer loop
      vertex -2.000000e+001  2.589843e+001  0.000000e+000
      vertex -3.750000e+000  2.589843e+001  1.600000e+000
      vertex -2.000000e+001  2.589843e+001  1.600000e+000
    endloop
  endfacet
  facet normal  0.000000e+000 -1.000000e+000  0.000000e+000
    outer loop
      vertex -3.750000e+000  2.589843e+001  2.300000e+000
      vertex -3.750000e+000  2.589843e+001  1.600000e+000
      vertex  3.750000e+000  2.589843e+001  2.300000e+000
    endloop
  endfacet
  facet normal  0.000000e+000 -1.000000e+000  -0.000000e+000
    outer loop
      vertex  3.750000e+000  2.589843e+001  2.300000e+000
      vertex -3.750000e+000  2.589843e+001  1.600000e+000
      vertex  3.750000e+000  2.589843e+001  1.600000e+000
    endloop
  endfacet
  facet normal  9.876881e-001 -1.564355e-001  0.000000e+000
    outer loop
      vertex  2.150000e+001  2.739843e+001  0.000000e+000
      vertex  2.150000e+001  2.739843e+001  1.600000e+000
      vertex  2.142658e+001  2.693490e+001  0.000000e+000
    endloop
  endfacet
  facet normal  9.876881e-001 -1.564355e-001  0.000000e+000
    outer loop
      vertex  2.142658e+001  2.693490e+001  0.000000e+000
      vertex  2.150000e+001  2.739843e+001  1.600000e+000
      vertex  2.142658e+001  2.693490e+001  1.600000e+000
    endloop
  endfacet
  facet normal  8.910070e-001 -4.539896e-001  0.000000e+000
    outer loop
      vertex  2.142658e+001  2.693490e+001  0.000000e+000
      vertex  2.142658e+001  2.693490e+001  1.600000e+000
      vertex  2.121353e+001  2.651675e+001  0.000000e+000
    endloop
  endfacet
  facet normal  8.910070e-001 -4.539896e-001  0.000000e+000
    outer loop
      vertex  2.121353e+001  2.651675e+001  0.000000e+000
      vertex  2.142658e+001  2.693490e+001  1.600000e+000
      vertex  2.121353e+001  2.651675e+001  1.600000e+000
    endloop
  endfacet
  facet normal  7.071068e-001 -7.071068e-001  0.000000e+000
    outer loop
      vertex  2.121353e+001  2.651675e+001  0.000000e+000
      vertex  2.121353e+001  2.651675e+001  1.600000e+000
      vertex  2.088168e+001  2.618490e+001  0.000000e+000
    endloop
  endfacet
  facet normal  7.071068e-001 -7.071068e-001  0.000000e+000
    outer loop
      vertex  2.088168e+001  2.618490e+001  0.000000e+000
      vertex  2.121353e+001  2.651675e+001  1.600000e+000
      vertex  2.088168e+001  2.618490e+001  1.600000e+000
    endloop
  endfacet
  facet normal  4.539896e-001 -8.910070e-001  0.000000e+000
    outer loop
      vertex  2.088168e+001  2.618490e+001  0.000000e+000
      vertex  2.088168e+001  2.618490e+001  1.600000e+000
      vertex  2.046353e+001  2.597185e+001  0.000000e+000
    endloop
  endfacet
  facet normal  4.539896e-001 -8.910070e-001  0.000000e+000
    outer loop
      vertex  2.046353e+001  2.597185e+001  0.000000e+000
      vertex  2.088168e+001  2.618490e+001  1.600000e+000
      vertex  2.046353e+001  2.597185e+001  1.600000e+000
    endloop
  endfacet
  facet normal  1.564355e-001 -9.876881e-001  0.000000e+000
    outer loop
      vertex  2.046353e+001  2.597185e+001  0.000000e+000
      vertex  2.046353e+001  2.597185e+001  1.600000e+000
      vertex  2.000000e+001  2.589843e+001  0.000000e+000
    endloop
  endfacet
  facet normal  1.564355e-001 -9.876881e-001  0.000000e+000
    outer loop
      vertex  2.000000e+001  2.589843e+001  0.000000e+000
      vertex  2.046353e+001  2.597185e+001  1.600000e+000
      vertex  2.000000e+001  2.589843e+001  1.600000e+000
    endloop
  endfacet
  facet normal -1.000000e+000  0.000000e+000  0.000000e+000
    outer loop
      vertex -2.150000e+001  8.739843e+001  1.600000e+000
      vertex -2.150000e+001  8.739843e+001  0.000000e+000
      vertex -2.150000e+001  2.739843e+001  1.600000e+000
    endloop
  endfacet
  facet normal -1.000000e+000  0.000000e+000  0.000000e+000
    outer loop
      vertex -2.150000e+001  2.739843e+001  1.600000e+000
      vertex -2.150000e+001  8.739843e+001  0.000000e+000
      vertex -2.150000e+001  2.739843e+001  0.000000e+000
    endloop
  endfacet
  facet normal -9.876881e-001  1.564361e-001  0.000000e+000
    outer loop
      vertex -2.150000e+001  8.739843e+001  0.000000e+000
      vertex -2.150000e+001  8.739843e+001  1.600000e+000
      vertex -2.142658e+001  8.786195e+001  0.000000e+000
    endloop
  endfacet
  facet normal -9.876881e-001  1.564361e-001  0.000000e+000
    outer loop
      vertex -2.142658e+001  8.786195e+001  0.000000e+000
      vertex -2.150000e+001  8.739843e+001  1.600000e+000
      vertex -2.142658e+001  8.786195e+001  1.600000e+000
    endloop
  endfacet
  facet normal -8.910070e-001  4.539896e-001  0.000000e+000
    outer loop
      vertex -2.142658e+001  8.786195e+001  0.000000e+000
      vertex -2.142658e+001  8.786195e+001  1.600000e+000
      vertex -2.121353e+001  8.828011e+001  0.000000e+000
    endloop
  endfacet
  facet normal -8.910070e-001  4.539896e-001  0.000000e+000
    outer loop
      vertex -2.121353e+001  8.828011e+001  0.000000e+000
      vertex -2.142658e+001  8.786195e+001  1.600000e+000
      vertex -2.121353e+001  8.828011e+001  1.600000e+000
    endloop
  endfacet
  facet normal -7.071068e-001  7.071068e-001  0.000000e+000
    outer loop
      vertex -2.121353e+001  8.828011e+001  0.000000e+000
      vertex -2.121353e+001  8.828011e+001  1.600000e+000
      vertex -2.088168e+001  8.861195e+001  0.000000e+000
    endloop
  endfacet
  facet normal -7.071068e-001  7.071068e-001  0.000000e+000
    outer loop
      vertex -2.088168e+001  8.861195e+001  0.000000e+000
      vertex -2.121353e+001  8.828011e+001  1.600000e+000
      vertex -2.088168e+001  8.861195e+001  1.600000e+000
    endloop
  endfacet
  facet normal -4.539896e-001  8.910070e-001  0.000000e+000
    outer loop
      vertex -2.088168e+001  8.861195e+001  0.000000e+000
      vertex -2.088168e+001  8.861195e+001  1.600000e+000
      vertex -2.046353e+001  8.882501e+001  0.000000e+000
    endloop
  endfacet
  facet normal -4.539896e-001  8.910070e-001  0.000000e+000
    outer loop
      vertex -2.046353e+001  8.882501e+001  0.000000e+000
      vertex -2.088168e+001  8.861195e+001  1.600000e+000
      vertex -2.046353e+001  8.882501e+001  1.600000e+000
    endloop
  endfacet
  facet normal -1.564394e-001  9.876875e-001  0.000000e+000
    outer loop
      vertex -2.046353e+001  8.882501e+001  0.000000e+000
      vertex -2.046353e+001  8.882501e+001  1.600000e+000
      vertex -2.000000e+001  8.889843e+001  0.000000e+000
    endloop
  endfacet
  facet normal -1.564394e-001  9.876875e-001  0.000000e+000
    outer loop
      vertex -2.000000e+001  8.889843e+001  0.000000e+000
      vertex -2.046353e+001  8.882501e+001  1.600000e+000
      vertex -2.000000e+001  8.889843e+001  1.600000e+000
    endloop
  endfacet
  facet normal -1.564355e-001 -9.876881e-001  -0.000000e+000
    outer loop
      vertex -2.000000e+001  2.589843e+001  0.000000e+000
      vertex -2.000000e+001  2.589843e+001  1.600000e+000
      vertex -2.046353e+001  2.597185e+001  0.000000e+000
    endloop
  endfacet
  facet normal -1.564355e-001 -9.876881e-001  0.000000e+000
    outer loop
      vertex -2.046353e+001  2.597185e+001  0.000000e+000
      vertex -2.000000e+001  2.589843e+001  1.600000e+000
      vertex -2.046353e+001  2.597185e+001  1.600000e+000
    endloop
  endfacet
  facet normal -4.539896e-001 -8.910070e-001  -0.000000e+000
    outer loop
      vertex -2.046353e+001  2.597185e+001  0.000000e+000
      vertex -2.046353e+001  2.597185e+001  1.600000e+000
      vertex -2.088168e+001  2.618490e+001  0.000000e+000
    endloop
  endfacet
  facet normal -4.539896e-001 -8.910070e-001  0.000000e+000
    outer loop
      vertex -2.088168e+001  2.618490e+001  0.000000e+000
      vertex -2.046353e+001  2.597185e+001  1.600000e+000
      vertex -2.088168e+001  2.618490e+001  1.600000e+000
    endloop
  endfacet
  facet normal -7.071068e-001 -7.071068e-001  -0.000000e+000
    outer loop
      vertex -2.088168e+001  2.618490e+001  0.000000e+000
      vertex -2.088168e+001  2.618490e+001  1.600000e+000
      vertex -2.121353e+001  2.651675e+001  0.000000e+000
    endloop
  endfacet
  facet normal -7.071068e-001 -7.071068e-001  0.000000e+000
    outer loop
      vertex -2.121353e+001  2.651675e+001  0.000000e+000
      vertex -2.088168e+001  2.618490e+001  1.600000e+000
      vertex -2.121353e+001  2.651675e+001  1.600000e+000
    endloop
  endfacet
  facet normal -8.910070e-001 -4.539896e-001  -0.000000e+000
    outer loop
      vertex -2.121353e+001  2.651675e+001  0.000000e+000
      vertex -2.121353e+001  2.651675e+001  1.600000e+000
      vertex -2.142658e+001  2.693490e+001  0.000000e+000
    endloop
  endfacet
  facet normal -8.910070e-001 -4.539896e-001  0.000000e+000
    outer loop
      vertex -2.142658e+001  2.693490e+001  0.000000e+000
      vertex -2.121353e+001  2.651675e+001  1.600000e+000
      vertex -2.142658e+001  2.693490e+001  1.600000e+000
    endloop
  endfacet
  facet normal -9.876881e-001 -1.564355e-001  -0.000000e+000
    outer loop
      vertex -2.142658e+001  2.693490e+001  0.000000e+000
      vertex -2.142658e+001  2.693490e+001  1.600000e+000
      vertex -2.150000e+001  2.739843e+001  0.000000e+000
    endloop
  endfacet
  facet normal -9.876881e-001 -1.564355e-001  0.000000e+000
    outer loop
      vertex -2.150000e+001  2.739843e+001  0.000000e+000
      vertex -2.142658e+001  2.693490e+001  1.600000e+000
      vertex -2.150000e+001  2.739843e+001  1.600000e+000
    endloop
  endfacet
  facet normal  0.000000e+000  0.000000e+000  9.999999e-001
    outer loop
      vertex  4.650000e+000  2.829843e+001  1.600000e+000
      vertex  1.910000e+001  2.829843e+001  1.600000e+000
      vertex  4.650000e+000  3.669843e+001  1.600000e+000
    endloop
  endfacet
  facet normal  -0.000000e+000  0.000000e+000  1.000000e+000
    outer loop
      vertex  4.650000e+000  3.669843e+001  1.600000e+000
      vertex  1.910000e+001  2.829843e+001  1.600000e+000
      vertex  1.910000e+001  8.669843e+001  1.600000e+000
    endloop
  endfacet
  facet normal  0.000000e+000  0.000000e+000  1.000000e+000
    outer loop
      vertex  4.650000e+000  3.669843e+001  1.600000e+000
      vertex  1.910000e+001  8.669843e+001  1.600000e+000
      vertex -4.650000e+000  3.669843e+001  1.600000e+000
    endloop
  endfacet
  facet normal  0.000000e+000  -0.000000e+000  1.000000e+000
    outer loop
      vertex -4.650000e+000  3.669843e+001  1.600000e+000
      vertex  1.910000e+001  8.669843e+001  1.600000e+000
      vertex -1.910000e+001  8.669843e+001  1.600000e+000
    endloop
  endfacet
  facet normal  0.000000e+000  0.000000e+000  1.000000e+000
    outer loop
      vertex -4.650000e+000  3.669843e+001  1.600000e+000
      vertex -1.910000e+001  8.669843e+001  1.600000e+000
      vertex -4.650000e+000  2.829843e+001  1.600000e+000
    endloop
  endfacet
  facet normal  0.000000e+000  0.000000e+000  1.000000e+000
    outer loop
      vertex -4.650000e+000  2.829843e+001  1.600000e+000
      vertex -1.910000e+001  8.669843e+001  1.600000e+000
      vertex -1.910000e+001  2.829843e+001  1.600000e+000
    endloop
  endfacet
  facet normal  0.000000e+000  0.000000e+000  9.999999e-001
    outer loop
      vertex  3.850000e+000  3.589843e+001  5.800000e+000
      vertex  4.650000e+000  3.669843e+001  5.800000e+000
      vertex -3.850000e+000  3.589843e+001  5.800000e+000
    endloop
  endfacet
  facet normal  0.000000e+000  -0.000000e+000  1.000000e+000
    outer loop
      vertex -3.850000e+000  3.589843e+001  5.800000e+000
      vertex  4.650000e+000  3.669843e+001  5.800000e+000
      vertex -4.650000e+000  3.669843e+001  5.800000e+000
    endloop
  endfacet
  facet normal  0.000000e+000  0.000000e+000  1.000000e+000
    outer loop
      vertex -3.850000e+000  3.589843e+001  5.800000e+000
      vertex -4.650000e+000  3.669843e+001  5.800000e+000
      vertex -3.850000e+000  2.749843e+001  5.800000e+000
    endloop
  endfacet
  facet normal  0.000000e+000  0.000000e+000  1.000000e+000
    outer loop
      vertex -3.850000e+000  2.749843e+001  5.800000e+000
      vertex -4.650000e+000  3.669843e+001  5.800000e+000
      vertex -4.650000e+000  2.829843e+001  5.800000e+000
    endloop
  endfacet
  facet normal  0.000000e+000  0.000000e+000  1.000000e+000
    outer loop
      vertex -3.850000e+000  2.749843e+001  5.800000e+000
      vertex -4.650000e+000  2.829843e+001  5.800000e+000
      vertex -1.990000e+001  2.749843e+001  5.800000e+000
    endloop
  endfacet
  facet normal  0.000000e+000  0.000000e+000  1.000000e+000
    outer loop
      vertex -1.990000e+001  2.749843e+001  5.800000e+000
      vertex -4.650000e+000  2.829843e+001  5.800000e+000
      vertex -1.910000e+001  2.829843e+001  5.800000e+000
    endloop
  endfacet
  facet normal  0.000000e+000  0.000000e+000  1.000000e+000
    outer loop
      vertex -1.990000e+001  2.749843e+001  5.800000e+000
      vertex -1.910000e+001  2.829843e+001  5.800000e+000
      vertex -1.990000e+001  8.749843e+001  5.800000e+000
    endloop
  endfacet
  facet normal  0.000000e+000  0.000000e+000  1.000000e+000
    outer loop
      vertex -1.990000e+001  8.749843e+001  5.800000e+000
      vertex -1.910000e+001  2.829843e+001  5.800000e+000
      vertex -1.910000e+001  8.669843e+001  5.800000e+000
    endloop
  endfacet
  facet normal  0.000000e+000  -0.000000e+000  9.999999e-001
    outer loop
      vertex -1.990000e+001  8.749843e+001  5.800000e+000
      vertex -1.910000e+001  8.669843e+001  5.800000e+000
      vertex  1.990000e+001  8.749843e+001  5.800000e+000
    endloop
  endfacet
  facet normal  0.000000e+000  0.000000e+000  1.000000e+000
    outer loop
      vertex  1.990000e+001  8.749843e+001  5.800000e+000
      vertex -1.910000e+001  8.669843e+001  5.800000e+000
      vertex  1.910000e+001  8.669843e+001  5.800000e+000
    endloop
  endfacet
  facet normal  -0.000000e+000  0.000000e+000  9.999999e-001
    outer loop
      vertex  1.990000e+001  8.749843e+001  5.800000e+000
      vertex  1.910000e+001  8.669843e+001  5.800000e+000
      vertex  1.990000e+001  2.749843e+001  5.800000e+000
    endloop
  endfacet
  facet normal  0.000000e+000  0.000000e+000  1.000000e+000
    outer loop
      vertex  1.990000e+001  2.749843e+001  5.800000e+000
      vertex  1.910000e+001  8.669843e+001  5.800000e+000
      vertex  1.910000e+001  2.829843e+001  5.800000e+000
    endloop
  endfacet
  facet normal  0.000000e+000  0.000000e+000  1.000000e+000
    outer loop
      vertex  1.990000e+001  2.749843e+001  5.800000e+000
      vertex  1.910000e+001  2.829843e+001  5.800000e+000
      vertex  3.850000e+000  2.749843e+001  5.800000e+000
    endloop
  endfacet
  facet normal  0.000000e+000  0.000000e+000  1.000000e+000
    outer loop
      vertex  3.850000e+000  2.749843e+001  5.800000e+000
      vertex  1.910000e+001  2.829843e+001  5.800000e+000
      vertex  4.650000e+000  2.829843e+001  5.800000e+000
    endloop
  endfacet
  facet normal  0.000000e+000  0.000000e+000  1.000000e+000
    outer loop
      vertex  3.850000e+000  2.749843e+001  5.800000e+000
      vertex  4.650000e+000  2.829843e+001  5.800000e+000
      vertex  3.850000e+000  3.589843e+001  5.800000e+000
    endloop
  endfacet
  facet normal  -0.000000e+000  0.000000e+000  1.000000e+000
    outer loop
      vertex  3.850000e+000  3.589843e+001  5.800000e+000
      vertex  4.650000e+000  2.829843e+001  5.800000e+000
      vertex  4.650000e+000  3.669843e+001  5.800000e+000
    endloop
  endfacet
  facet normal  -0.000000e+000 -1.000000e+000  -0.000000e+000
    outer loop
      vertex -3.750000e+000  2.749843e+001  1.600000e+000
      vertex -3.750000e+000  2.749843e+001  2.300000e+000
      vertex -3.850000e+000  2.749843e+001  2.300000e+000
    endloop
  endfacet
  facet normal  0.000000e+000 -1.000000e+000  0.000000e+000
    outer loop
      vertex -3.850000e+000  2.749843e+001  5.800000e+000
      vertex -1.990000e+001  2.749843e+001  5.800000e+000
      vertex -3.850000e+000  2.749843e+001  2.300000e+000
    endloop
  endfacet
  facet normal  -0.000000e+000 -1.000000e+000  0.000000e+000
    outer loop
      vertex -3.850000e+000  2.749843e+001  2.300000e+000
      vertex -1.990000e+001  2.749843e+001  5.800000e+000
      vertex -1.990000e+001  2.749843e+001  1.600000e+000
    endloop
  endfacet
  facet normal  0.000000e+000 -9.999999e-001  0.000000e+000
    outer loop
      vertex -3.850000e+000  2.749843e+001  2.300000e+000
      vertex -1.990000e+001  2.749843e+001  1.600000e+000
      vertex -3.750000e+000  2.749843e+001  1.600000e+000
    endloop
  endfacet
  facet normal -1.000000e+000  0.000000e+000  0.000000e+000
    outer loop
      vertex -1.990000e+001  8.749843e+001  5.800000e+000
      vertex -1.990000e+001  8.749843e+001  1.600000e+000
      vertex -1.990000e+001  2.749843e+001  5.800000e+000
    endloop
  endfacet
  facet normal -1.000000e+000  0.000000e+000  0.000000e+000
    outer loop
      vertex -1.990000e+001  2.749843e+001  5.800000e+000
      vertex -1.990000e+001  8.749843e+001  1.600000e+000
      vertex -1.990000e+001  2.749843e+001  1.600000e+000
    endloop
  endfacet
  facet normal  0.000000e+000 -1.000000e+000  0.000000e+000
    outer loop
      vertex  3.850000e+000  2.749843e+001  2.300000e+000
      vertex  3.750000e+000  2.749843e+001  2.300000e+000
      vertex  3.750000e+000  2.749843e+001  1.600000e+000
    endloop
  endfacet
  facet normal  0.000000e+000 -9.999999e-001  0.000000e+000
    outer loop
      vertex  3.850000e+000  2.749843e+001  2.300000e+000
      vertex  3.750000e+000  2.749843e+001  1.600000e+000
      vertex  1.990000e+001  2.749843e+001  1.600000e+000
    endloop
  endfacet
  facet normal  0.000000e+000 -1.000000e+000  0.000000e+000
    outer loop
      vertex  3.850000e+000  2.749843e+001  2.300000e+000
      vertex  1.990000e+001  2.749843e+001  1.600000e+000
      vertex  1.990000e+001  2.749843e+001  5.800000e+000
    endloop
  endfacet
  facet normal  -0.000000e+000 -1.000000e+000  0.000000e+000
    outer loop
      vertex  3.850000e+000  2.749843e+001  2.300000e+000
      vertex  1.990000e+001  2.749843e+001  5.800000e+000
      vertex  3.850000e+000  2.749843e+001  5.800000e+000
    endloop
  endfacet
  facet normal  1.000000e+000  0.000000e+000  0.000000e+000
    outer loop
      vertex  1.990000e+001  2.749843e+001  5.800000e+000
      vertex  1.990000e+001  2.749843e+001  1.600000e+000
      vertex  1.990000e+001  8.749843e+001  5.800000e+000
    endloop
  endfacet
  facet normal  1.000000e+000  0.000000e+000  0.000000e+000
    outer loop
      vertex  1.990000e+001  8.749843e+001  5.800000e+000
      vertex  1.990000e+001  2.749843e+001  1.600000e+000
      vertex  1.990000e+001  8.749843e+001  1.600000e+000
    endloop
  endfacet
  facet normal  0.000000e+000  1.000000e+000  -0.000000e+000
    outer loop
      vertex  1.990000e+001  8.749843e+001  5.800000e+000
      vertex  1.990000e+001  8.749843e+001  1.600000e+000
      vertex -1.990000e+001  8.749843e+001  5.800000e+000
    endloop
  endfacet
  facet normal  0.000000e+000  1.000000e+000  0.000000e+000
    outer loop
      vertex -1.990000e+001  8.749843e+001  5.800000e+000
      vertex  1.990000e+001  8.749843e+001  1.600000e+000
      vertex -1.990000e+001  8.749843e+001  1.600000e+000
    endloop
  endfacet
  facet normal  1.000000e+000  -0.000000e+000  0.000000e+000
    outer loop
      vertex  4.650000e+000  3.669843e+001  5.800000e+000
      vertex  4.650000e+000  2.829843e+001  5.800000e+000
      vertex  4.650000e+000  3.669843e+001  1.600000e+000
    endloop
  endfacet
  facet normal  1.000000e+000  0.000000e+000  0.000000e+000
    outer loop
      vertex  4.650000e+000  3.669843e+001  1.600000e+000
      vertex  4.650000e+000  2.829843e+001  5.800000e+000
      vertex  4.650000e+000  2.829843e+001  1.600000e+000
    endloop
  endfacet
  facet normal  0.000000e+000  1.000000e+000  0.000000e+000
    outer loop
      vertex -4.650000e+000  3.669843e+001  5.800000e+000
      vertex  4.650000e+000  3.669843e+001  5.800000e+000
      vertex -4.650000e+000  3.669843e+001  1.600000e+000
    endloop
  endfacet
  facet normal  0.000000e+000  1.000000e+000  0.000000e+000
    outer loop
      vertex -4.650000e+000  3.669843e+001  1.600000e+000
      vertex  4.650000e+000  3.669843e+001  5.800000e+000
      vertex  4.650000e+000  3.669843e+001  1.600000e+000
    endloop
  endfacet
  facet normal -1.000000e+000  -0.000000e+000  0.000000e+000
    outer loop
      vertex -4.650000e+000  2.829843e+001  5.800000e+000
      vertex -4.650000e+000  3.669843e+001  5.800000e+000
      vertex -4.650000e+000  2.829843e+001  1.600000e+000
    endloop
  endfacet
  facet normal -1.000000e+000  0.000000e+000  0.000000e+000
    outer loop
      vertex -4.650000e+000  2.829843e+001  1.600000e+000
      vertex -4.650000e+000  3.669843e+001  5.800000e+000
      vertex -4.650000e+000  3.669843e+001  1.600000e+000
    endloop
  endfacet
  facet normal  0.000000e+000  1.000000e+000  -0.000000e+000
    outer loop
      vertex -4.650000e+000  2.829843e+001  5.800000e+000
      vertex -4.650000e+000  2.829843e+001  1.600000e+000
      vertex -1.910000e+001  2.829843e+001  5.800000e+000
    endloop
  endfacet
  facet normal  0.000000e+000  1.000000e+000  0.000000e+000
    outer loop
      vertex -1.910000e+001  2.829843e+001  5.800000e+000
      vertex -4.650000e+000  2.829843e+001  1.600000e+000
      vertex -1.910000e+001  2.829843e+001  1.600000e+000
    endloop
  endfacet
  facet normal  9.999999e-001  -0.000000e+000  0.000000e+000
    outer loop
      vertex -1.910000e+001  8.669843e+001  5.800000e+000
      vertex -1.910000e+001  2.829843e+001  5.800000e+000
      vertex -1.910000e+001  8.669843e+001  1.600000e+000
    endloop
  endfacet
  facet normal  9.999999e-001  0.000000e+000  0.000000e+000
    outer loop
      vertex -1.910000e+001  8.669843e+001  1.600000e+000
      vertex -1.910000e+001  2.829843e+001  5.800000e+000
      vertex -1.910000e+001  2.829843e+001  1.600000e+000
    endloop
  endfacet
  facet normal  0.000000e+000 -1.000000e+000  0.000000e+000
    outer loop
      vertex -1.910000e+001  8.669843e+001  5.800000e+000
      vertex -1.910000e+001  8.669843e+001  1.600000e+000
      vertex  1.910000e+001  8.669843e+001  5.800000e+000
    endloop
  endfacet
  facet normal  0.000000e+000 -1.000000e+000  -0.000000e+000
    outer loop
      vertex  1.910000e+001  8.669843e+001  5.800000e+000
      vertex -1.910000e+001  8.669843e+001  1.600000e+000
      vertex  1.910000e+001  8.669843e+001  1.600000e+000
    endloop
  endfacet
  facet normal  0.000000e+000  1.000000e+000  -0.000000e+000
    outer loop
      vertex  1.910000e+001  2.829843e+001  5.800000e+000
      vertex  1.910000e+001  2.829843e+001  1.600000e+000
      vertex  4.650000e+000  2.829843e+001  5.800000e+000
    endloop
  endfacet
  facet normal  0.000000e+000  1.000000e+000  0.000000e+000
    outer loop
      vertex  4.650000e+000  2.829843e+001  5.800000e+000
      vertex  1.910000e+001  2.829843e+001  1.600000e+000
      vertex  4.650000e+000  2.829843e+001  1.600000e+000
    endloop
  endfacet
  facet normal -9.999999e-001  -0.000000e+000  0.000000e+000
    outer loop
      vertex  1.910000e+001  2.829843e+001  5.800000e+000
      vertex  1.910000e+001  8.669843e+001  5.800000e+000
      vertex  1.910000e+001  2.829843e+001  1.600000e+000
    endloop
  endfacet
  facet normal -9.999999e-001  0.000000e+000  0.000000e+000
    outer loop
      vertex  1.910000e+001  2.829843e+001  1.600000e+000
      vertex  1.910000e+001  8.669843e+001  5.800000e+000
      vertex  1.910000e+001  8.669843e+001  1.600000e+000
    endloop
  endfacet
  facet normal -1.000000e+000  0.000000e+000  0.000000e+000
    outer loop
      vertex  3.850000e+000  3.589843e+001  5.800000e+000
      vertex  3.850000e+000  3.589843e+001  2.300000e+000
      vertex  3.850000e+000  2.749843e+001  5.800000e+000
    endloop
  endfacet
  facet normal -1.000000e+000  0.000000e+000  0.000000e+000
    outer loop
      vertex  3.850000e+000  2.749843e+001  5.800000e+000
      vertex  3.850000e+000  3.589843e+001  2.300000e+000
      vertex  3.850000e+000  2.749843e+001  2.300000e+000
    endloop
  endfacet
  facet normal  1.000000e+000  0.000000e+000  0.000000e+000
    outer loop
      vertex -3.850000e+000  2.749843e+001  5.800000e+000
      vertex -3.850000e+000  2.749843e+001  2.300000e+000
      vertex -3.850000e+000  3.589843e+001  5.800000e+000
    endloop
  endfacet
  facet normal  1.000000e+000  0.000000e+000  0.000000e+000
    outer loop
      vertex -3.850000e+000  3.589843e+001  5.800000e+000
      vertex -3.850000e+000  2.749843e+001  2.300000e+000
      vertex -3.850000e+000  3.589843e+001  2.300000e+000
    endloop
  endfacet
  facet normal  -0.000000e+000  0.000000e+000  1.000000e+000
    outer loop
      vertex  3.850000e+000  3.589843e+001  2.300000e+000
      vertex -3.850000e+000  3.589843e+001  2.300000e+000
      vertex -3.850000e+000  2.749843e+001  2.300000e+000
    endloop
  endfacet
  facet normal  0.000000e+000  0.000000e+000  9.999999e-001
    outer loop
      vertex  3.850000e+000  3.589843e+001  2.300000e+000
      vertex -3.850000e+000  2.749843e+001  2.300000e+000
      vertex -3.750000e+000  2.749843e+001  2.300000e+000
    endloop
  endfacet
  facet normal  0.000000e+000  0.000000e+000  1.000000e+000
    outer loop
      vertex  3.850000e+000  3.589843e+001  2.300000e+000
      vertex -3.750000e+000  2.749843e+001  2.300000e+000
      vertex  3.750000e+000  2.749843e+001  2.300000e+000
    endloop
  endfacet
  facet normal  0.000000e+000  0.000000e+000  9.999999e-001
    outer loop
      vertex  3.850000e+000  3.589843e+001  2.300000e+000
      vertex  3.750000e+000  2.749843e+001  2.300000e+000
      vertex  3.850000e+000  2.749843e+001  2.300000e+000
    endloop
  endfacet
  facet normal  0.000000e+000  0.000000e+000  1.000000e+000
    outer loop
      vertex -3.750000e+000  2.589843e+001  2.300000e+000
      vertex  3.750000e+000  2.589843e+001  2.300000e+000
      vertex -3.750000e+000  2.749843e+001  2.300000e+000
    endloop
  endfacet
  facet normal  -0.000000e+000  0.000000e+000  1.000000e+000
    outer loop
      vertex -3.750000e+000  2.749843e+001  2.300000e+000
      vertex  3.750000e+000  2.589843e+001  2.300000e+000
      vertex  3.750000e+000  2.749843e+001  2.300000e+000
    endloop
  endfacet
  facet normal  0.000000e+000 -1.000000e+000  0.000000e+000
    outer loop
      vertex -3.850000e+000  3.589843e+001  5.800000e+000
      vertex -3.850000e+000  3.589843e+001  2.300000e+000
      vertex  3.850000e+000  3.589843e+001  5.800000e+000
    endloop
  endfacet
  facet normal  0.000000e+000 -1.000000e+000  -0.000000e+000
    outer loop
      vertex  3.850000e+000  3.589843e+001  5.800000e+000
      vertex -3.850000e+000  3.589843e+001  2.300000e+000
      vertex  3.850000e+000  3.589843e+001  2.300000e+000
    endloop
  endfacet
  facet normal  9.999999e-001  0.000000e+000  0.000000e+000
    outer loop
      vertex  3.750000e+000  2.589843e+001  2.300000e+000
      vertex  3.750000e+000  2.589843e+001  1.600000e+000
      vertex  3.750000e+000  2.749843e+001  2.300000e+000
    endloop
  endfacet
  facet normal  9.999999e-001  0.000000e+000  0.000000e+000
    outer loop
      vertex  3.750000e+000  2.749843e+001  2.300000e+000
      vertex  3.750000e+000  2.589843e+001  1.600000e+000
      vertex  3.750000e+000  2.749843e+001  1.600000e+000
    endloop
  endfacet
  facet normal -9.999999e-001  0.000000e+000  0.000000e+000
    outer loop
      vertex -3.750000e+000  2.749843e+001  2.300000e+000
      vertex -3.750000e+000  2.749843e+001  1.600000e+000
      vertex -3.750000e+000  2.589843e+001  2.300000e+000
    endloop
  endfacet
  facet normal -9.999999e-001  0.000000e+000  0.000000e+000
    outer loop
      vertex -3.750000e+000  2.589843e+001  2.300000e+000
      vertex -3.750000e+000  2.749843e+001  1.600000e+000
      vertex -3.750000e+000  2.589843e+001  1.600000e+000
    endloop
  endfacet
endsolid CATIA STL
