solid OpenSCAD_Model
  facet normal -1 0 0
    outer loop
      vertex 0 0 0
      vertex 0 56.5 30
      vertex 0 56.5 0
    endloop
  endfacet
  facet normal -1 -0 0
    outer loop
      vertex 0 56.5 30
      vertex 0 0 0
      vertex 0 0 30
    endloop
  endfacet
  facet normal 0 0 1
    outer loop
      vertex 7 55 30
      vertex 4.91578 51.9714 30
      vertex 7 1.5 30
    endloop
  endfacet
  facet normal 0 0 1
    outer loop
      vertex 7 1.5 30
      vertex 5.16435 4.04078 30
      vertex 5.25 3.5 30
    endloop
  endfacet
  facet normal -0 0 1
    outer loop
      vertex 4.91578 4.52862 30
      vertex 7 1.5 30
      vertex 4.91578 51.9714 30
    endloop
  endfacet
  facet normal 0 0 1
    outer loop
      vertex 7 1.5 30
      vertex 4.91578 4.52862 30
      vertex 5.16435 4.04078 30
    endloop
  endfacet
  facet normal -0 0 1
    outer loop
      vertex 4.52862 51.5842 30
      vertex 4.91578 4.52862 30
      vertex 4.91578 51.9714 30
    endloop
  endfacet
  facet normal 0 0 1
    outer loop
      vertex 4.52862 51.5842 30
      vertex 4.52862 4.91578 30
      vertex 4.91578 4.52862 30
    endloop
  endfacet
  facet normal -0 0 1
    outer loop
      vertex 4.04078 51.3357 30
      vertex 4.52862 4.91578 30
      vertex 4.52862 51.5842 30
    endloop
  endfacet
  facet normal 0 0 1
    outer loop
      vertex 4.04078 51.3357 30
      vertex 4.04078 5.16435 30
      vertex 4.52862 4.91578 30
    endloop
  endfacet
  facet normal 0 0 1
    outer loop
      vertex 4.04078 51.3357 30
      vertex 3.5 5.25 30
      vertex 4.04078 5.16435 30
    endloop
  endfacet
  facet normal -0 0 1
    outer loop
      vertex 3.5 51.25 30
      vertex 3.5 5.25 30
      vertex 4.04078 51.3357 30
    endloop
  endfacet
  facet normal 0 0 1
    outer loop
      vertex 2.95922 51.3357 30
      vertex 3.5 5.25 30
      vertex 3.5 51.25 30
    endloop
  endfacet
  facet normal 0 0 1
    outer loop
      vertex 2.95922 51.3357 30
      vertex 2.95922 5.16435 30
      vertex 3.5 5.25 30
    endloop
  endfacet
  facet normal 0 0 1
    outer loop
      vertex 2.47138 51.5842 30
      vertex 2.95922 5.16435 30
      vertex 2.95922 51.3357 30
    endloop
  endfacet
  facet normal 0 0 1
    outer loop
      vertex 2.47138 51.5842 30
      vertex 2.47138 4.91578 30
      vertex 2.95922 5.16435 30
    endloop
  endfacet
  facet normal 0 0 1
    outer loop
      vertex 2.08422 51.9714 30
      vertex 2.47138 4.91578 30
      vertex 2.47138 51.5842 30
    endloop
  endfacet
  facet normal 0 0 1
    outer loop
      vertex 2.08422 51.9714 30
      vertex 2.08422 4.52862 30
      vertex 2.47138 4.91578 30
    endloop
  endfacet
  facet normal 0 0 1
    outer loop
      vertex 1.83565 52.4592 30
      vertex 2.08422 4.52862 30
      vertex 2.08422 51.9714 30
    endloop
  endfacet
  facet normal 0 0 1
    outer loop
      vertex 1.83565 52.4592 30
      vertex 1.83565 4.04078 30
      vertex 2.08422 4.52862 30
    endloop
  endfacet
  facet normal 0 0 1
    outer loop
      vertex 0 56.5 30
      vertex 1.83565 52.4592 30
      vertex 1.75 53 30
    endloop
  endfacet
  facet normal 0 0 1
    outer loop
      vertex 1.83565 52.4592 30
      vertex 0 56.5 30
      vertex 1.83565 4.04078 30
    endloop
  endfacet
  facet normal -0 0 1
    outer loop
      vertex 115.364 4.04078 30
      vertex 117.2 0 30
      vertex 115.364 52.4592 30
    endloop
  endfacet
  facet normal 0 0 1
    outer loop
      vertex 117.2 0 30
      vertex 115.364 4.04078 30
      vertex 115.45 3.5 30
    endloop
  endfacet
  facet normal -0 0 1
    outer loop
      vertex 115.116 51.9714 30
      vertex 115.364 4.04078 30
      vertex 115.364 52.4592 30
    endloop
  endfacet
  facet normal 0 0 1
    outer loop
      vertex 115.116 51.9714 30
      vertex 115.116 4.52862 30
      vertex 115.364 4.04078 30
    endloop
  endfacet
  facet normal -0 0 1
    outer loop
      vertex 114.729 51.5842 30
      vertex 115.116 4.52862 30
      vertex 115.116 51.9714 30
    endloop
  endfacet
  facet normal 0 0 1
    outer loop
      vertex 114.729 51.5842 30
      vertex 114.729 4.91578 30
      vertex 115.116 4.52862 30
    endloop
  endfacet
  facet normal -0 0 1
    outer loop
      vertex 114.241 51.3357 30
      vertex 114.729 4.91578 30
      vertex 114.729 51.5842 30
    endloop
  endfacet
  facet normal 0 0 1
    outer loop
      vertex 114.241 51.3357 30
      vertex 114.241 5.16435 30
      vertex 114.729 4.91578 30
    endloop
  endfacet
  facet normal -0 0 1
    outer loop
      vertex 113.7 51.25 30
      vertex 114.241 5.16435 30
      vertex 114.241 51.3357 30
    endloop
  endfacet
  facet normal 0 0 1
    outer loop
      vertex 113.7 51.25 30
      vertex 113.7 5.25 30
      vertex 114.241 5.16435 30
    endloop
  endfacet
  facet normal 0 0 1
    outer loop
      vertex 113.159 51.3357 30
      vertex 113.7 5.25 30
      vertex 113.7 51.25 30
    endloop
  endfacet
  facet normal 0 0 1
    outer loop
      vertex 113.159 51.3357 30
      vertex 113.159 5.16435 30
      vertex 113.7 5.25 30
    endloop
  endfacet
  facet normal 0 0 1
    outer loop
      vertex 112.671 51.5842 30
      vertex 113.159 5.16435 30
      vertex 113.159 51.3357 30
    endloop
  endfacet
  facet normal 0 0 1
    outer loop
      vertex 112.671 51.5842 30
      vertex 112.671 4.91578 30
      vertex 113.159 5.16435 30
    endloop
  endfacet
  facet normal 0 0 1
    outer loop
      vertex 112.284 51.9714 30
      vertex 112.671 4.91578 30
      vertex 112.671 51.5842 30
    endloop
  endfacet
  facet normal 0 0 1
    outer loop
      vertex 112.284 51.9714 30
      vertex 112.284 4.52862 30
      vertex 112.671 4.91578 30
    endloop
  endfacet
  facet normal 0 0 1
    outer loop
      vertex 110.2 55 30
      vertex 112.284 51.9714 30
      vertex 112.036 52.4592 30
    endloop
  endfacet
  facet normal 0 0 1
    outer loop
      vertex 112.284 51.9714 30
      vertex 110.2 55 30
      vertex 112.284 4.52862 30
    endloop
  endfacet
  facet normal 0 0 1
    outer loop
      vertex 110.2 55 30
      vertex 112.036 52.4592 30
      vertex 111.95 53 30
    endloop
  endfacet
  facet normal 0 0 1
    outer loop
      vertex 110.2 1.5 30
      vertex 112.284 4.52862 30
      vertex 110.2 55 30
    endloop
  endfacet
  facet normal 0 0 1
    outer loop
      vertex 115.364 52.4592 30
      vertex 117.2 56.5 30
      vertex 115.45 53 30
    endloop
  endfacet
  facet normal 0 0 1
    outer loop
      vertex 117.2 56.5 30
      vertex 115.364 53.5408 30
      vertex 115.45 53 30
    endloop
  endfacet
  facet normal 0 0 1
    outer loop
      vertex 117.2 56.5 30
      vertex 115.116 54.0286 30
      vertex 115.364 53.5408 30
    endloop
  endfacet
  facet normal 0 0 1
    outer loop
      vertex 117.2 56.5 30
      vertex 114.729 54.4158 30
      vertex 115.116 54.0286 30
    endloop
  endfacet
  facet normal 0 0 1
    outer loop
      vertex 117.2 56.5 30
      vertex 114.241 54.6643 30
      vertex 114.729 54.4158 30
    endloop
  endfacet
  facet normal 0 0 1
    outer loop
      vertex 117.2 56.5 30
      vertex 113.7 54.75 30
      vertex 114.241 54.6643 30
    endloop
  endfacet
  facet normal -0 0 1
    outer loop
      vertex 110.2 55 30
      vertex 113.7 54.75 30
      vertex 117.2 56.5 30
    endloop
  endfacet
  facet normal 0 0 1
    outer loop
      vertex 112.284 4.52862 30
      vertex 110.2 1.5 30
      vertex 112.036 4.04078 30
    endloop
  endfacet
  facet normal 0 0 1
    outer loop
      vertex 112.036 53.5408 30
      vertex 110.2 55 30
      vertex 111.95 53 30
    endloop
  endfacet
  facet normal 0 0 1
    outer loop
      vertex 112.284 54.0286 30
      vertex 110.2 55 30
      vertex 112.036 53.5408 30
    endloop
  endfacet
  facet normal 0 0 1
    outer loop
      vertex 112.671 54.4158 30
      vertex 110.2 55 30
      vertex 112.284 54.0286 30
    endloop
  endfacet
  facet normal 0 0 1
    outer loop
      vertex 113.159 54.6643 30
      vertex 110.2 55 30
      vertex 112.671 54.4158 30
    endloop
  endfacet
  facet normal 0 0 1
    outer loop
      vertex 113.7 54.75 30
      vertex 110.2 55 30
      vertex 113.159 54.6643 30
    endloop
  endfacet
  facet normal 0 0 1
    outer loop
      vertex 117.2 56.5 30
      vertex 7 55 30
      vertex 110.2 55 30
    endloop
  endfacet
  facet normal 0 0 1
    outer loop
      vertex 5.16435 52.4592 30
      vertex 7 55 30
      vertex 5.25 53 30
    endloop
  endfacet
  facet normal 0 0 1
    outer loop
      vertex 7 55 30
      vertex 5.16435 53.5408 30
      vertex 5.25 53 30
    endloop
  endfacet
  facet normal 0 0 1
    outer loop
      vertex 7 55 30
      vertex 4.91578 54.0286 30
      vertex 5.16435 53.5408 30
    endloop
  endfacet
  facet normal 0 0 1
    outer loop
      vertex 7 55 30
      vertex 4.52862 54.4158 30
      vertex 4.91578 54.0286 30
    endloop
  endfacet
  facet normal 0 0 1
    outer loop
      vertex 7 55 30
      vertex 4.04078 54.6643 30
      vertex 4.52862 54.4158 30
    endloop
  endfacet
  facet normal 0 0 1
    outer loop
      vertex 7 55 30
      vertex 3.5 54.75 30
      vertex 4.04078 54.6643 30
    endloop
  endfacet
  facet normal 0 0 1
    outer loop
      vertex 0 0 30
      vertex 1.83565 4.04078 30
      vertex 0 56.5 30
    endloop
  endfacet
  facet normal 0 0 1
    outer loop
      vertex 1.83565 53.5408 30
      vertex 0 56.5 30
      vertex 1.75 53 30
    endloop
  endfacet
  facet normal 0 0 1
    outer loop
      vertex 2.08422 54.0286 30
      vertex 0 56.5 30
      vertex 1.83565 53.5408 30
    endloop
  endfacet
  facet normal 0 0 1
    outer loop
      vertex 2.47138 54.4158 30
      vertex 0 56.5 30
      vertex 2.08422 54.0286 30
    endloop
  endfacet
  facet normal 0 0 1
    outer loop
      vertex 2.95922 54.6643 30
      vertex 0 56.5 30
      vertex 2.47138 54.4158 30
    endloop
  endfacet
  facet normal 0 0 1
    outer loop
      vertex 3.5 54.75 30
      vertex 0 56.5 30
      vertex 2.95922 54.6643 30
    endloop
  endfacet
  facet normal 0 0 1
    outer loop
      vertex 7 55 30
      vertex 0 56.5 30
      vertex 3.5 54.75 30
    endloop
  endfacet
  facet normal -0 0 1
    outer loop
      vertex 0 56.5 30
      vertex 7 55 30
      vertex 117.2 56.5 30
    endloop
  endfacet
  facet normal 0 0 1
    outer loop
      vertex 117.2 56.5 30
      vertex 115.364 52.4592 30
      vertex 117.2 0 30
    endloop
  endfacet
  facet normal -0 0 1
    outer loop
      vertex 115.364 2.95922 30
      vertex 117.2 0 30
      vertex 115.45 3.5 30
    endloop
  endfacet
  facet normal -0 0 1
    outer loop
      vertex 115.116 2.47138 30
      vertex 117.2 0 30
      vertex 115.364 2.95922 30
    endloop
  endfacet
  facet normal -0 0 1
    outer loop
      vertex 114.729 2.08422 30
      vertex 117.2 0 30
      vertex 115.116 2.47138 30
    endloop
  endfacet
  facet normal -0 0 1
    outer loop
      vertex 114.241 1.83565 30
      vertex 117.2 0 30
      vertex 114.729 2.08422 30
    endloop
  endfacet
  facet normal -0 0 1
    outer loop
      vertex 113.7 1.75 30
      vertex 117.2 0 30
      vertex 114.241 1.83565 30
    endloop
  endfacet
  facet normal 0 0 1
    outer loop
      vertex 110.2 1.5 30
      vertex 113.7 1.75 30
      vertex 113.159 1.83565 30
    endloop
  endfacet
  facet normal 0 0 1
    outer loop
      vertex 112.036 4.04078 30
      vertex 110.2 1.5 30
      vertex 111.95 3.5 30
    endloop
  endfacet
  facet normal 0 0 1
    outer loop
      vertex 110.2 1.5 30
      vertex 112.036 2.95922 30
      vertex 111.95 3.5 30
    endloop
  endfacet
  facet normal 0 0 1
    outer loop
      vertex 110.2 1.5 30
      vertex 112.284 2.47138 30
      vertex 112.036 2.95922 30
    endloop
  endfacet
  facet normal 0 0 1
    outer loop
      vertex 110.2 1.5 30
      vertex 112.671 2.08422 30
      vertex 112.284 2.47138 30
    endloop
  endfacet
  facet normal 0 0 1
    outer loop
      vertex 110.2 1.5 30
      vertex 113.159 1.83565 30
      vertex 112.671 2.08422 30
    endloop
  endfacet
  facet normal 0 0 1
    outer loop
      vertex 113.7 1.75 30
      vertex 110.2 1.5 30
      vertex 117.2 0 30
    endloop
  endfacet
  facet normal -0 0 1
    outer loop
      vertex 7 1.5 30
      vertex 117.2 0 30
      vertex 110.2 1.5 30
    endloop
  endfacet
  facet normal 0 0 1
    outer loop
      vertex 4.91578 51.9714 30
      vertex 7 55 30
      vertex 5.16435 52.4592 30
    endloop
  endfacet
  facet normal -0 0 1
    outer loop
      vertex 5.16435 2.95922 30
      vertex 7 1.5 30
      vertex 5.25 3.5 30
    endloop
  endfacet
  facet normal -0 0 1
    outer loop
      vertex 4.91578 2.47138 30
      vertex 7 1.5 30
      vertex 5.16435 2.95922 30
    endloop
  endfacet
  facet normal -0 0 1
    outer loop
      vertex 4.52862 2.08422 30
      vertex 7 1.5 30
      vertex 4.91578 2.47138 30
    endloop
  endfacet
  facet normal -0 0 1
    outer loop
      vertex 4.04078 1.83565 30
      vertex 7 1.5 30
      vertex 4.52862 2.08422 30
    endloop
  endfacet
  facet normal -0 0 1
    outer loop
      vertex 3.5 1.75 30
      vertex 7 1.5 30
      vertex 4.04078 1.83565 30
    endloop
  endfacet
  facet normal 0 0 1
    outer loop
      vertex 7 1.5 30
      vertex 0 0 30
      vertex 117.2 0 30
    endloop
  endfacet
  facet normal 0 0 1
    outer loop
      vertex 3.5 1.75 30
      vertex 0 0 30
      vertex 7 1.5 30
    endloop
  endfacet
  facet normal 0 0 1
    outer loop
      vertex 2.95922 1.83565 30
      vertex 0 0 30
      vertex 3.5 1.75 30
    endloop
  endfacet
  facet normal 0 0 1
    outer loop
      vertex 2.47138 2.08422 30
      vertex 0 0 30
      vertex 2.95922 1.83565 30
    endloop
  endfacet
  facet normal 0 0 1
    outer loop
      vertex 2.08422 2.47138 30
      vertex 0 0 30
      vertex 2.47138 2.08422 30
    endloop
  endfacet
  facet normal 0 0 1
    outer loop
      vertex 1.83565 2.95922 30
      vertex 0 0 30
      vertex 2.08422 2.47138 30
    endloop
  endfacet
  facet normal 0 0 1
    outer loop
      vertex 1.75 3.5 30
      vertex 0 0 30
      vertex 1.83565 2.95922 30
    endloop
  endfacet
  facet normal 0 0 1
    outer loop
      vertex 1.83565 4.04078 30
      vertex 0 0 30
      vertex 1.75 3.5 30
    endloop
  endfacet
  facet normal 1 -0 0
    outer loop
      vertex 117.2 0 30
      vertex 117.2 56.5 0
      vertex 117.2 56.5 30
    endloop
  endfacet
  facet normal 1 0 0
    outer loop
      vertex 117.2 56.5 0
      vertex 117.2 0 30
      vertex 117.2 0 0
    endloop
  endfacet
  facet normal 0 1 0
    outer loop
      vertex 117.2 56.5 30
      vertex 23.75 56.5 11
      vertex 0 56.5 30
    endloop
  endfacet
  facet normal 0 1 -0
    outer loop
      vertex 117.2 56.5 0
      vertex 23.75 56.5 11
      vertex 117.2 56.5 30
    endloop
  endfacet
  facet normal 0 1 0
    outer loop
      vertex 0 56.5 0
      vertex 23.75 56.5 7
      vertex 117.2 56.5 0
    endloop
  endfacet
  facet normal 0 1 0
    outer loop
      vertex 23.75 56.5 11
      vertex 117.2 56.5 0
      vertex 23.75 56.5 7
    endloop
  endfacet
  facet normal 0 1 -0
    outer loop
      vertex 15.75 56.5 11
      vertex 0 56.5 30
      vertex 23.75 56.5 11
    endloop
  endfacet
  facet normal 0 1 0
    outer loop
      vertex 0 56.5 0
      vertex 15.75 56.5 11
      vertex 15.75 56.5 7
    endloop
  endfacet
  facet normal 0 1 0
    outer loop
      vertex 15.75 56.5 11
      vertex 0 56.5 0
      vertex 0 56.5 30
    endloop
  endfacet
  facet normal 0 1 0
    outer loop
      vertex 23.75 56.5 7
      vertex 0 56.5 0
      vertex 15.75 56.5 7
    endloop
  endfacet
  facet normal 0 0 -1
    outer loop
      vertex 0 0 0
      vertex 117.2 56.5 0
      vertex 117.2 0 0
    endloop
  endfacet
  facet normal -0 0 -1
    outer loop
      vertex 117.2 56.5 0
      vertex 0 0 0
      vertex 0 56.5 0
    endloop
  endfacet
  facet normal 0 -1 0
    outer loop
      vertex 0 0 30
      vertex 86 0 18.6
      vertex 117.2 0 30
    endloop
  endfacet
  facet normal 0 -1 0
    outer loop
      vertex 0 0 0
      vertex 86 0 18.6
      vertex 0 0 30
    endloop
  endfacet
  facet normal 0 -1 0
    outer loop
      vertex 117.2 0 0
      vertex 86 0 4.6
      vertex 0 0 0
    endloop
  endfacet
  facet normal 0 -1 -0
    outer loop
      vertex 86 0 18.6
      vertex 0 0 0
      vertex 86 0 4.6
    endloop
  endfacet
  facet normal 0 -1 0
    outer loop
      vertex 103.5 0 18.6
      vertex 117.2 0 30
      vertex 86 0 18.6
    endloop
  endfacet
  facet normal 0 -1 0
    outer loop
      vertex 117.2 0 0
      vertex 103.5 0 18.6
      vertex 103.5 0 4.6
    endloop
  endfacet
  facet normal 0 -1 0
    outer loop
      vertex 103.5 0 18.6
      vertex 117.2 0 0
      vertex 117.2 0 30
    endloop
  endfacet
  facet normal 0 -1 0
    outer loop
      vertex 86 0 4.6
      vertex 117.2 0 0
      vertex 103.5 0 4.6
    endloop
  endfacet
  facet normal 1 -0 0
    outer loop
      vertex 7 1.5 30
      vertex 7 55 1
      vertex 7 55 30
    endloop
  endfacet
  facet normal 1 0 0
    outer loop
      vertex 7 55 1
      vertex 7 1.5 30
      vertex 7 1.5 1
    endloop
  endfacet
  facet normal -1 0 0
    outer loop
      vertex 110.2 1.5 1
      vertex 110.2 55 30
      vertex 110.2 55 1
    endloop
  endfacet
  facet normal -1 -0 0
    outer loop
      vertex 110.2 55 30
      vertex 110.2 1.5 1
      vertex 110.2 1.5 30
    endloop
  endfacet
  facet normal 0 -1 0
    outer loop
      vertex 72.2 55 1
      vertex 75 55 7.5
      vertex 72.2 55 26
    endloop
  endfacet
  facet normal 0 -1 -0
    outer loop
      vertex 75 55 7.5
      vertex 72.2 55 1
      vertex 75 55 1
    endloop
  endfacet
  facet normal 0 -1 0
    outer loop
      vertex 34.5 55 1
      vertex 70.2 55 26
      vertex 34.5 55 28
    endloop
  endfacet
  facet normal 0 -1 -0
    outer loop
      vertex 70.2 55 26
      vertex 34.5 55 1
      vertex 70.2 55 1
    endloop
  endfacet
  facet normal 0 -1 0
    outer loop
      vertex 34.5 55 28
      vertex 7 55 30
      vertex 32.5 55 28
    endloop
  endfacet
  facet normal 0 -1 0
    outer loop
      vertex 7 55 30
      vertex 15.75 55 11
      vertex 32.5 55 28
    endloop
  endfacet
  facet normal 0 -1 0
    outer loop
      vertex 7 55 1
      vertex 15.75 55 11
      vertex 7 55 30
    endloop
  endfacet
  facet normal 0 -1 -0
    outer loop
      vertex 15.75 55 7
      vertex 7 55 1
      vertex 23.75 55 7
    endloop
  endfacet
  facet normal 0 -1 -0
    outer loop
      vertex 15.75 55 11
      vertex 7 55 1
      vertex 15.75 55 7
    endloop
  endfacet
  facet normal 0 -1 0
    outer loop
      vertex 7 55 30
      vertex 34.5 55 28
      vertex 110.2 55 30
    endloop
  endfacet
  facet normal 0 -1 0
    outer loop
      vertex 70.2 55 26
      vertex 110.2 55 30
      vertex 34.5 55 28
    endloop
  endfacet
  facet normal 0 -1 0
    outer loop
      vertex 72.2 55 26
      vertex 110.2 55 30
      vertex 70.2 55 26
    endloop
  endfacet
  facet normal 0 -1 0
    outer loop
      vertex 105 55 7.5
      vertex 72.2 55 26
      vertex 75 55 7.5
    endloop
  endfacet
  facet normal 0 -1 0
    outer loop
      vertex 72.2 55 26
      vertex 105 55 7.5
      vertex 110.2 55 30
    endloop
  endfacet
  facet normal 0 -1 0
    outer loop
      vertex 110.2 55 1
      vertex 105 55 7.5
      vertex 105 55 1
    endloop
  endfacet
  facet normal 0 -1 0
    outer loop
      vertex 105 55 7.5
      vertex 110.2 55 1
      vertex 110.2 55 30
    endloop
  endfacet
  facet normal 0 -1 0
    outer loop
      vertex 23.75 55 11
      vertex 32.5 55 28
      vertex 15.75 55 11
    endloop
  endfacet
  facet normal 0 -1 0
    outer loop
      vertex 32.5 55 1
      vertex 23.75 55 11
      vertex 23.75 55 7
    endloop
  endfacet
  facet normal 0 -1 0
    outer loop
      vertex 23.75 55 11
      vertex 32.5 55 1
      vertex 32.5 55 28
    endloop
  endfacet
  facet normal 0 -1 0
    outer loop
      vertex 32.5 55 1
      vertex 23.75 55 7
      vertex 7 55 1
    endloop
  endfacet
  facet normal -0 0 1
    outer loop
      vertex 7 55 1
      vertex 32.5 1.5 1
      vertex 32.5 55 1
    endloop
  endfacet
  facet normal 0 0 1
    outer loop
      vertex 32.5 1.5 1
      vertex 7 55 1
      vertex 7 1.5 1
    endloop
  endfacet
  facet normal -0 0 1
    outer loop
      vertex 72.2 55 1
      vertex 75 54.5 1
      vertex 75 55 1
    endloop
  endfacet
  facet normal 0 0 1
    outer loop
      vertex 75 54.5 1
      vertex 72.2 55 1
      vertex 75 54 1
    endloop
  endfacet
  facet normal 0 -0 1
    outer loop
      vertex 73.5 52 1
      vertex 75 54 1
      vertex 72.2 55 1
    endloop
  endfacet
  facet normal 0 0 1
    outer loop
      vertex 72.2 55 1
      vertex 73.5 40 1
      vertex 73.5 52 1
    endloop
  endfacet
  facet normal 0 0 1
    outer loop
      vertex 73.5 40 1
      vertex 72.2 55 1
      vertex 73.5 27 1
    endloop
  endfacet
  facet normal 0 0 1
    outer loop
      vertex 72.2 1.5 1
      vertex 73.5 27 1
      vertex 72.2 55 1
    endloop
  endfacet
  facet normal 0 0 1
    outer loop
      vertex 75 54 1
      vertex 73.5 52 1
      vertex 75 53 1
    endloop
  endfacet
  facet normal -0 0 1
    outer loop
      vertex 75 3 1
      vertex 105 1.6 1
      vertex 105 3 1
    endloop
  endfacet
  facet normal 0 0 1
    outer loop
      vertex 105 1.6 1
      vertex 75 3 1
      vertex 75 1.6 1
    endloop
  endfacet
  facet normal 0 0 1
    outer loop
      vertex 75.5 15 1
      vertex 106 15 1
      vertex 75.5 27 1
    endloop
  endfacet
  facet normal -0 0 1
    outer loop
      vertex 75 37 1
      vertex 75.5 27 1
      vertex 105 37 1
    endloop
  endfacet
  facet normal 0 0 1
    outer loop
      vertex 73.5 27 1
      vertex 75 37 1
      vertex 73.5 40 1
    endloop
  endfacet
  facet normal 0 0 1
    outer loop
      vertex 75 37 1
      vertex 73.5 27 1
      vertex 75.5 27 1
    endloop
  endfacet
  facet normal 0 0 1
    outer loop
      vertex 75.5 40 1
      vertex 105 53 1
      vertex 75.5 52 1
    endloop
  endfacet
  facet normal -0 0 1
    outer loop
      vertex 75 53 1
      vertex 75.5 52 1
      vertex 105 53 1
    endloop
  endfacet
  facet normal 0 0 1
    outer loop
      vertex 75.5 52 1
      vertex 75 53 1
      vertex 73.5 52 1
    endloop
  endfacet
  facet normal -0 0 1
    outer loop
      vertex 75 54.5 1
      vertex 105 54 1
      vertex 105 54.5 1
    endloop
  endfacet
  facet normal 0 0 1
    outer loop
      vertex 105 54 1
      vertex 75 54.5 1
      vertex 75 54 1
    endloop
  endfacet
  facet normal 0 0 1
    outer loop
      vertex 105 53 1
      vertex 75.5 40 1
      vertex 105 38 1
    endloop
  endfacet
  facet normal 0 0 1
    outer loop
      vertex 75.5 40 1
      vertex 75 38 1
      vertex 105 38 1
    endloop
  endfacet
  facet normal 0 0 1
    outer loop
      vertex 75 38 1
      vertex 73.5 40 1
      vertex 75 37 1
    endloop
  endfacet
  facet normal -0 0 1
    outer loop
      vertex 73.5 40 1
      vertex 75 38 1
      vertex 75.5 40 1
    endloop
  endfacet
  facet normal 0 0 1
    outer loop
      vertex 106 15 1
      vertex 75.5 15 1
      vertex 105 4 1
    endloop
  endfacet
  facet normal 0 0 1
    outer loop
      vertex 75.5 15 1
      vertex 75 4 1
      vertex 105 4 1
    endloop
  endfacet
  facet normal 0 0 1
    outer loop
      vertex 72.2 1.5 1
      vertex 75 3 1
      vertex 75 4 1
    endloop
  endfacet
  facet normal 0 0 1
    outer loop
      vertex 75 3 1
      vertex 72.2 1.5 1
      vertex 75 1.6 1
    endloop
  endfacet
  facet normal -0 0 1
    outer loop
      vertex 73.5 15 1
      vertex 75 4 1
      vertex 75.5 15 1
    endloop
  endfacet
  facet normal 0 0 1
    outer loop
      vertex 72.2 1.5 1
      vertex 75 4 1
      vertex 73.5 15 1
    endloop
  endfacet
  facet normal 0 0 1
    outer loop
      vertex 75 1.6 1
      vertex 72.2 1.5 1
      vertex 75 1.5 1
    endloop
  endfacet
  facet normal 0 0 1
    outer loop
      vertex 73.5 27 1
      vertex 72.2 1.5 1
      vertex 73.5 15 1
    endloop
  endfacet
  facet normal 0 0 1
    outer loop
      vertex 105 38 1
      vertex 107.7 40 1
      vertex 106 40 1
    endloop
  endfacet
  facet normal 0 0 1
    outer loop
      vertex 107.7 40 1
      vertex 105 37 1
      vertex 107.7 27 1
    endloop
  endfacet
  facet normal 0 0 1
    outer loop
      vertex 107.7 40 1
      vertex 110.2 55 1
      vertex 107.7 52 1
    endloop
  endfacet
  facet normal -0 0 1
    outer loop
      vertex 105 54.5 1
      vertex 107.7 52 1
      vertex 110.2 55 1
    endloop
  endfacet
  facet normal 0 0 1
    outer loop
      vertex 105 53 1
      vertex 106 40 1
      vertex 106 52 1
    endloop
  endfacet
  facet normal 0 0 1
    outer loop
      vertex 107.7 40 1
      vertex 105 38 1
      vertex 105 37 1
    endloop
  endfacet
  facet normal 0 0 1
    outer loop
      vertex 107.7 52 1
      vertex 105 54.5 1
      vertex 105 54 1
    endloop
  endfacet
  facet normal 0 0 1
    outer loop
      vertex 105 54.5 1
      vertex 110.2 55 1
      vertex 105 55 1
    endloop
  endfacet
  facet normal 0 0 1
    outer loop
      vertex 107.7 27 1
      vertex 110.2 55 1
      vertex 107.7 40 1
    endloop
  endfacet
  facet normal 0 0 1
    outer loop
      vertex 110.2 55 1
      vertex 107.7 27 1
      vertex 110.2 1.5 1
    endloop
  endfacet
  facet normal -0 0 1
    outer loop
      vertex 107.7 15 1
      vertex 110.2 1.5 1
      vertex 107.7 27 1
    endloop
  endfacet
  facet normal 0 0 1
    outer loop
      vertex 105 4 1
      vertex 107.7 15 1
      vertex 106 15 1
    endloop
  endfacet
  facet normal 0 0 1
    outer loop
      vertex 107.7 52 1
      vertex 105 54 1
      vertex 106 52 1
    endloop
  endfacet
  facet normal -0 0 1
    outer loop
      vertex 105 53 1
      vertex 106 52 1
      vertex 105 54 1
    endloop
  endfacet
  facet normal 0 0 1
    outer loop
      vertex 106 40 1
      vertex 105 53 1
      vertex 105 38 1
    endloop
  endfacet
  facet normal 0 0 1
    outer loop
      vertex 107.7 27 1
      vertex 105 37 1
      vertex 106 27 1
    endloop
  endfacet
  facet normal 0 0 1
    outer loop
      vertex 75.5 27 1
      vertex 106 27 1
      vertex 105 37 1
    endloop
  endfacet
  facet normal 0 0 1
    outer loop
      vertex 106 27 1
      vertex 75.5 27 1
      vertex 106 15 1
    endloop
  endfacet
  facet normal 0 0 1
    outer loop
      vertex 107.7 15 1
      vertex 105 4 1
      vertex 110.2 1.5 1
    endloop
  endfacet
  facet normal -0 0 1
    outer loop
      vertex 105 3 1
      vertex 110.2 1.5 1
      vertex 105 4 1
    endloop
  endfacet
  facet normal -0 0 1
    outer loop
      vertex 105 1.6 1
      vertex 110.2 1.5 1
      vertex 105 3 1
    endloop
  endfacet
  facet normal 0 0 1
    outer loop
      vertex 110.2 1.5 1
      vertex 105 1.6 1
      vertex 105 1.5 1
    endloop
  endfacet
  facet normal -0 0 1
    outer loop
      vertex 34.5 21.5 1
      vertex 70.2 1.5 1
      vertex 70.2 21.5 1
    endloop
  endfacet
  facet normal 0 0 1
    outer loop
      vertex 70.2 1.5 1
      vertex 34.5 21.5 1
      vertex 34.5 1.5 1
    endloop
  endfacet
  facet normal -0 0 1
    outer loop
      vertex 34.5 55 1
      vertex 70.2 23 1
      vertex 70.2 55 1
    endloop
  endfacet
  facet normal 0 0 1
    outer loop
      vertex 70.2 23 1
      vertex 34.5 55 1
      vertex 34.5 23 1
    endloop
  endfacet
  facet normal 0 1 0
    outer loop
      vertex 110.2 1.5 30
      vertex 34.5 1.5 28
      vertex 7 1.5 30
    endloop
  endfacet
  facet normal 0 1 0
    outer loop
      vertex 70.2 1.5 26
      vertex 110.2 1.5 30
      vertex 72.2 1.5 26
    endloop
  endfacet
  facet normal 0 1 0
    outer loop
      vertex 86 1.5 18.6
      vertex 110.2 1.5 30
      vertex 103.5 1.5 18.6
    endloop
  endfacet
  facet normal 0 1 -0
    outer loop
      vertex 110.2 1.5 1
      vertex 103.5 1.5 18.6
      vertex 110.2 1.5 30
    endloop
  endfacet
  facet normal 0 1 0
    outer loop
      vertex 103.5 1.5 18.6
      vertex 110.2 1.5 1
      vertex 105 1.5 5.5
    endloop
  endfacet
  facet normal 0 1 0
    outer loop
      vertex 105 1.5 5.5
      vertex 110.2 1.5 1
      vertex 105 1.5 1
    endloop
  endfacet
  facet normal 0 1 -0
    outer loop
      vertex 32.5 1.5 28
      vertex 7 1.5 30
      vertex 34.5 1.5 28
    endloop
  endfacet
  facet normal 0 1 0
    outer loop
      vertex 7 1.5 1
      vertex 32.5 1.5 28
      vertex 32.5 1.5 1
    endloop
  endfacet
  facet normal 0 1 0
    outer loop
      vertex 32.5 1.5 28
      vertex 7 1.5 1
      vertex 7 1.5 30
    endloop
  endfacet
  facet normal 0 1 0
    outer loop
      vertex 110.2 1.5 30
      vertex 70.2 1.5 26
      vertex 34.5 1.5 28
    endloop
  endfacet
  facet normal 0 1 0
    outer loop
      vertex 34.5 1.5 1
      vertex 70.2 1.5 26
      vertex 70.2 1.5 1
    endloop
  endfacet
  facet normal 0 1 0
    outer loop
      vertex 70.2 1.5 26
      vertex 34.5 1.5 1
      vertex 34.5 1.5 28
    endloop
  endfacet
  facet normal 0 1 0
    outer loop
      vertex 110.2 1.5 30
      vertex 86 1.5 18.6
      vertex 72.2 1.5 26
    endloop
  endfacet
  facet normal 0 1 0
    outer loop
      vertex 75 1.5 5.5
      vertex 86 1.5 18.6
      vertex 86 1.5 5.5
    endloop
  endfacet
  facet normal 0 1 0
    outer loop
      vertex 86 1.5 18.6
      vertex 75 1.5 5.5
      vertex 72.2 1.5 26
    endloop
  endfacet
  facet normal 0 1 0
    outer loop
      vertex 72.2 1.5 1
      vertex 75 1.5 5.5
      vertex 75 1.5 1
    endloop
  endfacet
  facet normal 0 1 0
    outer loop
      vertex 75 1.5 5.5
      vertex 72.2 1.5 1
      vertex 72.2 1.5 26
    endloop
  endfacet
  facet normal 0 1 0
    outer loop
      vertex 103.5 1.5 18.6
      vertex 105 1.5 5.5
      vertex 103.5 1.5 5.5
    endloop
  endfacet
  facet normal -1 0 0
    outer loop
      vertex 75 54.5 1
      vertex 75 55 7.5
      vertex 75 55 1
    endloop
  endfacet
  facet normal -1 -0 0
    outer loop
      vertex 75 55 7.5
      vertex 75 54.5 1
      vertex 75 54.5 7.5
    endloop
  endfacet
  facet normal -0 0 1
    outer loop
      vertex 75 55 7.5
      vertex 105 54.5 7.5
      vertex 105 55 7.5
    endloop
  endfacet
  facet normal 0 0 1
    outer loop
      vertex 105 54.5 7.5
      vertex 75 55 7.5
      vertex 75 54.5 7.5
    endloop
  endfacet
  facet normal 1 -0 0
    outer loop
      vertex 105 54.5 7.5
      vertex 105 55 1
      vertex 105 55 7.5
    endloop
  endfacet
  facet normal 1 0 0
    outer loop
      vertex 105 55 1
      vertex 105 54.5 7.5
      vertex 105 54.5 1
    endloop
  endfacet
  facet normal 0 -1 0
    outer loop
      vertex 75 54.5 1
      vertex 105 54.5 7.5
      vertex 75 54.5 7.5
    endloop
  endfacet
  facet normal 0 -1 -0
    outer loop
      vertex 105 54.5 7.5
      vertex 75 54.5 1
      vertex 105 54.5 1
    endloop
  endfacet
  facet normal -1 0 0
    outer loop
      vertex 75 53 1
      vertex 75 54 4
      vertex 75 54 1
    endloop
  endfacet
  facet normal -1 -0 0
    outer loop
      vertex 75 54 4
      vertex 75 53 1
      vertex 75 53 4
    endloop
  endfacet
  facet normal -0 0 1
    outer loop
      vertex 75 54 4
      vertex 105 53 4
      vertex 105 54 4
    endloop
  endfacet
  facet normal 0 0 1
    outer loop
      vertex 105 53 4
      vertex 75 54 4
      vertex 75 53 4
    endloop
  endfacet
  facet normal 1 -0 0
    outer loop
      vertex 105 53 4
      vertex 105 54 1
      vertex 105 54 4
    endloop
  endfacet
  facet normal 1 0 0
    outer loop
      vertex 105 54 1
      vertex 105 53 4
      vertex 105 53 1
    endloop
  endfacet
  facet normal 0 -1 0
    outer loop
      vertex 75 53 1
      vertex 105 53 4
      vertex 75 53 4
    endloop
  endfacet
  facet normal 0 -1 -0
    outer loop
      vertex 105 53 4
      vertex 75 53 1
      vertex 105 53 1
    endloop
  endfacet
  facet normal 0 1 -0
    outer loop
      vertex 105 54 1
      vertex 75 54 4
      vertex 105 54 4
    endloop
  endfacet
  facet normal 0 1 0
    outer loop
      vertex 75 54 4
      vertex 105 54 1
      vertex 75 54 1
    endloop
  endfacet
  facet normal -1 0 0
    outer loop
      vertex 75 37 1
      vertex 75 38 4
      vertex 75 38 1
    endloop
  endfacet
  facet normal -1 -0 0
    outer loop
      vertex 75 38 4
      vertex 75 37 1
      vertex 75 37 4
    endloop
  endfacet
  facet normal -0 0 1
    outer loop
      vertex 75 38 4
      vertex 105 37 4
      vertex 105 38 4
    endloop
  endfacet
  facet normal 0 0 1
    outer loop
      vertex 105 37 4
      vertex 75 38 4
      vertex 75 37 4
    endloop
  endfacet
  facet normal 1 -0 0
    outer loop
      vertex 105 37 4
      vertex 105 38 1
      vertex 105 38 4
    endloop
  endfacet
  facet normal 1 0 0
    outer loop
      vertex 105 38 1
      vertex 105 37 4
      vertex 105 37 1
    endloop
  endfacet
  facet normal 0 -1 0
    outer loop
      vertex 75 37 1
      vertex 105 37 4
      vertex 75 37 4
    endloop
  endfacet
  facet normal 0 -1 -0
    outer loop
      vertex 105 37 4
      vertex 75 37 1
      vertex 105 37 1
    endloop
  endfacet
  facet normal 0 1 -0
    outer loop
      vertex 105 38 1
      vertex 75 38 4
      vertex 105 38 4
    endloop
  endfacet
  facet normal 0 1 0
    outer loop
      vertex 75 38 4
      vertex 105 38 1
      vertex 75 38 1
    endloop
  endfacet
  facet normal -1 0 0
    outer loop
      vertex 75 3 1
      vertex 75 4 4
      vertex 75 4 1
    endloop
  endfacet
  facet normal -1 -0 0
    outer loop
      vertex 75 4 4
      vertex 75 3 1
      vertex 75 3 4
    endloop
  endfacet
  facet normal -0 0 1
    outer loop
      vertex 75 4 4
      vertex 105 3 4
      vertex 105 4 4
    endloop
  endfacet
  facet normal 0 0 1
    outer loop
      vertex 105 3 4
      vertex 75 4 4
      vertex 75 3 4
    endloop
  endfacet
  facet normal 1 -0 0
    outer loop
      vertex 105 3 4
      vertex 105 4 1
      vertex 105 4 4
    endloop
  endfacet
  facet normal 1 0 0
    outer loop
      vertex 105 4 1
      vertex 105 3 4
      vertex 105 3 1
    endloop
  endfacet
  facet normal 0 1 -0
    outer loop
      vertex 105 4 1
      vertex 75 4 4
      vertex 105 4 4
    endloop
  endfacet
  facet normal 0 1 0
    outer loop
      vertex 75 4 4
      vertex 105 4 1
      vertex 75 4 1
    endloop
  endfacet
  facet normal 0 -1 0
    outer loop
      vertex 75 3 1
      vertex 105 3 4
      vertex 75 3 4
    endloop
  endfacet
  facet normal 0 -1 -0
    outer loop
      vertex 105 3 4
      vertex 75 3 1
      vertex 105 3 1
    endloop
  endfacet
  facet normal -1 0 0
    outer loop
      vertex 75 1.5 1
      vertex 75 1.6 5.5
      vertex 75 1.6 1
    endloop
  endfacet
  facet normal -1 -0 0
    outer loop
      vertex 75 1.6 5.5
      vertex 75 1.5 1
      vertex 75 1.5 5.5
    endloop
  endfacet
  facet normal -0 0 1
    outer loop
      vertex 103.5 1.6 5.5
      vertex 105 1.5 5.5
      vertex 105 1.6 5.5
    endloop
  endfacet
  facet normal 0 0 1
    outer loop
      vertex 105 1.5 5.5
      vertex 103.5 1.6 5.5
      vertex 103.5 1.5 5.5
    endloop
  endfacet
  facet normal -0 0 1
    outer loop
      vertex 75 1.6 5.5
      vertex 86 1.5 5.5
      vertex 86 1.6 5.5
    endloop
  endfacet
  facet normal 0 0 1
    outer loop
      vertex 86 1.5 5.5
      vertex 75 1.6 5.5
      vertex 75 1.5 5.5
    endloop
  endfacet
  facet normal 1 -0 0
    outer loop
      vertex 105 1.5 5.5
      vertex 105 1.6 1
      vertex 105 1.6 5.5
    endloop
  endfacet
  facet normal 1 0 0
    outer loop
      vertex 105 1.6 1
      vertex 105 1.5 5.5
      vertex 105 1.5 1
    endloop
  endfacet
  facet normal 0 1 0
    outer loop
      vertex 105 1.6 5.5
      vertex 103.5 1.6 4.6
      vertex 103.5 1.6 5.5
    endloop
  endfacet
  facet normal 0 1 0
    outer loop
      vertex 103.5 1.6 4.6
      vertex 105 1.6 1
      vertex 86 1.6 4.6
    endloop
  endfacet
  facet normal 0 1 -0
    outer loop
      vertex 105 1.6 1
      vertex 103.5 1.6 4.6
      vertex 105 1.6 5.5
    endloop
  endfacet
  facet normal 0 1 -0
    outer loop
      vertex 86 1.6 4.6
      vertex 75 1.6 5.5
      vertex 86 1.6 5.5
    endloop
  endfacet
  facet normal 0 1 0
    outer loop
      vertex 75 1.6 1
      vertex 86 1.6 4.6
      vertex 105 1.6 1
    endloop
  endfacet
  facet normal 0 1 0
    outer loop
      vertex 86 1.6 4.6
      vertex 75 1.6 1
      vertex 75 1.6 5.5
    endloop
  endfacet
  facet normal -1 0 0
    outer loop
      vertex 73.5 15 1
      vertex 73.5 27 7.5
      vertex 73.5 27 1
    endloop
  endfacet
  facet normal -1 -0 0
    outer loop
      vertex 73.5 27 7.5
      vertex 73.5 15 1
      vertex 73.5 15 7.5
    endloop
  endfacet
  facet normal -0 0 1
    outer loop
      vertex 73.5 27 7.5
      vertex 75.5 15 7.5
      vertex 75.5 27 7.5
    endloop
  endfacet
  facet normal 0 0 1
    outer loop
      vertex 75.5 15 7.5
      vertex 73.5 27 7.5
      vertex 73.5 15 7.5
    endloop
  endfacet
  facet normal 1 -0 0
    outer loop
      vertex 75.5 15 7.5
      vertex 75.5 27 1
      vertex 75.5 27 7.5
    endloop
  endfacet
  facet normal 1 0 0
    outer loop
      vertex 75.5 27 1
      vertex 75.5 15 7.5
      vertex 75.5 15 1
    endloop
  endfacet
  facet normal 0 1 -0
    outer loop
      vertex 75.5 27 1
      vertex 73.5 27 7.5
      vertex 75.5 27 7.5
    endloop
  endfacet
  facet normal 0 1 0
    outer loop
      vertex 73.5 27 7.5
      vertex 75.5 27 1
      vertex 73.5 27 1
    endloop
  endfacet
  facet normal 0 -1 0
    outer loop
      vertex 73.5 15 1
      vertex 75.5 15 7.5
      vertex 73.5 15 7.5
    endloop
  endfacet
  facet normal 0 -1 -0
    outer loop
      vertex 75.5 15 7.5
      vertex 73.5 15 1
      vertex 75.5 15 1
    endloop
  endfacet
  facet normal -1 0 0
    outer loop
      vertex 73.5 40 1
      vertex 73.5 52 7.5
      vertex 73.5 52 1
    endloop
  endfacet
  facet normal -1 -0 0
    outer loop
      vertex 73.5 52 7.5
      vertex 73.5 40 1
      vertex 73.5 40 7.5
    endloop
  endfacet
  facet normal -0 0 1
    outer loop
      vertex 73.5 52 7.5
      vertex 75.5 40 7.5
      vertex 75.5 52 7.5
    endloop
  endfacet
  facet normal 0 0 1
    outer loop
      vertex 75.5 40 7.5
      vertex 73.5 52 7.5
      vertex 73.5 40 7.5
    endloop
  endfacet
  facet normal 1 -0 0
    outer loop
      vertex 75.5 40 7.5
      vertex 75.5 52 1
      vertex 75.5 52 7.5
    endloop
  endfacet
  facet normal 1 0 0
    outer loop
      vertex 75.5 52 1
      vertex 75.5 40 7.5
      vertex 75.5 40 1
    endloop
  endfacet
  facet normal 0 -1 0
    outer loop
      vertex 73.5 40 1
      vertex 75.5 40 7.5
      vertex 73.5 40 7.5
    endloop
  endfacet
  facet normal 0 -1 -0
    outer loop
      vertex 75.5 40 7.5
      vertex 73.5 40 1
      vertex 75.5 40 1
    endloop
  endfacet
  facet normal 0 1 -0
    outer loop
      vertex 75.5 52 1
      vertex 73.5 52 7.5
      vertex 75.5 52 7.5
    endloop
  endfacet
  facet normal 0 1 0
    outer loop
      vertex 73.5 52 7.5
      vertex 75.5 52 1
      vertex 73.5 52 1
    endloop
  endfacet
  facet normal -1 0 0
    outer loop
      vertex 106 40 1
      vertex 106 52 7.5
      vertex 106 52 1
    endloop
  endfacet
  facet normal -1 -0 0
    outer loop
      vertex 106 52 7.5
      vertex 106 40 1
      vertex 106 40 7.5
    endloop
  endfacet
  facet normal -0 0 1
    outer loop
      vertex 106 52 7.5
      vertex 107.7 40 7.5
      vertex 107.7 52 7.5
    endloop
  endfacet
  facet normal 0 0 1
    outer loop
      vertex 107.7 40 7.5
      vertex 106 52 7.5
      vertex 106 40 7.5
    endloop
  endfacet
  facet normal 1 -0 0
    outer loop
      vertex 107.7 40 7.5
      vertex 107.7 52 1
      vertex 107.7 52 7.5
    endloop
  endfacet
  facet normal 1 0 0
    outer loop
      vertex 107.7 52 1
      vertex 107.7 40 7.5
      vertex 107.7 40 1
    endloop
  endfacet
  facet normal 0 1 -0
    outer loop
      vertex 107.7 52 1
      vertex 106 52 7.5
      vertex 107.7 52 7.5
    endloop
  endfacet
  facet normal 0 1 0
    outer loop
      vertex 106 52 7.5
      vertex 107.7 52 1
      vertex 106 52 1
    endloop
  endfacet
  facet normal 0 -1 0
    outer loop
      vertex 106 40 1
      vertex 107.7 40 7.5
      vertex 106 40 7.5
    endloop
  endfacet
  facet normal 0 -1 -0
    outer loop
      vertex 107.7 40 7.5
      vertex 106 40 1
      vertex 107.7 40 1
    endloop
  endfacet
  facet normal -1 0 0
    outer loop
      vertex 106 15 1
      vertex 106 27 7.5
      vertex 106 27 1
    endloop
  endfacet
  facet normal -1 -0 0
    outer loop
      vertex 106 27 7.5
      vertex 106 15 1
      vertex 106 15 7.5
    endloop
  endfacet
  facet normal -0 0 1
    outer loop
      vertex 106 27 7.5
      vertex 107.7 15 7.5
      vertex 107.7 27 7.5
    endloop
  endfacet
  facet normal 0 0 1
    outer loop
      vertex 107.7 15 7.5
      vertex 106 27 7.5
      vertex 106 15 7.5
    endloop
  endfacet
  facet normal 1 -0 0
    outer loop
      vertex 107.7 15 7.5
      vertex 107.7 27 1
      vertex 107.7 27 7.5
    endloop
  endfacet
  facet normal 1 0 0
    outer loop
      vertex 107.7 27 1
      vertex 107.7 15 7.5
      vertex 107.7 15 1
    endloop
  endfacet
  facet normal 0 1 -0
    outer loop
      vertex 107.7 27 1
      vertex 106 27 7.5
      vertex 107.7 27 7.5
    endloop
  endfacet
  facet normal 0 1 0
    outer loop
      vertex 106 27 7.5
      vertex 107.7 27 1
      vertex 106 27 1
    endloop
  endfacet
  facet normal 0 -1 0
    outer loop
      vertex 106 15 1
      vertex 107.7 15 7.5
      vertex 106 15 7.5
    endloop
  endfacet
  facet normal 0 -1 -0
    outer loop
      vertex 107.7 15 7.5
      vertex 106 15 1
      vertex 107.7 15 1
    endloop
  endfacet
  facet normal -1 0 0
    outer loop
      vertex 32.5 1.5 1
      vertex 32.5 55 28
      vertex 32.5 55 1
    endloop
  endfacet
  facet normal -1 -0 0
    outer loop
      vertex 32.5 55 28
      vertex 32.5 1.5 1
      vertex 32.5 1.5 28
    endloop
  endfacet
  facet normal -0 0 1
    outer loop
      vertex 32.5 55 28
      vertex 34.5 1.5 28
      vertex 34.5 55 28
    endloop
  endfacet
  facet normal 0 0 1
    outer loop
      vertex 34.5 1.5 28
      vertex 32.5 55 28
      vertex 32.5 1.5 28
    endloop
  endfacet
  facet normal 1 0 0
    outer loop
      vertex 34.5 55 28
      vertex 34.5 23 26
      vertex 34.5 55 1
    endloop
  endfacet
  facet normal 1 -0 0
    outer loop
      vertex 34.5 1.5 28
      vertex 34.5 23 26
      vertex 34.5 55 28
    endloop
  endfacet
  facet normal 1 0 0
    outer loop
      vertex 34.5 23 26
      vertex 34.5 1.5 28
      vertex 34.5 21.5 26
    endloop
  endfacet
  facet normal 1 0 0
    outer loop
      vertex 34.5 1.5 1
      vertex 34.5 21.5 26
      vertex 34.5 1.5 28
    endloop
  endfacet
  facet normal 1 0 0
    outer loop
      vertex 34.5 21.5 26
      vertex 34.5 1.5 1
      vertex 34.5 21.5 1
    endloop
  endfacet
  facet normal 1 0 0
    outer loop
      vertex 34.5 55 1
      vertex 34.5 23 26
      vertex 34.5 23 1
    endloop
  endfacet
  facet normal -0 0 1
    outer loop
      vertex 34.5 23 26
      vertex 70.2 21.5 26
      vertex 70.2 23 26
    endloop
  endfacet
  facet normal 0 0 1
    outer loop
      vertex 70.2 21.5 26
      vertex 34.5 23 26
      vertex 34.5 21.5 26
    endloop
  endfacet
  facet normal 0 0 1
    outer loop
      vertex 70.2 23 26
      vertex 72.2 55 26
      vertex 70.2 55 26
    endloop
  endfacet
  facet normal 0 0 1
    outer loop
      vertex 72.2 55 26
      vertex 70.2 23 26
      vertex 72.2 1.5 26
    endloop
  endfacet
  facet normal -0 0 1
    outer loop
      vertex 70.2 21.5 26
      vertex 72.2 1.5 26
      vertex 70.2 23 26
    endloop
  endfacet
  facet normal 0 0 1
    outer loop
      vertex 72.2 1.5 26
      vertex 70.2 21.5 26
      vertex 70.2 1.5 26
    endloop
  endfacet
  facet normal 0 1 -0
    outer loop
      vertex 70.2 23 1
      vertex 34.5 23 26
      vertex 70.2 23 26
    endloop
  endfacet
  facet normal 0 1 0
    outer loop
      vertex 34.5 23 26
      vertex 70.2 23 1
      vertex 34.5 23 1
    endloop
  endfacet
  facet normal 0 -1 0
    outer loop
      vertex 34.5 21.5 1
      vertex 70.2 21.5 26
      vertex 34.5 21.5 26
    endloop
  endfacet
  facet normal 0 -1 -0
    outer loop
      vertex 70.2 21.5 26
      vertex 34.5 21.5 1
      vertex 70.2 21.5 1
    endloop
  endfacet
  facet normal -1 0 0
    outer loop
      vertex 70.2 1.5 1
      vertex 70.2 21.5 26
      vertex 70.2 21.5 1
    endloop
  endfacet
  facet normal -1 -0 0
    outer loop
      vertex 70.2 21.5 26
      vertex 70.2 1.5 1
      vertex 70.2 1.5 26
    endloop
  endfacet
  facet normal -1 0 0
    outer loop
      vertex 70.2 23 1
      vertex 70.2 55 26
      vertex 70.2 55 1
    endloop
  endfacet
  facet normal -1 -0 0
    outer loop
      vertex 70.2 55 26
      vertex 70.2 23 1
      vertex 70.2 23 26
    endloop
  endfacet
  facet normal 1 -0 0
    outer loop
      vertex 72.2 1.5 26
      vertex 72.2 55 1
      vertex 72.2 55 26
    endloop
  endfacet
  facet normal 1 0 0
    outer loop
      vertex 72.2 55 1
      vertex 72.2 1.5 26
      vertex 72.2 1.5 1
    endloop
  endfacet
  facet normal -0.987688 -0.156435 0
    outer loop
      vertex 5.25 3.5 1.05
      vertex 5.16435 4.04078 30
      vertex 5.16435 4.04078 1.05
    endloop
  endfacet
  facet normal -0.987688 -0.156435 0
    outer loop
      vertex 5.16435 4.04078 30
      vertex 5.25 3.5 1.05
      vertex 5.25 3.5 30
    endloop
  endfacet
  facet normal 0.156435 -0.987688 0
    outer loop
      vertex 2.95922 5.16435 1.05
      vertex 3.5 5.25 30
      vertex 2.95922 5.16435 30
    endloop
  endfacet
  facet normal 0.156435 -0.987688 0
    outer loop
      vertex 3.5 5.25 30
      vertex 2.95922 5.16435 1.05
      vertex 3.5 5.25 1.05
    endloop
  endfacet
  facet normal -0.156433 0.987689 0
    outer loop
      vertex 4.04078 1.83565 1.05
      vertex 3.5 1.75 30
      vertex 4.04078 1.83565 30
    endloop
  endfacet
  facet normal -0.156433 0.987689 0
    outer loop
      vertex 3.5 1.75 30
      vertex 4.04078 1.83565 1.05
      vertex 3.5 1.75 1.05
    endloop
  endfacet
  facet normal -0.453991 0.891006 0
    outer loop
      vertex 4.52862 2.08422 1.05
      vertex 4.04078 1.83565 30
      vertex 4.52862 2.08422 30
    endloop
  endfacet
  facet normal -0.453991 0.891006 0
    outer loop
      vertex 4.04078 1.83565 30
      vertex 4.52862 2.08422 1.05
      vertex 4.04078 1.83565 1.05
    endloop
  endfacet
  facet normal 0.453991 0.891006 -0
    outer loop
      vertex 2.95922 1.83565 1.05
      vertex 2.47138 2.08422 30
      vertex 2.95922 1.83565 30
    endloop
  endfacet
  facet normal 0.453991 0.891006 0
    outer loop
      vertex 2.47138 2.08422 30
      vertex 2.95922 1.83565 1.05
      vertex 2.47138 2.08422 1.05
    endloop
  endfacet
  facet normal -0.453991 -0.891006 0
    outer loop
      vertex 4.04078 5.16435 1.05
      vertex 4.52862 4.91578 30
      vertex 4.04078 5.16435 30
    endloop
  endfacet
  facet normal -0.453991 -0.891006 -0
    outer loop
      vertex 4.52862 4.91578 30
      vertex 4.04078 5.16435 1.05
      vertex 4.52862 4.91578 1.05
    endloop
  endfacet
  facet normal -0.891006 -0.453991 0
    outer loop
      vertex 5.16435 4.04078 1.05
      vertex 4.91578 4.52862 30
      vertex 4.91578 4.52862 1.05
    endloop
  endfacet
  facet normal -0.891006 -0.453991 0
    outer loop
      vertex 4.91578 4.52862 30
      vertex 5.16435 4.04078 1.05
      vertex 5.16435 4.04078 30
    endloop
  endfacet
  facet normal -0.156435 -0.987688 0
    outer loop
      vertex 3.5 5.25 1.05
      vertex 4.04078 5.16435 30
      vertex 3.5 5.25 30
    endloop
  endfacet
  facet normal -0.156435 -0.987688 -0
    outer loop
      vertex 4.04078 5.16435 30
      vertex 3.5 5.25 1.05
      vertex 4.04078 5.16435 1.05
    endloop
  endfacet
  facet normal 0.891006 -0.453991 0
    outer loop
      vertex 1.83565 4.04078 30
      vertex 2.08422 4.52862 1.05
      vertex 2.08422 4.52862 30
    endloop
  endfacet
  facet normal 0.891006 -0.453991 0
    outer loop
      vertex 2.08422 4.52862 1.05
      vertex 1.83565 4.04078 30
      vertex 1.83565 4.04078 1.05
    endloop
  endfacet
  facet normal 0 0 1
    outer loop
      vertex 5.16435 4.04078 1.05
      vertex 5.16435 2.95922 1.05
      vertex 5.25 3.5 1.05
    endloop
  endfacet
  facet normal 0 0 1
    outer loop
      vertex 4.91578 4.52862 1.05
      vertex 5.16435 2.95922 1.05
      vertex 5.16435 4.04078 1.05
    endloop
  endfacet
  facet normal 0 0 1
    outer loop
      vertex 4.91578 4.52862 1.05
      vertex 4.91578 2.47138 1.05
      vertex 5.16435 2.95922 1.05
    endloop
  endfacet
  facet normal 0 0 1
    outer loop
      vertex 4.52862 4.91578 1.05
      vertex 4.91578 2.47138 1.05
      vertex 4.91578 4.52862 1.05
    endloop
  endfacet
  facet normal 0 0 1
    outer loop
      vertex 4.52862 4.91578 1.05
      vertex 4.52862 2.08422 1.05
      vertex 4.91578 2.47138 1.05
    endloop
  endfacet
  facet normal 0 0 1
    outer loop
      vertex 4.04078 5.16435 1.05
      vertex 4.52862 2.08422 1.05
      vertex 4.52862 4.91578 1.05
    endloop
  endfacet
  facet normal 0 0 1
    outer loop
      vertex 4.04078 5.16435 1.05
      vertex 4.04078 1.83565 1.05
      vertex 4.52862 2.08422 1.05
    endloop
  endfacet
  facet normal 0 0 1
    outer loop
      vertex 3.5 5.25 1.05
      vertex 4.04078 1.83565 1.05
      vertex 4.04078 5.16435 1.05
    endloop
  endfacet
  facet normal 0 0 1
    outer loop
      vertex 3.5 5.25 1.05
      vertex 3.5 1.75 1.05
      vertex 4.04078 1.83565 1.05
    endloop
  endfacet
  facet normal -0 0 1
    outer loop
      vertex 2.95922 5.16435 1.05
      vertex 3.5 1.75 1.05
      vertex 3.5 5.25 1.05
    endloop
  endfacet
  facet normal 0 0 1
    outer loop
      vertex 2.95922 5.16435 1.05
      vertex 2.95922 1.83565 1.05
      vertex 3.5 1.75 1.05
    endloop
  endfacet
  facet normal -0 0 1
    outer loop
      vertex 2.47138 4.91578 1.05
      vertex 2.95922 1.83565 1.05
      vertex 2.95922 5.16435 1.05
    endloop
  endfacet
  facet normal 0 0 1
    outer loop
      vertex 2.47138 4.91578 1.05
      vertex 2.47138 2.08422 1.05
      vertex 2.95922 1.83565 1.05
    endloop
  endfacet
  facet normal -0 0 1
    outer loop
      vertex 2.08422 4.52862 1.05
      vertex 2.47138 2.08422 1.05
      vertex 2.47138 4.91578 1.05
    endloop
  endfacet
  facet normal 0 0 1
    outer loop
      vertex 2.08422 4.52862 1.05
      vertex 2.08422 2.47138 1.05
      vertex 2.47138 2.08422 1.05
    endloop
  endfacet
  facet normal -0 0 1
    outer loop
      vertex 1.83565 4.04078 1.05
      vertex 2.08422 2.47138 1.05
      vertex 2.08422 4.52862 1.05
    endloop
  endfacet
  facet normal 0 0 1
    outer loop
      vertex 1.83565 4.04078 1.05
      vertex 1.83565 2.95922 1.05
      vertex 2.08422 2.47138 1.05
    endloop
  endfacet
  facet normal 0 -0 1
    outer loop
      vertex 1.83565 2.95922 1.05
      vertex 1.83565 4.04078 1.05
      vertex 1.75 3.5 1.05
    endloop
  endfacet
  facet normal 0.987688 -0.156433 0
    outer loop
      vertex 1.75 3.5 30
      vertex 1.83565 4.04078 1.05
      vertex 1.83565 4.04078 30
    endloop
  endfacet
  facet normal 0.987688 -0.156433 0
    outer loop
      vertex 1.83565 4.04078 1.05
      vertex 1.75 3.5 30
      vertex 1.75 3.5 1.05
    endloop
  endfacet
  facet normal 0.453991 -0.891006 0
    outer loop
      vertex 2.47138 4.91578 1.05
      vertex 2.95922 5.16435 30
      vertex 2.47138 4.91578 30
    endloop
  endfacet
  facet normal 0.453991 -0.891006 0
    outer loop
      vertex 2.95922 5.16435 30
      vertex 2.47138 4.91578 1.05
      vertex 2.95922 5.16435 1.05
    endloop
  endfacet
  facet normal 0.156433 0.987688 -0
    outer loop
      vertex 3.5 1.75 1.05
      vertex 2.95922 1.83565 30
      vertex 3.5 1.75 30
    endloop
  endfacet
  facet normal 0.156433 0.987688 0
    outer loop
      vertex 2.95922 1.83565 30
      vertex 3.5 1.75 1.05
      vertex 2.95922 1.83565 1.05
    endloop
  endfacet
  facet normal 0.891006 0.453991 0
    outer loop
      vertex 2.08422 2.47138 30
      vertex 1.83565 2.95922 1.05
      vertex 1.83565 2.95922 30
    endloop
  endfacet
  facet normal 0.891006 0.453991 0
    outer loop
      vertex 1.83565 2.95922 1.05
      vertex 2.08422 2.47138 30
      vertex 2.08422 2.47138 1.05
    endloop
  endfacet
  facet normal -0.707107 -0.707107 0
    outer loop
      vertex 4.91578 4.52862 1.05
      vertex 4.52862 4.91578 30
      vertex 4.52862 4.91578 1.05
    endloop
  endfacet
  facet normal -0.707107 -0.707107 0
    outer loop
      vertex 4.52862 4.91578 30
      vertex 4.91578 4.52862 1.05
      vertex 4.91578 4.52862 30
    endloop
  endfacet
  facet normal 0.987689 0.156433 0
    outer loop
      vertex 1.83565 2.95922 30
      vertex 1.75 3.5 1.05
      vertex 1.75 3.5 30
    endloop
  endfacet
  facet normal 0.987689 0.156433 0
    outer loop
      vertex 1.75 3.5 1.05
      vertex 1.83565 2.95922 30
      vertex 1.83565 2.95922 1.05
    endloop
  endfacet
  facet normal 0.707107 -0.707107 0
    outer loop
      vertex 2.08422 4.52862 30
      vertex 2.47138 4.91578 1.05
      vertex 2.47138 4.91578 30
    endloop
  endfacet
  facet normal 0.707107 -0.707107 0
    outer loop
      vertex 2.47138 4.91578 1.05
      vertex 2.08422 4.52862 30
      vertex 2.08422 4.52862 1.05
    endloop
  endfacet
  facet normal -0.987688 0.156435 0
    outer loop
      vertex 5.16435 2.95922 1.05
      vertex 5.25 3.5 30
      vertex 5.25 3.5 1.05
    endloop
  endfacet
  facet normal -0.987688 0.156435 0
    outer loop
      vertex 5.25 3.5 30
      vertex 5.16435 2.95922 1.05
      vertex 5.16435 2.95922 30
    endloop
  endfacet
  facet normal 0.707107 0.707107 0
    outer loop
      vertex 2.47138 2.08422 30
      vertex 2.08422 2.47138 1.05
      vertex 2.08422 2.47138 30
    endloop
  endfacet
  facet normal 0.707107 0.707107 0
    outer loop
      vertex 2.08422 2.47138 1.05
      vertex 2.47138 2.08422 30
      vertex 2.47138 2.08422 1.05
    endloop
  endfacet
  facet normal -0.707107 0.707107 0
    outer loop
      vertex 4.52862 2.08422 1.05
      vertex 4.91578 2.47138 30
      vertex 4.91578 2.47138 1.05
    endloop
  endfacet
  facet normal -0.707107 0.707107 0
    outer loop
      vertex 4.91578 2.47138 30
      vertex 4.52862 2.08422 1.05
      vertex 4.52862 2.08422 30
    endloop
  endfacet
  facet normal -0.891006 0.453991 0
    outer loop
      vertex 4.91578 2.47138 1.05
      vertex 5.16435 2.95922 30
      vertex 5.16435 2.95922 1.05
    endloop
  endfacet
  facet normal -0.891006 0.453991 0
    outer loop
      vertex 5.16435 2.95922 30
      vertex 4.91578 2.47138 1.05
      vertex 4.91578 2.47138 30
    endloop
  endfacet
  facet normal -0.987689 -0.156428 0
    outer loop
      vertex 115.45 3.5 1.05
      vertex 115.364 4.04078 30
      vertex 115.364 4.04078 1.05
    endloop
  endfacet
  facet normal -0.987689 -0.156428 0
    outer loop
      vertex 115.364 4.04078 30
      vertex 115.45 3.5 1.05
      vertex 115.45 3.5 30
    endloop
  endfacet
  facet normal 0.156435 -0.987688 0
    outer loop
      vertex 113.159 5.16435 1.05
      vertex 113.7 5.25 30
      vertex 113.159 5.16435 30
    endloop
  endfacet
  facet normal 0.156435 -0.987688 0
    outer loop
      vertex 113.7 5.25 30
      vertex 113.159 5.16435 1.05
      vertex 113.7 5.25 1.05
    endloop
  endfacet
  facet normal 0.45399 0.891007 -0
    outer loop
      vertex 113.159 1.83565 1.05
      vertex 112.671 2.08422 30
      vertex 113.159 1.83565 30
    endloop
  endfacet
  facet normal 0.45399 0.891007 0
    outer loop
      vertex 112.671 2.08422 30
      vertex 113.159 1.83565 1.05
      vertex 112.671 2.08422 1.05
    endloop
  endfacet
  facet normal -0.45399 -0.891007 0
    outer loop
      vertex 114.241 5.16435 1.05
      vertex 114.729 4.91578 30
      vertex 114.241 5.16435 30
    endloop
  endfacet
  facet normal -0.45399 -0.891007 -0
    outer loop
      vertex 114.729 4.91578 30
      vertex 114.241 5.16435 1.05
      vertex 114.729 4.91578 1.05
    endloop
  endfacet
  facet normal -0.891003 -0.453996 0
    outer loop
      vertex 115.364 4.04078 1.05
      vertex 115.116 4.52862 30
      vertex 115.116 4.52862 1.05
    endloop
  endfacet
  facet normal -0.891003 -0.453996 0
    outer loop
      vertex 115.116 4.52862 30
      vertex 115.364 4.04078 1.05
      vertex 115.364 4.04078 30
    endloop
  endfacet
  facet normal -0.156435 -0.987688 0
    outer loop
      vertex 113.7 5.25 1.05
      vertex 114.241 5.16435 30
      vertex 113.7 5.25 30
    endloop
  endfacet
  facet normal -0.156435 -0.987688 -0
    outer loop
      vertex 114.241 5.16435 30
      vertex 113.7 5.25 1.05
      vertex 114.241 5.16435 1.05
    endloop
  endfacet
  facet normal 0.891009 -0.453985 0
    outer loop
      vertex 112.036 4.04078 30
      vertex 112.284 4.52862 1.05
      vertex 112.284 4.52862 30
    endloop
  endfacet
  facet normal 0.891009 -0.453985 0
    outer loop
      vertex 112.284 4.52862 1.05
      vertex 112.036 4.04078 30
      vertex 112.036 4.04078 1.05
    endloop
  endfacet
  facet normal 0 0 1
    outer loop
      vertex 115.364 4.04078 1.05
      vertex 115.364 2.95922 1.05
      vertex 115.45 3.5 1.05
    endloop
  endfacet
  facet normal 0 0 1
    outer loop
      vertex 115.116 4.52862 1.05
      vertex 115.364 2.95922 1.05
      vertex 115.364 4.04078 1.05
    endloop
  endfacet
  facet normal 0 0 1
    outer loop
      vertex 115.116 4.52862 1.05
      vertex 115.116 2.47138 1.05
      vertex 115.364 2.95922 1.05
    endloop
  endfacet
  facet normal 0 0 1
    outer loop
      vertex 114.729 4.91578 1.05
      vertex 115.116 2.47138 1.05
      vertex 115.116 4.52862 1.05
    endloop
  endfacet
  facet normal 0 0 1
    outer loop
      vertex 114.729 4.91578 1.05
      vertex 114.729 2.08422 1.05
      vertex 115.116 2.47138 1.05
    endloop
  endfacet
  facet normal 0 0 1
    outer loop
      vertex 114.241 5.16435 1.05
      vertex 114.729 2.08422 1.05
      vertex 114.729 4.91578 1.05
    endloop
  endfacet
  facet normal 0 0 1
    outer loop
      vertex 114.241 5.16435 1.05
      vertex 114.241 1.83565 1.05
      vertex 114.729 2.08422 1.05
    endloop
  endfacet
  facet normal 0 0 1
    outer loop
      vertex 113.7 5.25 1.05
      vertex 114.241 1.83565 1.05
      vertex 114.241 5.16435 1.05
    endloop
  endfacet
  facet normal 0 0 1
    outer loop
      vertex 113.7 5.25 1.05
      vertex 113.7 1.75 1.05
      vertex 114.241 1.83565 1.05
    endloop
  endfacet
  facet normal -0 0 1
    outer loop
      vertex 113.159 5.16435 1.05
      vertex 113.7 1.75 1.05
      vertex 113.7 5.25 1.05
    endloop
  endfacet
  facet normal 0 0 1
    outer loop
      vertex 113.159 5.16435 1.05
      vertex 113.159 1.83565 1.05
      vertex 113.7 1.75 1.05
    endloop
  endfacet
  facet normal -0 0 1
    outer loop
      vertex 112.671 4.91578 1.05
      vertex 113.159 1.83565 1.05
      vertex 113.159 5.16435 1.05
    endloop
  endfacet
  facet normal 0 0 1
    outer loop
      vertex 112.671 4.91578 1.05
      vertex 112.671 2.08422 1.05
      vertex 113.159 1.83565 1.05
    endloop
  endfacet
  facet normal -0 0 1
    outer loop
      vertex 112.284 4.52862 1.05
      vertex 112.671 2.08422 1.05
      vertex 112.671 4.91578 1.05
    endloop
  endfacet
  facet normal 0 0 1
    outer loop
      vertex 112.284 4.52862 1.05
      vertex 112.284 2.47138 1.05
      vertex 112.671 2.08422 1.05
    endloop
  endfacet
  facet normal -0 0 1
    outer loop
      vertex 112.036 4.04078 1.05
      vertex 112.284 2.47138 1.05
      vertex 112.284 4.52862 1.05
    endloop
  endfacet
  facet normal 0 0 1
    outer loop
      vertex 112.036 4.04078 1.05
      vertex 112.036 2.95922 1.05
      vertex 112.284 2.47138 1.05
    endloop
  endfacet
  facet normal 0 -0 1
    outer loop
      vertex 112.036 2.95922 1.05
      vertex 112.036 4.04078 1.05
      vertex 111.95 3.5 1.05
    endloop
  endfacet
  facet normal 0.987687 -0.156442 0
    outer loop
      vertex 111.95 3.5 30
      vertex 112.036 4.04078 1.05
      vertex 112.036 4.04078 30
    endloop
  endfacet
  facet normal 0.987687 -0.156442 0
    outer loop
      vertex 112.036 4.04078 1.05
      vertex 111.95 3.5 30
      vertex 111.95 3.5 1.05
    endloop
  endfacet
  facet normal 0.45399 -0.891007 0
    outer loop
      vertex 112.671 4.91578 1.05
      vertex 113.159 5.16435 30
      vertex 112.671 4.91578 30
    endloop
  endfacet
  facet normal 0.45399 -0.891007 0
    outer loop
      vertex 113.159 5.16435 30
      vertex 112.671 4.91578 1.05
      vertex 113.159 5.16435 1.05
    endloop
  endfacet
  facet normal -0.987689 0.156428 0
    outer loop
      vertex 115.364 2.95922 1.05
      vertex 115.45 3.5 30
      vertex 115.45 3.5 1.05
    endloop
  endfacet
  facet normal -0.987689 0.156428 0
    outer loop
      vertex 115.45 3.5 30
      vertex 115.364 2.95922 1.05
      vertex 115.364 2.95922 30
    endloop
  endfacet
  facet normal 0.156433 0.987688 -0
    outer loop
      vertex 113.7 1.75 1.05
      vertex 113.159 1.83565 30
      vertex 113.7 1.75 30
    endloop
  endfacet
  facet normal 0.156433 0.987688 0
    outer loop
      vertex 113.159 1.83565 30
      vertex 113.7 1.75 1.05
      vertex 113.159 1.83565 1.05
    endloop
  endfacet
  facet normal 0.891009 0.453985 0
    outer loop
      vertex 112.284 2.47138 30
      vertex 112.036 2.95922 1.05
      vertex 112.036 2.95922 30
    endloop
  endfacet
  facet normal 0.891009 0.453985 0
    outer loop
      vertex 112.036 2.95922 1.05
      vertex 112.284 2.47138 30
      vertex 112.284 2.47138 1.05
    endloop
  endfacet
  facet normal -0.707109 -0.707105 0
    outer loop
      vertex 115.116 4.52862 1.05
      vertex 114.729 4.91578 30
      vertex 114.729 4.91578 1.05
    endloop
  endfacet
  facet normal -0.707109 -0.707105 0
    outer loop
      vertex 114.729 4.91578 30
      vertex 115.116 4.52862 1.05
      vertex 115.116 4.52862 30
    endloop
  endfacet
  facet normal 0.987687 0.156442 0
    outer loop
      vertex 112.036 2.95922 30
      vertex 111.95 3.5 1.05
      vertex 111.95 3.5 30
    endloop
  endfacet
  facet normal 0.987687 0.156442 0
    outer loop
      vertex 111.95 3.5 1.05
      vertex 112.036 2.95922 30
      vertex 112.036 2.95922 1.05
    endloop
  endfacet
  facet normal 0.707109 -0.707105 0
    outer loop
      vertex 112.284 4.52862 30
      vertex 112.671 4.91578 1.05
      vertex 112.671 4.91578 30
    endloop
  endfacet
  facet normal 0.707109 -0.707105 0
    outer loop
      vertex 112.671 4.91578 1.05
      vertex 112.284 4.52862 30
      vertex 112.284 4.52862 1.05
    endloop
  endfacet
  facet normal -0.45399 0.891007 0
    outer loop
      vertex 114.729 2.08422 1.05
      vertex 114.241 1.83565 30
      vertex 114.729 2.08422 30
    endloop
  endfacet
  facet normal -0.45399 0.891007 0
    outer loop
      vertex 114.241 1.83565 30
      vertex 114.729 2.08422 1.05
      vertex 114.241 1.83565 1.05
    endloop
  endfacet
  facet normal -0.156433 0.987688 0
    outer loop
      vertex 114.241 1.83565 1.05
      vertex 113.7 1.75 30
      vertex 114.241 1.83565 30
    endloop
  endfacet
  facet normal -0.156433 0.987688 0
    outer loop
      vertex 113.7 1.75 30
      vertex 114.241 1.83565 1.05
      vertex 113.7 1.75 1.05
    endloop
  endfacet
  facet normal 0.707109 0.707105 0
    outer loop
      vertex 112.671 2.08422 30
      vertex 112.284 2.47138 1.05
      vertex 112.284 2.47138 30
    endloop
  endfacet
  facet normal 0.707109 0.707105 0
    outer loop
      vertex 112.284 2.47138 1.05
      vertex 112.671 2.08422 30
      vertex 112.671 2.08422 1.05
    endloop
  endfacet
  facet normal -0.707109 0.707105 0
    outer loop
      vertex 114.729 2.08422 1.05
      vertex 115.116 2.47138 30
      vertex 115.116 2.47138 1.05
    endloop
  endfacet
  facet normal -0.707109 0.707105 0
    outer loop
      vertex 115.116 2.47138 30
      vertex 114.729 2.08422 1.05
      vertex 114.729 2.08422 30
    endloop
  endfacet
  facet normal -0.891003 0.453996 0
    outer loop
      vertex 115.116 2.47138 1.05
      vertex 115.364 2.95922 30
      vertex 115.364 2.95922 1.05
    endloop
  endfacet
  facet normal -0.891003 0.453996 0
    outer loop
      vertex 115.364 2.95922 30
      vertex 115.116 2.47138 1.05
      vertex 115.116 2.47138 30
    endloop
  endfacet
  facet normal -0.987688 -0.156435 0
    outer loop
      vertex 5.25 53 1.05
      vertex 5.16435 53.5408 30
      vertex 5.16435 53.5408 1.05
    endloop
  endfacet
  facet normal -0.987688 -0.156435 0
    outer loop
      vertex 5.16435 53.5408 30
      vertex 5.25 53 1.05
      vertex 5.25 53 30
    endloop
  endfacet
  facet normal 0.156435 -0.987688 0
    outer loop
      vertex 2.95922 54.6643 1.05
      vertex 3.5 54.75 30
      vertex 2.95922 54.6643 30
    endloop
  endfacet
  facet normal 0.156435 -0.987688 0
    outer loop
      vertex 3.5 54.75 30
      vertex 2.95922 54.6643 1.05
      vertex 3.5 54.75 1.05
    endloop
  endfacet
  facet normal 0.453991 0.891006 -0
    outer loop
      vertex 2.95922 51.3357 1.05
      vertex 2.47138 51.5842 30
      vertex 2.95922 51.3357 30
    endloop
  endfacet
  facet normal 0.453991 0.891006 0
    outer loop
      vertex 2.47138 51.5842 30
      vertex 2.95922 51.3357 1.05
      vertex 2.47138 51.5842 1.05
    endloop
  endfacet
  facet normal -0.453991 -0.891006 0
    outer loop
      vertex 4.04078 54.6643 1.05
      vertex 4.52862 54.4158 30
      vertex 4.04078 54.6643 30
    endloop
  endfacet
  facet normal -0.453991 -0.891006 -0
    outer loop
      vertex 4.52862 54.4158 30
      vertex 4.04078 54.6643 1.05
      vertex 4.52862 54.4158 1.05
    endloop
  endfacet
  facet normal -0.891007 -0.45399 0
    outer loop
      vertex 5.16435 53.5408 1.05
      vertex 4.91578 54.0286 30
      vertex 4.91578 54.0286 1.05
    endloop
  endfacet
  facet normal -0.891007 -0.45399 0
    outer loop
      vertex 4.91578 54.0286 30
      vertex 5.16435 53.5408 1.05
      vertex 5.16435 53.5408 30
    endloop
  endfacet
  facet normal -0.156435 -0.987688 0
    outer loop
      vertex 3.5 54.75 1.05
      vertex 4.04078 54.6643 30
      vertex 3.5 54.75 30
    endloop
  endfacet
  facet normal -0.156435 -0.987688 -0
    outer loop
      vertex 4.04078 54.6643 30
      vertex 3.5 54.75 1.05
      vertex 4.04078 54.6643 1.05
    endloop
  endfacet
  facet normal 0.891007 -0.45399 0
    outer loop
      vertex 1.83565 53.5408 30
      vertex 2.08422 54.0286 1.05
      vertex 2.08422 54.0286 30
    endloop
  endfacet
  facet normal 0.891007 -0.45399 0
    outer loop
      vertex 2.08422 54.0286 1.05
      vertex 1.83565 53.5408 30
      vertex 1.83565 53.5408 1.05
    endloop
  endfacet
  facet normal 0 0 1
    outer loop
      vertex 5.16435 53.5408 1.05
      vertex 5.16435 52.4592 1.05
      vertex 5.25 53 1.05
    endloop
  endfacet
  facet normal 0 0 1
    outer loop
      vertex 4.91578 54.0286 1.05
      vertex 5.16435 52.4592 1.05
      vertex 5.16435 53.5408 1.05
    endloop
  endfacet
  facet normal 0 0 1
    outer loop
      vertex 4.91578 54.0286 1.05
      vertex 4.91578 51.9714 1.05
      vertex 5.16435 52.4592 1.05
    endloop
  endfacet
  facet normal 0 0 1
    outer loop
      vertex 4.52862 54.4158 1.05
      vertex 4.91578 51.9714 1.05
      vertex 4.91578 54.0286 1.05
    endloop
  endfacet
  facet normal 0 0 1
    outer loop
      vertex 4.52862 54.4158 1.05
      vertex 4.52862 51.5842 1.05
      vertex 4.91578 51.9714 1.05
    endloop
  endfacet
  facet normal 0 0 1
    outer loop
      vertex 4.04078 54.6643 1.05
      vertex 4.52862 51.5842 1.05
      vertex 4.52862 54.4158 1.05
    endloop
  endfacet
  facet normal 0 0 1
    outer loop
      vertex 4.04078 54.6643 1.05
      vertex 4.04078 51.3357 1.05
      vertex 4.52862 51.5842 1.05
    endloop
  endfacet
  facet normal 0 0 1
    outer loop
      vertex 3.5 54.75 1.05
      vertex 4.04078 51.3357 1.05
      vertex 4.04078 54.6643 1.05
    endloop
  endfacet
  facet normal 0 0 1
    outer loop
      vertex 3.5 54.75 1.05
      vertex 3.5 51.25 1.05
      vertex 4.04078 51.3357 1.05
    endloop
  endfacet
  facet normal -0 0 1
    outer loop
      vertex 2.95922 54.6643 1.05
      vertex 3.5 51.25 1.05
      vertex 3.5 54.75 1.05
    endloop
  endfacet
  facet normal 0 0 1
    outer loop
      vertex 2.95922 54.6643 1.05
      vertex 2.95922 51.3357 1.05
      vertex 3.5 51.25 1.05
    endloop
  endfacet
  facet normal -0 0 1
    outer loop
      vertex 2.47138 54.4158 1.05
      vertex 2.95922 51.3357 1.05
      vertex 2.95922 54.6643 1.05
    endloop
  endfacet
  facet normal 0 0 1
    outer loop
      vertex 2.47138 54.4158 1.05
      vertex 2.47138 51.5842 1.05
      vertex 2.95922 51.3357 1.05
    endloop
  endfacet
  facet normal -0 0 1
    outer loop
      vertex 2.08422 54.0286 1.05
      vertex 2.47138 51.5842 1.05
      vertex 2.47138 54.4158 1.05
    endloop
  endfacet
  facet normal 0 0 1
    outer loop
      vertex 2.08422 54.0286 1.05
      vertex 2.08422 51.9714 1.05
      vertex 2.47138 51.5842 1.05
    endloop
  endfacet
  facet normal -0 0 1
    outer loop
      vertex 1.83565 53.5408 1.05
      vertex 2.08422 51.9714 1.05
      vertex 2.08422 54.0286 1.05
    endloop
  endfacet
  facet normal 0 0 1
    outer loop
      vertex 1.83565 53.5408 1.05
      vertex 1.83565 52.4592 1.05
      vertex 2.08422 51.9714 1.05
    endloop
  endfacet
  facet normal 0 -0 1
    outer loop
      vertex 1.83565 52.4592 1.05
      vertex 1.83565 53.5408 1.05
      vertex 1.75 53 1.05
    endloop
  endfacet
  facet normal 0.987688 -0.156433 0
    outer loop
      vertex 1.75 53 30
      vertex 1.83565 53.5408 1.05
      vertex 1.83565 53.5408 30
    endloop
  endfacet
  facet normal 0.987688 -0.156433 0
    outer loop
      vertex 1.83565 53.5408 1.05
      vertex 1.75 53 30
      vertex 1.75 53 1.05
    endloop
  endfacet
  facet normal 0.453991 -0.891006 0
    outer loop
      vertex 2.47138 54.4158 1.05
      vertex 2.95922 54.6643 30
      vertex 2.47138 54.4158 30
    endloop
  endfacet
  facet normal 0.453991 -0.891006 0
    outer loop
      vertex 2.95922 54.6643 30
      vertex 2.47138 54.4158 1.05
      vertex 2.95922 54.6643 1.05
    endloop
  endfacet
  facet normal 0.156435 0.987688 -0
    outer loop
      vertex 3.5 51.25 1.05
      vertex 2.95922 51.3357 30
      vertex 3.5 51.25 30
    endloop
  endfacet
  facet normal 0.156435 0.987688 0
    outer loop
      vertex 2.95922 51.3357 30
      vertex 3.5 51.25 1.05
      vertex 2.95922 51.3357 1.05
    endloop
  endfacet
  facet normal 0.891007 0.45399 0
    outer loop
      vertex 2.08422 51.9714 30
      vertex 1.83565 52.4592 1.05
      vertex 1.83565 52.4592 30
    endloop
  endfacet
  facet normal 0.891007 0.45399 0
    outer loop
      vertex 1.83565 52.4592 1.05
      vertex 2.08422 51.9714 30
      vertex 2.08422 51.9714 1.05
    endloop
  endfacet
  facet normal -0.707105 -0.707109 0
    outer loop
      vertex 4.52862 54.4158 1.05
      vertex 4.91578 54.0286 30
      vertex 4.52862 54.4158 30
    endloop
  endfacet
  facet normal -0.707105 -0.707109 -0
    outer loop
      vertex 4.91578 54.0286 30
      vertex 4.52862 54.4158 1.05
      vertex 4.91578 54.0286 1.05
    endloop
  endfacet
  facet normal 0.987688 0.156433 0
    outer loop
      vertex 1.83565 52.4592 30
      vertex 1.75 53 1.05
      vertex 1.75 53 30
    endloop
  endfacet
  facet normal 0.987688 0.156433 0
    outer loop
      vertex 1.75 53 1.05
      vertex 1.83565 52.4592 30
      vertex 1.83565 52.4592 1.05
    endloop
  endfacet
  facet normal 0.707105 -0.707109 0
    outer loop
      vertex 2.08422 54.0286 1.05
      vertex 2.47138 54.4158 30
      vertex 2.08422 54.0286 30
    endloop
  endfacet
  facet normal 0.707105 -0.707109 0
    outer loop
      vertex 2.47138 54.4158 30
      vertex 2.08422 54.0286 1.05
      vertex 2.47138 54.4158 1.05
    endloop
  endfacet
  facet normal -0.453991 0.891006 0
    outer loop
      vertex 4.52862 51.5842 1.05
      vertex 4.04078 51.3357 30
      vertex 4.52862 51.5842 30
    endloop
  endfacet
  facet normal -0.453991 0.891006 0
    outer loop
      vertex 4.04078 51.3357 30
      vertex 4.52862 51.5842 1.05
      vertex 4.04078 51.3357 1.05
    endloop
  endfacet
  facet normal -0.987688 0.156435 0
    outer loop
      vertex 5.16435 52.4592 1.05
      vertex 5.25 53 30
      vertex 5.25 53 1.05
    endloop
  endfacet
  facet normal -0.987688 0.156435 0
    outer loop
      vertex 5.25 53 30
      vertex 5.16435 52.4592 1.05
      vertex 5.16435 52.4592 30
    endloop
  endfacet
  facet normal -0.156435 0.987688 0
    outer loop
      vertex 4.04078 51.3357 1.05
      vertex 3.5 51.25 30
      vertex 4.04078 51.3357 30
    endloop
  endfacet
  facet normal -0.156435 0.987688 0
    outer loop
      vertex 3.5 51.25 30
      vertex 4.04078 51.3357 1.05
      vertex 3.5 51.25 1.05
    endloop
  endfacet
  facet normal 0.707105 0.707109 -0
    outer loop
      vertex 2.47138 51.5842 1.05
      vertex 2.08422 51.9714 30
      vertex 2.47138 51.5842 30
    endloop
  endfacet
  facet normal 0.707105 0.707109 0
    outer loop
      vertex 2.08422 51.9714 30
      vertex 2.47138 51.5842 1.05
      vertex 2.08422 51.9714 1.05
    endloop
  endfacet
  facet normal -0.707105 0.707109 0
    outer loop
      vertex 4.91578 51.9714 1.05
      vertex 4.52862 51.5842 30
      vertex 4.91578 51.9714 30
    endloop
  endfacet
  facet normal -0.707105 0.707109 0
    outer loop
      vertex 4.52862 51.5842 30
      vertex 4.91578 51.9714 1.05
      vertex 4.52862 51.5842 1.05
    endloop
  endfacet
  facet normal -0.891007 0.45399 0
    outer loop
      vertex 4.91578 51.9714 1.05
      vertex 5.16435 52.4592 30
      vertex 5.16435 52.4592 1.05
    endloop
  endfacet
  facet normal -0.891007 0.45399 0
    outer loop
      vertex 5.16435 52.4592 30
      vertex 4.91578 51.9714 1.05
      vertex 4.91578 51.9714 30
    endloop
  endfacet
  facet normal -0.987689 -0.156428 0
    outer loop
      vertex 115.45 53 1.05
      vertex 115.364 53.5408 30
      vertex 115.364 53.5408 1.05
    endloop
  endfacet
  facet normal -0.987689 -0.156428 0
    outer loop
      vertex 115.364 53.5408 30
      vertex 115.45 53 1.05
      vertex 115.45 53 30
    endloop
  endfacet
  facet normal 0.156435 -0.987688 0
    outer loop
      vertex 113.159 54.6643 1.05
      vertex 113.7 54.75 30
      vertex 113.159 54.6643 30
    endloop
  endfacet
  facet normal 0.156435 -0.987688 0
    outer loop
      vertex 113.7 54.75 30
      vertex 113.159 54.6643 1.05
      vertex 113.7 54.75 1.05
    endloop
  endfacet
  facet normal -0.156435 0.987688 0
    outer loop
      vertex 114.241 51.3357 1.05
      vertex 113.7 51.25 30
      vertex 114.241 51.3357 30
    endloop
  endfacet
  facet normal -0.156435 0.987688 0
    outer loop
      vertex 113.7 51.25 30
      vertex 114.241 51.3357 1.05
      vertex 113.7 51.25 1.05
    endloop
  endfacet
  facet normal -0.45399 0.891007 0
    outer loop
      vertex 114.729 51.5842 1.05
      vertex 114.241 51.3357 30
      vertex 114.729 51.5842 30
    endloop
  endfacet
  facet normal -0.45399 0.891007 0
    outer loop
      vertex 114.241 51.3357 30
      vertex 114.729 51.5842 1.05
      vertex 114.241 51.3357 1.05
    endloop
  endfacet
  facet normal -0.45399 -0.891007 0
    outer loop
      vertex 114.241 54.6643 1.05
      vertex 114.729 54.4158 30
      vertex 114.241 54.6643 30
    endloop
  endfacet
  facet normal -0.45399 -0.891007 -0
    outer loop
      vertex 114.729 54.4158 30
      vertex 114.241 54.6643 1.05
      vertex 114.729 54.4158 1.05
    endloop
  endfacet
  facet normal -0.891004 -0.453995 0
    outer loop
      vertex 115.364 53.5408 1.05
      vertex 115.116 54.0286 30
      vertex 115.116 54.0286 1.05
    endloop
  endfacet
  facet normal -0.891004 -0.453995 0
    outer loop
      vertex 115.116 54.0286 30
      vertex 115.364 53.5408 1.05
      vertex 115.364 53.5408 30
    endloop
  endfacet
  facet normal -0.156435 -0.987688 0
    outer loop
      vertex 113.7 54.75 1.05
      vertex 114.241 54.6643 30
      vertex 113.7 54.75 30
    endloop
  endfacet
  facet normal -0.156435 -0.987688 -0
    outer loop
      vertex 114.241 54.6643 30
      vertex 113.7 54.75 1.05
      vertex 114.241 54.6643 1.05
    endloop
  endfacet
  facet normal 0.89101 -0.453984 0
    outer loop
      vertex 112.036 53.5408 30
      vertex 112.284 54.0286 1.05
      vertex 112.284 54.0286 30
    endloop
  endfacet
  facet normal 0.89101 -0.453984 0
    outer loop
      vertex 112.284 54.0286 1.05
      vertex 112.036 53.5408 30
      vertex 112.036 53.5408 1.05
    endloop
  endfacet
  facet normal 0 0 1
    outer loop
      vertex 115.364 53.5408 1.05
      vertex 115.364 52.4592 1.05
      vertex 115.45 53 1.05
    endloop
  endfacet
  facet normal 0 0 1
    outer loop
      vertex 115.116 54.0286 1.05
      vertex 115.364 52.4592 1.05
      vertex 115.364 53.5408 1.05
    endloop
  endfacet
  facet normal 0 0 1
    outer loop
      vertex 115.116 54.0286 1.05
      vertex 115.116 51.9714 1.05
      vertex 115.364 52.4592 1.05
    endloop
  endfacet
  facet normal 0 0 1
    outer loop
      vertex 114.729 54.4158 1.05
      vertex 115.116 51.9714 1.05
      vertex 115.116 54.0286 1.05
    endloop
  endfacet
  facet normal 0 0 1
    outer loop
      vertex 114.729 54.4158 1.05
      vertex 114.729 51.5842 1.05
      vertex 115.116 51.9714 1.05
    endloop
  endfacet
  facet normal 0 0 1
    outer loop
      vertex 114.241 54.6643 1.05
      vertex 114.729 51.5842 1.05
      vertex 114.729 54.4158 1.05
    endloop
  endfacet
  facet normal 0 0 1
    outer loop
      vertex 114.241 54.6643 1.05
      vertex 114.241 51.3357 1.05
      vertex 114.729 51.5842 1.05
    endloop
  endfacet
  facet normal 0 0 1
    outer loop
      vertex 113.7 54.75 1.05
      vertex 114.241 51.3357 1.05
      vertex 114.241 54.6643 1.05
    endloop
  endfacet
  facet normal 0 0 1
    outer loop
      vertex 113.7 54.75 1.05
      vertex 113.7 51.25 1.05
      vertex 114.241 51.3357 1.05
    endloop
  endfacet
  facet normal -0 0 1
    outer loop
      vertex 113.159 54.6643 1.05
      vertex 113.7 51.25 1.05
      vertex 113.7 54.75 1.05
    endloop
  endfacet
  facet normal 0 0 1
    outer loop
      vertex 113.159 54.6643 1.05
      vertex 113.159 51.3357 1.05
      vertex 113.7 51.25 1.05
    endloop
  endfacet
  facet normal -0 0 1
    outer loop
      vertex 112.671 54.4158 1.05
      vertex 113.159 51.3357 1.05
      vertex 113.159 54.6643 1.05
    endloop
  endfacet
  facet normal 0 0 1
    outer loop
      vertex 112.671 54.4158 1.05
      vertex 112.671 51.5842 1.05
      vertex 113.159 51.3357 1.05
    endloop
  endfacet
  facet normal -0 0 1
    outer loop
      vertex 112.284 54.0286 1.05
      vertex 112.671 51.5842 1.05
      vertex 112.671 54.4158 1.05
    endloop
  endfacet
  facet normal 0 0 1
    outer loop
      vertex 112.284 54.0286 1.05
      vertex 112.284 51.9714 1.05
      vertex 112.671 51.5842 1.05
    endloop
  endfacet
  facet normal -0 0 1
    outer loop
      vertex 112.036 53.5408 1.05
      vertex 112.284 51.9714 1.05
      vertex 112.284 54.0286 1.05
    endloop
  endfacet
  facet normal 0 0 1
    outer loop
      vertex 112.036 53.5408 1.05
      vertex 112.036 52.4592 1.05
      vertex 112.284 51.9714 1.05
    endloop
  endfacet
  facet normal 0 -0 1
    outer loop
      vertex 112.036 52.4592 1.05
      vertex 112.036 53.5408 1.05
      vertex 111.95 53 1.05
    endloop
  endfacet
  facet normal 0.987687 -0.156442 0
    outer loop
      vertex 111.95 53 30
      vertex 112.036 53.5408 1.05
      vertex 112.036 53.5408 30
    endloop
  endfacet
  facet normal 0.987687 -0.156442 0
    outer loop
      vertex 112.036 53.5408 1.05
      vertex 111.95 53 30
      vertex 111.95 53 1.05
    endloop
  endfacet
  facet normal 0.45399 -0.891007 0
    outer loop
      vertex 112.671 54.4158 1.05
      vertex 113.159 54.6643 30
      vertex 112.671 54.4158 30
    endloop
  endfacet
  facet normal 0.45399 -0.891007 0
    outer loop
      vertex 113.159 54.6643 30
      vertex 112.671 54.4158 1.05
      vertex 113.159 54.6643 1.05
    endloop
  endfacet
  facet normal 0.156435 0.987688 -0
    outer loop
      vertex 113.7 51.25 1.05
      vertex 113.159 51.3357 30
      vertex 113.7 51.25 30
    endloop
  endfacet
  facet normal 0.156435 0.987688 0
    outer loop
      vertex 113.159 51.3357 30
      vertex 113.7 51.25 1.05
      vertex 113.159 51.3357 1.05
    endloop
  endfacet
  facet normal 0.89101 0.453984 0
    outer loop
      vertex 112.284 51.9714 30
      vertex 112.036 52.4592 1.05
      vertex 112.036 52.4592 30
    endloop
  endfacet
  facet normal 0.89101 0.453984 0
    outer loop
      vertex 112.036 52.4592 1.05
      vertex 112.284 51.9714 30
      vertex 112.284 51.9714 1.05
    endloop
  endfacet
  facet normal -0.707107 -0.707107 0
    outer loop
      vertex 115.116 54.0286 1.05
      vertex 114.729 54.4158 30
      vertex 114.729 54.4158 1.05
    endloop
  endfacet
  facet normal -0.707107 -0.707107 0
    outer loop
      vertex 114.729 54.4158 30
      vertex 115.116 54.0286 1.05
      vertex 115.116 54.0286 30
    endloop
  endfacet
  facet normal 0.987687 0.156442 0
    outer loop
      vertex 112.036 52.4592 30
      vertex 111.95 53 1.05
      vertex 111.95 53 30
    endloop
  endfacet
  facet normal 0.987687 0.156442 0
    outer loop
      vertex 111.95 53 1.05
      vertex 112.036 52.4592 30
      vertex 112.036 52.4592 1.05
    endloop
  endfacet
  facet normal 0.707107 -0.707107 0
    outer loop
      vertex 112.284 54.0286 30
      vertex 112.671 54.4158 1.05
      vertex 112.671 54.4158 30
    endloop
  endfacet
  facet normal 0.707107 -0.707107 0
    outer loop
      vertex 112.671 54.4158 1.05
      vertex 112.284 54.0286 30
      vertex 112.284 54.0286 1.05
    endloop
  endfacet
  facet normal -0.987689 0.156428 0
    outer loop
      vertex 115.364 52.4592 1.05
      vertex 115.45 53 30
      vertex 115.45 53 1.05
    endloop
  endfacet
  facet normal -0.987689 0.156428 0
    outer loop
      vertex 115.45 53 30
      vertex 115.364 52.4592 1.05
      vertex 115.364 52.4592 30
    endloop
  endfacet
  facet normal 0.707107 0.707107 0
    outer loop
      vertex 112.671 51.5842 30
      vertex 112.284 51.9714 1.05
      vertex 112.284 51.9714 30
    endloop
  endfacet
  facet normal 0.707107 0.707107 0
    outer loop
      vertex 112.284 51.9714 1.05
      vertex 112.671 51.5842 30
      vertex 112.671 51.5842 1.05
    endloop
  endfacet
  facet normal -0.707107 0.707107 0
    outer loop
      vertex 114.729 51.5842 1.05
      vertex 115.116 51.9714 30
      vertex 115.116 51.9714 1.05
    endloop
  endfacet
  facet normal -0.707107 0.707107 0
    outer loop
      vertex 115.116 51.9714 30
      vertex 114.729 51.5842 1.05
      vertex 114.729 51.5842 30
    endloop
  endfacet
  facet normal 0.45399 0.891007 -0
    outer loop
      vertex 113.159 51.3357 1.05
      vertex 112.671 51.5842 30
      vertex 113.159 51.3357 30
    endloop
  endfacet
  facet normal 0.45399 0.891007 0
    outer loop
      vertex 112.671 51.5842 30
      vertex 113.159 51.3357 1.05
      vertex 112.671 51.5842 1.05
    endloop
  endfacet
  facet normal -0.891004 0.453995 0
    outer loop
      vertex 115.116 51.9714 1.05
      vertex 115.364 52.4592 30
      vertex 115.364 52.4592 1.05
    endloop
  endfacet
  facet normal -0.891004 0.453995 0
    outer loop
      vertex 115.364 52.4592 30
      vertex 115.116 51.9714 1.05
      vertex 115.116 51.9714 30
    endloop
  endfacet
  facet normal 1 -0 0
    outer loop
      vertex 15.75 55 11
      vertex 15.75 56.5 7
      vertex 15.75 56.5 11
    endloop
  endfacet
  facet normal 1 0 0
    outer loop
      vertex 15.75 56.5 7
      vertex 15.75 55 11
      vertex 15.75 55 7
    endloop
  endfacet
  facet normal 0 0 -1
    outer loop
      vertex 15.75 55 11
      vertex 23.75 56.5 11
      vertex 23.75 55 11
    endloop
  endfacet
  facet normal -0 0 -1
    outer loop
      vertex 23.75 56.5 11
      vertex 15.75 55 11
      vertex 15.75 56.5 11
    endloop
  endfacet
  facet normal -1 0 0
    outer loop
      vertex 23.75 55 7
      vertex 23.75 56.5 11
      vertex 23.75 56.5 7
    endloop
  endfacet
  facet normal -1 -0 0
    outer loop
      vertex 23.75 56.5 11
      vertex 23.75 55 7
      vertex 23.75 55 11
    endloop
  endfacet
  facet normal -0 0 1
    outer loop
      vertex 15.75 56.5 7
      vertex 23.75 55 7
      vertex 23.75 56.5 7
    endloop
  endfacet
  facet normal 0 0 1
    outer loop
      vertex 23.75 55 7
      vertex 15.75 56.5 7
      vertex 15.75 55 7
    endloop
  endfacet
  facet normal 1 0 0
    outer loop
      vertex 86 1.5 18.6
      vertex 86 0 18.6
      vertex 86 1.5 5.5
    endloop
  endfacet
  facet normal 1 -0 0
    outer loop
      vertex 86 1.5 5.5
      vertex 86 1.6 4.6
      vertex 86 1.6 5.5
    endloop
  endfacet
  facet normal 1 0 0
    outer loop
      vertex 86 0 4.6
      vertex 86 1.5 5.5
      vertex 86 0 18.6
    endloop
  endfacet
  facet normal 1 0 0
    outer loop
      vertex 86 1.5 5.5
      vertex 86 0 4.6
      vertex 86 1.6 4.6
    endloop
  endfacet
  facet normal 0 0 -1
    outer loop
      vertex 86 0 18.6
      vertex 103.5 1.5 18.6
      vertex 103.5 0 18.6
    endloop
  endfacet
  facet normal -0 0 -1
    outer loop
      vertex 103.5 1.5 18.6
      vertex 86 0 18.6
      vertex 86 1.5 18.6
    endloop
  endfacet
  facet normal -1 0 0
    outer loop
      vertex 103.5 1.6 4.6
      vertex 103.5 1.5 5.5
      vertex 103.5 1.6 5.5
    endloop
  endfacet
  facet normal -1 0 0
    outer loop
      vertex 103.5 0 4.6
      vertex 103.5 1.5 5.5
      vertex 103.5 1.6 4.6
    endloop
  endfacet
  facet normal -1 0 0
    outer loop
      vertex 103.5 0 18.6
      vertex 103.5 1.5 5.5
      vertex 103.5 0 4.6
    endloop
  endfacet
  facet normal -1 0 0
    outer loop
      vertex 103.5 1.5 5.5
      vertex 103.5 0 18.6
      vertex 103.5 1.5 18.6
    endloop
  endfacet
  facet normal -0 0 1
    outer loop
      vertex 86 1.6 4.6
      vertex 103.5 0 4.6
      vertex 103.5 1.6 4.6
    endloop
  endfacet
  facet normal 0 0 1
    outer loop
      vertex 103.5 0 4.6
      vertex 86 1.6 4.6
      vertex 86 0 4.6
    endloop
  endfacet
endsolid OpenSCAD_Model
