G04 PROTEUS RS274X GERBER FILE*
%FSLAX45Y45*%
%MOMM*%
G01*
%ADD20C,0.203200*%
%ADD73C,0.050000*%
%TD.AperFunction*%
D20*
X-11190000Y+8810000D02*
X-5790000Y+8810000D01*
X-5790000Y+11810000D01*
X-11190000Y+11810000D01*
X-11190000Y+8810000D01*
X-10629660Y+9724500D02*
X-7180340Y+9724500D01*
X-7180340Y+10613500D01*
X-10629660Y+10613500D01*
X-10629660Y+9724500D01*
X-10677160Y+10826500D02*
X-9640840Y+10826500D01*
X-9640840Y+11715500D01*
X-10677160Y+11715500D01*
X-10677160Y+10826500D01*
D73*
X-10550000Y+9355000D02*
X-10090000Y+9355000D01*
X-10090000Y+9585000D01*
X-10550000Y+9585000D01*
X-10550000Y+9355000D01*
X-10320000Y+9520000D02*
X-10320000Y+9420000D01*
X-10270000Y+9470000D02*
X-10370000Y+9470000D01*
X-7080000Y+9195000D02*
X-6620000Y+9195000D01*
X-6620000Y+9425000D01*
X-7080000Y+9425000D01*
X-7080000Y+9195000D01*
X-6850000Y+9360000D02*
X-6850000Y+9260000D01*
X-6800000Y+9310000D02*
X-6900000Y+9310000D01*
D20*
X-9042160Y+9135840D02*
X-8005840Y+9135840D01*
X-8005840Y+9664160D01*
X-9042160Y+9664160D01*
X-9042160Y+9135840D01*
X-7997160Y+8938840D02*
X-7722840Y+8938840D01*
X-7722840Y+9467160D01*
X-7997160Y+9467160D01*
X-7997160Y+8938840D01*
X-9347160Y+8958840D02*
X-9072840Y+8958840D01*
X-9072840Y+9487160D01*
X-9347160Y+9487160D01*
X-9347160Y+8958840D01*
D73*
X-7080000Y+8905000D02*
X-6620000Y+8905000D01*
X-6620000Y+9135000D01*
X-7080000Y+9135000D01*
X-7080000Y+8905000D01*
X-6850000Y+9070000D02*
X-6850000Y+8970000D01*
X-6800000Y+9020000D02*
X-6900000Y+9020000D01*
X-7080000Y+9485000D02*
X-6620000Y+9485000D01*
X-6620000Y+9715000D01*
X-7080000Y+9715000D01*
X-7080000Y+9485000D01*
X-6850000Y+9650000D02*
X-6850000Y+9550000D01*
X-6800000Y+9600000D02*
X-6900000Y+9600000D01*
X-6885000Y+9850000D02*
X-6885000Y+10310000D01*
X-7115000Y+10310000D01*
X-7115000Y+9850000D01*
X-6885000Y+9850000D01*
X-7050000Y+10080000D02*
X-6950000Y+10080000D01*
X-7000000Y+10130000D02*
X-7000000Y+10030000D01*
X-6625000Y+9850000D02*
X-6625000Y+10310000D01*
X-6855000Y+10310000D01*
X-6855000Y+9850000D01*
X-6625000Y+9850000D01*
X-6790000Y+10080000D02*
X-6690000Y+10080000D01*
X-6740000Y+10130000D02*
X-6740000Y+10030000D01*
X-6365000Y+9850000D02*
X-6365000Y+10310000D01*
X-6595000Y+10310000D01*
X-6595000Y+9850000D01*
X-6365000Y+9850000D01*
X-6530000Y+10080000D02*
X-6430000Y+10080000D01*
X-6480000Y+10130000D02*
X-6480000Y+10030000D01*
X-7980000Y+11025000D02*
X-7520000Y+11025000D01*
X-7520000Y+11255000D01*
X-7980000Y+11255000D01*
X-7980000Y+11025000D01*
X-7750000Y+11190000D02*
X-7750000Y+11090000D01*
X-7700000Y+11140000D02*
X-7800000Y+11140000D01*
X-10560000Y+8985000D02*
X-10100000Y+8985000D01*
X-10100000Y+9215000D01*
X-10560000Y+9215000D01*
X-10560000Y+8985000D01*
X-10330000Y+9150000D02*
X-10330000Y+9050000D01*
X-10280000Y+9100000D02*
X-10380000Y+9100000D01*
X-8540000Y+11025000D02*
X-8080000Y+11025000D01*
X-8080000Y+11255000D01*
X-8540000Y+11255000D01*
X-8540000Y+11025000D01*
X-8310000Y+11190000D02*
X-8310000Y+11090000D01*
X-8260000Y+11140000D02*
X-8360000Y+11140000D01*
X-9530000Y+9215000D02*
X-9990000Y+9215000D01*
X-9990000Y+8985000D01*
X-9530000Y+8985000D01*
X-9530000Y+9215000D01*
X-9760000Y+9050000D02*
X-9760000Y+9150000D01*
X-9810000Y+9100000D02*
X-9710000Y+9100000D01*
M02*
