G04 PROTEUS RS274X GERBER FILE*
%FSLAX45Y45*%
%MOMM*%
G01*
%ADD24C,1.016000*%
%AMPPAD017*
4,1,36,
-0.762000,-0.635000,
-0.762000,0.635000,
-0.759470,0.660970,
-0.752200,0.684980,
-0.740650,0.706580,
-0.725290,0.725290,
-0.706570,0.740650,
-0.684980,0.752200,
-0.660970,0.759470,
-0.635000,0.762000,
0.635000,0.762000,
0.660970,0.759470,
0.684980,0.752200,
0.706570,0.740650,
0.725290,0.725290,
0.740650,0.706580,
0.752200,0.684980,
0.759470,0.660970,
0.762000,0.635000,
0.762000,-0.635000,
0.759470,-0.660970,
0.752200,-0.684980,
0.740650,-0.706580,
0.725290,-0.725290,
0.706570,-0.740650,
0.684980,-0.752200,
0.660970,-0.759470,
0.635000,-0.762000,
-0.635000,-0.762000,
-0.660970,-0.759470,
-0.684980,-0.752200,
-0.706570,-0.740650,
-0.725290,-0.725290,
-0.740650,-0.706580,
-0.752200,-0.684980,
-0.759470,-0.660970,
-0.762000,-0.635000,
0*%
%ADD25PPAD017*%
%ADD16C,1.524000*%
%AMPPAD018*
4,1,36,
-0.635000,0.762000,
0.635000,0.762000,
0.660970,0.759470,
0.684980,0.752200,
0.706580,0.740650,
0.725290,0.725290,
0.740650,0.706570,
0.752200,0.684980,
0.759470,0.660970,
0.762000,0.635000,
0.762000,-0.635000,
0.759470,-0.660970,
0.752200,-0.684980,
0.740650,-0.706570,
0.725290,-0.725290,
0.706580,-0.740650,
0.684980,-0.752200,
0.660970,-0.759470,
0.635000,-0.762000,
-0.635000,-0.762000,
-0.660970,-0.759470,
-0.684980,-0.752200,
-0.706580,-0.740650,
-0.725290,-0.725290,
-0.740650,-0.706570,
-0.752200,-0.684980,
-0.759470,-0.660970,
-0.762000,-0.635000,
-0.762000,0.635000,
-0.759470,0.660970,
-0.752200,0.684980,
-0.740650,0.706570,
-0.725290,0.725290,
-0.706580,0.740650,
-0.684980,0.752200,
-0.660970,0.759470,
-0.635000,0.762000,
0*%
%ADD26PPAD018*%
%ADD19C,2.032000*%
%AMPPAD019*
4,1,4,
-0.520700,0.901700,
0.520700,0.901700,
0.520700,-0.901700,
-0.520700,-0.901700,
-0.520700,0.901700,
0*%
%ADD27PPAD019*%
%AMPPAD020*
4,1,4,
-0.546100,0.876300,
0.546100,0.876300,
0.546100,-0.876300,
-0.546100,-0.876300,
-0.546100,0.876300,
0*%
%ADD28PPAD020*%
%ADD29C,2.286000*%
%AMPPAD022*
4,1,4,
-0.901700,-0.520700,
-0.901700,0.520700,
0.901700,0.520700,
0.901700,-0.520700,
-0.901700,-0.520700,
0*%
%ADD72PPAD022*%
%ADD20C,0.203200*%
%TD.AperFunction*%
D24*
X-8910265Y+10304787D03*
X-8734628Y+10122393D03*
X-8623068Y+9983144D03*
X-8242142Y+10771043D03*
X-8108265Y+10896648D03*
D25*
X-10558000Y+9788000D03*
D16*
X-10304000Y+9788000D03*
X-10050000Y+9788000D03*
X-9796000Y+9788000D03*
X-9542000Y+9788000D03*
X-9288000Y+9788000D03*
X-9034000Y+9788000D03*
X-8780000Y+9788000D03*
X-8526000Y+9788000D03*
X-8272000Y+9788000D03*
X-8018000Y+9788000D03*
X-7764000Y+9788000D03*
X-7510000Y+9788000D03*
X-7256000Y+9788000D03*
X-7256000Y+10550000D03*
X-7510000Y+10550000D03*
X-7764000Y+10550000D03*
X-8018000Y+10550000D03*
X-8272000Y+10550000D03*
X-8526000Y+10550000D03*
X-8780000Y+10550000D03*
X-9034000Y+10550000D03*
X-9288000Y+10550000D03*
X-9542000Y+10550000D03*
X-9796000Y+10550000D03*
X-10050000Y+10550000D03*
X-10304000Y+10550000D03*
X-10556000Y+10550000D03*
D26*
X-10540000Y+10890000D03*
D16*
X-10286000Y+10890000D03*
X-10032000Y+10890000D03*
X-9778000Y+10890000D03*
X-9778000Y+11652000D03*
X-10032000Y+11652000D03*
X-10286000Y+11652000D03*
X-10540000Y+11652000D03*
D19*
X-6130000Y+10290000D03*
X-6130000Y+10540000D03*
X-6130000Y+10800000D03*
X-6130000Y+11050000D03*
X-10930000Y+10200000D03*
X-10930000Y+10710000D03*
X-6130000Y+11300000D03*
X-6130000Y+11550000D03*
X-6130000Y+9940000D03*
X-6130000Y+10290000D03*
D27*
X-10470000Y+9470000D03*
X-10170000Y+9470000D03*
D28*
X-6700000Y+9310000D03*
X-7000000Y+9310000D03*
D29*
X-8270000Y+9400000D03*
X-8778000Y+9400000D03*
D19*
X-7860000Y+9076000D03*
X-7860000Y+9330000D03*
X-9210000Y+9096000D03*
X-9210000Y+9350000D03*
D28*
X-6700000Y+9020000D03*
X-7000000Y+9020000D03*
X-6700000Y+9600000D03*
X-7000000Y+9600000D03*
D72*
X-7000000Y+9930000D03*
X-7000000Y+10230000D03*
X-6740000Y+9930000D03*
X-6740000Y+10230000D03*
X-6480000Y+9930000D03*
X-6480000Y+10230000D03*
D27*
X-7900000Y+11140000D03*
X-7600000Y+11140000D03*
X-10480000Y+9100000D03*
X-10180000Y+9100000D03*
D28*
X-8160000Y+11140000D03*
X-8460000Y+11140000D03*
X-9910000Y+9100000D03*
X-9610000Y+9100000D03*
D20*
X-11190000Y+8810000D02*
X-5790000Y+8810000D01*
X-5790000Y+11810000D01*
X-11190000Y+11810000D01*
X-11190000Y+8810000D01*
M02*
