M48
METRIC,TZ
T01C0.3810
T02C0.7620
T03C1.0160
%
T01
X-89103Y+103048
X-87346Y+101224
X-86231Y+99831
X-82421Y+107710
X-81083Y+108966
T02
X-105580Y+97880
X-103040Y+97880
X-100500Y+97880
X-97960Y+97880
X-95420Y+97880
X-92880Y+97880
X-90340Y+97880
X-87800Y+97880
X-85260Y+97880
X-82720Y+97880
X-80180Y+97880
X-77640Y+97880
X-75100Y+97880
X-72560Y+97880
X-72560Y+105500
X-75100Y+105500
X-77640Y+105500
X-80180Y+105500
X-82720Y+105500
X-85260Y+105500
X-87800Y+105500
X-90340Y+105500
X-92880Y+105500
X-95420Y+105500
X-97960Y+105500
X-100500Y+105500
X-103040Y+105500
X-105560Y+105500
X-105400Y+108900
X-102860Y+108900
X-100320Y+108900
X-97780Y+108900
X-97780Y+116520
X-100320Y+116520
X-102860Y+116520
X-105400Y+116520
X-82700Y+94000
X-87780Y+94000
X-78600Y+90760
X-78600Y+93300
X-92100Y+90960
X-92100Y+93500
T03
X-61300Y+102900
X-61300Y+105400
X-61300Y+108000
X-61300Y+110500
X-109300Y+102000
X-109300Y+107100
X-61300Y+113000
X-61300Y+115500
X-61300Y+99400
X-61300Y+102900
M30
