G04 PROTEUS RS274X GERBER FILE*
%FSLAX45Y45*%
%MOMM*%
G01*
%ADD10C,0.635000*%
%ADD11C,0.304800*%
%ADD12C,0.254000*%
%ADD13C,0.762000*%
%ADD14R,1.270000X1.270000*%
%ADD15C,1.270000*%
%ADD16C,1.524000*%
%ADD17R,1.041400X1.803400*%
%ADD18R,1.092200X1.752600*%
%ADD19C,2.032000*%
%ADD70C,1.778000*%
%ADD71R,1.803400X1.041400*%
%ADD20C,0.203200*%
%TD.AperFunction*%
D10*
X-8910265Y+10304787D02*
X-8734628Y+10129150D01*
X-8734628Y+10122393D01*
X-8623068Y+9983144D02*
X-10362856Y+9983144D01*
X-10558000Y+9788000D01*
X-10727375Y+9957375D01*
X-10727375Y+10669129D01*
X-10540000Y+10856504D01*
X-10540000Y+10890000D01*
X-8018000Y+10550000D02*
X-8239043Y+10771043D01*
X-8242142Y+10771043D01*
X-7764000Y+10550000D02*
X-8108265Y+10894265D01*
X-8108265Y+10896648D01*
X-10170000Y+9470000D02*
X-9352000Y+9470000D01*
X-9034000Y+9788000D01*
X-10470000Y+9470000D02*
X-10558000Y+9558000D01*
X-10558000Y+9788000D01*
X-8778000Y+9400000D02*
X-8526000Y+9652000D01*
X-8526000Y+9788000D01*
X-8270000Y+9400000D02*
X-8270000Y+9786000D01*
X-8272000Y+9788000D01*
X-9210000Y+9350000D02*
X-8828000Y+9350000D01*
X-8778000Y+9400000D01*
X-8270000Y+9400000D02*
X-7930000Y+9400000D01*
X-7860000Y+9330000D01*
X-7860000Y+9076000D02*
X-9190000Y+9076000D01*
X-9210000Y+9096000D01*
X-6130000Y+10540000D02*
X-6690000Y+10540000D01*
X-7000000Y+10230000D01*
X-6130000Y+10290000D02*
X-6249896Y+10409896D01*
X-6580250Y+10409896D01*
X-6740000Y+10250146D01*
X-6740000Y+10230000D01*
X-6130000Y+9940000D02*
X-6420000Y+10230000D01*
X-6480000Y+10230000D01*
D11*
X-7000000Y+9930000D02*
X-6905407Y+9835407D01*
X-6905407Y+9694328D01*
D12*
X-6905407Y+9589934D01*
X-6904850Y+9589934D01*
D11*
X-6710066Y+9589934D01*
X-6700000Y+9600000D01*
X-6740000Y+9930000D02*
X-6740000Y+9872208D01*
X-6660361Y+9792569D01*
X-6584962Y+9717170D01*
X-6584962Y+9368450D01*
X-6643412Y+9310000D01*
X-6700000Y+9310000D01*
X-6480000Y+9930000D02*
X-6480000Y+9240000D01*
X-6700000Y+9020000D01*
D10*
X-7000000Y+9600000D02*
X-7000000Y+9310000D01*
X-7000000Y+9020000D01*
X-7000000Y+9000536D01*
X-7004368Y+8996168D01*
X-7780168Y+8996168D01*
X-7860000Y+9076000D01*
X-8460000Y+11140000D02*
X-9398000Y+11140000D01*
X-9778000Y+10760000D01*
X-9778000Y+10890000D01*
X-7600000Y+11140000D02*
X-7190000Y+11550000D01*
X-6130000Y+11550000D01*
X-7900000Y+11140000D02*
X-7900000Y+11120000D01*
X-8080000Y+11120000D01*
X-8130000Y+11130000D01*
X-8160000Y+11140000D01*
X-10170000Y+9470000D02*
X-10480000Y+9160000D01*
X-10480000Y+9100000D01*
X-9910000Y+9100000D02*
X-10180000Y+9100000D01*
X-9610000Y+9100000D02*
X-9214000Y+9100000D01*
X-9210000Y+9096000D01*
D13*
X-8910265Y+10304787D03*
X-8734628Y+10122393D03*
X-8623068Y+9983144D03*
X-8242142Y+10771043D03*
X-8108265Y+10896648D03*
D14*
X-10558000Y+9788000D03*
D15*
X-10304000Y+9788000D03*
X-10050000Y+9788000D03*
X-9796000Y+9788000D03*
X-9542000Y+9788000D03*
X-9288000Y+9788000D03*
X-9034000Y+9788000D03*
X-8780000Y+9788000D03*
X-8526000Y+9788000D03*
X-8272000Y+9788000D03*
X-8018000Y+9788000D03*
X-7764000Y+9788000D03*
X-7510000Y+9788000D03*
X-7256000Y+9788000D03*
X-7256000Y+10550000D03*
X-7510000Y+10550000D03*
X-7764000Y+10550000D03*
X-8018000Y+10550000D03*
X-8272000Y+10550000D03*
X-8526000Y+10550000D03*
X-8780000Y+10550000D03*
X-9034000Y+10550000D03*
X-9288000Y+10550000D03*
X-9542000Y+10550000D03*
X-9796000Y+10550000D03*
X-10050000Y+10550000D03*
X-10304000Y+10550000D03*
X-10556000Y+10550000D03*
D14*
X-10540000Y+10890000D03*
D15*
X-10286000Y+10890000D03*
X-10032000Y+10890000D03*
X-9778000Y+10890000D03*
X-9778000Y+11652000D03*
X-10032000Y+11652000D03*
X-10286000Y+11652000D03*
X-10540000Y+11652000D03*
D16*
X-6130000Y+10290000D03*
X-6130000Y+10540000D03*
X-6130000Y+10800000D03*
X-6130000Y+11050000D03*
X-10930000Y+10200000D03*
X-10930000Y+10710000D03*
X-6130000Y+11300000D03*
X-6130000Y+11550000D03*
X-6130000Y+9940000D03*
X-6130000Y+10290000D03*
D17*
X-10470000Y+9470000D03*
X-10170000Y+9470000D03*
D18*
X-6700000Y+9310000D03*
X-7000000Y+9310000D03*
D19*
X-8270000Y+9400000D03*
X-8778000Y+9400000D03*
D70*
X-7860000Y+9076000D03*
X-7860000Y+9330000D03*
X-9210000Y+9096000D03*
X-9210000Y+9350000D03*
D18*
X-6700000Y+9020000D03*
X-7000000Y+9020000D03*
X-6700000Y+9600000D03*
X-7000000Y+9600000D03*
D71*
X-7000000Y+9930000D03*
X-7000000Y+10230000D03*
X-6740000Y+9930000D03*
X-6740000Y+10230000D03*
X-6480000Y+9930000D03*
X-6480000Y+10230000D03*
D17*
X-7900000Y+11140000D03*
X-7600000Y+11140000D03*
X-10480000Y+9100000D03*
X-10180000Y+9100000D03*
D18*
X-8160000Y+11140000D03*
X-8460000Y+11140000D03*
X-9910000Y+9100000D03*
X-9610000Y+9100000D03*
D20*
X-11190000Y+8810000D02*
X-5790000Y+8810000D01*
X-5790000Y+11810000D01*
X-11190000Y+11810000D01*
X-11190000Y+8810000D01*
M02*
