G04 PROTEUS RS274X GERBER FILE*
%FSLAX45Y45*%
%MOMM*%
G01*
%ADD20C,0.203200*%
%ADD30C,0.127000*%
%ADD21C,0.063500*%
%TD.AperFunction*%
D20*
X-8910265Y+10368287D02*
X-8910265Y+10241287D01*
X-8973765Y+10304787D02*
X-8846765Y+10304787D01*
X-8734628Y+10185893D02*
X-8734628Y+10058893D01*
X-8798128Y+10122393D02*
X-8671128Y+10122393D01*
X-8623068Y+10046644D02*
X-8623068Y+9919644D01*
X-8686568Y+9983144D02*
X-8559568Y+9983144D01*
X-8242142Y+10834543D02*
X-8242142Y+10707543D01*
X-8305642Y+10771043D02*
X-8178642Y+10771043D01*
X-8108265Y+10960148D02*
X-8108265Y+10833148D01*
X-8171765Y+10896648D02*
X-8044765Y+10896648D01*
X-10602901Y+9832901D02*
X-10513099Y+9743099D01*
X-10602901Y+9743099D02*
X-10513099Y+9832901D01*
X-10348901Y+9832901D02*
X-10259099Y+9743099D01*
X-10348901Y+9743099D02*
X-10259099Y+9832901D01*
X-10094901Y+9832901D02*
X-10005099Y+9743099D01*
X-10094901Y+9743099D02*
X-10005099Y+9832901D01*
X-9840901Y+9832901D02*
X-9751099Y+9743099D01*
X-9840901Y+9743099D02*
X-9751099Y+9832901D01*
X-9586901Y+9832901D02*
X-9497099Y+9743099D01*
X-9586901Y+9743099D02*
X-9497099Y+9832901D01*
X-9332901Y+9832901D02*
X-9243099Y+9743099D01*
X-9332901Y+9743099D02*
X-9243099Y+9832901D01*
X-9078901Y+9832901D02*
X-8989099Y+9743099D01*
X-9078901Y+9743099D02*
X-8989099Y+9832901D01*
X-8824901Y+9832901D02*
X-8735099Y+9743099D01*
X-8824901Y+9743099D02*
X-8735099Y+9832901D01*
X-8570901Y+9832901D02*
X-8481099Y+9743099D01*
X-8570901Y+9743099D02*
X-8481099Y+9832901D01*
X-8316901Y+9832901D02*
X-8227099Y+9743099D01*
X-8316901Y+9743099D02*
X-8227099Y+9832901D01*
X-8062901Y+9832901D02*
X-7973099Y+9743099D01*
X-8062901Y+9743099D02*
X-7973099Y+9832901D01*
X-7808901Y+9832901D02*
X-7719099Y+9743099D01*
X-7808901Y+9743099D02*
X-7719099Y+9832901D01*
X-7554901Y+9832901D02*
X-7465099Y+9743099D01*
X-7554901Y+9743099D02*
X-7465099Y+9832901D01*
X-7300901Y+9832901D02*
X-7211099Y+9743099D01*
X-7300901Y+9743099D02*
X-7211099Y+9832901D01*
X-7300901Y+10594901D02*
X-7211099Y+10505099D01*
X-7300901Y+10505099D02*
X-7211099Y+10594901D01*
X-7554901Y+10594901D02*
X-7465099Y+10505099D01*
X-7554901Y+10505099D02*
X-7465099Y+10594901D01*
X-7808901Y+10594901D02*
X-7719099Y+10505099D01*
X-7808901Y+10505099D02*
X-7719099Y+10594901D01*
X-8062901Y+10594901D02*
X-7973099Y+10505099D01*
X-8062901Y+10505099D02*
X-7973099Y+10594901D01*
X-8316901Y+10594901D02*
X-8227099Y+10505099D01*
X-8316901Y+10505099D02*
X-8227099Y+10594901D01*
X-8570901Y+10594901D02*
X-8481099Y+10505099D01*
X-8570901Y+10505099D02*
X-8481099Y+10594901D01*
X-8824901Y+10594901D02*
X-8735099Y+10505099D01*
X-8824901Y+10505099D02*
X-8735099Y+10594901D01*
X-9078901Y+10594901D02*
X-8989099Y+10505099D01*
X-9078901Y+10505099D02*
X-8989099Y+10594901D01*
X-9332901Y+10594901D02*
X-9243099Y+10505099D01*
X-9332901Y+10505099D02*
X-9243099Y+10594901D01*
X-9586901Y+10594901D02*
X-9497099Y+10505099D01*
X-9586901Y+10505099D02*
X-9497099Y+10594901D01*
X-9840901Y+10594901D02*
X-9751099Y+10505099D01*
X-9840901Y+10505099D02*
X-9751099Y+10594901D01*
X-10094901Y+10594901D02*
X-10005099Y+10505099D01*
X-10094901Y+10505099D02*
X-10005099Y+10594901D01*
X-10348901Y+10594901D02*
X-10259099Y+10505099D01*
X-10348901Y+10505099D02*
X-10259099Y+10594901D01*
X-10600901Y+10594901D02*
X-10511099Y+10505099D01*
X-10600901Y+10505099D02*
X-10511099Y+10594901D01*
X-10584901Y+10934901D02*
X-10495099Y+10845099D01*
X-10584901Y+10845099D02*
X-10495099Y+10934901D01*
X-10330901Y+10934901D02*
X-10241099Y+10845099D01*
X-10330901Y+10845099D02*
X-10241099Y+10934901D01*
X-10076901Y+10934901D02*
X-9987099Y+10845099D01*
X-10076901Y+10845099D02*
X-9987099Y+10934901D01*
X-9822901Y+10934901D02*
X-9733099Y+10845099D01*
X-9822901Y+10845099D02*
X-9733099Y+10934901D01*
X-9822901Y+11696901D02*
X-9733099Y+11607099D01*
X-9822901Y+11607099D02*
X-9733099Y+11696901D01*
X-10076901Y+11696901D02*
X-9987099Y+11607099D01*
X-10076901Y+11607099D02*
X-9987099Y+11696901D01*
X-10330901Y+11696901D02*
X-10241099Y+11607099D01*
X-10330901Y+11607099D02*
X-10241099Y+11696901D01*
X-10584901Y+11696901D02*
X-10495099Y+11607099D01*
X-10584901Y+11607099D02*
X-10495099Y+11696901D01*
X-6130000Y+10353500D02*
X-6130000Y+10226500D01*
X-6193500Y+10290000D02*
X-6066500Y+10290000D01*
X-6174901Y+10334901D02*
X-6085099Y+10245099D01*
X-6174901Y+10245099D02*
X-6085099Y+10334901D01*
X-6130000Y+10603500D02*
X-6130000Y+10476500D01*
X-6193500Y+10540000D02*
X-6066500Y+10540000D01*
X-6174901Y+10584901D02*
X-6085099Y+10495099D01*
X-6174901Y+10495099D02*
X-6085099Y+10584901D01*
X-6130000Y+10863500D02*
X-6130000Y+10736500D01*
X-6193500Y+10800000D02*
X-6066500Y+10800000D01*
X-6174901Y+10844901D02*
X-6085099Y+10755099D01*
X-6174901Y+10755099D02*
X-6085099Y+10844901D01*
X-6130000Y+11113500D02*
X-6130000Y+10986500D01*
X-6193500Y+11050000D02*
X-6066500Y+11050000D01*
X-6174901Y+11094901D02*
X-6085099Y+11005099D01*
X-6174901Y+11005099D02*
X-6085099Y+11094901D01*
X-10930000Y+10263500D02*
X-10930000Y+10136500D01*
X-10993500Y+10200000D02*
X-10866500Y+10200000D01*
X-10974901Y+10244901D02*
X-10885099Y+10155099D01*
X-10974901Y+10155099D02*
X-10885099Y+10244901D01*
X-10930000Y+10773500D02*
X-10930000Y+10646500D01*
X-10993500Y+10710000D02*
X-10866500Y+10710000D01*
X-10974901Y+10754901D02*
X-10885099Y+10665099D01*
X-10974901Y+10665099D02*
X-10885099Y+10754901D01*
X-6130000Y+11363500D02*
X-6130000Y+11236500D01*
X-6193500Y+11300000D02*
X-6066500Y+11300000D01*
X-6174901Y+11344901D02*
X-6085099Y+11255099D01*
X-6174901Y+11255099D02*
X-6085099Y+11344901D01*
X-6130000Y+11613500D02*
X-6130000Y+11486500D01*
X-6193500Y+11550000D02*
X-6066500Y+11550000D01*
X-6174901Y+11594901D02*
X-6085099Y+11505099D01*
X-6174901Y+11505099D02*
X-6085099Y+11594901D01*
X-6130000Y+10003500D02*
X-6130000Y+9876500D01*
X-6193500Y+9940000D02*
X-6066500Y+9940000D01*
X-6174901Y+9984901D02*
X-6085099Y+9895099D01*
X-6174901Y+9895099D02*
X-6085099Y+9984901D01*
X-6130000Y+10353500D02*
X-6130000Y+10226500D01*
X-6193500Y+10290000D02*
X-6066500Y+10290000D01*
X-6174901Y+10334901D02*
X-6085099Y+10245099D01*
X-6174901Y+10245099D02*
X-6085099Y+10334901D01*
X-8314901Y+9444901D02*
X-8225099Y+9355099D01*
X-8314901Y+9355099D02*
X-8225099Y+9444901D01*
X-8822901Y+9444901D02*
X-8733099Y+9355099D01*
X-8822901Y+9355099D02*
X-8733099Y+9444901D01*
X-7904901Y+9120901D02*
X-7815099Y+9031099D01*
X-7904901Y+9031099D02*
X-7815099Y+9120901D01*
X-7904901Y+9374901D02*
X-7815099Y+9285099D01*
X-7904901Y+9285099D02*
X-7815099Y+9374901D01*
X-9254901Y+9140901D02*
X-9165099Y+9051099D01*
X-9254901Y+9051099D02*
X-9165099Y+9140901D01*
X-9254901Y+9394901D02*
X-9165099Y+9305099D01*
X-9254901Y+9305099D02*
X-9165099Y+9394901D01*
X-11190000Y+8810000D02*
X-5790000Y+8810000D01*
X-5790000Y+11810000D01*
X-11190000Y+11810000D01*
X-11190000Y+8810000D01*
D30*
X-11200160Y+7536986D02*
X-8556020Y+7536986D01*
X-8556020Y+8540286D01*
X-11200160Y+8540286D01*
X-11200160Y+7536986D01*
D21*
X-10732798Y+8540286D02*
X-10732798Y+7536986D01*
X-9919998Y+8540286D02*
X-9919998Y+7536986D01*
X-9086878Y+8540286D02*
X-9086878Y+7536986D01*
X-11200160Y+8267236D02*
X-8556020Y+8267236D01*
X-11200160Y+8025936D02*
X-8556020Y+8025936D01*
X-11200160Y+7784636D02*
X-8556020Y+7784636D01*
D30*
X-11143010Y+8376456D02*
X-11127770Y+8361216D01*
X-11066810Y+8361216D01*
X-11051570Y+8376456D01*
X-11051570Y+8391696D01*
X-11066810Y+8406936D01*
X-11127770Y+8406936D01*
X-11143010Y+8422176D01*
X-11143010Y+8437416D01*
X-11127770Y+8452656D01*
X-11066810Y+8452656D01*
X-11051570Y+8437416D01*
X-10929650Y+8452656D02*
X-11021090Y+8361216D01*
X-11021090Y+8452656D02*
X-10975370Y+8406936D01*
X-10899170Y+8361216D02*
X-10899170Y+8452656D01*
X-10853450Y+8406936D01*
X-10807730Y+8452656D01*
X-10807730Y+8361216D01*
X-10675650Y+8376456D02*
X-10660410Y+8361216D01*
X-10599450Y+8361216D01*
X-10584210Y+8376456D01*
X-10584210Y+8391696D01*
X-10599450Y+8406936D01*
X-10660410Y+8406936D01*
X-10675650Y+8422176D01*
X-10675650Y+8437416D01*
X-10660410Y+8452656D01*
X-10599450Y+8452656D01*
X-10584210Y+8437416D01*
X-10538490Y+8452656D02*
X-10477530Y+8452656D01*
X-10508010Y+8452656D02*
X-10508010Y+8361216D01*
X-10538490Y+8361216D02*
X-10477530Y+8361216D01*
X-10431810Y+8452656D02*
X-10340370Y+8452656D01*
X-10431810Y+8361216D01*
X-10340370Y+8361216D01*
X-10218450Y+8361216D02*
X-10309890Y+8361216D01*
X-10309890Y+8452656D01*
X-10218450Y+8452656D01*
X-10309890Y+8406936D02*
X-10248930Y+8406936D01*
X-9862850Y+8361216D02*
X-9862850Y+8452656D01*
X-9786650Y+8452656D01*
X-9771410Y+8437416D01*
X-9771410Y+8422176D01*
X-9786650Y+8406936D01*
X-9862850Y+8406936D01*
X-9740930Y+8452656D02*
X-9740930Y+8361216D01*
X-9649490Y+8361216D01*
X-9619010Y+8361216D02*
X-9619010Y+8422176D01*
X-9588530Y+8452656D01*
X-9558050Y+8452656D01*
X-9527570Y+8422176D01*
X-9527570Y+8361216D01*
X-9619010Y+8391696D02*
X-9527570Y+8391696D01*
X-9497090Y+8452656D02*
X-9405650Y+8452656D01*
X-9451370Y+8452656D02*
X-9451370Y+8361216D01*
X-9283730Y+8361216D02*
X-9375170Y+8361216D01*
X-9375170Y+8452656D01*
X-9283730Y+8452656D01*
X-9375170Y+8406936D02*
X-9314210Y+8406936D01*
X-9253250Y+8361216D02*
X-9253250Y+8452656D01*
X-9192290Y+8452656D01*
X-9161810Y+8422176D01*
X-9161810Y+8391696D01*
X-9192290Y+8361216D01*
X-9253250Y+8361216D01*
X-9029730Y+8422176D02*
X-8999250Y+8452656D01*
X-8968770Y+8452656D01*
X-8938290Y+8422176D01*
X-8938290Y+8391696D01*
X-8968770Y+8361216D01*
X-8999250Y+8361216D01*
X-9029730Y+8391696D01*
X-9029730Y+8422176D01*
X-8968770Y+8391696D02*
X-8938290Y+8361216D01*
X-8907810Y+8452656D02*
X-8816370Y+8452656D01*
X-8862090Y+8452656D02*
X-8862090Y+8361216D01*
X-8694450Y+8452656D02*
X-8785890Y+8361216D01*
X-8785890Y+8452656D02*
X-8740170Y+8406936D01*
D20*
X-10953780Y+8216436D02*
X-10953780Y+8089436D01*
X-11017280Y+8152936D02*
X-10890280Y+8152936D01*
D30*
X-10656600Y+8127536D02*
X-10656600Y+8178336D01*
X-10643900Y+8191036D01*
X-10593100Y+8191036D01*
X-10580400Y+8178336D01*
X-10580400Y+8127536D01*
X-10593100Y+8114836D01*
X-10643900Y+8114836D01*
X-10656600Y+8127536D01*
X-10656600Y+8114836D02*
X-10580400Y+8191036D01*
X-10516900Y+8127536D02*
X-10504200Y+8127536D01*
X-10504200Y+8114836D01*
X-10516900Y+8114836D01*
X-10516900Y+8127536D01*
X-10440700Y+8178336D02*
X-10428000Y+8191036D01*
X-10389900Y+8191036D01*
X-10377200Y+8178336D01*
X-10377200Y+8165636D01*
X-10389900Y+8152936D01*
X-10377200Y+8140236D01*
X-10377200Y+8127536D01*
X-10389900Y+8114836D01*
X-10428000Y+8114836D01*
X-10440700Y+8127536D01*
X-10415300Y+8152936D02*
X-10389900Y+8152936D01*
X-10326400Y+8152936D02*
X-10339100Y+8165636D01*
X-10339100Y+8178336D01*
X-10326400Y+8191036D01*
X-10288300Y+8191036D01*
X-10275600Y+8178336D01*
X-10275600Y+8165636D01*
X-10288300Y+8152936D01*
X-10326400Y+8152936D01*
X-10339100Y+8140236D01*
X-10339100Y+8127536D01*
X-10326400Y+8114836D01*
X-10288300Y+8114836D01*
X-10275600Y+8127536D01*
X-10275600Y+8140236D01*
X-10288300Y+8152936D01*
X-10224800Y+8165636D02*
X-10199400Y+8191036D01*
X-10199400Y+8114836D01*
X-10148600Y+8114836D02*
X-10148600Y+8165636D01*
X-10148600Y+8152936D02*
X-10135900Y+8165636D01*
X-10110500Y+8140236D01*
X-10085100Y+8165636D01*
X-10072400Y+8152936D01*
X-10072400Y+8114836D01*
X-10047000Y+8114836D02*
X-10047000Y+8165636D01*
X-10047000Y+8152936D02*
X-10034300Y+8165636D01*
X-10008900Y+8140236D01*
X-9983500Y+8165636D01*
X-9970800Y+8152936D01*
X-9970800Y+8114836D01*
X-9754900Y+8191036D02*
X-9831100Y+8114836D01*
X-9831100Y+8191036D02*
X-9793000Y+8152936D01*
X-9653300Y+8114836D02*
X-9729500Y+8114836D01*
X-9729500Y+8191036D01*
X-9653300Y+8191036D01*
X-9729500Y+8152936D02*
X-9678700Y+8152936D01*
X-9627900Y+8127536D02*
X-9615200Y+8114836D01*
X-9564400Y+8114836D01*
X-9551700Y+8127536D01*
X-9551700Y+8140236D01*
X-9564400Y+8152936D01*
X-9615200Y+8152936D01*
X-9627900Y+8165636D01*
X-9627900Y+8178336D01*
X-9615200Y+8191036D01*
X-9564400Y+8191036D01*
X-9551700Y+8178336D01*
X-8909080Y+8191036D02*
X-8972580Y+8191036D01*
X-8972580Y+8165636D01*
X-8921780Y+8165636D01*
X-8909080Y+8152936D01*
X-8909080Y+8127536D01*
X-8921780Y+8114836D01*
X-8959880Y+8114836D01*
X-8972580Y+8127536D01*
D20*
X-10998681Y+7956537D02*
X-10908879Y+7866735D01*
X-10998681Y+7866735D02*
X-10908879Y+7956537D01*
D30*
X-10656600Y+7886236D02*
X-10656600Y+7937036D01*
X-10643900Y+7949736D01*
X-10593100Y+7949736D01*
X-10580400Y+7937036D01*
X-10580400Y+7886236D01*
X-10593100Y+7873536D01*
X-10643900Y+7873536D01*
X-10656600Y+7886236D01*
X-10656600Y+7873536D02*
X-10580400Y+7949736D01*
X-10516900Y+7886236D02*
X-10504200Y+7886236D01*
X-10504200Y+7873536D01*
X-10516900Y+7873536D01*
X-10516900Y+7886236D01*
X-10440700Y+7949736D02*
X-10377200Y+7949736D01*
X-10377200Y+7937036D01*
X-10440700Y+7873536D01*
X-10275600Y+7937036D02*
X-10288300Y+7949736D01*
X-10326400Y+7949736D01*
X-10339100Y+7937036D01*
X-10339100Y+7886236D01*
X-10326400Y+7873536D01*
X-10288300Y+7873536D01*
X-10275600Y+7886236D01*
X-10275600Y+7898936D01*
X-10288300Y+7911636D01*
X-10339100Y+7911636D01*
X-10237500Y+7937036D02*
X-10224800Y+7949736D01*
X-10186700Y+7949736D01*
X-10174000Y+7937036D01*
X-10174000Y+7924336D01*
X-10186700Y+7911636D01*
X-10224800Y+7911636D01*
X-10237500Y+7898936D01*
X-10237500Y+7873536D01*
X-10174000Y+7873536D01*
X-10148600Y+7873536D02*
X-10148600Y+7924336D01*
X-10148600Y+7911636D02*
X-10135900Y+7924336D01*
X-10110500Y+7898936D01*
X-10085100Y+7924336D01*
X-10072400Y+7911636D01*
X-10072400Y+7873536D01*
X-10047000Y+7873536D02*
X-10047000Y+7924336D01*
X-10047000Y+7911636D02*
X-10034300Y+7924336D01*
X-10008900Y+7898936D01*
X-9983500Y+7924336D01*
X-9970800Y+7911636D01*
X-9970800Y+7873536D01*
X-9754900Y+7949736D02*
X-9831100Y+7873536D01*
X-9831100Y+7949736D02*
X-9793000Y+7911636D01*
X-9653300Y+7873536D02*
X-9729500Y+7873536D01*
X-9729500Y+7949736D01*
X-9653300Y+7949736D01*
X-9729500Y+7911636D02*
X-9678700Y+7911636D01*
X-9627900Y+7886236D02*
X-9615200Y+7873536D01*
X-9564400Y+7873536D01*
X-9551700Y+7886236D01*
X-9551700Y+7898936D01*
X-9564400Y+7911636D01*
X-9615200Y+7911636D01*
X-9627900Y+7924336D01*
X-9627900Y+7937036D01*
X-9615200Y+7949736D01*
X-9564400Y+7949736D01*
X-9551700Y+7937036D01*
X-8909080Y+7898936D02*
X-8985280Y+7898936D01*
X-8934480Y+7949736D01*
X-8934480Y+7873536D01*
X-8870980Y+7937036D02*
X-8858280Y+7949736D01*
X-8820180Y+7949736D01*
X-8807480Y+7937036D01*
X-8807480Y+7924336D01*
X-8820180Y+7911636D01*
X-8858280Y+7911636D01*
X-8870980Y+7898936D01*
X-8870980Y+7873536D01*
X-8807480Y+7873536D01*
D20*
X-10953780Y+7733836D02*
X-10953780Y+7606836D01*
X-11017280Y+7670336D02*
X-10890280Y+7670336D01*
X-10998681Y+7715237D02*
X-10908879Y+7625435D01*
X-10998681Y+7625435D02*
X-10908879Y+7715237D01*
D30*
X-10631200Y+7683036D02*
X-10605800Y+7708436D01*
X-10605800Y+7632236D01*
X-10516900Y+7644936D02*
X-10504200Y+7644936D01*
X-10504200Y+7632236D01*
X-10516900Y+7632236D01*
X-10516900Y+7644936D01*
X-10453400Y+7644936D02*
X-10453400Y+7695736D01*
X-10440700Y+7708436D01*
X-10389900Y+7708436D01*
X-10377200Y+7695736D01*
X-10377200Y+7644936D01*
X-10389900Y+7632236D01*
X-10440700Y+7632236D01*
X-10453400Y+7644936D01*
X-10453400Y+7632236D02*
X-10377200Y+7708436D01*
X-10326400Y+7683036D02*
X-10301000Y+7708436D01*
X-10301000Y+7632236D01*
X-10174000Y+7695736D02*
X-10186700Y+7708436D01*
X-10224800Y+7708436D01*
X-10237500Y+7695736D01*
X-10237500Y+7644936D01*
X-10224800Y+7632236D01*
X-10186700Y+7632236D01*
X-10174000Y+7644936D01*
X-10174000Y+7657636D01*
X-10186700Y+7670336D01*
X-10237500Y+7670336D01*
X-10148600Y+7632236D02*
X-10148600Y+7683036D01*
X-10148600Y+7670336D02*
X-10135900Y+7683036D01*
X-10110500Y+7657636D01*
X-10085100Y+7683036D01*
X-10072400Y+7670336D01*
X-10072400Y+7632236D01*
X-10047000Y+7632236D02*
X-10047000Y+7683036D01*
X-10047000Y+7670336D02*
X-10034300Y+7683036D01*
X-10008900Y+7657636D01*
X-9983500Y+7683036D01*
X-9970800Y+7670336D01*
X-9970800Y+7632236D01*
X-9754900Y+7708436D02*
X-9831100Y+7632236D01*
X-9831100Y+7708436D02*
X-9793000Y+7670336D01*
X-9653300Y+7632236D02*
X-9729500Y+7632236D01*
X-9729500Y+7708436D01*
X-9653300Y+7708436D01*
X-9729500Y+7670336D02*
X-9678700Y+7670336D01*
X-9627900Y+7644936D02*
X-9615200Y+7632236D01*
X-9564400Y+7632236D01*
X-9551700Y+7644936D01*
X-9551700Y+7657636D01*
X-9564400Y+7670336D01*
X-9615200Y+7670336D01*
X-9627900Y+7683036D01*
X-9627900Y+7695736D01*
X-9615200Y+7708436D01*
X-9564400Y+7708436D01*
X-9551700Y+7695736D01*
X-8959880Y+7683036D02*
X-8934480Y+7708436D01*
X-8934480Y+7632236D01*
X-8883680Y+7644936D02*
X-8883680Y+7695736D01*
X-8870980Y+7708436D01*
X-8820180Y+7708436D01*
X-8807480Y+7695736D01*
X-8807480Y+7644936D01*
X-8820180Y+7632236D01*
X-8870980Y+7632236D01*
X-8883680Y+7644936D01*
X-8883680Y+7632236D02*
X-8807480Y+7708436D01*
M02*
