G04 PROTEUS RS274X GERBER FILE*
%FSLAX45Y45*%
%MOMM*%
G01*
%ADD20C,0.203200*%
%ADD21C,0.063500*%
%TD.AperFunction*%
D20*
X-11190000Y+8810000D02*
X-5790000Y+8810000D01*
X-5790000Y+11810000D01*
X-11190000Y+11810000D01*
X-11190000Y+8810000D01*
D21*
X-7445292Y+11081431D02*
X-7440212Y+11081431D01*
X-7455452Y+11086511D02*
X-7440212Y+11086511D01*
X-7470692Y+11091591D02*
X-7450372Y+11091591D01*
X-7485932Y+11096671D02*
X-7465612Y+11096671D01*
X-8964212Y+11101751D02*
X-8928652Y+11101751D01*
X-7496092Y+11101751D02*
X-7475772Y+11101751D01*
X-8974372Y+11106831D02*
X-8923572Y+11106831D01*
X-7506252Y+11106831D02*
X-7491012Y+11106831D01*
X-8979452Y+11111911D02*
X-8923572Y+11111911D01*
X-7521492Y+11111911D02*
X-7501172Y+11111911D01*
X-8989612Y+11116991D02*
X-8918492Y+11116991D01*
X-7531652Y+11116991D02*
X-7516412Y+11116991D01*
X-8994692Y+11122071D02*
X-8918492Y+11122071D01*
X-7546892Y+11122071D02*
X-7526572Y+11122071D01*
X-8999772Y+11127151D02*
X-8923572Y+11127151D01*
X-9009932Y+11132231D02*
X-8923572Y+11132231D01*
X-9015012Y+11137311D02*
X-8928652Y+11137311D01*
X-9025172Y+11142391D02*
X-8933732Y+11142391D01*
X-8867692Y+11142391D02*
X-8862612Y+11142391D01*
X-9030252Y+11147471D02*
X-8943892Y+11147471D01*
X-8888012Y+11147471D02*
X-8852452Y+11147471D01*
X-7678972Y+11147471D02*
X-7668812Y+11147471D01*
X-9035332Y+11152551D02*
X-8948972Y+11152551D01*
X-8893092Y+11152551D02*
X-8847372Y+11152551D01*
X-7724692Y+11152551D02*
X-7704372Y+11152551D01*
X-7689132Y+11152551D02*
X-7684052Y+11152551D01*
X-9045492Y+11157631D02*
X-8954052Y+11157631D01*
X-8903252Y+11157631D02*
X-8842292Y+11157631D01*
X-7755172Y+11157631D02*
X-7719612Y+11157631D01*
X-9050572Y+11162711D02*
X-8964212Y+11162711D01*
X-8908332Y+11162711D02*
X-8842292Y+11162711D01*
X-7785652Y+11162711D02*
X-7745012Y+11162711D01*
X-9060732Y+11167791D02*
X-8969292Y+11167791D01*
X-8918492Y+11167791D02*
X-8842292Y+11167791D01*
X-7805972Y+11167791D02*
X-7770412Y+11167791D01*
X-9065812Y+11172871D02*
X-8974372Y+11172871D01*
X-8923572Y+11172871D02*
X-8842292Y+11172871D01*
X-7821212Y+11172871D02*
X-7800892Y+11172871D01*
X-9075972Y+11177951D02*
X-8984532Y+11177951D01*
X-8928652Y+11177951D02*
X-8847372Y+11177951D01*
X-7831372Y+11177951D02*
X-7816132Y+11177951D01*
X-9081052Y+11183031D02*
X-8989612Y+11183031D01*
X-8938812Y+11183031D02*
X-8847372Y+11183031D01*
X-7841532Y+11183031D02*
X-7826292Y+11183031D01*
X-9086132Y+11188111D02*
X-8999772Y+11188111D01*
X-8943892Y+11188111D02*
X-8857532Y+11188111D01*
X-7851692Y+11188111D02*
X-7836452Y+11188111D01*
X-9091212Y+11193191D02*
X-9004852Y+11193191D01*
X-8954052Y+11193191D02*
X-8862612Y+11193191D01*
X-7861852Y+11193191D02*
X-7841532Y+11193191D01*
X-9096292Y+11198271D02*
X-9009932Y+11198271D01*
X-8959132Y+11198271D02*
X-8872772Y+11198271D01*
X-7866932Y+11198271D02*
X-7851692Y+11198271D01*
X-7694212Y+11198271D02*
X-7689132Y+11198271D01*
X-7348772Y+11198271D02*
X-7343692Y+11198271D01*
X-9096292Y+11203351D02*
X-9020092Y+11203351D01*
X-8964212Y+11203351D02*
X-8877852Y+11203351D01*
X-8816892Y+11203351D02*
X-8806732Y+11203351D01*
X-7877092Y+11203351D02*
X-7861852Y+11203351D01*
X-7765332Y+11203351D02*
X-7760252Y+11203351D01*
X-7719612Y+11203351D02*
X-7709452Y+11203351D01*
X-9101372Y+11208431D02*
X-9025172Y+11208431D01*
X-8974372Y+11208431D02*
X-8882932Y+11208431D01*
X-8832132Y+11208431D02*
X-8791492Y+11208431D01*
X-7887252Y+11208431D02*
X-7866932Y+11208431D01*
X-7861852Y+11208431D02*
X-7836452Y+11208431D01*
X-7816132Y+11208431D02*
X-7811052Y+11208431D01*
X-7800892Y+11208431D02*
X-7790732Y+11208431D01*
X-7745012Y+11208431D02*
X-7739932Y+11208431D01*
X-9101372Y+11213511D02*
X-9035332Y+11213511D01*
X-8979452Y+11213511D02*
X-8893092Y+11213511D01*
X-8842292Y+11213511D02*
X-8786412Y+11213511D01*
X-7999012Y+11213511D02*
X-7958372Y+11213511D01*
X-7892332Y+11213511D02*
X-7882172Y+11213511D01*
X-7872012Y+11213511D02*
X-7866932Y+11213511D01*
X-7709452Y+11213511D02*
X-7704372Y+11213511D01*
X-9096292Y+11218591D02*
X-9040412Y+11218591D01*
X-8989612Y+11218591D02*
X-8898172Y+11218591D01*
X-8847372Y+11218591D02*
X-8786412Y+11218591D01*
X-8004092Y+11218591D02*
X-7988852Y+11218591D01*
X-7968532Y+11218591D02*
X-7953292Y+11218591D01*
X-7902492Y+11218591D02*
X-7887252Y+11218591D01*
X-7877092Y+11218591D02*
X-7872012Y+11218591D01*
X-7714532Y+11218591D02*
X-7709452Y+11218591D01*
X-7663732Y+11218591D02*
X-7658652Y+11218591D01*
X-7389412Y+11218591D02*
X-7384332Y+11218591D01*
X-9091212Y+11223671D02*
X-9050572Y+11223671D01*
X-8994692Y+11223671D02*
X-8903252Y+11223671D01*
X-8852452Y+11223671D02*
X-8786412Y+11223671D01*
X-8009172Y+11223671D02*
X-7988852Y+11223671D01*
X-7958372Y+11223671D02*
X-7953292Y+11223671D01*
X-7912652Y+11223671D02*
X-7897412Y+11223671D01*
X-7882172Y+11223671D02*
X-7877092Y+11223671D01*
X-7719612Y+11223671D02*
X-7714532Y+11223671D01*
X-7430052Y+11223671D02*
X-7424972Y+11223671D01*
X-7394492Y+11223671D02*
X-7379252Y+11223671D01*
X-9086132Y+11228751D02*
X-9060732Y+11228751D01*
X-9004852Y+11228751D02*
X-8913412Y+11228751D01*
X-8862612Y+11228751D02*
X-8786412Y+11228751D01*
X-8014252Y+11228751D02*
X-7993932Y+11228751D01*
X-7958372Y+11228751D02*
X-7948212Y+11228751D01*
X-7917732Y+11228751D02*
X-7907572Y+11228751D01*
X-7887252Y+11228751D02*
X-7882172Y+11228751D01*
X-7846612Y+11228751D02*
X-7841532Y+11228751D01*
X-7607852Y+11228751D02*
X-7602772Y+11228751D01*
X-7389412Y+11228751D02*
X-7379252Y+11228751D01*
X-9009932Y+11233831D02*
X-8918492Y+11233831D01*
X-8867692Y+11233831D02*
X-8786412Y+11233831D01*
X-8171732Y+11233831D02*
X-8151412Y+11233831D01*
X-8019332Y+11233831D02*
X-7993932Y+11233831D01*
X-7958372Y+11233831D02*
X-7948212Y+11233831D01*
X-7927892Y+11233831D02*
X-7912652Y+11233831D01*
X-7892332Y+11233831D02*
X-7887252Y+11233831D01*
X-7872012Y+11233831D02*
X-7866932Y+11233831D01*
X-7851692Y+11233831D02*
X-7846612Y+11233831D01*
X-7816132Y+11233831D02*
X-7709452Y+11233831D01*
X-7607852Y+11233831D02*
X-7602772Y+11233831D01*
X-7516412Y+11233831D02*
X-7511332Y+11233831D01*
X-7485932Y+11233831D02*
X-7480852Y+11233831D01*
X-9015012Y+11238911D02*
X-8928652Y+11238911D01*
X-8877852Y+11238911D02*
X-8791492Y+11238911D01*
X-8186972Y+11238911D02*
X-8136172Y+11238911D01*
X-8024412Y+11238911D02*
X-8014252Y+11238911D01*
X-8004092Y+11238911D02*
X-7993932Y+11238911D01*
X-7958372Y+11238911D02*
X-7948212Y+11238911D01*
X-7932972Y+11238911D02*
X-7917732Y+11238911D01*
X-7877092Y+11238911D02*
X-7872012Y+11238911D01*
X-7612932Y+11238911D02*
X-7607852Y+11238911D01*
X-7602772Y+11238911D02*
X-7597692Y+11238911D01*
X-9025172Y+11243991D02*
X-8933732Y+11243991D01*
X-8882932Y+11243991D02*
X-8796572Y+11243991D01*
X-8192052Y+11243991D02*
X-8181892Y+11243991D01*
X-8141252Y+11243991D02*
X-8131092Y+11243991D01*
X-8024412Y+11243991D02*
X-8014252Y+11243991D01*
X-8009172Y+11243991D02*
X-7999012Y+11243991D01*
X-7958372Y+11243991D02*
X-7948212Y+11243991D01*
X-7938052Y+11243991D02*
X-7927892Y+11243991D01*
X-7882172Y+11243991D02*
X-7877092Y+11243991D01*
X-7821212Y+11243991D02*
X-7714532Y+11243991D01*
X-7480852Y+11243991D02*
X-7475772Y+11243991D01*
X-7435132Y+11243991D02*
X-7430052Y+11243991D01*
X-9030252Y+11249071D02*
X-8938812Y+11249071D01*
X-8888012Y+11249071D02*
X-8801652Y+11249071D01*
X-8197132Y+11249071D02*
X-8186972Y+11249071D01*
X-8136172Y+11249071D02*
X-8126012Y+11249071D01*
X-8029492Y+11249071D02*
X-8019332Y+11249071D01*
X-8009172Y+11249071D02*
X-7999012Y+11249071D01*
X-7958372Y+11249071D02*
X-7932972Y+11249071D01*
X-7872012Y+11249071D02*
X-7866932Y+11249071D01*
X-7821212Y+11249071D02*
X-7816132Y+11249071D01*
X-7694212Y+11249071D02*
X-7689132Y+11249071D01*
X-7440212Y+11249071D02*
X-7435132Y+11249071D01*
X-7419892Y+11249071D02*
X-7404652Y+11249071D01*
X-9040412Y+11254151D02*
X-8948972Y+11254151D01*
X-8898172Y+11254151D02*
X-8806732Y+11254151D01*
X-8755932Y+11254151D02*
X-8730532Y+11254151D01*
X-8197132Y+11254151D02*
X-8186972Y+11254151D01*
X-8131092Y+11254151D02*
X-8120932Y+11254151D01*
X-8029492Y+11254151D02*
X-8024412Y+11254151D01*
X-8014252Y+11254151D02*
X-8004092Y+11254151D01*
X-7958372Y+11254151D02*
X-7938052Y+11254151D01*
X-7877092Y+11254151D02*
X-7872012Y+11254151D01*
X-7831372Y+11254151D02*
X-7826292Y+11254151D01*
X-7821212Y+11254151D02*
X-7816132Y+11254151D01*
X-7689132Y+11254151D02*
X-7684052Y+11254151D01*
X-7618012Y+11254151D02*
X-7612932Y+11254151D01*
X-7424972Y+11254151D02*
X-7404652Y+11254151D01*
X-9045492Y+11259231D02*
X-8954052Y+11259231D01*
X-8903252Y+11259231D02*
X-8811812Y+11259231D01*
X-8761012Y+11259231D02*
X-8725452Y+11259231D01*
X-8197132Y+11259231D02*
X-8186972Y+11259231D01*
X-8126012Y+11259231D02*
X-8115852Y+11259231D01*
X-8034572Y+11259231D02*
X-8024412Y+11259231D01*
X-8019332Y+11259231D02*
X-8009172Y+11259231D01*
X-7958372Y+11259231D02*
X-7948212Y+11259231D01*
X-7902492Y+11259231D02*
X-7897412Y+11259231D01*
X-7882172Y+11259231D02*
X-7877092Y+11259231D01*
X-7800892Y+11259231D02*
X-7795812Y+11259231D01*
X-7785652Y+11259231D02*
X-7780572Y+11259231D01*
X-7765332Y+11259231D02*
X-7739932Y+11259231D01*
X-7724692Y+11259231D02*
X-7719612Y+11259231D01*
X-7699292Y+11259231D02*
X-7694212Y+11259231D01*
X-7684052Y+11259231D02*
X-7678972Y+11259231D01*
X-7414812Y+11259231D02*
X-7409732Y+11259231D01*
X-9050572Y+11264311D02*
X-8964212Y+11264311D01*
X-8913412Y+11264311D02*
X-8821972Y+11264311D01*
X-8771172Y+11264311D02*
X-8715292Y+11264311D01*
X-8197132Y+11264311D02*
X-8186972Y+11264311D01*
X-8126012Y+11264311D02*
X-8115852Y+11264311D01*
X-8034572Y+11264311D02*
X-8014252Y+11264311D01*
X-7963452Y+11264311D02*
X-7953292Y+11264311D01*
X-7927892Y+11264311D02*
X-7922812Y+11264311D01*
X-7907572Y+11264311D02*
X-7902492Y+11264311D01*
X-7887252Y+11264311D02*
X-7882172Y+11264311D01*
X-7800892Y+11264311D02*
X-7795812Y+11264311D01*
X-7694212Y+11264311D02*
X-7689132Y+11264311D01*
X-7678972Y+11264311D02*
X-7673892Y+11264311D01*
X-9055652Y+11269391D02*
X-8969292Y+11269391D01*
X-8918492Y+11269391D02*
X-8832132Y+11269391D01*
X-8776252Y+11269391D02*
X-8710212Y+11269391D01*
X-8197132Y+11269391D02*
X-8186972Y+11269391D01*
X-8120932Y+11269391D02*
X-8110772Y+11269391D01*
X-8044732Y+11269391D02*
X-8019332Y+11269391D01*
X-7968532Y+11269391D02*
X-7958372Y+11269391D01*
X-7912652Y+11269391D02*
X-7907572Y+11269391D01*
X-7892332Y+11269391D02*
X-7887252Y+11269391D01*
X-7714532Y+11269391D02*
X-7709452Y+11269391D01*
X-7689132Y+11269391D02*
X-7684052Y+11269391D01*
X-7673892Y+11269391D02*
X-7668812Y+11269391D01*
X-7475772Y+11269391D02*
X-7465612Y+11269391D01*
X-7394492Y+11269391D02*
X-7389412Y+11269391D01*
X-9060732Y+11274471D02*
X-8979452Y+11274471D01*
X-8923572Y+11274471D02*
X-8837212Y+11274471D01*
X-8781332Y+11274471D02*
X-8705132Y+11274471D01*
X-8197132Y+11274471D02*
X-8186972Y+11274471D01*
X-8120932Y+11274471D02*
X-8110772Y+11274471D01*
X-8049812Y+11274471D02*
X-8024412Y+11274471D01*
X-7968532Y+11274471D02*
X-7963452Y+11274471D01*
X-7917732Y+11274471D02*
X-7912652Y+11274471D01*
X-7684052Y+11274471D02*
X-7678972Y+11274471D01*
X-7668812Y+11274471D02*
X-7663732Y+11274471D01*
X-7475772Y+11274471D02*
X-7460532Y+11274471D01*
X-7435132Y+11274471D02*
X-7430052Y+11274471D01*
X-7404652Y+11274471D02*
X-7399572Y+11274471D01*
X-9060732Y+11279551D02*
X-8984532Y+11279551D01*
X-8933732Y+11279551D02*
X-8842292Y+11279551D01*
X-8791492Y+11279551D02*
X-8700052Y+11279551D01*
X-8197132Y+11279551D02*
X-8186972Y+11279551D01*
X-8115852Y+11279551D02*
X-8110772Y+11279551D01*
X-8054892Y+11279551D02*
X-8044732Y+11279551D01*
X-7973612Y+11279551D02*
X-7968532Y+11279551D01*
X-7917732Y+11279551D02*
X-7912652Y+11279551D01*
X-7678972Y+11279551D02*
X-7673892Y+11279551D01*
X-7668812Y+11279551D02*
X-7663732Y+11279551D01*
X-7628172Y+11279551D02*
X-7623092Y+11279551D01*
X-7475772Y+11279551D02*
X-7460532Y+11279551D01*
X-7419892Y+11279551D02*
X-7404652Y+11279551D01*
X-9065812Y+11284631D02*
X-8989612Y+11284631D01*
X-8938812Y+11284631D02*
X-8852452Y+11284631D01*
X-8801652Y+11284631D02*
X-8689892Y+11284631D01*
X-8192052Y+11284631D02*
X-8186972Y+11284631D01*
X-8115852Y+11284631D02*
X-8105692Y+11284631D01*
X-8059972Y+11284631D02*
X-8049812Y+11284631D01*
X-7983772Y+11284631D02*
X-7968532Y+11284631D01*
X-7907572Y+11284631D02*
X-7902492Y+11284631D01*
X-7851692Y+11284631D02*
X-7836452Y+11284631D01*
X-7694212Y+11284631D02*
X-7689132Y+11284631D01*
X-7668812Y+11284631D02*
X-7658652Y+11284631D01*
X-7501172Y+11284631D02*
X-7496092Y+11284631D01*
X-7445292Y+11284631D02*
X-7440212Y+11284631D01*
X-7419892Y+11284631D02*
X-7404652Y+11284631D01*
X-9065812Y+11289711D02*
X-8999772Y+11289711D01*
X-8948972Y+11289711D02*
X-8857532Y+11289711D01*
X-8806732Y+11289711D02*
X-8684812Y+11289711D01*
X-8197132Y+11289711D02*
X-8186972Y+11289711D01*
X-8115852Y+11289711D02*
X-8105692Y+11289711D01*
X-8065052Y+11289711D02*
X-8054892Y+11289711D01*
X-7993932Y+11289711D02*
X-7978692Y+11289711D01*
X-7907572Y+11289711D02*
X-7902492Y+11289711D01*
X-7851692Y+11289711D02*
X-7831372Y+11289711D01*
X-7531652Y+11289711D02*
X-7526572Y+11289711D01*
X-7419892Y+11289711D02*
X-7409732Y+11289711D01*
X-9060732Y+11294791D02*
X-9004852Y+11294791D01*
X-8954052Y+11294791D02*
X-8862612Y+11294791D01*
X-8811812Y+11294791D02*
X-8674652Y+11294791D01*
X-8197132Y+11294791D02*
X-8181892Y+11294791D01*
X-8110772Y+11294791D02*
X-8105692Y+11294791D01*
X-8065052Y+11294791D02*
X-8054892Y+11294791D01*
X-7999012Y+11294791D02*
X-7988852Y+11294791D01*
X-7907572Y+11294791D02*
X-7902492Y+11294791D01*
X-7851692Y+11294791D02*
X-7836452Y+11294791D01*
X-7673892Y+11294791D02*
X-7668812Y+11294791D01*
X-7618012Y+11294791D02*
X-7612932Y+11294791D01*
X-7516412Y+11294791D02*
X-7511332Y+11294791D01*
X-7485932Y+11294791D02*
X-7475772Y+11294791D01*
X-9060732Y+11299871D02*
X-9015012Y+11299871D01*
X-8964212Y+11299871D02*
X-8872772Y+11299871D01*
X-8816892Y+11299871D02*
X-8669572Y+11299871D01*
X-8192052Y+11299871D02*
X-8181892Y+11299871D01*
X-8110772Y+11299871D02*
X-8100612Y+11299871D01*
X-8070132Y+11299871D02*
X-8059972Y+11299871D01*
X-8014252Y+11299871D02*
X-7999012Y+11299871D01*
X-7943132Y+11299871D02*
X-7938052Y+11299871D01*
X-7932972Y+11299871D02*
X-7927892Y+11299871D01*
X-7623092Y+11299871D02*
X-7607852Y+11299871D01*
X-7516412Y+11299871D02*
X-7511332Y+11299871D01*
X-7445292Y+11299871D02*
X-7430052Y+11299871D01*
X-9055652Y+11304951D02*
X-9020092Y+11304951D01*
X-8969292Y+11304951D02*
X-8877852Y+11304951D01*
X-8827052Y+11304951D02*
X-8659412Y+11304951D01*
X-8192052Y+11304951D02*
X-8181892Y+11304951D01*
X-8110772Y+11304951D02*
X-8100612Y+11304951D01*
X-8070132Y+11304951D02*
X-8059972Y+11304951D01*
X-8019332Y+11304951D02*
X-8004092Y+11304951D01*
X-7861852Y+11304951D02*
X-7856772Y+11304951D01*
X-7790732Y+11304951D02*
X-7785652Y+11304951D01*
X-7628172Y+11304951D02*
X-7607852Y+11304951D01*
X-7541812Y+11304951D02*
X-7536732Y+11304951D01*
X-7348772Y+11304951D02*
X-7333532Y+11304951D01*
X-8974372Y+11310031D02*
X-8888012Y+11310031D01*
X-8837212Y+11310031D02*
X-8649252Y+11310031D01*
X-8192052Y+11310031D02*
X-8181892Y+11310031D01*
X-8110772Y+11310031D02*
X-8100612Y+11310031D01*
X-8070132Y+11310031D02*
X-8065052Y+11310031D01*
X-8029492Y+11310031D02*
X-8019332Y+11310031D01*
X-7938052Y+11310031D02*
X-7932972Y+11310031D01*
X-7739932Y+11310031D02*
X-7729772Y+11310031D01*
X-7612932Y+11310031D02*
X-7607852Y+11310031D01*
X-7541812Y+11310031D02*
X-7536732Y+11310031D01*
X-7501172Y+11310031D02*
X-7496092Y+11310031D01*
X-7364012Y+11310031D02*
X-7343692Y+11310031D01*
X-8979452Y+11315111D02*
X-8893092Y+11315111D01*
X-8842292Y+11315111D02*
X-8639092Y+11315111D01*
X-8192052Y+11315111D02*
X-8181892Y+11315111D01*
X-8110772Y+11315111D02*
X-8100612Y+11315111D01*
X-8070132Y+11315111D02*
X-8065052Y+11315111D01*
X-8039652Y+11315111D02*
X-8029492Y+11315111D01*
X-8019332Y+11315111D02*
X-8014252Y+11315111D01*
X-7506252Y+11315111D02*
X-7501172Y+11315111D01*
X-7491012Y+11315111D02*
X-7480852Y+11315111D01*
X-7374172Y+11315111D02*
X-7353852Y+11315111D01*
X-8989612Y+11320191D02*
X-8898172Y+11320191D01*
X-8847372Y+11320191D02*
X-8623852Y+11320191D01*
X-8197132Y+11320191D02*
X-8186972Y+11320191D01*
X-8105692Y+11320191D02*
X-8100612Y+11320191D01*
X-8070132Y+11320191D02*
X-8065052Y+11320191D01*
X-8054892Y+11320191D02*
X-8039652Y+11320191D01*
X-7912652Y+11320191D02*
X-7902492Y+11320191D01*
X-7836452Y+11320191D02*
X-7831372Y+11320191D01*
X-7506252Y+11320191D02*
X-7501172Y+11320191D01*
X-7491012Y+11320191D02*
X-7485932Y+11320191D01*
X-7465612Y+11320191D02*
X-7455452Y+11320191D01*
X-7389412Y+11320191D02*
X-7369092Y+11320191D01*
X-8994692Y+11325271D02*
X-8908332Y+11325271D01*
X-8852452Y+11325271D02*
X-8613692Y+11325271D01*
X-8197132Y+11325271D02*
X-8186972Y+11325271D01*
X-8105692Y+11325271D02*
X-8100612Y+11325271D01*
X-8075212Y+11325271D02*
X-8049812Y+11325271D01*
X-8014252Y+11325271D02*
X-8009172Y+11325271D01*
X-7841532Y+11325271D02*
X-7811052Y+11325271D01*
X-7562132Y+11325271D02*
X-7557052Y+11325271D01*
X-7404652Y+11325271D02*
X-7379252Y+11325271D01*
X-8999772Y+11330351D02*
X-8918492Y+11330351D01*
X-8862612Y+11330351D02*
X-8598452Y+11330351D01*
X-8197132Y+11330351D02*
X-8186972Y+11330351D01*
X-8110772Y+11330351D02*
X-8065052Y+11330351D01*
X-8014252Y+11330351D02*
X-8009172Y+11330351D01*
X-7917732Y+11330351D02*
X-7912652Y+11330351D01*
X-7907572Y+11330351D02*
X-7902492Y+11330351D01*
X-7841532Y+11330351D02*
X-7821212Y+11330351D01*
X-7795812Y+11330351D02*
X-7790732Y+11330351D01*
X-7562132Y+11330351D02*
X-7551972Y+11330351D01*
X-7506252Y+11330351D02*
X-7501172Y+11330351D01*
X-7491012Y+11330351D02*
X-7485932Y+11330351D01*
X-7430052Y+11330351D02*
X-7399572Y+11330351D01*
X-9004852Y+11335431D02*
X-8923572Y+11335431D01*
X-8867692Y+11335431D02*
X-8583212Y+11335431D01*
X-8197132Y+11335431D02*
X-8186972Y+11335431D01*
X-8136172Y+11335431D02*
X-8085372Y+11335431D01*
X-8014252Y+11335431D02*
X-8009172Y+11335431D01*
X-7897412Y+11335431D02*
X-7892332Y+11335431D01*
X-7841532Y+11335431D02*
X-7826292Y+11335431D01*
X-7790732Y+11335431D02*
X-7780572Y+11335431D01*
X-7562132Y+11335431D02*
X-7557052Y+11335431D01*
X-7546892Y+11335431D02*
X-7541812Y+11335431D01*
X-7445292Y+11335431D02*
X-7419892Y+11335431D01*
X-9009932Y+11340511D02*
X-8928652Y+11340511D01*
X-8877852Y+11340511D02*
X-8567972Y+11340511D01*
X-8197132Y+11340511D02*
X-8186972Y+11340511D01*
X-8156492Y+11340511D02*
X-8126012Y+11340511D01*
X-8029492Y+11340511D02*
X-8024412Y+11340511D01*
X-8009172Y+11340511D02*
X-7983772Y+11340511D01*
X-7978692Y+11340511D02*
X-7958372Y+11340511D01*
X-7938052Y+11340511D02*
X-7932972Y+11340511D01*
X-7897412Y+11340511D02*
X-7892332Y+11340511D01*
X-7887252Y+11340511D02*
X-7882172Y+11340511D01*
X-7795812Y+11340511D02*
X-7790732Y+11340511D01*
X-7770412Y+11340511D02*
X-7765332Y+11340511D01*
X-7567212Y+11340511D02*
X-7557052Y+11340511D01*
X-7546892Y+11340511D02*
X-7541812Y+11340511D01*
X-7531652Y+11340511D02*
X-7526572Y+11340511D01*
X-7465612Y+11340511D02*
X-7440212Y+11340511D01*
X-9009932Y+11345591D02*
X-8938812Y+11345591D01*
X-8882932Y+11345591D02*
X-8801652Y+11345591D01*
X-8786412Y+11345591D02*
X-8552732Y+11345591D01*
X-8192052Y+11345591D02*
X-8186972Y+11345591D01*
X-8166652Y+11345591D02*
X-8146332Y+11345591D01*
X-8029492Y+11345591D02*
X-8024412Y+11345591D01*
X-7938052Y+11345591D02*
X-7932972Y+11345591D01*
X-7882172Y+11345591D02*
X-7872012Y+11345591D01*
X-7861852Y+11345591D02*
X-7851692Y+11345591D01*
X-7755172Y+11345591D02*
X-7750092Y+11345591D01*
X-7587532Y+11345591D02*
X-7582452Y+11345591D01*
X-7572292Y+11345591D02*
X-7562132Y+11345591D01*
X-7551972Y+11345591D02*
X-7541812Y+11345591D01*
X-7475772Y+11345591D02*
X-7455452Y+11345591D01*
X-9009932Y+11350671D02*
X-8943892Y+11350671D01*
X-8893092Y+11350671D02*
X-8806732Y+11350671D01*
X-8781332Y+11350671D02*
X-8542572Y+11350671D01*
X-8192052Y+11350671D02*
X-8161572Y+11350671D01*
X-8029492Y+11350671D02*
X-8024412Y+11350671D01*
X-7993932Y+11350671D02*
X-7968532Y+11350671D01*
X-7938052Y+11350671D02*
X-7932972Y+11350671D01*
X-7902492Y+11350671D02*
X-7897412Y+11350671D01*
X-7765332Y+11350671D02*
X-7760252Y+11350671D01*
X-7729772Y+11350671D02*
X-7719612Y+11350671D01*
X-7572292Y+11350671D02*
X-7562132Y+11350671D01*
X-7551972Y+11350671D02*
X-7546892Y+11350671D01*
X-7485932Y+11350671D02*
X-7470692Y+11350671D01*
X-9004852Y+11355751D02*
X-8954052Y+11355751D01*
X-8898172Y+11355751D02*
X-8811812Y+11355751D01*
X-8776252Y+11355751D02*
X-8532412Y+11355751D01*
X-8197132Y+11355751D02*
X-8171732Y+11355751D01*
X-8009172Y+11355751D02*
X-8004092Y+11355751D01*
X-7993932Y+11355751D02*
X-7968532Y+11355751D01*
X-7958372Y+11355751D02*
X-7953292Y+11355751D01*
X-7902492Y+11355751D02*
X-7897412Y+11355751D01*
X-7872012Y+11355751D02*
X-7861852Y+11355751D01*
X-7734852Y+11355751D02*
X-7729772Y+11355751D01*
X-7719612Y+11355751D02*
X-7709452Y+11355751D01*
X-7704372Y+11355751D02*
X-7694212Y+11355751D01*
X-7577372Y+11355751D02*
X-7562132Y+11355751D01*
X-7551972Y+11355751D02*
X-7546892Y+11355751D01*
X-7496092Y+11355751D02*
X-7480852Y+11355751D01*
X-9004852Y+11360831D02*
X-8959132Y+11360831D01*
X-8903252Y+11360831D02*
X-8816892Y+11360831D01*
X-8771172Y+11360831D02*
X-8522252Y+11360831D01*
X-8207292Y+11360831D02*
X-8186972Y+11360831D01*
X-7993932Y+11360831D02*
X-7968532Y+11360831D01*
X-7866932Y+11360831D02*
X-7861852Y+11360831D01*
X-7724692Y+11360831D02*
X-7719612Y+11360831D01*
X-7699292Y+11360831D02*
X-7689132Y+11360831D01*
X-7607852Y+11360831D02*
X-7597692Y+11360831D01*
X-7577372Y+11360831D02*
X-7567212Y+11360831D01*
X-7557052Y+11360831D02*
X-7551972Y+11360831D01*
X-7501172Y+11360831D02*
X-7485932Y+11360831D01*
X-8999772Y+11365911D02*
X-8969292Y+11365911D01*
X-8913412Y+11365911D02*
X-8821972Y+11365911D01*
X-8771172Y+11365911D02*
X-8512092Y+11365911D01*
X-8217452Y+11365911D02*
X-8202212Y+11365911D01*
X-8126012Y+11365911D02*
X-8120932Y+11365911D01*
X-8100612Y+11365911D02*
X-8095532Y+11365911D01*
X-8070132Y+11365911D02*
X-8065052Y+11365911D01*
X-8034572Y+11365911D02*
X-8029492Y+11365911D01*
X-8009172Y+11365911D02*
X-8004092Y+11365911D01*
X-7993932Y+11365911D02*
X-7968532Y+11365911D01*
X-7958372Y+11365911D02*
X-7953292Y+11365911D01*
X-7932972Y+11365911D02*
X-7927892Y+11365911D01*
X-7877092Y+11365911D02*
X-7872012Y+11365911D01*
X-7811052Y+11365911D02*
X-7795812Y+11365911D01*
X-7607852Y+11365911D02*
X-7602772Y+11365911D01*
X-7587532Y+11365911D02*
X-7577372Y+11365911D01*
X-7572292Y+11365911D02*
X-7567212Y+11365911D01*
X-7557052Y+11365911D02*
X-7551972Y+11365911D01*
X-7506252Y+11365911D02*
X-7496092Y+11365911D01*
X-8918492Y+11370991D02*
X-8816892Y+11370991D01*
X-8766092Y+11370991D02*
X-8507012Y+11370991D01*
X-8227612Y+11370991D02*
X-8212372Y+11370991D01*
X-8034572Y+11370991D02*
X-8029492Y+11370991D01*
X-7993932Y+11370991D02*
X-7968532Y+11370991D01*
X-7932972Y+11370991D02*
X-7927892Y+11370991D01*
X-7816132Y+11370991D02*
X-7795812Y+11370991D01*
X-7643412Y+11370991D02*
X-7638332Y+11370991D01*
X-7562132Y+11370991D02*
X-7551972Y+11370991D01*
X-7516412Y+11370991D02*
X-7506252Y+11370991D01*
X-8928652Y+11376071D02*
X-8816892Y+11376071D01*
X-8766092Y+11376071D02*
X-8496852Y+11376071D01*
X-8232692Y+11376071D02*
X-8212372Y+11376071D01*
X-8207292Y+11376071D02*
X-8192052Y+11376071D01*
X-8070132Y+11376071D02*
X-8065052Y+11376071D01*
X-8044732Y+11376071D02*
X-8039652Y+11376071D01*
X-7993932Y+11376071D02*
X-7968532Y+11376071D01*
X-7887252Y+11376071D02*
X-7882172Y+11376071D01*
X-7836452Y+11376071D02*
X-7826292Y+11376071D01*
X-7816132Y+11376071D02*
X-7795812Y+11376071D01*
X-7648492Y+11376071D02*
X-7623092Y+11376071D01*
X-7562132Y+11376071D02*
X-7557052Y+11376071D01*
X-7526572Y+11376071D02*
X-7511332Y+11376071D01*
X-8933732Y+11381151D02*
X-8806732Y+11381151D01*
X-8761012Y+11381151D02*
X-8491772Y+11381151D01*
X-8232692Y+11381151D02*
X-8192052Y+11381151D01*
X-8049812Y+11381151D02*
X-8044732Y+11381151D01*
X-8034572Y+11381151D02*
X-8019332Y+11381151D01*
X-8014252Y+11381151D02*
X-8004092Y+11381151D01*
X-7993932Y+11381151D02*
X-7968532Y+11381151D01*
X-7958372Y+11381151D02*
X-7948212Y+11381151D01*
X-7932972Y+11381151D02*
X-7927892Y+11381151D01*
X-7917732Y+11381151D02*
X-7912652Y+11381151D01*
X-7892332Y+11381151D02*
X-7887252Y+11381151D01*
X-7643412Y+11381151D02*
X-7618012Y+11381151D01*
X-7582452Y+11381151D02*
X-7577372Y+11381151D01*
X-7536732Y+11381151D02*
X-7521492Y+11381151D01*
X-8938812Y+11386231D02*
X-8806732Y+11386231D01*
X-8761012Y+11386231D02*
X-8486692Y+11386231D01*
X-8237772Y+11386231D02*
X-8222532Y+11386231D01*
X-8202212Y+11386231D02*
X-8192052Y+11386231D01*
X-7734852Y+11386231D02*
X-7729772Y+11386231D01*
X-7653572Y+11386231D02*
X-7648492Y+11386231D01*
X-7643412Y+11386231D02*
X-7633252Y+11386231D01*
X-7541812Y+11386231D02*
X-7526572Y+11386231D01*
X-8948972Y+11391311D02*
X-8801652Y+11391311D01*
X-8755932Y+11391311D02*
X-8476532Y+11391311D01*
X-8242852Y+11391311D02*
X-8232692Y+11391311D01*
X-8202212Y+11391311D02*
X-8192052Y+11391311D01*
X-7851692Y+11391311D02*
X-7846612Y+11391311D01*
X-7734852Y+11391311D02*
X-7719612Y+11391311D01*
X-7643412Y+11391311D02*
X-7638332Y+11391311D01*
X-7551972Y+11391311D02*
X-7531652Y+11391311D01*
X-8954052Y+11396391D02*
X-8796572Y+11396391D01*
X-8750852Y+11396391D02*
X-8471452Y+11396391D01*
X-8247932Y+11396391D02*
X-8237772Y+11396391D01*
X-8202212Y+11396391D02*
X-8192052Y+11396391D01*
X-7993932Y+11396391D02*
X-7988852Y+11396391D01*
X-7978692Y+11396391D02*
X-7968532Y+11396391D01*
X-7958372Y+11396391D02*
X-7953292Y+11396391D01*
X-7851692Y+11396391D02*
X-7841532Y+11396391D01*
X-7739932Y+11396391D02*
X-7719612Y+11396391D01*
X-7562132Y+11396391D02*
X-7541812Y+11396391D01*
X-8959132Y+11401471D02*
X-8791492Y+11401471D01*
X-8750852Y+11401471D02*
X-8466372Y+11401471D01*
X-8247932Y+11401471D02*
X-8237772Y+11401471D01*
X-8202212Y+11401471D02*
X-8192052Y+11401471D01*
X-7826292Y+11401471D02*
X-7816132Y+11401471D01*
X-7729772Y+11401471D02*
X-7719612Y+11401471D01*
X-7567212Y+11401471D02*
X-7546892Y+11401471D01*
X-8964212Y+11406551D02*
X-8786412Y+11406551D01*
X-8745772Y+11406551D02*
X-8461292Y+11406551D01*
X-8253012Y+11406551D02*
X-8242852Y+11406551D01*
X-8202212Y+11406551D02*
X-8192052Y+11406551D01*
X-7826292Y+11406551D02*
X-7811052Y+11406551D01*
X-7567212Y+11406551D02*
X-7557052Y+11406551D01*
X-8969292Y+11411631D02*
X-8781332Y+11411631D01*
X-8745772Y+11411631D02*
X-8710212Y+11411631D01*
X-8705132Y+11411631D02*
X-8461292Y+11411631D01*
X-8253012Y+11411631D02*
X-8242852Y+11411631D01*
X-8202212Y+11411631D02*
X-8192052Y+11411631D01*
X-8070132Y+11411631D02*
X-8065052Y+11411631D01*
X-7826292Y+11411631D02*
X-7811052Y+11411631D01*
X-7770412Y+11411631D02*
X-7765332Y+11411631D01*
X-7577372Y+11411631D02*
X-7562132Y+11411631D01*
X-8969292Y+11416711D02*
X-8776252Y+11416711D01*
X-8745772Y+11416711D02*
X-8715292Y+11416711D01*
X-8694972Y+11416711D02*
X-8451132Y+11416711D01*
X-8253012Y+11416711D02*
X-8242852Y+11416711D01*
X-8197132Y+11416711D02*
X-8192052Y+11416711D01*
X-8070132Y+11416711D02*
X-8065052Y+11416711D01*
X-7846612Y+11416711D02*
X-7841532Y+11416711D01*
X-7836452Y+11416711D02*
X-7811052Y+11416711D01*
X-7805972Y+11416711D02*
X-7800892Y+11416711D01*
X-7775492Y+11416711D02*
X-7755172Y+11416711D01*
X-7750092Y+11416711D02*
X-7745012Y+11416711D01*
X-7612932Y+11416711D02*
X-7607852Y+11416711D01*
X-7587532Y+11416711D02*
X-7572292Y+11416711D01*
X-8969292Y+11421791D02*
X-8771172Y+11421791D01*
X-8740692Y+11421791D02*
X-8710212Y+11421791D01*
X-8679732Y+11421791D02*
X-8451132Y+11421791D01*
X-8253012Y+11421791D02*
X-8242852Y+11421791D01*
X-8197132Y+11421791D02*
X-8186972Y+11421791D01*
X-8070132Y+11421791D02*
X-8065052Y+11421791D01*
X-7866932Y+11421791D02*
X-7831372Y+11421791D01*
X-7805972Y+11421791D02*
X-7800892Y+11421791D01*
X-7795812Y+11421791D02*
X-7785652Y+11421791D01*
X-7775492Y+11421791D02*
X-7755172Y+11421791D01*
X-7597692Y+11421791D02*
X-7577372Y+11421791D01*
X-8964212Y+11426871D02*
X-8766092Y+11426871D01*
X-8755932Y+11426871D02*
X-8750852Y+11426871D01*
X-8735612Y+11426871D02*
X-8705132Y+11426871D01*
X-8669572Y+11426871D02*
X-8446052Y+11426871D01*
X-8253012Y+11426871D02*
X-8242852Y+11426871D01*
X-8186972Y+11426871D02*
X-8181892Y+11426871D01*
X-8019332Y+11426871D02*
X-7963452Y+11426871D01*
X-7958372Y+11426871D02*
X-7948212Y+11426871D01*
X-7882172Y+11426871D02*
X-7851692Y+11426871D01*
X-7841532Y+11426871D02*
X-7836452Y+11426871D01*
X-7811052Y+11426871D02*
X-7805972Y+11426871D01*
X-7785652Y+11426871D02*
X-7780572Y+11426871D01*
X-7770412Y+11426871D02*
X-7760252Y+11426871D01*
X-7678972Y+11426871D02*
X-7673892Y+11426871D01*
X-7602772Y+11426871D02*
X-7587532Y+11426871D01*
X-8959132Y+11431951D02*
X-8771172Y+11431951D01*
X-8735612Y+11431951D02*
X-8705132Y+11431951D01*
X-8664492Y+11431951D02*
X-8440972Y+11431951D01*
X-8253012Y+11431951D02*
X-8242852Y+11431951D01*
X-8186972Y+11431951D02*
X-8176812Y+11431951D01*
X-8024412Y+11431951D02*
X-7993932Y+11431951D01*
X-7968532Y+11431951D02*
X-7877092Y+11431951D01*
X-7872012Y+11431951D02*
X-7861852Y+11431951D01*
X-7841532Y+11431951D02*
X-7811052Y+11431951D01*
X-7785652Y+11431951D02*
X-7780572Y+11431951D01*
X-7678972Y+11431951D02*
X-7673892Y+11431951D01*
X-7607852Y+11431951D02*
X-7592612Y+11431951D01*
X-8959132Y+11437031D02*
X-8771172Y+11437031D01*
X-8735612Y+11437031D02*
X-8700052Y+11437031D01*
X-8654332Y+11437031D02*
X-8435892Y+11437031D01*
X-8247932Y+11437031D02*
X-8237772Y+11437031D01*
X-8181892Y+11437031D02*
X-8171732Y+11437031D01*
X-8049812Y+11437031D02*
X-7993932Y+11437031D01*
X-7968532Y+11437031D02*
X-7958372Y+11437031D01*
X-7866932Y+11437031D02*
X-7861852Y+11437031D01*
X-7785652Y+11437031D02*
X-7780572Y+11437031D01*
X-7612932Y+11437031D02*
X-7597692Y+11437031D01*
X-8954052Y+11442111D02*
X-8771172Y+11442111D01*
X-8730532Y+11442111D02*
X-8700052Y+11442111D01*
X-8649252Y+11442111D02*
X-8435892Y+11442111D01*
X-8242852Y+11442111D02*
X-8232692Y+11442111D01*
X-8181892Y+11442111D02*
X-8166652Y+11442111D01*
X-8065052Y+11442111D02*
X-8039652Y+11442111D01*
X-7999012Y+11442111D02*
X-7988852Y+11442111D01*
X-7968532Y+11442111D02*
X-7958372Y+11442111D01*
X-7866932Y+11442111D02*
X-7861852Y+11442111D01*
X-7785652Y+11442111D02*
X-7780572Y+11442111D01*
X-7618012Y+11442111D02*
X-7607852Y+11442111D01*
X-8948972Y+11447191D02*
X-8776252Y+11447191D01*
X-8730532Y+11447191D02*
X-8694972Y+11447191D01*
X-8644172Y+11447191D02*
X-8430812Y+11447191D01*
X-8242852Y+11447191D02*
X-8227612Y+11447191D01*
X-8192052Y+11447191D02*
X-8176812Y+11447191D01*
X-8085372Y+11447191D02*
X-8059972Y+11447191D01*
X-7993932Y+11447191D02*
X-7983772Y+11447191D01*
X-7973612Y+11447191D02*
X-7958372Y+11447191D01*
X-7872012Y+11447191D02*
X-7866932Y+11447191D01*
X-7780572Y+11447191D02*
X-7775492Y+11447191D01*
X-7684052Y+11447191D02*
X-7663732Y+11447191D01*
X-7628172Y+11447191D02*
X-7612932Y+11447191D01*
X-8948972Y+11452271D02*
X-8781332Y+11452271D01*
X-8725452Y+11452271D02*
X-8694972Y+11452271D01*
X-8639092Y+11452271D02*
X-8425732Y+11452271D01*
X-8232692Y+11452271D02*
X-8217452Y+11452271D01*
X-8202212Y+11452271D02*
X-8181892Y+11452271D01*
X-8120932Y+11452271D02*
X-8080292Y+11452271D01*
X-7983772Y+11452271D02*
X-7953292Y+11452271D01*
X-7907572Y+11452271D02*
X-7887252Y+11452271D01*
X-7882172Y+11452271D02*
X-7877092Y+11452271D01*
X-7775492Y+11452271D02*
X-7765332Y+11452271D01*
X-7760252Y+11452271D02*
X-7745012Y+11452271D01*
X-7684052Y+11452271D02*
X-7663732Y+11452271D01*
X-7633252Y+11452271D02*
X-7623092Y+11452271D01*
X-8943892Y+11457351D02*
X-8791492Y+11457351D01*
X-8725452Y+11457351D02*
X-8694972Y+11457351D01*
X-8634012Y+11457351D02*
X-8425732Y+11457351D01*
X-8217452Y+11457351D02*
X-8105692Y+11457351D01*
X-7978692Y+11457351D02*
X-7968532Y+11457351D01*
X-7958372Y+11457351D02*
X-7953292Y+11457351D01*
X-7907572Y+11457351D02*
X-7902492Y+11457351D01*
X-7678972Y+11457351D02*
X-7668812Y+11457351D01*
X-7638332Y+11457351D02*
X-7628172Y+11457351D01*
X-8938812Y+11462431D02*
X-8791492Y+11462431D01*
X-8720372Y+11462431D02*
X-8689892Y+11462431D01*
X-8634012Y+11462431D02*
X-8425732Y+11462431D01*
X-8192052Y+11462431D02*
X-8156492Y+11462431D01*
X-8146332Y+11462431D02*
X-8131092Y+11462431D01*
X-7978692Y+11462431D02*
X-7968532Y+11462431D01*
X-7958372Y+11462431D02*
X-7948212Y+11462431D01*
X-7912652Y+11462431D02*
X-7907572Y+11462431D01*
X-7836452Y+11462431D02*
X-7811052Y+11462431D01*
X-7648492Y+11462431D02*
X-7638332Y+11462431D01*
X-8938812Y+11467511D02*
X-8796572Y+11467511D01*
X-8720372Y+11467511D02*
X-8689892Y+11467511D01*
X-8628932Y+11467511D02*
X-8420652Y+11467511D01*
X-8141252Y+11467511D02*
X-8131092Y+11467511D01*
X-7983772Y+11467511D02*
X-7973612Y+11467511D01*
X-7953292Y+11467511D02*
X-7948212Y+11467511D01*
X-7912652Y+11467511D02*
X-7907572Y+11467511D01*
X-7846612Y+11467511D02*
X-7841532Y+11467511D01*
X-7805972Y+11467511D02*
X-7800892Y+11467511D01*
X-7739932Y+11467511D02*
X-7734852Y+11467511D01*
X-7653572Y+11467511D02*
X-7648492Y+11467511D01*
X-8933732Y+11472591D02*
X-8796572Y+11472591D01*
X-8720372Y+11472591D02*
X-8689892Y+11472591D01*
X-8623852Y+11472591D02*
X-8420652Y+11472591D01*
X-8136172Y+11472591D02*
X-8126012Y+11472591D01*
X-7988852Y+11472591D02*
X-7978692Y+11472591D01*
X-7958372Y+11472591D02*
X-7948212Y+11472591D01*
X-7907572Y+11472591D02*
X-7902492Y+11472591D01*
X-7856772Y+11472591D02*
X-7851692Y+11472591D01*
X-7800892Y+11472591D02*
X-7790732Y+11472591D01*
X-8933732Y+11477671D02*
X-8796572Y+11477671D01*
X-8715292Y+11477671D02*
X-8689892Y+11477671D01*
X-8623852Y+11477671D02*
X-8415572Y+11477671D01*
X-8131092Y+11477671D02*
X-8126012Y+11477671D01*
X-7988852Y+11477671D02*
X-7983772Y+11477671D01*
X-7958372Y+11477671D02*
X-7948212Y+11477671D01*
X-7902492Y+11477671D02*
X-7897412Y+11477671D01*
X-7861852Y+11477671D02*
X-7856772Y+11477671D01*
X-7790732Y+11477671D02*
X-7785652Y+11477671D01*
X-7755172Y+11477671D02*
X-7750092Y+11477671D01*
X-8933732Y+11482751D02*
X-8801652Y+11482751D01*
X-8715292Y+11482751D02*
X-8689892Y+11482751D01*
X-8618772Y+11482751D02*
X-8415572Y+11482751D01*
X-8131092Y+11482751D02*
X-8120932Y+11482751D01*
X-8085372Y+11482751D02*
X-8080292Y+11482751D01*
X-7988852Y+11482751D02*
X-7983772Y+11482751D01*
X-7958372Y+11482751D02*
X-7948212Y+11482751D01*
X-7902492Y+11482751D02*
X-7897412Y+11482751D01*
X-7866932Y+11482751D02*
X-7861852Y+11482751D01*
X-7790732Y+11482751D02*
X-7785652Y+11482751D01*
X-7663732Y+11482751D02*
X-7658652Y+11482751D01*
X-8928652Y+11487831D02*
X-8801652Y+11487831D01*
X-8715292Y+11487831D02*
X-8689892Y+11487831D01*
X-8618772Y+11487831D02*
X-8415572Y+11487831D01*
X-8131092Y+11487831D02*
X-8120932Y+11487831D01*
X-7993932Y+11487831D02*
X-7983772Y+11487831D01*
X-7958372Y+11487831D02*
X-7948212Y+11487831D01*
X-7902492Y+11487831D02*
X-7897412Y+11487831D01*
X-7866932Y+11487831D02*
X-7861852Y+11487831D01*
X-7785652Y+11487831D02*
X-7780572Y+11487831D01*
X-7750092Y+11487831D02*
X-7745012Y+11487831D01*
X-7673892Y+11487831D02*
X-7668812Y+11487831D01*
X-8928652Y+11492911D02*
X-8801652Y+11492911D01*
X-8715292Y+11492911D02*
X-8689892Y+11492911D01*
X-8618772Y+11492911D02*
X-8410492Y+11492911D01*
X-8131092Y+11492911D02*
X-8120932Y+11492911D01*
X-7993932Y+11492911D02*
X-7988852Y+11492911D01*
X-7958372Y+11492911D02*
X-7948212Y+11492911D01*
X-7902492Y+11492911D02*
X-7897412Y+11492911D01*
X-7866932Y+11492911D02*
X-7861852Y+11492911D01*
X-7785652Y+11492911D02*
X-7780572Y+11492911D01*
X-7750092Y+11492911D02*
X-7745012Y+11492911D01*
X-7684052Y+11492911D02*
X-7673892Y+11492911D01*
X-8923572Y+11497991D02*
X-8801652Y+11497991D01*
X-8710212Y+11497991D02*
X-8689892Y+11497991D01*
X-8618772Y+11497991D02*
X-8410492Y+11497991D01*
X-8126012Y+11497991D02*
X-8115852Y+11497991D01*
X-7999012Y+11497991D02*
X-7988852Y+11497991D01*
X-7958372Y+11497991D02*
X-7948212Y+11497991D01*
X-7907572Y+11497991D02*
X-7902492Y+11497991D01*
X-7866932Y+11497991D02*
X-7861852Y+11497991D01*
X-7750092Y+11497991D02*
X-7739932Y+11497991D01*
X-7689132Y+11497991D02*
X-7678972Y+11497991D01*
X-8923572Y+11503071D02*
X-8801652Y+11503071D01*
X-8710212Y+11503071D02*
X-8694972Y+11503071D01*
X-8618772Y+11503071D02*
X-8410492Y+11503071D01*
X-8126012Y+11503071D02*
X-8115852Y+11503071D01*
X-8004092Y+11503071D02*
X-7993932Y+11503071D01*
X-7958372Y+11503071D02*
X-7948212Y+11503071D01*
X-7922812Y+11503071D02*
X-7912652Y+11503071D01*
X-7866932Y+11503071D02*
X-7861852Y+11503071D01*
X-7785652Y+11503071D02*
X-7780572Y+11503071D01*
X-7734852Y+11503071D02*
X-7724692Y+11503071D01*
X-7694212Y+11503071D02*
X-7684052Y+11503071D01*
X-8923572Y+11508151D02*
X-8801652Y+11508151D01*
X-8710212Y+11508151D02*
X-8694972Y+11508151D01*
X-8613692Y+11508151D02*
X-8405412Y+11508151D01*
X-8120932Y+11508151D02*
X-8110772Y+11508151D01*
X-8009172Y+11508151D02*
X-7999012Y+11508151D01*
X-7958372Y+11508151D02*
X-7948212Y+11508151D01*
X-7922812Y+11508151D02*
X-7917732Y+11508151D01*
X-7866932Y+11508151D02*
X-7861852Y+11508151D01*
X-7785652Y+11508151D02*
X-7780572Y+11508151D01*
X-7734852Y+11508151D02*
X-7724692Y+11508151D01*
X-7699292Y+11508151D02*
X-7689132Y+11508151D01*
X-8918492Y+11513231D02*
X-8796572Y+11513231D01*
X-8710212Y+11513231D02*
X-8694972Y+11513231D01*
X-8613692Y+11513231D02*
X-8405412Y+11513231D01*
X-8115852Y+11513231D02*
X-8105692Y+11513231D01*
X-8009172Y+11513231D02*
X-7999012Y+11513231D01*
X-7958372Y+11513231D02*
X-7948212Y+11513231D01*
X-7922812Y+11513231D02*
X-7917732Y+11513231D01*
X-7866932Y+11513231D02*
X-7861852Y+11513231D01*
X-7785652Y+11513231D02*
X-7780572Y+11513231D01*
X-7734852Y+11513231D02*
X-7729772Y+11513231D01*
X-7704372Y+11513231D02*
X-7694212Y+11513231D01*
X-8918492Y+11518311D02*
X-8796572Y+11518311D01*
X-8710212Y+11518311D02*
X-8700052Y+11518311D01*
X-8613692Y+11518311D02*
X-8405412Y+11518311D01*
X-8110772Y+11518311D02*
X-8095532Y+11518311D01*
X-8029492Y+11518311D02*
X-8024412Y+11518311D01*
X-8009172Y+11518311D02*
X-7999012Y+11518311D01*
X-7958372Y+11518311D02*
X-7948212Y+11518311D01*
X-7917732Y+11518311D02*
X-7912652Y+11518311D01*
X-7790732Y+11518311D02*
X-7785652Y+11518311D01*
X-7734852Y+11518311D02*
X-7729772Y+11518311D01*
X-7709452Y+11518311D02*
X-7699292Y+11518311D01*
X-8918492Y+11523391D02*
X-8796572Y+11523391D01*
X-8618772Y+11523391D02*
X-8405412Y+11523391D01*
X-8100612Y+11523391D02*
X-8085372Y+11523391D01*
X-8014252Y+11523391D02*
X-7999012Y+11523391D01*
X-7958372Y+11523391D02*
X-7948212Y+11523391D01*
X-7917732Y+11523391D02*
X-7892332Y+11523391D01*
X-7861852Y+11523391D02*
X-7851692Y+11523391D01*
X-7795812Y+11523391D02*
X-7790732Y+11523391D01*
X-7755172Y+11523391D02*
X-7729772Y+11523391D01*
X-7714532Y+11523391D02*
X-7704372Y+11523391D01*
X-8913412Y+11528471D02*
X-8791492Y+11528471D01*
X-8618772Y+11528471D02*
X-8405412Y+11528471D01*
X-8095532Y+11528471D02*
X-8075212Y+11528471D01*
X-8014252Y+11528471D02*
X-7999012Y+11528471D01*
X-7958372Y+11528471D02*
X-7948212Y+11528471D01*
X-7897412Y+11528471D02*
X-7892332Y+11528471D01*
X-7851692Y+11528471D02*
X-7846612Y+11528471D01*
X-7800892Y+11528471D02*
X-7795812Y+11528471D01*
X-7760252Y+11528471D02*
X-7755172Y+11528471D01*
X-7724692Y+11528471D02*
X-7709452Y+11528471D01*
X-8913412Y+11533551D02*
X-8791492Y+11533551D01*
X-8618772Y+11533551D02*
X-8405412Y+11533551D01*
X-8080292Y+11533551D02*
X-8065052Y+11533551D01*
X-8014252Y+11533551D02*
X-8004092Y+11533551D01*
X-7958372Y+11533551D02*
X-7948212Y+11533551D01*
X-7892332Y+11533551D02*
X-7887252Y+11533551D01*
X-7846612Y+11533551D02*
X-7836452Y+11533551D01*
X-7811052Y+11533551D02*
X-7805972Y+11533551D01*
X-7760252Y+11533551D02*
X-7755172Y+11533551D01*
X-7729772Y+11533551D02*
X-7719612Y+11533551D01*
X-8913412Y+11538631D02*
X-8786412Y+11538631D01*
X-8618772Y+11538631D02*
X-8405412Y+11538631D01*
X-8070132Y+11538631D02*
X-8054892Y+11538631D01*
X-8014252Y+11538631D02*
X-8004092Y+11538631D01*
X-7958372Y+11538631D02*
X-7948212Y+11538631D01*
X-7887252Y+11538631D02*
X-7882172Y+11538631D01*
X-7831372Y+11538631D02*
X-7816132Y+11538631D01*
X-7765332Y+11538631D02*
X-7760252Y+11538631D01*
X-7734852Y+11538631D02*
X-7719612Y+11538631D01*
X-8913412Y+11543711D02*
X-8786412Y+11543711D01*
X-8618772Y+11543711D02*
X-8400332Y+11543711D01*
X-8059972Y+11543711D02*
X-8039652Y+11543711D01*
X-8014252Y+11543711D02*
X-8004092Y+11543711D01*
X-7887252Y+11543711D02*
X-7882172Y+11543711D01*
X-7765332Y+11543711D02*
X-7760252Y+11543711D01*
X-7739932Y+11543711D02*
X-7724692Y+11543711D01*
X-8908332Y+11548791D02*
X-8781332Y+11548791D01*
X-8618772Y+11548791D02*
X-8400332Y+11548791D01*
X-8049812Y+11548791D02*
X-8029492Y+11548791D01*
X-8014252Y+11548791D02*
X-8004092Y+11548791D01*
X-7892332Y+11548791D02*
X-7887252Y+11548791D01*
X-7760252Y+11548791D02*
X-7755172Y+11548791D01*
X-7745012Y+11548791D02*
X-7734852Y+11548791D01*
X-8908332Y+11553871D02*
X-8776252Y+11553871D01*
X-8623852Y+11553871D02*
X-8400332Y+11553871D01*
X-8034572Y+11553871D02*
X-8004092Y+11553871D01*
X-7897412Y+11553871D02*
X-7892332Y+11553871D01*
X-7760252Y+11553871D02*
X-7739932Y+11553871D01*
X-8908332Y+11558951D02*
X-8776252Y+11558951D01*
X-8623852Y+11558951D02*
X-8400332Y+11558951D01*
X-8024412Y+11558951D02*
X-8004092Y+11558951D01*
X-7917732Y+11558951D02*
X-7912652Y+11558951D01*
X-7892332Y+11558951D02*
X-7887252Y+11558951D01*
X-7866932Y+11558951D02*
X-7851692Y+11558951D01*
X-7795812Y+11558951D02*
X-7780572Y+11558951D01*
X-7760252Y+11558951D02*
X-7745012Y+11558951D01*
X-8908332Y+11564031D02*
X-8771172Y+11564031D01*
X-8623852Y+11564031D02*
X-8405412Y+11564031D01*
X-8014252Y+11564031D02*
X-8004092Y+11564031D01*
X-7887252Y+11564031D02*
X-7882172Y+11564031D01*
X-7872012Y+11564031D02*
X-7866932Y+11564031D01*
X-7811052Y+11564031D02*
X-7800892Y+11564031D01*
X-7780572Y+11564031D02*
X-7775492Y+11564031D01*
X-7770412Y+11564031D02*
X-7750092Y+11564031D01*
X-8908332Y+11569111D02*
X-8771172Y+11569111D01*
X-8628932Y+11569111D02*
X-8405412Y+11569111D01*
X-8014252Y+11569111D02*
X-8004092Y+11569111D01*
X-7892332Y+11569111D02*
X-7887252Y+11569111D01*
X-7775492Y+11569111D02*
X-7755172Y+11569111D01*
X-8903252Y+11574191D02*
X-8766092Y+11574191D01*
X-8628932Y+11574191D02*
X-8405412Y+11574191D01*
X-8014252Y+11574191D02*
X-8004092Y+11574191D01*
X-7816132Y+11574191D02*
X-7811052Y+11574191D01*
X-7775492Y+11574191D02*
X-7760252Y+11574191D01*
X-8903252Y+11579271D02*
X-8761012Y+11579271D01*
X-8634012Y+11579271D02*
X-8405412Y+11579271D01*
X-8014252Y+11579271D02*
X-8004092Y+11579271D01*
X-7897412Y+11579271D02*
X-7892332Y+11579271D01*
X-7836452Y+11579271D02*
X-7831372Y+11579271D01*
X-7816132Y+11579271D02*
X-7811052Y+11579271D01*
X-7780572Y+11579271D02*
X-7765332Y+11579271D01*
X-8903252Y+11584351D02*
X-8755932Y+11584351D01*
X-8634012Y+11584351D02*
X-8405412Y+11584351D01*
X-8024412Y+11584351D02*
X-8009172Y+11584351D01*
X-7785652Y+11584351D02*
X-7775492Y+11584351D01*
X-8903252Y+11589431D02*
X-8750852Y+11589431D01*
X-8639092Y+11589431D02*
X-8405412Y+11589431D01*
X-8039652Y+11589431D02*
X-8019332Y+11589431D01*
X-7790732Y+11589431D02*
X-7780572Y+11589431D01*
X-8903252Y+11594511D02*
X-8745772Y+11594511D01*
X-8639092Y+11594511D02*
X-8405412Y+11594511D01*
X-8044732Y+11594511D02*
X-8029492Y+11594511D01*
X-7795812Y+11594511D02*
X-7785652Y+11594511D01*
X-8898172Y+11599591D02*
X-8745772Y+11599591D01*
X-8644172Y+11599591D02*
X-8410492Y+11599591D01*
X-8049812Y+11599591D02*
X-8039652Y+11599591D01*
X-7800892Y+11599591D02*
X-7790732Y+11599591D01*
X-8898172Y+11604671D02*
X-8735612Y+11604671D01*
X-8644172Y+11604671D02*
X-8410492Y+11604671D01*
X-8059972Y+11604671D02*
X-8044732Y+11604671D01*
X-7816132Y+11604671D02*
X-7795812Y+11604671D01*
X-8898172Y+11609751D02*
X-8735612Y+11609751D01*
X-8649252Y+11609751D02*
X-8410492Y+11609751D01*
X-8065052Y+11609751D02*
X-8054892Y+11609751D01*
X-7826292Y+11609751D02*
X-7805972Y+11609751D01*
X-8893092Y+11614831D02*
X-8730532Y+11614831D01*
X-8654332Y+11614831D02*
X-8415572Y+11614831D01*
X-8065052Y+11614831D02*
X-8054892Y+11614831D01*
X-7912652Y+11614831D02*
X-7907572Y+11614831D01*
X-7831372Y+11614831D02*
X-7816132Y+11614831D01*
X-8893092Y+11619911D02*
X-8720372Y+11619911D01*
X-8659412Y+11619911D02*
X-8415572Y+11619911D01*
X-8075212Y+11619911D02*
X-8054892Y+11619911D01*
X-7841532Y+11619911D02*
X-7826292Y+11619911D01*
X-8893092Y+11624991D02*
X-8715292Y+11624991D01*
X-8659412Y+11624991D02*
X-8415572Y+11624991D01*
X-8080292Y+11624991D02*
X-8065052Y+11624991D01*
X-7917732Y+11624991D02*
X-7912652Y+11624991D01*
X-7907572Y+11624991D02*
X-7902492Y+11624991D01*
X-7856772Y+11624991D02*
X-7836452Y+11624991D01*
X-8888012Y+11630071D02*
X-8710212Y+11630071D01*
X-8664492Y+11630071D02*
X-8420652Y+11630071D01*
X-8080292Y+11630071D02*
X-8065052Y+11630071D01*
X-7872012Y+11630071D02*
X-7846612Y+11630071D01*
X-8888012Y+11635151D02*
X-8710212Y+11635151D01*
X-8669572Y+11635151D02*
X-8420652Y+11635151D01*
X-8090452Y+11635151D02*
X-8059972Y+11635151D01*
X-7887252Y+11635151D02*
X-7861852Y+11635151D01*
X-8882932Y+11640231D02*
X-8700052Y+11640231D01*
X-8674652Y+11640231D02*
X-8512092Y+11640231D01*
X-8481612Y+11640231D02*
X-8425732Y+11640231D01*
X-8110772Y+11640231D02*
X-8080292Y+11640231D01*
X-8065052Y+11640231D02*
X-8059972Y+11640231D01*
X-8044732Y+11640231D02*
X-8039652Y+11640231D01*
X-7927892Y+11640231D02*
X-7922812Y+11640231D01*
X-7902492Y+11640231D02*
X-7877092Y+11640231D01*
X-8882932Y+11645311D02*
X-8694972Y+11645311D01*
X-8679732Y+11645311D02*
X-8588292Y+11645311D01*
X-8573052Y+11645311D02*
X-8476532Y+11645311D01*
X-8461292Y+11645311D02*
X-8425732Y+11645311D01*
X-8131092Y+11645311D02*
X-8090452Y+11645311D01*
X-7917732Y+11645311D02*
X-7897412Y+11645311D01*
X-8877852Y+11650391D02*
X-8446052Y+11650391D01*
X-8435892Y+11650391D02*
X-8430812Y+11650391D01*
X-8151412Y+11650391D02*
X-8115852Y+11650391D01*
X-8110772Y+11650391D02*
X-8095532Y+11650391D01*
X-7927892Y+11650391D02*
X-7907572Y+11650391D01*
X-8877852Y+11655471D02*
X-8608612Y+11655471D01*
X-8598452Y+11655471D02*
X-8435892Y+11655471D01*
X-8161572Y+11655471D02*
X-8141252Y+11655471D01*
X-7993932Y+11655471D02*
X-7988852Y+11655471D01*
X-7948212Y+11655471D02*
X-7917732Y+11655471D01*
X-8872772Y+11660551D02*
X-8598452Y+11660551D01*
X-8593372Y+11660551D02*
X-8435892Y+11660551D01*
X-8181892Y+11660551D02*
X-8156492Y+11660551D01*
X-7943132Y+11660551D02*
X-7927892Y+11660551D01*
X-8867692Y+11665631D02*
X-8537492Y+11665631D01*
X-8527332Y+11665631D02*
X-8440972Y+11665631D01*
X-8202212Y+11665631D02*
X-8171732Y+11665631D01*
X-7953292Y+11665631D02*
X-7938052Y+11665631D01*
X-8862612Y+11670711D02*
X-8532412Y+11670711D01*
X-8512092Y+11670711D02*
X-8440972Y+11670711D01*
X-8212372Y+11670711D02*
X-8197132Y+11670711D01*
X-8105692Y+11670711D02*
X-8100612Y+11670711D01*
X-7963452Y+11670711D02*
X-7948212Y+11670711D01*
X-8857532Y+11675791D02*
X-8522252Y+11675791D01*
X-8501932Y+11675791D02*
X-8446052Y+11675791D01*
X-8222532Y+11675791D02*
X-8207292Y+11675791D01*
X-8105692Y+11675791D02*
X-8100612Y+11675791D01*
X-8004092Y+11675791D02*
X-7999012Y+11675791D01*
X-7973612Y+11675791D02*
X-7958372Y+11675791D01*
X-8852452Y+11680871D02*
X-8512092Y+11680871D01*
X-8491772Y+11680871D02*
X-8451132Y+11680871D01*
X-8237772Y+11680871D02*
X-8217452Y+11680871D01*
X-8105692Y+11680871D02*
X-8100612Y+11680871D01*
X-7978692Y+11680871D02*
X-7963452Y+11680871D01*
X-8847372Y+11685951D02*
X-8507012Y+11685951D01*
X-8486692Y+11685951D02*
X-8456212Y+11685951D01*
X-8242852Y+11685951D02*
X-8227612Y+11685951D01*
X-8105692Y+11685951D02*
X-8100612Y+11685951D01*
X-7983772Y+11685951D02*
X-7973612Y+11685951D01*
X-8847372Y+11691031D02*
X-8501932Y+11691031D01*
X-8491772Y+11691031D02*
X-8461292Y+11691031D01*
X-8242852Y+11691031D02*
X-8237772Y+11691031D01*
X-7993932Y+11691031D02*
X-7978692Y+11691031D01*
X-8842292Y+11696111D02*
X-8491772Y+11696111D01*
X-8486692Y+11696111D02*
X-8466372Y+11696111D01*
X-8247932Y+11696111D02*
X-8237772Y+11696111D01*
X-8090452Y+11696111D02*
X-8085372Y+11696111D01*
X-8004092Y+11696111D02*
X-7988852Y+11696111D01*
X-8832132Y+11701191D02*
X-8486692Y+11701191D01*
X-8253012Y+11701191D02*
X-8242852Y+11701191D01*
X-8075212Y+11701191D02*
X-8070132Y+11701191D01*
X-8014252Y+11701191D02*
X-7999012Y+11701191D01*
X-8832132Y+11706271D02*
X-8481612Y+11706271D01*
X-8253012Y+11706271D02*
X-8247932Y+11706271D01*
X-8019332Y+11706271D02*
X-8004092Y+11706271D01*
X-8827052Y+11711351D02*
X-8481612Y+11711351D01*
X-8258092Y+11711351D02*
X-8247932Y+11711351D01*
X-8024412Y+11711351D02*
X-8009172Y+11711351D01*
X-8816892Y+11716431D02*
X-8486692Y+11716431D01*
X-8258092Y+11716431D02*
X-8247932Y+11716431D01*
X-8039652Y+11716431D02*
X-8019332Y+11716431D01*
X-8811812Y+11721511D02*
X-8522252Y+11721511D01*
X-8512092Y+11721511D02*
X-8496852Y+11721511D01*
X-8258092Y+11721511D02*
X-8247932Y+11721511D01*
X-8126012Y+11721511D02*
X-8034572Y+11721511D01*
X-8806732Y+11726591D02*
X-8517172Y+11726591D01*
X-8258092Y+11726591D02*
X-8247932Y+11726591D01*
X-8141252Y+11726591D02*
X-8095532Y+11726591D01*
X-8796572Y+11731671D02*
X-8517172Y+11731671D01*
X-8253012Y+11731671D02*
X-8242852Y+11731671D01*
X-8166652Y+11731671D02*
X-8136172Y+11731671D01*
X-8786412Y+11736751D02*
X-8522252Y+11736751D01*
X-8247932Y+11736751D02*
X-8151412Y+11736751D01*
X-8776252Y+11741831D02*
X-8532412Y+11741831D01*
X-8237772Y+11741831D02*
X-8222532Y+11741831D01*
X-8176812Y+11741831D02*
X-8171732Y+11741831D01*
X-8766092Y+11746911D02*
X-8542572Y+11746911D01*
X-8755932Y+11751991D02*
X-8552732Y+11751991D01*
X-8735612Y+11757071D02*
X-8567972Y+11757071D01*
X-8720372Y+11762151D02*
X-8583212Y+11762151D01*
X-8689892Y+11767231D02*
X-8613692Y+11767231D01*
X-8564376Y+10779207D02*
X-8472936Y+10779207D01*
X-8569456Y+10784287D02*
X-8478016Y+10784287D01*
X-8574536Y+10789367D02*
X-8483096Y+10789367D01*
X-8579616Y+10794447D02*
X-8488176Y+10794447D01*
X-8584696Y+10799527D02*
X-8498336Y+10799527D01*
X-8589776Y+10804607D02*
X-8503416Y+10804607D01*
X-8457696Y+10804607D02*
X-8447536Y+10804607D01*
X-8594856Y+10809687D02*
X-8508496Y+10809687D01*
X-8457696Y+10809687D02*
X-8442456Y+10809687D01*
X-8594856Y+10814767D02*
X-8513576Y+10814767D01*
X-8462776Y+10814767D02*
X-8442456Y+10814767D01*
X-8599936Y+10819847D02*
X-8518656Y+10819847D01*
X-8462776Y+10819847D02*
X-8437376Y+10819847D01*
X-8599936Y+10824927D02*
X-8528816Y+10824927D01*
X-8467856Y+10824927D02*
X-8437376Y+10824927D01*
X-8046216Y+10824927D02*
X-8000496Y+10824927D01*
X-9067296Y+10830007D02*
X-8950456Y+10830007D01*
X-8925056Y+10830007D02*
X-8808216Y+10830007D01*
X-8782816Y+10830007D02*
X-8716776Y+10830007D01*
X-8701536Y+10830007D02*
X-8645656Y+10830007D01*
X-8605016Y+10830007D02*
X-8533896Y+10830007D01*
X-8437376Y+10830007D02*
X-8432296Y+10830007D01*
X-8386576Y+10830007D02*
X-8330696Y+10830007D01*
X-8315456Y+10830007D02*
X-8254496Y+10830007D01*
X-8193536Y+10830007D02*
X-8137656Y+10830007D01*
X-8061456Y+10830007D02*
X-7990336Y+10830007D01*
X-7939536Y+10830007D02*
X-7812536Y+10830007D01*
X-7792216Y+10830007D02*
X-7675376Y+10830007D01*
X-7649976Y+10830007D02*
X-7528056Y+10830007D01*
X-9067296Y+10835087D02*
X-8950456Y+10835087D01*
X-8925056Y+10835087D02*
X-8808216Y+10835087D01*
X-8782816Y+10835087D02*
X-8716776Y+10835087D01*
X-8701536Y+10835087D02*
X-8645656Y+10835087D01*
X-8605016Y+10835087D02*
X-8538976Y+10835087D01*
X-8437376Y+10835087D02*
X-8432296Y+10835087D01*
X-8386576Y+10835087D02*
X-8330696Y+10835087D01*
X-8315456Y+10835087D02*
X-8254496Y+10835087D01*
X-8193536Y+10835087D02*
X-8137656Y+10835087D01*
X-8071616Y+10835087D02*
X-7980176Y+10835087D01*
X-7939536Y+10835087D02*
X-7812536Y+10835087D01*
X-7792216Y+10835087D02*
X-7675376Y+10835087D01*
X-7649976Y+10835087D02*
X-7528056Y+10835087D01*
X-9067296Y+10840167D02*
X-8950456Y+10840167D01*
X-8925056Y+10840167D02*
X-8808216Y+10840167D01*
X-8782816Y+10840167D02*
X-8716776Y+10840167D01*
X-8701536Y+10840167D02*
X-8645656Y+10840167D01*
X-8610096Y+10840167D02*
X-8544056Y+10840167D01*
X-8442456Y+10840167D02*
X-8427216Y+10840167D01*
X-8386576Y+10840167D02*
X-8330696Y+10840167D01*
X-8315456Y+10840167D02*
X-8254496Y+10840167D01*
X-8193536Y+10840167D02*
X-8137656Y+10840167D01*
X-8076696Y+10840167D02*
X-7975096Y+10840167D01*
X-7939536Y+10840167D02*
X-7812536Y+10840167D01*
X-7792216Y+10840167D02*
X-7675376Y+10840167D01*
X-7649976Y+10840167D02*
X-7528056Y+10840167D01*
X-9067296Y+10845247D02*
X-8950456Y+10845247D01*
X-8925056Y+10845247D02*
X-8808216Y+10845247D01*
X-8782816Y+10845247D02*
X-8716776Y+10845247D01*
X-8701536Y+10845247D02*
X-8645656Y+10845247D01*
X-8610096Y+10845247D02*
X-8549136Y+10845247D01*
X-8442456Y+10845247D02*
X-8427216Y+10845247D01*
X-8386576Y+10845247D02*
X-8330696Y+10845247D01*
X-8315456Y+10845247D02*
X-8254496Y+10845247D01*
X-8193536Y+10845247D02*
X-8137656Y+10845247D01*
X-8076696Y+10845247D02*
X-7970016Y+10845247D01*
X-7939536Y+10845247D02*
X-7812536Y+10845247D01*
X-7792216Y+10845247D02*
X-7675376Y+10845247D01*
X-7649976Y+10845247D02*
X-7528056Y+10845247D01*
X-9067296Y+10850327D02*
X-8950456Y+10850327D01*
X-8925056Y+10850327D02*
X-8808216Y+10850327D01*
X-8782816Y+10850327D02*
X-8716776Y+10850327D01*
X-8701536Y+10850327D02*
X-8645656Y+10850327D01*
X-8610096Y+10850327D02*
X-8554216Y+10850327D01*
X-8447536Y+10850327D02*
X-8422136Y+10850327D01*
X-8386576Y+10850327D02*
X-8330696Y+10850327D01*
X-8315456Y+10850327D02*
X-8254496Y+10850327D01*
X-8193536Y+10850327D02*
X-8137656Y+10850327D01*
X-8076696Y+10850327D02*
X-7970016Y+10850327D01*
X-7939536Y+10850327D02*
X-7812536Y+10850327D01*
X-7792216Y+10850327D02*
X-7675376Y+10850327D01*
X-7649976Y+10850327D02*
X-7528056Y+10850327D01*
X-9067296Y+10855407D02*
X-8950456Y+10855407D01*
X-8925056Y+10855407D02*
X-8808216Y+10855407D01*
X-8782816Y+10855407D02*
X-8716776Y+10855407D01*
X-8701536Y+10855407D02*
X-8645656Y+10855407D01*
X-8615176Y+10855407D02*
X-8508496Y+10855407D01*
X-8452616Y+10855407D02*
X-8422136Y+10855407D01*
X-8386576Y+10855407D02*
X-8330696Y+10855407D01*
X-8315456Y+10855407D02*
X-8254496Y+10855407D01*
X-8193536Y+10855407D02*
X-8137656Y+10855407D01*
X-8076696Y+10855407D02*
X-7964936Y+10855407D01*
X-7939536Y+10855407D02*
X-7812536Y+10855407D01*
X-7792216Y+10855407D02*
X-7675376Y+10855407D01*
X-7649976Y+10855407D02*
X-7528056Y+10855407D01*
X-9067296Y+10860487D02*
X-8955536Y+10860487D01*
X-8925056Y+10860487D02*
X-8813296Y+10860487D01*
X-8777736Y+10860487D02*
X-8721856Y+10860487D01*
X-8696456Y+10860487D02*
X-8645656Y+10860487D01*
X-8615176Y+10860487D02*
X-8513576Y+10860487D01*
X-8452616Y+10860487D02*
X-8422136Y+10860487D01*
X-8381496Y+10860487D02*
X-8330696Y+10860487D01*
X-8310376Y+10860487D02*
X-8259576Y+10860487D01*
X-8188456Y+10860487D02*
X-8142736Y+10860487D01*
X-8076696Y+10860487D02*
X-7964936Y+10860487D01*
X-7939536Y+10860487D02*
X-7817616Y+10860487D01*
X-7792216Y+10860487D02*
X-7675376Y+10860487D01*
X-7649976Y+10860487D02*
X-7528056Y+10860487D01*
X-9067296Y+10865567D02*
X-9021576Y+10865567D01*
X-9006336Y+10865567D02*
X-8955536Y+10865567D01*
X-8925056Y+10865567D02*
X-8879336Y+10865567D01*
X-8864096Y+10865567D02*
X-8813296Y+10865567D01*
X-8777736Y+10865567D02*
X-8721856Y+10865567D01*
X-8691376Y+10865567D02*
X-8650736Y+10865567D01*
X-8615176Y+10865567D02*
X-8518656Y+10865567D01*
X-8457696Y+10865567D02*
X-8422136Y+10865567D01*
X-8381496Y+10865567D02*
X-8330696Y+10865567D01*
X-8310376Y+10865567D02*
X-8264656Y+10865567D01*
X-8188456Y+10865567D02*
X-8142736Y+10865567D01*
X-8076696Y+10865567D02*
X-8030976Y+10865567D01*
X-8015736Y+10865567D02*
X-7964936Y+10865567D01*
X-7939536Y+10865567D02*
X-7883656Y+10865567D01*
X-7873496Y+10865567D02*
X-7822696Y+10865567D01*
X-7792216Y+10865567D02*
X-7746496Y+10865567D01*
X-7731256Y+10865567D02*
X-7680456Y+10865567D01*
X-7649976Y+10865567D02*
X-7599176Y+10865567D01*
X-7583936Y+10865567D02*
X-7533136Y+10865567D01*
X-9067296Y+10870647D02*
X-9026656Y+10870647D01*
X-9006336Y+10870647D02*
X-8955536Y+10870647D01*
X-8925056Y+10870647D02*
X-8884416Y+10870647D01*
X-8864096Y+10870647D02*
X-8813296Y+10870647D01*
X-8772656Y+10870647D02*
X-8721856Y+10870647D01*
X-8696456Y+10870647D02*
X-8650736Y+10870647D01*
X-8620256Y+10870647D02*
X-8518656Y+10870647D01*
X-8462776Y+10870647D02*
X-8417056Y+10870647D01*
X-8381496Y+10870647D02*
X-8330696Y+10870647D01*
X-8310376Y+10870647D02*
X-8264656Y+10870647D01*
X-8188456Y+10870647D02*
X-8142736Y+10870647D01*
X-8076696Y+10870647D02*
X-8030976Y+10870647D01*
X-8010656Y+10870647D02*
X-7959856Y+10870647D01*
X-7939536Y+10870647D02*
X-7888736Y+10870647D01*
X-7868416Y+10870647D02*
X-7822696Y+10870647D01*
X-7792216Y+10870647D02*
X-7751576Y+10870647D01*
X-7731256Y+10870647D02*
X-7680456Y+10870647D01*
X-7649976Y+10870647D02*
X-7604256Y+10870647D01*
X-7583936Y+10870647D02*
X-7533136Y+10870647D01*
X-9067296Y+10875727D02*
X-9026656Y+10875727D01*
X-9006336Y+10875727D02*
X-8955536Y+10875727D01*
X-8925056Y+10875727D02*
X-8884416Y+10875727D01*
X-8864096Y+10875727D02*
X-8813296Y+10875727D01*
X-8772656Y+10875727D02*
X-8716776Y+10875727D01*
X-8696456Y+10875727D02*
X-8650736Y+10875727D01*
X-8620256Y+10875727D02*
X-8523736Y+10875727D01*
X-8462776Y+10875727D02*
X-8417056Y+10875727D01*
X-8381496Y+10875727D02*
X-8330696Y+10875727D01*
X-8310376Y+10875727D02*
X-8264656Y+10875727D01*
X-8188456Y+10875727D02*
X-8142736Y+10875727D01*
X-8076696Y+10875727D02*
X-8030976Y+10875727D01*
X-8010656Y+10875727D02*
X-7959856Y+10875727D01*
X-7939536Y+10875727D02*
X-7893816Y+10875727D01*
X-7868416Y+10875727D02*
X-7822696Y+10875727D01*
X-7792216Y+10875727D02*
X-7751576Y+10875727D01*
X-7731256Y+10875727D02*
X-7680456Y+10875727D01*
X-7649976Y+10875727D02*
X-7604256Y+10875727D01*
X-7583936Y+10875727D02*
X-7533136Y+10875727D01*
X-9067296Y+10880807D02*
X-9026656Y+10880807D01*
X-9006336Y+10880807D02*
X-8955536Y+10880807D01*
X-8925056Y+10880807D02*
X-8884416Y+10880807D01*
X-8864096Y+10880807D02*
X-8813296Y+10880807D01*
X-8772656Y+10880807D02*
X-8650736Y+10880807D01*
X-8620256Y+10880807D02*
X-8528816Y+10880807D01*
X-8467856Y+10880807D02*
X-8417056Y+10880807D01*
X-8381496Y+10880807D02*
X-8330696Y+10880807D01*
X-8310376Y+10880807D02*
X-8264656Y+10880807D01*
X-8188456Y+10880807D02*
X-8142736Y+10880807D01*
X-8076696Y+10880807D02*
X-8030976Y+10880807D01*
X-8010656Y+10880807D02*
X-7959856Y+10880807D01*
X-7939536Y+10880807D02*
X-7893816Y+10880807D01*
X-7868416Y+10880807D02*
X-7822696Y+10880807D01*
X-7792216Y+10880807D02*
X-7751576Y+10880807D01*
X-7731256Y+10880807D02*
X-7680456Y+10880807D01*
X-7649976Y+10880807D02*
X-7604256Y+10880807D01*
X-7583936Y+10880807D02*
X-7533136Y+10880807D01*
X-9067296Y+10885887D02*
X-9026656Y+10885887D01*
X-9006336Y+10885887D02*
X-8955536Y+10885887D01*
X-8925056Y+10885887D02*
X-8884416Y+10885887D01*
X-8864096Y+10885887D02*
X-8813296Y+10885887D01*
X-8772656Y+10885887D02*
X-8655816Y+10885887D01*
X-8620256Y+10885887D02*
X-8533896Y+10885887D01*
X-8472936Y+10885887D02*
X-8417056Y+10885887D01*
X-8381496Y+10885887D02*
X-8330696Y+10885887D01*
X-8310376Y+10885887D02*
X-8264656Y+10885887D01*
X-8188456Y+10885887D02*
X-8142736Y+10885887D01*
X-8076696Y+10885887D02*
X-8030976Y+10885887D01*
X-8010656Y+10885887D02*
X-7959856Y+10885887D01*
X-7939536Y+10885887D02*
X-7893816Y+10885887D01*
X-7868416Y+10885887D02*
X-7822696Y+10885887D01*
X-7792216Y+10885887D02*
X-7751576Y+10885887D01*
X-7731256Y+10885887D02*
X-7680456Y+10885887D01*
X-7649976Y+10885887D02*
X-7604256Y+10885887D01*
X-7583936Y+10885887D02*
X-7533136Y+10885887D01*
X-9067296Y+10890967D02*
X-9026656Y+10890967D01*
X-9006336Y+10890967D02*
X-8955536Y+10890967D01*
X-8925056Y+10890967D02*
X-8884416Y+10890967D01*
X-8864096Y+10890967D02*
X-8813296Y+10890967D01*
X-8767576Y+10890967D02*
X-8655816Y+10890967D01*
X-8620256Y+10890967D02*
X-8538976Y+10890967D01*
X-8472936Y+10890967D02*
X-8417056Y+10890967D01*
X-8381496Y+10890967D02*
X-8325616Y+10890967D01*
X-8310376Y+10890967D02*
X-8264656Y+10890967D01*
X-8188456Y+10890967D02*
X-8142736Y+10890967D01*
X-8076696Y+10890967D02*
X-8030976Y+10890967D01*
X-8010656Y+10890967D02*
X-7959856Y+10890967D01*
X-7939536Y+10890967D02*
X-7893816Y+10890967D01*
X-7868416Y+10890967D02*
X-7822696Y+10890967D01*
X-7792216Y+10890967D02*
X-7751576Y+10890967D01*
X-7731256Y+10890967D02*
X-7680456Y+10890967D01*
X-7649976Y+10890967D02*
X-7604256Y+10890967D01*
X-7583936Y+10890967D02*
X-7533136Y+10890967D01*
X-9067296Y+10896047D02*
X-9026656Y+10896047D01*
X-9006336Y+10896047D02*
X-8955536Y+10896047D01*
X-8925056Y+10896047D02*
X-8884416Y+10896047D01*
X-8864096Y+10896047D02*
X-8813296Y+10896047D01*
X-8767576Y+10896047D02*
X-8655816Y+10896047D01*
X-8625336Y+10896047D02*
X-8544056Y+10896047D01*
X-8478016Y+10896047D02*
X-8411976Y+10896047D01*
X-8381496Y+10896047D02*
X-8320536Y+10896047D01*
X-8310376Y+10896047D02*
X-8264656Y+10896047D01*
X-8188456Y+10896047D02*
X-8142736Y+10896047D01*
X-8076696Y+10896047D02*
X-8030976Y+10896047D01*
X-8010656Y+10896047D02*
X-7959856Y+10896047D01*
X-7868416Y+10896047D02*
X-7822696Y+10896047D01*
X-7792216Y+10896047D02*
X-7751576Y+10896047D01*
X-7731256Y+10896047D02*
X-7680456Y+10896047D01*
X-7583936Y+10896047D02*
X-7533136Y+10896047D01*
X-9067296Y+10901127D02*
X-9026656Y+10901127D01*
X-9006336Y+10901127D02*
X-8955536Y+10901127D01*
X-8925056Y+10901127D02*
X-8884416Y+10901127D01*
X-8864096Y+10901127D02*
X-8813296Y+10901127D01*
X-8767576Y+10901127D02*
X-8655816Y+10901127D01*
X-8625336Y+10901127D02*
X-8544056Y+10901127D01*
X-8483096Y+10901127D02*
X-8411976Y+10901127D01*
X-8376416Y+10901127D02*
X-8264656Y+10901127D01*
X-8188456Y+10901127D02*
X-8142736Y+10901127D01*
X-8076696Y+10901127D02*
X-8030976Y+10901127D01*
X-8010656Y+10901127D02*
X-7959856Y+10901127D01*
X-7873496Y+10901127D02*
X-7822696Y+10901127D01*
X-7792216Y+10901127D02*
X-7751576Y+10901127D01*
X-7731256Y+10901127D02*
X-7680456Y+10901127D01*
X-7583936Y+10901127D02*
X-7533136Y+10901127D01*
X-9067296Y+10906207D02*
X-9026656Y+10906207D01*
X-9006336Y+10906207D02*
X-8955536Y+10906207D01*
X-8925056Y+10906207D02*
X-8884416Y+10906207D01*
X-8864096Y+10906207D02*
X-8813296Y+10906207D01*
X-8767576Y+10906207D02*
X-8655816Y+10906207D01*
X-8625336Y+10906207D02*
X-8549136Y+10906207D01*
X-8483096Y+10906207D02*
X-8411976Y+10906207D01*
X-8376416Y+10906207D02*
X-8264656Y+10906207D01*
X-8188456Y+10906207D02*
X-8142736Y+10906207D01*
X-8010656Y+10906207D02*
X-7959856Y+10906207D01*
X-7878576Y+10906207D02*
X-7822696Y+10906207D01*
X-7792216Y+10906207D02*
X-7751576Y+10906207D01*
X-7731256Y+10906207D02*
X-7680456Y+10906207D01*
X-7589016Y+10906207D02*
X-7533136Y+10906207D01*
X-9067296Y+10911287D02*
X-9026656Y+10911287D01*
X-9006336Y+10911287D02*
X-8955536Y+10911287D01*
X-8925056Y+10911287D02*
X-8884416Y+10911287D01*
X-8864096Y+10911287D02*
X-8813296Y+10911287D01*
X-8767576Y+10911287D02*
X-8716776Y+10911287D01*
X-8701536Y+10911287D02*
X-8655816Y+10911287D01*
X-8625336Y+10911287D02*
X-8554216Y+10911287D01*
X-8488176Y+10911287D02*
X-8411976Y+10911287D01*
X-8366256Y+10911287D02*
X-8264656Y+10911287D01*
X-8188456Y+10911287D02*
X-8142736Y+10911287D01*
X-8010656Y+10911287D02*
X-7959856Y+10911287D01*
X-7903976Y+10911287D02*
X-7822696Y+10911287D01*
X-7792216Y+10911287D02*
X-7751576Y+10911287D01*
X-7731256Y+10911287D02*
X-7680456Y+10911287D01*
X-7614416Y+10911287D02*
X-7533136Y+10911287D01*
X-9006336Y+10916367D02*
X-8955536Y+10916367D01*
X-8864096Y+10916367D02*
X-8813296Y+10916367D01*
X-8767576Y+10916367D02*
X-8716776Y+10916367D01*
X-8701536Y+10916367D02*
X-8660896Y+10916367D01*
X-8625336Y+10916367D02*
X-8559296Y+10916367D01*
X-8493256Y+10916367D02*
X-8411976Y+10916367D01*
X-8361176Y+10916367D02*
X-8264656Y+10916367D01*
X-8188456Y+10916367D02*
X-8142736Y+10916367D01*
X-8010656Y+10916367D02*
X-7959856Y+10916367D01*
X-7903976Y+10916367D02*
X-7822696Y+10916367D01*
X-7731256Y+10916367D02*
X-7680456Y+10916367D01*
X-7614416Y+10916367D02*
X-7533136Y+10916367D01*
X-9006336Y+10921447D02*
X-8955536Y+10921447D01*
X-8864096Y+10921447D02*
X-8813296Y+10921447D01*
X-8762496Y+10921447D02*
X-8716776Y+10921447D01*
X-8701536Y+10921447D02*
X-8660896Y+10921447D01*
X-8625336Y+10921447D02*
X-8564376Y+10921447D01*
X-8493256Y+10921447D02*
X-8411976Y+10921447D01*
X-8366256Y+10921447D02*
X-8264656Y+10921447D01*
X-8188456Y+10921447D02*
X-8142736Y+10921447D01*
X-8010656Y+10921447D02*
X-7959856Y+10921447D01*
X-7903976Y+10921447D02*
X-7822696Y+10921447D01*
X-7731256Y+10921447D02*
X-7680456Y+10921447D01*
X-7614416Y+10921447D02*
X-7533136Y+10921447D01*
X-9006336Y+10926527D02*
X-8955536Y+10926527D01*
X-8864096Y+10926527D02*
X-8813296Y+10926527D01*
X-8762496Y+10926527D02*
X-8716776Y+10926527D01*
X-8701536Y+10926527D02*
X-8660896Y+10926527D01*
X-8625336Y+10926527D02*
X-8569456Y+10926527D01*
X-8498336Y+10926527D02*
X-8411976Y+10926527D01*
X-8371336Y+10926527D02*
X-8264656Y+10926527D01*
X-8188456Y+10926527D02*
X-8142736Y+10926527D01*
X-8010656Y+10926527D02*
X-7959856Y+10926527D01*
X-7903976Y+10926527D02*
X-7822696Y+10926527D01*
X-7731256Y+10926527D02*
X-7680456Y+10926527D01*
X-7614416Y+10926527D02*
X-7533136Y+10926527D01*
X-9006336Y+10931607D02*
X-8955536Y+10931607D01*
X-8864096Y+10931607D02*
X-8813296Y+10931607D01*
X-8762496Y+10931607D02*
X-8711696Y+10931607D01*
X-8701536Y+10931607D02*
X-8660896Y+10931607D01*
X-8625336Y+10931607D02*
X-8569456Y+10931607D01*
X-8503416Y+10931607D02*
X-8411976Y+10931607D01*
X-8376416Y+10931607D02*
X-8264656Y+10931607D01*
X-8234176Y+10931607D02*
X-8203696Y+10931607D01*
X-8188456Y+10931607D02*
X-8142736Y+10931607D01*
X-8127496Y+10931607D02*
X-8097016Y+10931607D01*
X-8010656Y+10931607D02*
X-7959856Y+10931607D01*
X-7903976Y+10931607D02*
X-7822696Y+10931607D01*
X-7731256Y+10931607D02*
X-7680456Y+10931607D01*
X-7614416Y+10931607D02*
X-7533136Y+10931607D01*
X-9006336Y+10936687D02*
X-8955536Y+10936687D01*
X-8864096Y+10936687D02*
X-8813296Y+10936687D01*
X-8762496Y+10936687D02*
X-8711696Y+10936687D01*
X-8701536Y+10936687D02*
X-8660896Y+10936687D01*
X-8625336Y+10936687D02*
X-8574536Y+10936687D01*
X-8503416Y+10936687D02*
X-8411976Y+10936687D01*
X-8376416Y+10936687D02*
X-8330696Y+10936687D01*
X-8310376Y+10936687D02*
X-8264656Y+10936687D01*
X-8234176Y+10936687D02*
X-8203696Y+10936687D01*
X-8188456Y+10936687D02*
X-8142736Y+10936687D01*
X-8127496Y+10936687D02*
X-8097016Y+10936687D01*
X-8010656Y+10936687D02*
X-7959856Y+10936687D01*
X-7903976Y+10936687D02*
X-7822696Y+10936687D01*
X-7731256Y+10936687D02*
X-7680456Y+10936687D01*
X-7614416Y+10936687D02*
X-7533136Y+10936687D01*
X-9006336Y+10941767D02*
X-8955536Y+10941767D01*
X-8864096Y+10941767D02*
X-8813296Y+10941767D01*
X-8762496Y+10941767D02*
X-8711696Y+10941767D01*
X-8701536Y+10941767D02*
X-8660896Y+10941767D01*
X-8625336Y+10941767D02*
X-8579616Y+10941767D01*
X-8508496Y+10941767D02*
X-8411976Y+10941767D01*
X-8381496Y+10941767D02*
X-8330696Y+10941767D01*
X-8310376Y+10941767D02*
X-8264656Y+10941767D01*
X-8234176Y+10941767D02*
X-8203696Y+10941767D01*
X-8188456Y+10941767D02*
X-8142736Y+10941767D01*
X-8127496Y+10941767D02*
X-8097016Y+10941767D01*
X-8010656Y+10941767D02*
X-7959856Y+10941767D01*
X-7873496Y+10941767D02*
X-7822696Y+10941767D01*
X-7731256Y+10941767D02*
X-7680456Y+10941767D01*
X-7583936Y+10941767D02*
X-7533136Y+10941767D01*
X-9006336Y+10946847D02*
X-8955536Y+10946847D01*
X-8864096Y+10946847D02*
X-8813296Y+10946847D01*
X-8757416Y+10946847D02*
X-8711696Y+10946847D01*
X-8701536Y+10946847D02*
X-8665976Y+10946847D01*
X-8625336Y+10946847D02*
X-8584696Y+10946847D01*
X-8513576Y+10946847D02*
X-8411976Y+10946847D01*
X-8381496Y+10946847D02*
X-8330696Y+10946847D01*
X-8310376Y+10946847D02*
X-8264656Y+10946847D01*
X-8234176Y+10946847D02*
X-8203696Y+10946847D01*
X-8188456Y+10946847D02*
X-8142736Y+10946847D01*
X-8127496Y+10946847D02*
X-8097016Y+10946847D01*
X-8010656Y+10946847D02*
X-7959856Y+10946847D01*
X-7868416Y+10946847D02*
X-7822696Y+10946847D01*
X-7731256Y+10946847D02*
X-7680456Y+10946847D01*
X-7583936Y+10946847D02*
X-7533136Y+10946847D01*
X-9006336Y+10951927D02*
X-8955536Y+10951927D01*
X-8864096Y+10951927D02*
X-8813296Y+10951927D01*
X-8757416Y+10951927D02*
X-8711696Y+10951927D01*
X-8706616Y+10951927D02*
X-8665976Y+10951927D01*
X-8625336Y+10951927D02*
X-8589776Y+10951927D01*
X-8513576Y+10951927D02*
X-8411976Y+10951927D01*
X-8381496Y+10951927D02*
X-8330696Y+10951927D01*
X-8310376Y+10951927D02*
X-8264656Y+10951927D01*
X-8234176Y+10951927D02*
X-8203696Y+10951927D01*
X-8188456Y+10951927D02*
X-8142736Y+10951927D01*
X-8127496Y+10951927D02*
X-8097016Y+10951927D01*
X-8076696Y+10951927D02*
X-8030976Y+10951927D01*
X-8010656Y+10951927D02*
X-7959856Y+10951927D01*
X-7868416Y+10951927D02*
X-7822696Y+10951927D01*
X-7731256Y+10951927D02*
X-7680456Y+10951927D01*
X-7583936Y+10951927D02*
X-7533136Y+10951927D01*
X-9006336Y+10957007D02*
X-8955536Y+10957007D01*
X-8864096Y+10957007D02*
X-8813296Y+10957007D01*
X-8757416Y+10957007D02*
X-8665976Y+10957007D01*
X-8625336Y+10957007D02*
X-8589776Y+10957007D01*
X-8513576Y+10957007D02*
X-8411976Y+10957007D01*
X-8381496Y+10957007D02*
X-8330696Y+10957007D01*
X-8310376Y+10957007D02*
X-8264656Y+10957007D01*
X-8234176Y+10957007D02*
X-8203696Y+10957007D01*
X-8188456Y+10957007D02*
X-8142736Y+10957007D01*
X-8127496Y+10957007D02*
X-8097016Y+10957007D01*
X-8076696Y+10957007D02*
X-8030976Y+10957007D01*
X-8010656Y+10957007D02*
X-7959856Y+10957007D01*
X-7939536Y+10957007D02*
X-7893816Y+10957007D01*
X-7868416Y+10957007D02*
X-7822696Y+10957007D01*
X-7731256Y+10957007D02*
X-7680456Y+10957007D01*
X-7649976Y+10957007D02*
X-7604256Y+10957007D01*
X-7583936Y+10957007D02*
X-7533136Y+10957007D01*
X-9006336Y+10962087D02*
X-8955536Y+10962087D01*
X-8864096Y+10962087D02*
X-8813296Y+10962087D01*
X-8757416Y+10962087D02*
X-8665976Y+10962087D01*
X-8620256Y+10962087D02*
X-8594856Y+10962087D01*
X-8467856Y+10962087D02*
X-8417056Y+10962087D01*
X-8381496Y+10962087D02*
X-8330696Y+10962087D01*
X-8310376Y+10962087D02*
X-8264656Y+10962087D01*
X-8234176Y+10962087D02*
X-8203696Y+10962087D01*
X-8188456Y+10962087D02*
X-8142736Y+10962087D01*
X-8127496Y+10962087D02*
X-8097016Y+10962087D01*
X-8076696Y+10962087D02*
X-8030976Y+10962087D01*
X-8010656Y+10962087D02*
X-7959856Y+10962087D01*
X-7939536Y+10962087D02*
X-7893816Y+10962087D01*
X-7868416Y+10962087D02*
X-7822696Y+10962087D01*
X-7731256Y+10962087D02*
X-7680456Y+10962087D01*
X-7649976Y+10962087D02*
X-7604256Y+10962087D01*
X-7583936Y+10962087D02*
X-7533136Y+10962087D01*
X-9006336Y+10967167D02*
X-8955536Y+10967167D01*
X-8864096Y+10967167D02*
X-8813296Y+10967167D01*
X-8757416Y+10967167D02*
X-8665976Y+10967167D01*
X-8620256Y+10967167D02*
X-8599936Y+10967167D01*
X-8472936Y+10967167D02*
X-8417056Y+10967167D01*
X-8381496Y+10967167D02*
X-8330696Y+10967167D01*
X-8310376Y+10967167D02*
X-8264656Y+10967167D01*
X-8234176Y+10967167D02*
X-8203696Y+10967167D01*
X-8188456Y+10967167D02*
X-8142736Y+10967167D01*
X-8127496Y+10967167D02*
X-8097016Y+10967167D01*
X-8076696Y+10967167D02*
X-8030976Y+10967167D01*
X-8010656Y+10967167D02*
X-7959856Y+10967167D01*
X-7939536Y+10967167D02*
X-7888736Y+10967167D01*
X-7868416Y+10967167D02*
X-7822696Y+10967167D01*
X-7731256Y+10967167D02*
X-7680456Y+10967167D01*
X-7649976Y+10967167D02*
X-7604256Y+10967167D01*
X-7583936Y+10967167D02*
X-7533136Y+10967167D01*
X-9006336Y+10972247D02*
X-8955536Y+10972247D01*
X-8864096Y+10972247D02*
X-8813296Y+10972247D01*
X-8757416Y+10972247D02*
X-8665976Y+10972247D01*
X-8620256Y+10972247D02*
X-8605016Y+10972247D01*
X-8472936Y+10972247D02*
X-8417056Y+10972247D01*
X-8381496Y+10972247D02*
X-8325616Y+10972247D01*
X-8310376Y+10972247D02*
X-8259576Y+10972247D01*
X-8234176Y+10972247D02*
X-8198616Y+10972247D01*
X-8188456Y+10972247D02*
X-8142736Y+10972247D01*
X-8132576Y+10972247D02*
X-8097016Y+10972247D01*
X-8076696Y+10972247D02*
X-8030976Y+10972247D01*
X-8010656Y+10972247D02*
X-7959856Y+10972247D01*
X-7939536Y+10972247D02*
X-7883656Y+10972247D01*
X-7873496Y+10972247D02*
X-7822696Y+10972247D01*
X-7731256Y+10972247D02*
X-7680456Y+10972247D01*
X-7649976Y+10972247D02*
X-7599176Y+10972247D01*
X-7583936Y+10972247D02*
X-7533136Y+10972247D01*
X-9006336Y+10977327D02*
X-8955536Y+10977327D01*
X-8864096Y+10977327D02*
X-8813296Y+10977327D01*
X-8752336Y+10977327D02*
X-8671056Y+10977327D01*
X-8620256Y+10977327D02*
X-8610096Y+10977327D01*
X-8478016Y+10977327D02*
X-8417056Y+10977327D01*
X-8381496Y+10977327D02*
X-8259576Y+10977327D01*
X-8234176Y+10977327D02*
X-8097016Y+10977327D01*
X-8076696Y+10977327D02*
X-8025896Y+10977327D01*
X-8015736Y+10977327D02*
X-7959856Y+10977327D01*
X-7939536Y+10977327D02*
X-7817616Y+10977327D01*
X-7731256Y+10977327D02*
X-7675376Y+10977327D01*
X-7649976Y+10977327D02*
X-7533136Y+10977327D01*
X-9011416Y+10982407D02*
X-8950456Y+10982407D01*
X-8869176Y+10982407D02*
X-8808216Y+10982407D01*
X-8752336Y+10982407D02*
X-8671056Y+10982407D01*
X-8620256Y+10982407D02*
X-8610096Y+10982407D01*
X-8478016Y+10982407D02*
X-8417056Y+10982407D01*
X-8381496Y+10982407D02*
X-8254496Y+10982407D01*
X-8234176Y+10982407D02*
X-8097016Y+10982407D01*
X-8076696Y+10982407D02*
X-7964936Y+10982407D01*
X-7939536Y+10982407D02*
X-7817616Y+10982407D01*
X-7736336Y+10982407D02*
X-7675376Y+10982407D01*
X-7649976Y+10982407D02*
X-7528056Y+10982407D01*
X-9011416Y+10987487D02*
X-8950456Y+10987487D01*
X-8869176Y+10987487D02*
X-8808216Y+10987487D01*
X-8752336Y+10987487D02*
X-8671056Y+10987487D01*
X-8615176Y+10987487D02*
X-8559296Y+10987487D01*
X-8483096Y+10987487D02*
X-8422136Y+10987487D01*
X-8376416Y+10987487D02*
X-8254496Y+10987487D01*
X-8234176Y+10987487D02*
X-8097016Y+10987487D01*
X-8076696Y+10987487D02*
X-7964936Y+10987487D01*
X-7939536Y+10987487D02*
X-7812536Y+10987487D01*
X-7736336Y+10987487D02*
X-7670296Y+10987487D01*
X-7649976Y+10987487D02*
X-7528056Y+10987487D01*
X-9011416Y+10992567D02*
X-8950456Y+10992567D01*
X-8869176Y+10992567D02*
X-8808216Y+10992567D01*
X-8752336Y+10992567D02*
X-8671056Y+10992567D01*
X-8615176Y+10992567D02*
X-8559296Y+10992567D01*
X-8488176Y+10992567D02*
X-8422136Y+10992567D01*
X-8376416Y+10992567D02*
X-8254496Y+10992567D01*
X-8234176Y+10992567D02*
X-8097016Y+10992567D01*
X-8076696Y+10992567D02*
X-7970016Y+10992567D01*
X-7939536Y+10992567D02*
X-7812536Y+10992567D01*
X-7736336Y+10992567D02*
X-7670296Y+10992567D01*
X-7649976Y+10992567D02*
X-7528056Y+10992567D01*
X-9011416Y+10997647D02*
X-8950456Y+10997647D01*
X-8869176Y+10997647D02*
X-8808216Y+10997647D01*
X-8752336Y+10997647D02*
X-8671056Y+10997647D01*
X-8615176Y+10997647D02*
X-8564376Y+10997647D01*
X-8488176Y+10997647D02*
X-8422136Y+10997647D01*
X-8371336Y+10997647D02*
X-8254496Y+10997647D01*
X-8234176Y+10997647D02*
X-8097016Y+10997647D01*
X-8076696Y+10997647D02*
X-7970016Y+10997647D01*
X-7939536Y+10997647D02*
X-7812536Y+10997647D01*
X-7736336Y+10997647D02*
X-7670296Y+10997647D01*
X-7649976Y+10997647D02*
X-7528056Y+10997647D01*
X-9011416Y+11002727D02*
X-8950456Y+11002727D01*
X-8869176Y+11002727D02*
X-8808216Y+11002727D01*
X-8747256Y+11002727D02*
X-8671056Y+11002727D01*
X-8610096Y+11002727D02*
X-8569456Y+11002727D01*
X-8493256Y+11002727D02*
X-8427216Y+11002727D01*
X-8366256Y+11002727D02*
X-8254496Y+11002727D01*
X-8234176Y+11002727D02*
X-8097016Y+11002727D01*
X-8066536Y+11002727D02*
X-7975096Y+11002727D01*
X-7939536Y+11002727D02*
X-7812536Y+11002727D01*
X-7736336Y+11002727D02*
X-7670296Y+11002727D01*
X-7649976Y+11002727D02*
X-7528056Y+11002727D01*
X-9011416Y+11007807D02*
X-8950456Y+11007807D01*
X-8869176Y+11007807D02*
X-8808216Y+11007807D01*
X-8747256Y+11007807D02*
X-8671056Y+11007807D01*
X-8610096Y+11007807D02*
X-8574536Y+11007807D01*
X-8498336Y+11007807D02*
X-8427216Y+11007807D01*
X-8356096Y+11007807D02*
X-8254496Y+11007807D01*
X-8234176Y+11007807D02*
X-8097016Y+11007807D01*
X-8061456Y+11007807D02*
X-7985256Y+11007807D01*
X-7939536Y+11007807D02*
X-7812536Y+11007807D01*
X-7736336Y+11007807D02*
X-7670296Y+11007807D01*
X-7649976Y+11007807D02*
X-7528056Y+11007807D01*
X-8610096Y+11012887D02*
X-8574536Y+11012887D01*
X-8498336Y+11012887D02*
X-8427216Y+11012887D01*
X-8046216Y+11012887D02*
X-7995416Y+11012887D01*
X-8605016Y+11017967D02*
X-8579616Y+11017967D01*
X-8457696Y+11017967D02*
X-8432296Y+11017967D01*
X-8605016Y+11023047D02*
X-8584696Y+11023047D01*
X-8457696Y+11023047D02*
X-8432296Y+11023047D01*
X-8599936Y+11028127D02*
X-8584696Y+11028127D01*
X-8457696Y+11028127D02*
X-8437376Y+11028127D01*
X-8599936Y+11033207D02*
X-8589776Y+11033207D01*
X-8457696Y+11033207D02*
X-8437376Y+11033207D01*
X-8457696Y+11038287D02*
X-8442456Y+11038287D01*
X-8457696Y+11043367D02*
X-8447536Y+11043367D01*
X-8457696Y+11048447D02*
X-8447536Y+11048447D01*
X-8462776Y+11053527D02*
X-8452616Y+11053527D01*
X-8462776Y+11058607D02*
X-8457696Y+11058607D01*
X-8467856Y+11063687D02*
X-8462776Y+11063687D01*
X-8472936Y+11068767D02*
X-8467856Y+11068767D01*
X-8483096Y+11073847D02*
X-8472936Y+11073847D01*
X-8493256Y+11078927D02*
X-8483096Y+11078927D01*
X-8538976Y+11084007D02*
X-8498336Y+11084007D01*
M02*
