<svg id="Layer_1" data-name="Layer 1" xmlns="http://www.w3.org/2000/svg" xmlns:xlink="http://www.w3.org/1999/xlink" width="340" height="314" viewBox="0 0 340 314">
  <defs>
    <style>
      .cls-1, .cls-7, .cls-8, .cls-9 {
        fill: none;
      }

      .cls-2, .cls-3 {
        fill: #6698cb;
      }

      .cls-2 {
        fill-rule: evenodd;
      }

      .cls-4 {
        clip-path: url(#clip-path);
      }

      .cls-5 {
        fill: url(#linear-gradient);
      }

      .cls-6 {
        clip-path: url(#clip-path-2);
      }

      .cls-7, .cls-8 {
        stroke: #888;
      }

      .cls-7, .cls-9 {
        stroke-width: 2.59582px;
      }

      .cls-8 {
        stroke-width: 0.86527px;
      }

      .cls-9 {
        stroke: #fff;
        stroke-linecap: round;
      }

      .cls-10 {
        clip-path: url(#clip-path-4);
      }

      .cls-11 {
        fill: url(#linear-gradient-2);
      }

      .cls-12 {
        fill: #4990c8;
      }

      .cls-13 {
        fill: #7fc0ff;
      }

      .cls-14 {
        fill: #166195;
      }
    </style>
    <clipPath id="clip-path">
      <path class="cls-1" d="M135.98146,113.69225V200.0995h65.078V140.13875S199.40641,135.221,181.24,135.221c0-15.86037-6.10468-21.5563-6.10468-21.5563Z"/>
    </clipPath>
    <linearGradient id="linear-gradient" x1="-333.60299" y1="576.71901" x2="-332.54131" y2="576.71901" gradientTransform="matrix(0, 81.413, 81.413, 0, -46783.9045, 27273.2849)" gradientUnits="userSpaceOnUse">
      <stop offset="0" stop-color="#cbcbcb"/>
      <stop offset="0.02238" stop-color="#d2d2d2"/>
      <stop offset="0.10974" stop-color="#e6e6e6"/>
      <stop offset="0.20895" stop-color="#f4f4f4"/>
      <stop offset="0.32901" stop-color="#fcfcfc"/>
      <stop offset="0.52727" stop-color="#fff"/>
      <stop offset="0.70502" stop-color="#fcfcfc"/>
      <stop offset="0.81266" stop-color="#f4f4f4"/>
      <stop offset="0.90161" stop-color="#e6e6e6"/>
      <stop offset="0.97994" stop-color="#d2d2d2"/>
      <stop offset="1" stop-color="#cbcbcb"/>
    </linearGradient>
    <clipPath id="clip-path-2">
      <rect class="cls-1" x="134.68424" y="112.36613" width="67.67169" height="89.03078"/>
    </clipPath>
    <clipPath id="clip-path-4">
      <path class="cls-1" d="M180.16674,136.545s19.5741,4.32538,19.5741,17.573c0,0,.05426-8.46161.05426-13.54491-3.05981-3.63-12.67237-4.0749-17.21106-4.0749-1.47672,0-2.4173.04679-2.4173.04679"/>
    </clipPath>
    <linearGradient id="linear-gradient-2" x1="-388.37486" y1="582.89714" x2="-387.31318" y2="582.89714" gradientTransform="matrix(-9.8784, 0.00004, 0.00004, 9.8784, -3636.55105, -5612.76542)" gradientUnits="userSpaceOnUse">
      <stop offset="0" stop-color="#aba6ac"/>
      <stop offset="0.06765" stop-color="#bbb7bc"/>
      <stop offset="0.2161" stop-color="#d8d6d9"/>
      <stop offset="0.36029" stop-color="#eeedee"/>
      <stop offset="0.49698" stop-color="#fbfafb"/>
      <stop offset="0.61818" stop-color="#fff"/>
      <stop offset="1" stop-color="#fff"/>
    </linearGradient>
  </defs>
  <title>collaboration</title>
  <path class="cls-2" d="M143.54566,306.7782s-.93888-7.11648,3.20352-8.43648c4.13616-1.31376,13.8816-3.16228,13.8816-3.16228v-5.26892a13.20942,13.20942,0,0,1-4.27152-8.08416,1.29246,1.29246,0,0,1-1.94736-.9216,18.04372,18.04372,0,0,1-.6696-5.40336c.13584-.26448.21792-.92688,1.54944,0,0,0-.79872-8.255,0-9.83952.803-1.57776.93264-3.29088,3.203-4.21776a19.677,19.677,0,0,1,7.48032-1.05028s.1296-1.056,2.13648-1.056c2.00016,0,5.47353,1.71316,6.40656,3.16228,0,0,3.73632-1.1856,4.271,2.10624a37.10428,37.10428,0,0,1,0,10.895s1.28448-1.71312,1.549,0c.26937,1.71312.26937,6.325-.93312,6.4536-1.20288.13484-.61584-1.18516-.61584-1.18516s-1.73664,8.484-4.271,9.14068v5.26892l10.67712,2.112s4.94025,2.10628,5.34528,4.21828a21.1746,21.1746,0,0,1,0,5.26848Z"/>
  <path class="cls-2" d="M143.54566,53.17837s-.93888-7.117,3.20352-8.437c4.13616-1.31376,13.8816-3.16176,13.8816-3.16176V36.31021a13.20757,13.20757,0,0,1-4.27152-8.08416,1.29244,1.29244,0,0,1-1.94736-.92112,18.0451,18.0451,0,0,1-.6696-5.40389c.13584-.264.21792-.9264,1.54944,0,0,0-.79872-8.25451,0-9.839.803-1.57776.93264-3.29088,3.203-4.21824a19.67492,19.67492,0,0,1,7.48032-1.04976s.1296-1.05648,2.13648-1.05648c2.00016,0,5.47353,1.71312,6.40656,3.16272,0,0,3.73632-1.1856,4.271,2.10576a37.10357,37.10357,0,0,1,0,10.895s1.28448-1.71259,1.549,0c.26937,1.7136.26937,6.325-.93312,6.45413-1.20288.13488-.61584-1.1856-.61584-1.1856s-1.73664,8.48448-4.271,9.14064v5.26944l10.67712,2.11152s4.94025,2.10624,5.34528,4.21872a21.1746,21.1746,0,0,1,0,5.26848Z"/>
  <path class="cls-2" d="M6.74566,176.378s-.93888-7.11648,3.20352-8.43648c4.13616-1.31376,13.8816-3.16224,13.8816-3.16224v-5.269a13.20942,13.20942,0,0,1-4.27152-8.08416,1.29246,1.29246,0,0,1-1.94736-.9216,18.04228,18.04228,0,0,1-.6696-5.40336c.13584-.264.21792-.92688,1.54944,0,0,0-.79872-8.2546,0-9.839.803-1.57824.93264-3.29136,3.203-4.21824a19.68557,19.68557,0,0,1,7.48032-1.05024s.1296-1.056,2.13648-1.056c2.00016,0,5.47353,1.71312,6.40656,3.16224,0,0,3.73632-1.1856,4.271,2.10624a37.10393,37.10393,0,0,1,0,10.895s1.28448-1.71312,1.549,0c.26937,1.7136.26937,6.325-.93312,6.45408-1.20288.1344-.61584-1.1856-.61584-1.1856s-1.73664,8.484-4.271,9.14064v5.269l10.67712,2.112s4.94025,2.10624,5.34528,4.21824a21.1746,21.1746,0,0,1,0,5.26848Z"/>
  <path class="cls-2" d="M284.3455,176.378s-.9384-7.11648,3.20352-8.43648c4.13664-1.31376,13.88159-3.16224,13.88159-3.16224v-5.269a13.21251,13.21251,0,0,1-4.27151-8.08416,1.29248,1.29248,0,0,1-1.94736-.9216,18.0392,18.0392,0,0,1-.6696-5.40336c.13584-.264.21792-.92688,1.54992,0,0,0-.79872-8.2546,0-9.839.803-1.57824.93216-3.29136,3.20256-4.21824a19.68808,19.68808,0,0,1,7.48089-1.05024s.129-1.056,2.136-1.056c2.00006,0,5.47382,1.71312,6.40646,3.16224,0,0,3.7368-1.1856,4.271,2.10624a37.07093,37.07093,0,0,1,0,10.895s1.28448-1.71312,1.549,0c.26928,1.7136.26928,6.325-.93312,6.45408-1.20288.1344-.61584-1.1856-.61584-1.1856s-1.73664,8.484-4.271,9.14064v5.269l10.67712,2.112s4.94016,2.10624,5.34528,4.21824a21.1746,21.1746,0,0,1,0,5.26848Z"/>
  <g>
    <path class="cls-3" d="M59.83951,158.86812a2.639,2.639,0,1,1,2.639-2.63908A2.64027,2.64027,0,0,1,59.83951,158.86812Z"/>
    <path class="cls-3" d="M71.7031,158.86812a2.639,2.639,0,1,1,2.639-2.63908A2.64025,2.64025,0,0,1,71.7031,158.86812Z"/>
    <path class="cls-3" d="M83.56678,158.86812a2.639,2.639,0,1,1,2.63913-2.63908A2.64025,2.64025,0,0,1,83.56678,158.86812Z"/>
  </g>
  <g>
    <path class="cls-3" d="M95.52646,158.86812a2.639,2.639,0,1,1,2.639-2.63908A2.64027,2.64027,0,0,1,95.52646,158.86812Z"/>
    <path class="cls-3" d="M107.39006,158.86812a2.639,2.639,0,1,1,2.639-2.63908A2.64025,2.64025,0,0,1,107.39006,158.86812Z"/>
    <path class="cls-3" d="M119.25374,158.86812a2.639,2.639,0,1,1,2.63912-2.63908A2.64025,2.64025,0,0,1,119.25374,158.86812Z"/>
  </g>
  <g>
    <path class="cls-3" d="M273.68134,154.42a2.639,2.639,0,1,1-2.639,2.639A2.63984,2.63984,0,0,1,273.68134,154.42Z"/>
    <path class="cls-3" d="M261.81766,154.42a2.639,2.639,0,1,1-2.63895,2.639A2.64025,2.64025,0,0,1,261.81766,154.42Z"/>
    <path class="cls-3" d="M249.9535,154.42a2.639,2.639,0,1,1-2.63856,2.639A2.64043,2.64043,0,0,1,249.9535,154.42Z"/>
  </g>
  <g>
    <path class="cls-3" d="M237.26182,154.42a2.639,2.639,0,1,1-2.639,2.639A2.63984,2.63984,0,0,1,237.26182,154.42Z"/>
    <path class="cls-3" d="M225.39814,154.42a2.639,2.639,0,1,1-2.639,2.639A2.64025,2.64025,0,0,1,225.39814,154.42Z"/>
    <path class="cls-3" d="M213.534,154.42a2.639,2.639,0,1,1-2.63856,2.639A2.64043,2.64043,0,0,1,213.534,154.42Z"/>
  </g>
  <path class="cls-3" d="M163.83718,65.917a2.639,2.639,0,1,1,2.63913,2.63909A2.64025,2.64025,0,0,1,163.83718,65.917Z"/>
  <path class="cls-3" d="M163.83718,77.78077a2.639,2.639,0,1,1,2.63913,2.639A2.64027,2.64027,0,0,1,163.83718,77.78077Z"/>
  <path class="cls-3" d="M166.47631,92.28344a2.639,2.639,0,1,1,2.63895-2.639,2.64022,2.64022,0,0,1-2.63895,2.639"/>
  <path class="cls-3" d="M166.47631,104.17909a2.639,2.639,0,1,1,2.63895-2.639,2.64022,2.64022,0,0,1-2.63895,2.639"/>
  <g>
    <path class="cls-3" d="M163.83718,223.117a2.639,2.639,0,1,1,2.63913,2.63908A2.64026,2.64026,0,0,1,163.83718,223.117Z"/>
    <path class="cls-3" d="M163.83718,234.98076a2.639,2.639,0,1,1,2.63913,2.639A2.64027,2.64027,0,0,1,163.83718,234.98076Z"/>
    <path class="cls-3" d="M163.83718,211.22138a2.639,2.639,0,1,1,2.63913,2.63909A2.64025,2.64025,0,0,1,163.83718,211.22138Z"/>
    <path class="cls-3" d="M163.83718,246.84444a2.639,2.639,0,1,1,2.63913,2.639A2.64027,2.64027,0,0,1,163.83718,246.84444Z"/>
  </g>
  <g>
    <g class="cls-4">
      <rect class="cls-5" x="135.98146" y="113.66473" width="65.07803" height="86.43477"/>
    </g>
    <g class="cls-6">
      <path class="cls-7" d="M135.98165,113.69225V200.0995h65.077V140.13875S199.40661,135.22,181.24022,135.22c0-15.86056-6.10566-21.55531-6.10566-21.55531Z"/>
    </g>
    <path class="cls-1" d="M183.00557,133.92361s11.89517.48641,17.194,3.67677c-4.06723-7.54762-12.48107-17.90332-22.45873-22.93669,1.16982.69324,5.31254,4.21272,5.26477,19.25992m-5.26477-19.25992a1.8599,1.8599,0,0,0-.30376-.15178c.102.04994.2029.10086.30376.15178"/>
    <g class="cls-6">
      <path class="cls-8" d="M201.49812,140.141s-.055-4.48758-11.10186-15.35509c-12.30393-12.101-14.9603-11.51808-14.9603-11.51808"/>
      <polyline class="cls-9" points="174.269 116.259 138.577 116.287 138.577 197.504 198.463 197.504 198.463 141.869"/>
    </g>
    <g class="cls-10">
      <rect class="cls-11" x="176.92364" y="132.12718" width="26.11437" height="26.36194" transform="translate(-43.44913 197.43902) rotate(-49.99985)"/>
    </g>
    <g>
      <polygon class="cls-12" points="166.474 180.849 166.474 166.42 157.164 159.105 148.165 166.319 166.474 180.849"/>
      <polygon class="cls-13" points="157.164 159.105 166.474 151.79 166.474 137.362 148.165 151.891 157.164 159.105"/>
      <polygon class="cls-14" points="148.165 166.319 157.164 159.105 148.165 151.891 148.165 166.319"/>
      <polygon class="cls-12" points="171.746 166.42 171.746 180.849 190.055 166.319 181.056 159.105 171.746 166.42"/>
      <polygon class="cls-13" points="171.746 137.362 171.746 151.79 181.056 159.105 190.055 151.891 171.746 137.362"/>
      <polygon class="cls-14" points="181.056 159.105 190.055 166.319 190.055 151.891 181.056 159.105"/>
    </g>
  </g>
</svg>
