<svg id="Layer_1" data-name="Layer 1" xmlns="http://www.w3.org/2000/svg" xmlns:xlink="http://www.w3.org/1999/xlink" width="340" height="300" viewBox="0 0 340 300">
  <defs>
    <style>
      .cls-1 {
        fill: none;
      }

      .cls-2 {
        fill: #06c;
      }

      .cls-3 {
        fill: #f60;
      }

      .cls-4 {
        fill: #360;
      }

      .cls-5 {
        fill: #fc0;
      }

      .cls-6 {
        fill: #253858;
      }

      .cls-7 {
        fill: url(#linear-gradient);
      }

      .cls-8 {
        fill: url(#linear-gradient-2);
      }

      .cls-9 {
        fill: #2684ff;
      }

      .cls-10 {
        fill: url(#linear-gradient-3);
      }

      .cls-11 {
        fill: url(#linear-gradient-4);
      }

      .cls-12 {
        fill: url(#linear-gradient-5);
      }

      .cls-13 {
        clip-path: url(#clip-path);
      }

      .cls-14 {
        fill: #fbbc05;
      }

      .cls-15 {
        fill: #ea4335;
      }

      .cls-16 {
        fill: #34a853;
      }

      .cls-17 {
        fill: #4285f4;
      }

      .cls-18 {
        fill: #404040;
      }
    </style>
    <linearGradient id="linear-gradient" x1="62.53885" y1="196.74458" x2="41.59955" y2="208.77683" gradientTransform="matrix(1, 0, 0, -1, 0, 342)" gradientUnits="userSpaceOnUse">
      <stop offset="0.18" stop-color="#0052cc"/>
      <stop offset="1" stop-color="#2684ff"/>
    </linearGradient>
    <linearGradient id="linear-gradient-2" x1="572.42814" y1="1745.74775" x2="551.48352" y2="1757.78531" gradientTransform="matrix(-1, 0, 0, 1, 604.82999, -1636.70996)" xlink:href="#linear-gradient"/>
    <linearGradient id="linear-gradient-3" x1="31.89254" y1="155.34907" x2="23.56581" y2="147.02234" xlink:href="#linear-gradient"/>
    <linearGradient id="linear-gradient-4" x1="34.09934" y1="131.42568" x2="42.41011" y2="139.73644" xlink:href="#linear-gradient"/>
    <linearGradient id="linear-gradient-5" x1="184.09623" y1="6583.68283" x2="184.09623" y2="6550.12033" gradientTransform="translate(0 -6368.41992)" xlink:href="#linear-gradient"/>
    <clipPath id="clip-path">
      <path class="cls-1" d="M123.78487,266.58356h-17.681v7.33115h10.17736c-.94874,4.65743-4.91618,7.33115-10.17736,7.33115a11.21235,11.21235,0,1,1,0-22.42469,10.96947,10.96947,0,0,1,6.98615,2.50121l5.51992-5.51992a18.96253,18.96253,0,1,0-12.50607,33.20579c9.48737,0,18.11225-6.89991,18.11225-18.97474A15.74106,15.74106,0,0,0,123.78487,266.58356Z"/>
    </clipPath>
  </defs>
  <title>integrations</title>
  <g>
    <path class="cls-2" d="M69.88886,33.05523v43.107a4.29638,4.29638,0,0,1-4.30445,4.29953H16.794a4.2972,4.2972,0,0,1-4.29461-4.29953V15.89055a4.26563,4.26563,0,0,1,4.29461-4.3H48.44337a11.78784,11.78784,0,0,1,7.34066,3.051L66.83344,25.69535a10.18027,10.18027,0,0,1,2.15223,3.416A9.96284,9.96284,0,0,1,69.88886,33.05523ZM18.23542,74.72136H64.15287V37.34542H48.44337a4.273,4.273,0,0,1-4.30445-4.29019V17.33143H18.23542ZM49.87537,31.59959H63.78785a4.92947,4.92947,0,0,0-.9799-1.83493L51.71029,18.67688a4.6298,4.6298,0,0,0-1.83492-.98978Z"/>
    <path class="cls-2" d="M58.81092,45.92084c-1.11473,4.07869-2.00809,7.61425-2.93047,11.12619-1.14376,4.47269-2.61367,9.43979-3.94924,14.08561-.70154.09105-3.14155.09105-6.29339.09105-1.71982-5.3759-3.05543-9.52149-4.727-15.73807h-.23072c-1.77737,5.54364-3.5936,11.03957-5.22684,15.647-.8358.09105-3.7279.09105-6.24514.09105-1.20132-5.11124-2.21963-9.49292-3.24778-14.22-.78759-3.5169-1.5373-7.23985-2.24815-10.95791a.23532.23532,0,0,0-.22088-.17316l-2.17141-.0915c0-1.22,0-2.565.03837-3.77123h13.605c0,1.20626,0,2.57532-.04817,3.77123l-3.10318.13967c.18251,2.30083.53818,5.32277.84564,7.61425.40339,3.28614.79743,6.47094,1.20082,9.84859H34.214c1.01831-3.55032,4.208-15.91123,5.14026-19.50976.79743-.12,4.333-.17267,5.80339-.12.93173,3.80956,3.71806,14.93621,4.78458,19.57662h.40388c.48013-3.00226.96076-5.98094,1.27756-8.07069.3075-2.2821.884-6.15414,1.23969-9.1279.04771-.12,0-.21108-.125-.21108l-2.88275-.08163c0-1.254,0-2.623.0389-3.79038,2.133,0,4.56367-.03889,6.90824-.03889,1.33512,0,2.89161-.04326,4.12146-.04326,0,1.20623,0,2.61858-.03838,3.81449Z"/>
  </g>
  <g>
    <path class="cls-3" d="M158.85809,33.05523v43.107a4.29642,4.29642,0,0,1-4.3138,4.29953H105.76376a4.28052,4.28052,0,0,1-4.29511-4.29953V15.89055a4.24943,4.24943,0,0,1,4.29511-4.3h31.63946a11.84748,11.84748,0,0,1,7.35053,3.051l11.04892,11.05383a10.16506,10.16506,0,0,1,2.15227,3.416A10.128,10.128,0,0,1,158.85809,33.05523ZM107.20465,74.72136h45.9081V37.34542H137.40322a4.28969,4.28969,0,0,1-4.30446-4.29019V17.33143H107.20465Zm31.63011-43.12177h13.92232a5.05418,5.05418,0,0,0-.98978-1.83493L140.67018,18.67688a4.62885,4.62885,0,0,0-1.83542-.98978Z"/>
    <path class="cls-3" d="M118.898,46.26179c0-1.19639,0-2.57038.04821-3.73282,3.18973-.07183,7.10014-.12,10.77048-.12a20.57566,20.57566,0,0,1,6.51428.75906,8.97237,8.97237,0,0,1,5.93814,8.54643,9.51849,9.51849,0,0,1-5.23668,8.23406,16.67859,16.67859,0,0,1-6.19743,1.3789c-.57605,0-1.76753,0-2.08479-.04825l-.03841,6.164,4.026.1486c0,1.13884,0,2.46461-.03886,3.66592-2.21913,0-5.27456-.03394-7.97431-.03394-1.91212,0-3.94928.03394-5.67844.03394,0-1.20131.04772-2.52708.09593-3.66592l2.07548-.1486a.158.158,0,0,0,.17267-.17313V46.35329Zm9.75221,10.85706c0,.44668.80723.44668,1.54711.44668a4.3996,4.3996,0,0,0,3.01656-1.14326,6.35174,6.35174,0,0,0,1.46056-4.49631c0-3.262-1.9889-5.92834-4.51549-5.92834a4.18667,4.18667,0,0,0-1.41285.14905Z"/>
  </g>
  <g>
    <path class="cls-4" d="M247.82535,33.05523v43.107a4.28059,4.28059,0,0,1-4.30445,4.29953H194.74037a4.29639,4.29639,0,0,1-4.30446-4.29953V15.89055a4.265,4.265,0,0,1,4.30446-4.3h31.6395a10.49024,10.49024,0,0,1,3.93939.89385,10.58906,10.58906,0,0,1,3.41061,2.15715l11.04941,11.05383a10.48071,10.48071,0,0,1,2.15222,3.416A10.103,10.103,0,0,1,247.82535,33.05523Zm-51.6441,41.66613h45.90811V37.34542H226.37987a4.28962,4.28962,0,0,1-4.30446-4.29019V17.33143H196.18125Zm31.63016-43.12177h13.92228a5.06158,5.06158,0,0,0-.98978-1.83493L229.64678,18.67688a4.63248,4.63248,0,0,0-1.83537-.98978Z"/>
    <path class="cls-4" d="M206.35649,67.35164a.549.549,0,0,0,.394-.22579c3.02644-3.39634,5.45707-6.28352,8.33-9.59869v-.31681c-2.55561-3.32451-5.35179-7.4032-7.74408-10.71784a.3627.3627,0,0,0-.26909-.13922l-2.258-.0915c0-1.2205,0-2.60878.03841-3.76628h5.98585c2.70025,0,5.63072-.03837,7.88872-.03837,0,1.19587,0,2.58415-.04821,3.752l-2.43067.19186c1.50828,2.474,2.88226,4.64582,3.90057,6.20677h.30747a58.14261,58.14261,0,0,0,3.98764-5.99524c.03837-.0817,0-.21153-.18251-.21153l-2.16206-.091c0-1.2446,0-2.657.04821-3.81449h6.68695c1.36459,0,2.92108-.03837,4.1219-.03837,0,1.19587,0,2.58415-.05756,3.752l-2.03662.19186c-2.56545,3.142-5.61153,6.63427-8.023,9.33943V56.014c2.49806,3.24285,6.03411,8.114,8.47465,11.37606l2.12316.11068c0,1.17672,0,2.50741-.03837,3.723h-5.81322c-2.65155,0-5.76453.03394-8.19568.03394,0-1.24952,0-2.61858.04821-3.81452l2.4307-.09147c.19231-.05263.30742-.17316.19231-.30254-1.51812-2.26291-3.06522-4.79-4.21788-6.29827h-.269c-1.63324,2.18121-3.27631,4.5209-4.60261,6.54818l2.60382.1441c0,1.19594,0,2.565-.03837,3.78058H208.6622c-1.4217,0-3.09379,0-4.47712.03394,0-1.24952,0-2.58021.04776-3.75693Z"/>
  </g>
  <path class="cls-5" d="M329.5813,33.05523v43.107a4.28059,4.28059,0,0,1-4.30445,4.29953H276.49632a4.29723,4.29723,0,0,1-4.30446-4.29953V15.89055a4.26578,4.26578,0,0,1,4.30446-4.3h31.63945a10.48825,10.48825,0,0,1,3.93944.89385,10.58442,10.58442,0,0,1,3.41065,2.15715l11.04985,11.05383a10.48,10.48,0,0,1,2.15174,3.416A10.103,10.103,0,0,1,329.5813,33.05523ZM277.9372,74.72136h45.90811V37.34542H308.13577a4.28969,4.28969,0,0,1-4.30445-4.29019V17.33143H277.9372Zm31.63011-43.12177h13.92237a5.05491,5.05491,0,0,0-.98982-1.83493L311.40278,18.67688a4.63308,4.63308,0,0,0-1.83547-.98978Z"/>
  <path class="cls-5" d="M301.141,41.54411q7.52362,0,11.83745,4.34774a14.47328,14.47328,0,0,1,4.3138,10.59781,14.43352,14.43352,0,0,1-4.32364,10.60273q-4.32339,4.33815-11.82761,4.33791-7.79679,0-11.97627-4.46286a14.82733,14.82733,0,0,1-4.1795-10.47778,14.529,14.529,0,0,1,4.29462-10.588Q293.57442,41.54878,301.141,41.54411Zm0,5.3085a7.45074,7.45074,0,0,0-5.67356,2.50789q-2.33474,2.50735-2.32982,7.35988a9.88734,9.88734,0,0,0,2.29636,6.85072,7.34244,7.34244,0,0,0,5.707,2.56989,7.46213,7.46213,0,0,0,5.68331-2.51725q2.34211-2.51478,2.33965-7.25906A10.27663,10.27663,0,0,0,306.93,49.48546,7.24368,7.24368,0,0,0,301.141,46.85261Z"/>
  <g id="Blue">
    <path class="cls-6" d="M102.36061,141.17634c-1.922,1.26711-4.96729,1.82613-8.151,1.82613-10.1156,0-15.83357-6.09065-15.83357-15.78566,0-9.37024,5.718-15.92941,15.74306-15.92941a14.25879,14.25879,0,0,1,8.199,2.1296v4.07819a14.27805,14.27805,0,0,0-8.199-2.1296c-7.214,0-11.52646,4.7916-11.52646,11.85122s4.45086,11.76072,11.76071,11.76072a17.28165,17.28165,0,0,0,7.986-1.87405Z"/>
    <path class="cls-6" d="M105.30479,130.78389c0-7.02768,4.12077-12.13339,11.14845-12.13339s11.058,5.10571,11.058,12.13339-4.07818,12.2452-11.058,12.2452S105.30479,137.81157,105.30479,130.78389Zm3.93443,0c0,4.45087,2.20414,8.48114,7.214,8.48114s7.12352-4.03027,7.12352-8.48114-2.1296-8.3853-7.11819-8.3853-7.2087,3.93444-7.2087,8.3853Z"/>
    <path class="cls-6" d="M152.11871,142.54461h-4.03027V128.39874c0-4.21661-1.68771-6.09065-5.52631-6.09065-3.7268,0-6.32492,2.481-6.32492,7.214v13.0225h-4.03027V119.119h4.03027v3.84393a8.2096,8.2096,0,0,1,7.40036-4.31244c5.38788,0,8.48113,3.7268,8.48113,10.16884Z"/>
    <path class="cls-6" d="M163.33639,119.119h6.04274v3.7268h-6.04274v19.6988H159.402v-19.6988h-3.796V119.119h3.796v-2.57682c0-4.355,2.43839-7.30985,7.4536-7.30985a9.68439,9.68439,0,0,1,2.71523.37268v3.7268a13.30956,13.30956,0,0,0-2.5289-.23425c-2.481,0-3.7268,1.45345-3.7268,3.56175Z"/>
    <path class="cls-6" d="M179.99519,142.683c-3.84393,0-6.277-1.82613-6.277-6.13857V109.32817h4.03027V136.076c0,2.1296,1.40554,2.859,3.14115,2.859a10.20645,10.20645,0,0,0,1.17129-.04792v3.60967A8.5767,8.5767,0,0,1,179.99519,142.683Z"/>
    <path class="cls-6" d="M185.47357,119.119h4.03027v14.14587c0,4.2166,1.68772,6.09065,5.52632,6.09065,3.7268,0,6.32491-2.481,6.32491-7.214V119.119H205.396v23.4256h-4.03028v-3.84393a8.20958,8.20958,0,0,1-7.40035,4.31244c-5.38789,0-8.48113-3.7268-8.48113-10.16352Z"/>
    <path class="cls-6" d="M222.67237,143.01312c-8.7633,0-12.60191-5.0578-12.60191-12.2452,0-7.07559,3.93444-12.13339,11.05794-12.13339,7.214,0,10.1156,5.0152,10.1156,12.13339v1.82613H214.14864c.56435,3.98236,3.14116,6.55917,8.66747,6.55917a20.76346,20.76346,0,0,0,7.12352-1.26711v3.7268A16.92236,16.92236,0,0,1,222.67237,143.01312Zm-8.57164-13.8424h13.07041c-.23426-4.355-2.20414-6.84134-6.22908-6.84134-4.26452-.02662-6.42073,2.73654-6.84133,6.81472Z"/>
    <path class="cls-6" d="M255.93671,142.54461h-4.03027V128.39874c0-4.21661-1.68771-6.09065-5.52631-6.09065-3.7268,0-6.32492,2.481-6.32492,7.214v13.0225h-4.03027V119.119h4.03027v3.84393a8.2096,8.2096,0,0,1,7.40036-4.31244c5.38788,0,8.48113,3.7268,8.48113,10.16884Z"/>
    <path class="cls-6" d="M278.10053,141.93235a12.96992,12.96992,0,0,1-5.718,1.0648c-8.33739,0-12.2452-5.0578-12.2452-12.2452,0-7.0756,3.88651-12.1334,12.2452-12.1334a12.38364,12.38364,0,0,1,5.57423,1.12337v3.7268a11.80868,11.80868,0,0,0-5.29206-1.12337c-6.09066,0-8.57164,3.84393-8.57164,8.3853s2.5289,8.43854,8.66214,8.43854a14.80065,14.80065,0,0,0,5.324-.84119Z"/>
    <path class="cls-6" d="M293.88618,143.01312c-8.76329,0-12.60191-5.0578-12.60191-12.2452,0-7.07559,3.93444-12.13339,11.05794-12.13339,7.214,0,10.1156,5.0152,10.1156,12.13339v1.82613H285.35714c.56435,3.98236,3.14116,6.55917,8.66747,6.55917a20.76346,20.76346,0,0,0,7.12352-1.26711v3.7268A16.88255,16.88255,0,0,1,293.88618,143.01312Zm-8.57164-13.8424H298.385c-.23426-4.355-2.20415-6.84134-6.22909-6.84134-4.2645-.02662-6.42073,2.73654-6.84133,6.81472Z"/>
    <path class="cls-7" d="M31.956,135.60211c-.34606.56435-.73471,1.2192-1.0648,1.74095a1.06479,1.06479,0,0,0,.35671,1.44813l6.9212,4.2592a1.0648,1.0648,0,0,0,1.46541-.34663l.00933-.0154c.27685-.46319.63356-1.0648,1.02221-1.709,2.74186-4.5254,5.49969-3.9717,10.47231-1.5972l6.86264,3.26362a1.06481,1.06481,0,0,0,1.41907-.50383l.01308-.02857,3.29556-7.4536a1.06481,1.06481,0,0,0-.5324-1.39489c-1.44813-.68147-4.32842-2.03909-6.9212-3.29023C45.94751,125.44392,38.02007,125.73674,31.956,135.60211Z"/>
    <path class="cls-8" d="M62.98963,118.68777c.34606-.56435.73472-1.2192,1.0648-1.74095a1.0648,1.0648,0,0,0-.3567-1.44813l-6.9212-4.2592a1.06481,1.06481,0,0,0-1.478.28832q-.02076.03084-.03934.06306c-.27685.46319-.63356,1.0648-1.02221,1.709-2.74186,4.5254-5.49969,3.9717-10.47231,1.5972l-6.84134-3.24764a1.0648,1.0648,0,0,0-1.41907.50382l-.01309.02858-3.29555,7.4536a1.0648,1.0648,0,0,0,.5324,1.39489c1.44813.68147,4.32841,2.03909,6.9212,3.29023C48.99816,128.846,56.9256,128.54249,62.98963,118.68777Z"/>
  </g>
  <g id="Blue-2" data-name="Blue">
    <path class="cls-6" d="M71.63354,183.27285h4.21661v21.40248c0,5.67006-2.481,9.5832-8.29479,9.5832a14.98192,14.98192,0,0,1-5.0578-.7986v-4.09948a11.814,11.814,0,0,0,4.355.7986c3.56176,0,4.7916-2.1296,4.7916-5.20155Z"/>
    <path class="cls-6" d="M83.53269,181.62773a2.63006,2.63006,0,0,1,2.81107,2.81108,2.81108,2.81108,0,0,1-5.62215.0042v-.0042a2.63006,2.63006,0,0,1,2.81108-2.81108Zm-2.06039,8.99756h4.03026v23.4256H81.4723Z"/>
    <path class="cls-6" d="M91.58789,190.62h3.93444v4.12077c1.35762-2.76315,3.7268-4.733,8.29479-4.45086v3.93444c-5.15364-.5324-8.29479,1.03285-8.29479,5.99482v13.8424H91.58789Z"/>
    <path class="cls-6" d="M122.696,209.829a8.25409,8.25409,0,0,1-7.91679,4.68512c-6.22908,0-9.37024-5.29205-9.37024-12.18131,0-6.60708,3.27959-12.18131,9.83875-12.18131a7.6886,7.6886,0,0,1,7.4536,4.58929V190.62h4.03027v23.4256h-4.03027Zm-6.84134.937c3.60967,0,6.84134-2.29464,6.84134-7.49619v-1.89534c0-5.20155-2.94949-7.49619-6.3888-7.49619-4.54669,0-6.88926,2.99741-6.88926,8.43321.02129,5.64344,2.268,8.45451,6.442,8.45451Z"/>
    <path class="cls-9" d="M51.99863,197.51987,34.64239,180.16363,32.96,178.48125h0l-13.0651,13.0651h0l-5.97353,5.97352a1.5972,1.5972,0,0,0,0,2.25738l11.93641,11.93641L32.96,218.81587,46.0251,205.75078l.20232-.20231,5.77121-5.77122A1.5972,1.5972,0,0,0,51.99863,197.51987ZM32.96,204.61144l-5.96288-5.96288L32.96,192.68568l5.96288,5.96288Z"/>
    <path class="cls-10" d="M32.96,192.68568a10.041,10.041,0,0,1-.04259-14.15651L19.86829,191.573l7.10222,7.10221Z"/>
    <path class="cls-11" d="M38.93886,198.63259,32.96,204.61144a10.04107,10.04107,0,0,1,.00422,14.20021l-.00422.00422h0L46.04107,205.7348Z"/>
  </g>
  <g id="Blue-3" data-name="Blue">
    <path class="cls-6" d="M236.61216,183.33488v4.03027H226.422v26.74777h-4.21661v-26.7531h-8.64618v-4.02494Z"/>
    <path class="cls-6" d="M238.66723,190.68732h3.93443v4.12078c1.35762-2.76316,3.7268-4.733,8.2948-4.45087v3.93444c-5.15363-.5324-8.2948,1.03286-8.2948,5.99482v13.8424h-3.93443Z"/>
    <path class="cls-6" d="M265.09556,214.58143c-8.7633,0-12.6019-5.0578-12.6019-12.2452,0-7.07559,3.93443-12.13339,11.05795-12.13339,7.214,0,10.1156,5.01521,10.1156,12.13339v1.82614H256.57184c.56434,3.98235,3.14116,6.55916,8.66747,6.55916a20.76342,20.76342,0,0,0,7.12352-1.26711v3.7268A16.82828,16.82828,0,0,1,265.09556,214.58143Zm-8.57164-13.8424h13.07042c-.23426-4.355-2.20413-6.84134-6.22908-6.84134-4.26452-.02129-6.42074,2.74186-6.84134,6.81472Z"/>
    <path class="cls-6" d="M284.73048,214.25135c-3.84393,0-6.277-1.82614-6.277-6.13857V180.89649h4.03027v26.7531c0,2.1296,1.40553,2.859,3.14115,2.859a10.20618,10.20618,0,0,0,1.17128-.04791V214.065A8.57721,8.57721,0,0,1,284.73048,214.25135Z"/>
    <path class="cls-6" d="M296.95438,214.25135c-3.84393,0-6.277-1.82614-6.277-6.13857V180.89649h4.03028v26.7531c0,2.1296,1.40553,2.859,3.14115,2.859a10.20618,10.20618,0,0,0,1.17128-.04791V214.065A8.57721,8.57721,0,0,1,296.95438,214.25135Z"/>
    <path class="cls-6" d="M301.26682,202.35221c0-7.02768,4.12078-12.1334,11.14845-12.1334s11.05794,5.10572,11.05794,12.1334-4.07818,12.2452-11.05794,12.2452S301.26682,209.37989,301.26682,202.35221Zm3.93444,0c0,4.45086,2.20414,8.48113,7.214,8.48113s7.12351-4.03027,7.12351-8.48113-2.1296-8.3853-7.11818-8.3853-7.20337,3.93443-7.20337,8.3853Z"/>
    <g id="Layer_2-2" data-name="Layer 2-2">
      <g id="Layer_1-2" data-name="Layer 1-2">
        <path class="cls-12" d="M196.69281,181.70041H171.52094a4.19531,4.19531,0,0,0-4.19531,4.19531h0v25.17187a4.1953,4.1953,0,0,0,4.19531,4.19531h25.17187a4.1953,4.1953,0,0,0,4.174-4.19531V185.89572A4.19531,4.19531,0,0,0,196.69281,181.70041ZM181.924,207.12251a2.01248,2.01248,0,0,1-2.01248,1.99118h-6.19713a2.01248,2.01248,0,0,1-2.02312-1.99118h0V188.07856a2.01247,2.01247,0,0,1,2.01244-2.0125l.01068,0h6.19713a2.01247,2.01247,0,0,1,2.01248,2.01247h0Zm14.60373-8.39062a2.01248,2.01248,0,0,1-2.01247,2.01247h-6.21311a2.01247,2.01247,0,0,1-2.01247-2.01247v-10.648a2.01246,2.01246,0,0,1,2.00714-2.01779h6.21844a2.01247,2.01247,0,0,1,2.01247,2.01247h0Z"/>
      </g>
    </g>
  </g>
  <g class="cls-13">
    <path class="cls-14" d="M85.40416,281.24586V258.82117l14.66229,11.21234Z"/>
  </g>
  <g class="cls-13">
    <path class="cls-15" d="M85.40416,258.82117l14.66229,11.21234,6.03742-5.26117,20.69971-3.36371V249.3338H85.40416Z"/>
  </g>
  <g class="cls-13">
    <path class="cls-16" d="M85.40416,281.24586l25.87464-19.83723,6.81365.86249,8.71113-12.93732v41.39942H85.40416Z"/>
  </g>
  <g class="cls-13">
    <path class="cls-17" d="M126.80358,290.73322l-26.73713-20.69971-3.45-2.58746,30.18708-8.62488Z"/>
  </g>
  <g id="layer1">
    <g>
      <path class="cls-18" d="M160.51389,277.97589a9.39853,9.39853,0,0,1-3.45215,7.59474,13.18608,13.18608,0,0,1-8.51532,2.81287,12.63384,12.63384,0,0,1-7.876-2.6083,13.33617,13.33617,0,0,1-4.70516-7.10888l4.3983-1.81558a11.53347,11.53347,0,0,0,1.253,2.91515,9.37748,9.37748,0,0,0,1.86672,2.22473,8.75284,8.75284,0,0,0,2.37816,1.45757,7.182,7.182,0,0,0,2.76172.537,7.86447,7.86447,0,0,0,5.16546-1.63658,5.29136,5.29136,0,0,0,1.99457-4.32159,5.20575,5.20575,0,0,0-1.66215-3.8613,15.80274,15.80274,0,0,0-5.80473-3.01744c-2.864-1.02286-4.654-1.73887-5.37-2.09687-3.81015-1.94343-5.70245-4.78187-5.70245-8.56646a8.72529,8.72529,0,0,1,3.1453-6.75088,11.56716,11.56716,0,0,1,7.876-2.81287,12.02812,12.02812,0,0,1,7.10889,2.09686,9.9491,9.9491,0,0,1,4.01473,5.16545L155.1183,259.948a6.41114,6.41114,0,0,0-2.37815-3.3243,7.65275,7.65275,0,0,0-8.87332.179,4.34779,4.34779,0,0,0-1.84115,3.63116,4.21508,4.21508,0,0,0,1.45758,3.19644c1.074.895,3.401,1.969,6.95545,3.19644,3.63116,1.22743,6.23946,2.76172,7.79932,4.55173A9.89841,9.89841,0,0,1,160.51389,277.97589Z"/>
      <path class="cls-18" d="M186.05985,287.56521h-4.3983v-3.401H181.457a8.38442,8.38442,0,0,1-3.222,3.01744,9.37125,9.37125,0,0,1-4.52616,1.20186,9.04651,9.04651,0,0,1-6.92989-2.58273c-1.611-1.71329-2.42929-4.16816-2.42929-7.339v-15.4452h4.60287v15.13835c.10229,4.01473,2.12244,6.00931,6.06046,6.00931a5.73628,5.73628,0,0,0,4.60287-2.22473A8.12792,8.12792,0,0,0,181.457,276.595V263.01654h4.60287Z"/>
      <path class="cls-18" d="M196.56975,254.55237a3.23051,3.23051,0,1,1-.94615-2.30144A3.12679,3.12679,0,0,1,196.56975,254.55237Zm-.94615,8.46417v24.54867h-4.60287V263.01654Z"/>
      <path class="cls-18" d="M209.76465,287.97436a7.07029,7.07029,0,0,1-4.98644-1.84115,6.81155,6.81155,0,0,1-2.02015-5.16545V267.23585h-4.32159v-4.2193h4.296v-7.518h4.60288v7.518h6.00931v4.2193h-6.00931V279.459c0,1.63658.30686,2.73615.94615,3.3243a3.08093,3.08093,0,0,0,2.148.86943,5.13263,5.13263,0,0,0,1.074-.12786,5.42243,5.42243,0,0,0,.97172-.33243l1.45758,4.117a11.874,11.874,0,0,1-4.16816.66486Z"/>
      <path class="cls-18" d="M226.99987,288.35793a11.7504,11.7504,0,0,1-8.92447-3.70787,14.379,14.379,0,0,1-.10229-18.69279,12.257,12.257,0,0,1,17.4142-.20457q3.222,3.52887,3.222,9.89618l-.05115.51143H219.27724a8.01074,8.01074,0,0,0,2.40373,5.80474,7.7474,7.7474,0,0,0,5.52344,2.19915c2.94073,0,5.24216-1.45758,6.90431-4.3983l4.117,1.99458a12.32486,12.32486,0,0,1-4.57731,4.85859,12.9616,12.9616,0,0,1-6.6486,1.73886Zm-7.3646-16.03335h14.08991a6.09735,6.09735,0,0,0-2.07129-4.24487,7.27261,7.27261,0,0,0-5.03759-1.68772,6.63593,6.63593,0,0,0-4.475,1.611A7.77476,7.77476,0,0,0,219.63527,272.32458Z"/>
    </g>
  </g>
</svg>
