<svg id="Layer_1" data-name="Layer 1" xmlns="http://www.w3.org/2000/svg" width="10" height="10" viewBox="0 0 10 10"><defs><style>.cls-1{fill:#acacac;}.cls-2{fill:#fff;}</style></defs><title>linkedin</title><rect class="cls-1" width="10" height="10"/><path class="cls-2" d="M3.95665,3.21017A.54225.54225,0,0,0,3.791,2.81439.58727.58727,0,0,0,3.3631,2.658a.61154.61154,0,0,0-.43477.15643.517.517,0,0,0-.168.39578.527.527,0,0,0,.16337.39331.5844.5844,0,0,0,.42559.15878h.00459A.60494.60494,0,0,0,3.791,3.60348.5229.5229,0,0,0,3.95665,3.21017ZM2.82479,7.388H3.88762V4.19479H2.82479Zm3.82363,0H7.71125V5.55669a1.52908,1.52908,0,0,0-.33582-1.072,1.15005,1.15005,0,0,0-.888-.36351,1.06967,1.06967,0,0,0-.96165.53831h.00918V4.19479H4.472q.01377.30372,0,3.19321H5.53493V5.60275a.76621.76621,0,0,1,.03216-.25761.71088.71088,0,0,1,.20708-.27387.52287.52287,0,0,1,.34053-.11272q.534,0,.53372.72241Z"/></svg>