<svg id="Layer_1" data-name="Layer 1" xmlns="http://www.w3.org/2000/svg" width="10" height="10" viewBox="0 0 10 10"><defs><style>.cls-1{fill:#acacac;}.cls-2{fill:#fff;}</style></defs><title>pinterest</title><rect class="cls-1" width="10" height="10"/><path class="cls-2" d="M7.66416,3.581a2.84547,2.84547,0,0,1,0,2.83811A2.8158,2.8158,0,0,1,6.63532,7.4479,2.76468,2.76468,0,0,1,5.21627,7.827a2.795,2.795,0,0,1-.8024-.11779,2.28874,2.28874,0,0,0,.287-.60365q.03322-.12567.19884-.77667a.61342.61342,0,0,0,.26865.2484.87132.87132,0,0,0,.41972.105,1.32209,1.32209,0,0,0,.795-.25217,1.63862,1.63862,0,0,0,.54109-.69393,2.46915,2.46915,0,0,0,.19139-.99378,1.51277,1.51277,0,0,0-.219-.78779,1.65992,1.65992,0,0,0-.63494-.6A1.89259,1.89259,0,0,0,5.323,3.12269a2.374,2.374,0,0,0-.72145.10677,1.86854,1.86854,0,0,0-.56869.28345,1.92809,1.92809,0,0,0-.40125.40671,1.68123,1.68123,0,0,0-.24661.47673,1.61426,1.61426,0,0,0-.07915.49321,1.47007,1.47007,0,0,0,.14719.67367.83084.83084,0,0,0,.43074.4085c.07359.0295.12052.00462.13984-.07359.00462-.01743.0147-.05522.0294-.11412s.02488-.09564.0295-.11044A.16855.16855,0,0,0,4.042,5.51536a.838.838,0,0,1-.18772-.55588,1.34029,1.34029,0,0,1,1.39145-1.3546,1.19065,1.19065,0,0,1,.86685.30183,1.04626,1.04626,0,0,1,.31106.78411,2.09707,2.09707,0,0,1-.25216,1.0638.74143.74143,0,0,1-.64607.438.45013.45013,0,0,1-.36072-.16011.41777.41777,0,0,1-.08462-.38465c.01932-.08557.05249-.20063.09753-.34414s.08189-.2697.11044-.3792a1.12642,1.12642,0,0,0,.04231-.27789A.46664.46664,0,0,0,5.231,4.34112a.3455.3455,0,0,0-.28336-.12146.47137.47137,0,0,0-.38655.20976.8408.8408,0,0,0-.15831.52271.97873.97873,0,0,0,.09207.44912l-.3644,1.53864a2.43856,2.43856,0,0,0-.04787.65152A2.82143,2.82143,0,0,1,2.85676,6.557,2.8352,2.8352,0,0,1,2.76847,3.581,2.81434,2.81434,0,0,1,3.7973,2.55211a2.8453,2.8453,0,0,1,2.838,0A2.8158,2.8158,0,0,1,7.66416,3.581Z"/></svg>