<?xml version="1.0" encoding="utf-8"?>
<!-- Generator: Adobe Illustrator 23.0.3, SVG Export Plug-In . SVG Version: 6.00 Build 0)  -->
<svg version="1.1" id="Layer_1" xmlns="http://www.w3.org/2000/svg" xmlns:xlink="http://www.w3.org/1999/xlink" x="0px" y="0px"
	 viewBox="0 0 199 61" style="enable-background:new 0 0 199 61;" xml:space="preserve">
<style type="text/css">
	.st0{fill:#818181;}
	.st1{fill:#B4B4B4;}
	.st2{fill:#4F4F4F;}
	.st3{fill:#505050;}
	.st4{fill:#424242;}
	.st5{fill:#6E6E6E;}
</style>
<g>
	<g>
		<polygon class="st0" points="14.4,48.4 14.4,36.9 7,31.1 -0.1,36.9 		"/>
		<polygon class="st1" points="7,31.1 14.4,25.3 14.4,13.9 -0.1,25.4 		"/>
		<polygon class="st2" points="-0.1,36.9 7,31.1 -0.1,25.4 		"/>
		<polygon class="st0" points="18.6,36.9 18.6,48.4 33.1,36.9 25.9,31.1 		"/>
		<polygon class="st1" points="18.6,13.9 18.6,25.3 25.9,31.1 33.1,25.4 		"/>
		<polygon class="st3" points="25.9,31.1 33.1,36.9 33.1,25.4 		"/>
	</g>
	<g>
		<path class="st4" d="M47,31.7c-0.9-0.3-1.7-0.9-2.3-1.6s-0.9-1.7-0.9-3c0-0.7,0.1-1.4,0.4-2c0.3-0.6,0.7-1.2,1.2-1.6
			c0.5-0.5,1.1-0.8,1.8-1.1c0.7-0.2,1.5-0.4,2.3-0.4c1.1,0,2.1,0.1,2.7,0.2c0.7,0.2,1.3,0.4,1.9,0.6c0.3,0.1,0.6,0.3,0.8,0.6
			c0.2,0.3,0.3,0.6,0.3,1s-0.2,0.8-0.5,1.1C54.4,25.8,54,26,53.6,26c-0.3,0-0.5-0.1-0.8-0.2c-0.4-0.2-0.9-0.4-1.6-0.5
			c-0.6-0.1-1.2-0.2-1.8-0.2c-0.7,0-1.3,0.2-1.7,0.5s-0.6,0.8-0.6,1.3c0,0.4,0.1,0.8,0.4,1.1c0.3,0.3,0.6,0.5,1,0.6l3.3,1.1
			c1.1,0.4,2,1,2.6,1.7c0.6,0.8,0.9,1.8,0.9,3c0,0.7-0.1,1.4-0.4,2.1c-0.3,0.6-0.7,1.2-1.2,1.7s-1.1,0.9-1.9,1.1
			c-0.7,0.3-1.6,0.4-2.5,0.4c-1,0-1.9-0.1-2.7-0.3s-1.5-0.4-2.1-0.7c-0.3-0.2-0.6-0.4-0.8-0.6c-0.2-0.3-0.3-0.6-0.3-0.9
			c0-0.4,0.2-0.8,0.5-1.2c0.3-0.3,0.7-0.5,1.2-0.5c0.1,0,0.2,0,0.4,0.1c0.1,0,0.3,0.1,0.4,0.1c0.4,0.2,1,0.4,1.5,0.6
			c0.6,0.1,1.2,0.2,2,0.2c1.6,0,2.5-0.6,2.5-1.7c0-0.6-0.2-1.1-0.7-1.3c-0.4-0.3-1-0.5-1.6-0.7L47,31.7z"/>
		<path class="st4" d="M77.5,28.1c0-0.4-0.1-0.8-0.2-1.1c-0.2-0.3-0.4-0.7-0.6-0.9c-0.3-0.3-0.6-0.5-0.9-0.6
			c-0.3-0.2-0.7-0.2-1.1-0.2c-0.5,0-1,0.1-1.5,0.2c-0.5,0.2-1,0.4-1.4,0.6V38c0,0.5-0.2,0.9-0.5,1.2s-0.8,0.5-1.2,0.5
			c-0.5,0-0.9-0.2-1.2-0.5c-0.3-0.3-0.5-0.8-0.5-1.2V27.7c0-0.5-0.1-0.9-0.2-1.2c-0.1-0.3-0.3-0.6-0.6-0.7c-0.3-0.2-0.6-0.3-0.9-0.4
			s-0.7-0.1-1-0.1c-0.6,0-1.1,0-1.6,0.1c-0.4,0.1-0.9,0.2-1.5,0.4V38c0,0.5-0.2,0.9-0.5,1.2s-0.7,0.5-1.2,0.5s-0.9-0.2-1.2-0.5
			C59.1,38.9,59,38.5,59,38V25c0-0.4,0.1-0.9,0.4-1.2c0.3-0.4,0.6-0.6,1-0.8c0.9-0.3,1.8-0.6,2.6-0.7c0.9-0.2,1.8-0.2,2.8-0.2
			c0.8,0,1.6,0.1,2.3,0.4c0.7,0.2,1.3,0.6,1.8,1c0.7-0.4,1.4-0.8,2.2-1c0.8-0.2,1.6-0.4,2.5-0.4s1.7,0.2,2.5,0.5s1.5,0.8,2,1.3
			c0.6,0.6,1,1.2,1.3,2s0.5,1.6,0.5,2.5V38c0,0.5-0.2,0.9-0.5,1.2s-0.8,0.5-1.2,0.5c-0.5,0-0.9-0.2-1.2-0.5
			c-0.3-0.3-0.5-0.8-0.5-1.2L77.5,28.1L77.5,28.1z"/>
		<path class="st4" d="M97.6,36.8c0,0.5-0.1,0.9-0.4,1.3c-0.3,0.4-0.6,0.6-1.1,0.8c-0.8,0.3-1.7,0.5-2.6,0.7
			c-0.9,0.1-1.9,0.2-2.8,0.2c-2,0-3.6-0.5-4.8-1.5c-1.2-1-1.8-2.3-1.8-4c0-1.6,0.6-2.9,1.8-3.9c1.2-1,2.8-1.5,4.8-1.5h3.5v-1.2
			c0-0.7-0.2-1.3-0.7-1.8s-1.2-0.7-2.1-0.7c-0.8,0-1.4,0.1-2,0.2c-0.5,0.1-1.1,0.4-1.7,0.7c-0.3,0.2-0.6,0.3-0.9,0.3
			c-0.5,0-0.8-0.1-1.2-0.4c-0.3-0.3-0.5-0.7-0.5-1.1c0-0.3,0.1-0.6,0.2-0.9s0.3-0.5,0.6-0.7c0.9-0.5,1.8-0.9,2.7-1.1
			c0.9-0.2,1.9-0.3,3.1-0.3c0.9,0,1.8,0.2,2.5,0.5s1.3,0.7,1.8,1.3c0.5,0.5,0.9,1.1,1.1,1.8c0.3,0.7,0.4,1.4,0.4,2.2L97.6,36.8
			L97.6,36.8z M94.2,32.1h-3.5c-0.7,0-1.3,0.1-1.7,0.3c-0.4,0.2-0.7,0.4-0.9,0.6c-0.2,0.2-0.3,0.5-0.4,0.7c0,0.2-0.1,0.4-0.1,0.6
			c0,0.2,0,0.4,0.1,0.6c0,0.3,0.2,0.5,0.4,0.8c0.2,0.2,0.5,0.5,0.9,0.6c0.4,0.2,1,0.3,1.7,0.3c0.6,0,1.2,0,1.8-0.1
			c0.6-0.1,1.2-0.2,1.7-0.3V32.1z"/>
		<path class="st4" d="M101.7,27c0-0.7,0.1-1.4,0.4-2s0.6-1.1,1.1-1.6c0.4-0.4,1-0.8,1.6-1.1c0.6-0.3,1.3-0.4,2-0.4
			c0.8,0,1.6,0.1,2.5,0.3c0.4,0.1,0.7,0.3,1,0.6c0.3,0.3,0.4,0.7,0.4,1.1s-0.2,0.8-0.5,1.1c-0.3,0.3-0.7,0.5-1.2,0.5h-0.3
			c-0.1,0-0.2,0-0.3-0.1c-0.3-0.1-0.6-0.1-0.8-0.2c-0.3-0.1-0.6-0.1-0.8-0.1c-0.4,0-0.8,0.2-1.1,0.5c-0.3,0.3-0.5,0.7-0.5,1.1V38
			c0,0.5-0.2,0.9-0.5,1.2s-0.7,0.5-1.2,0.5s-0.9-0.2-1.2-0.5c-0.3-0.3-0.5-0.8-0.5-1.2L101.7,27L101.7,27z"/>
		<path class="st4" d="M113.3,17.3c0-0.5,0.2-0.9,0.5-1.2c0.3-0.3,0.8-0.5,1.2-0.5c0.5,0,0.9,0.2,1.2,0.5c0.3,0.3,0.5,0.8,0.5,1.2
			v5.1h3.3c0.5,0,0.9,0.2,1.2,0.5c0.3,0.3,0.5,0.7,0.5,1.2s-0.2,0.9-0.5,1.2c-0.3,0.3-0.7,0.5-1.3,0.5h-3.3v8.8
			c0,0.7,0.1,1.2,0.4,1.5c0.3,0.4,0.7,0.6,1.1,0.6c0.2,0,0.4,0,0.6,0s0.3-0.1,0.4-0.1s0.2-0.1,0.4-0.1c0.1,0,0.2-0.1,0.4-0.1
			c0.4,0,0.8,0.1,1.2,0.4c0.3,0.3,0.5,0.7,0.5,1.2c0,0.4-0.1,0.8-0.4,1.1s-0.6,0.5-1.1,0.6c-0.7,0.1-1.3,0.2-2,0.2s-1.3-0.1-2-0.4
			c-0.6-0.3-1.1-0.6-1.6-1.1s-0.8-1-1.1-1.6c-0.3-0.6-0.4-1.4-0.4-2.1V17.3H113.3z"/>
		<path class="st5" d="M130.5,39.8c-0.9,0-1.8-0.2-2.5-0.5c-0.8-0.3-1.4-0.7-1.9-1.3c-0.5-0.5-1-1.2-1.2-1.9
			c-0.3-0.8-0.4-1.6-0.4-2.5v-5.2c0-1.9,0.5-3.4,1.6-4.5s2.6-1.7,4.5-1.7c0.7,0,1.4,0.1,2,0.3c0.6,0.2,1.3,0.4,1.9,0.7v-6.6
			c0-0.3,0.1-0.6,0.3-0.8s0.5-0.3,0.8-0.3s0.6,0.1,0.8,0.3s0.3,0.5,0.3,0.8v20.8c0,0.3-0.1,0.6-0.3,0.9c-0.2,0.3-0.5,0.5-0.8,0.6
			c-0.8,0.3-1.6,0.5-2.5,0.6C132.2,39.7,131.4,39.8,130.5,39.8z M126.6,33.8c0,1.2,0.3,2.2,1,2.8c0.7,0.7,1.6,1,2.8,1
			c1.3,0,2.6-0.2,3.9-0.6V25.7c-0.5-0.5-1.1-0.8-1.8-1s-1.4-0.3-2.1-0.3c-1.2,0-2.2,0.3-2.8,1c-0.7,0.7-1,1.6-1,2.8L126.6,33.8
			L126.6,33.8z"/>
		<path class="st5" d="M141.3,26.9c0-0.7,0.1-1.3,0.4-1.9c0.2-0.6,0.5-1.1,0.9-1.5s0.9-0.7,1.4-0.9c0.5-0.2,1.1-0.3,1.7-0.3
			c0.8,0,1.6,0.1,2.4,0.3c0.3,0,0.5,0.2,0.7,0.4c0.2,0.2,0.3,0.5,0.3,0.7c0,0.3-0.1,0.6-0.3,0.8c-0.2,0.2-0.5,0.3-0.8,0.3
			c-0.1,0-0.2,0-0.3,0s-0.2,0-0.3-0.1c-0.3,0-0.5-0.1-0.8-0.1s-0.5,0-0.8,0c-0.6,0-1.1,0.2-1.5,0.6s-0.6,1-0.6,1.7v11.9
			c0,0.3-0.1,0.6-0.3,0.8s-0.5,0.3-0.8,0.3s-0.6-0.1-0.8-0.3s-0.3-0.5-0.3-0.8V26.9H141.3z"/>
		<path class="st5" d="M163.2,37.5c0,0.3-0.1,0.6-0.3,0.9c-0.2,0.3-0.5,0.5-0.8,0.6c-0.8,0.3-1.6,0.5-2.5,0.6
			c-0.8,0.1-1.7,0.2-2.6,0.2c-2,0-3.6-0.5-4.7-1.4c-1-0.9-1.5-2.1-1.5-3.7c0-1.6,0.5-2.8,1.5-3.7c0.5-0.5,1.2-0.8,2-1
			s1.7-0.3,2.7-0.3h3.8v-2.1c0-1-0.3-1.8-1-2.3c-0.6-0.5-1.5-0.8-2.6-0.8c-0.7,0-1.3,0.1-2,0.3c-0.6,0.2-1.3,0.5-1.9,0.9
			c-0.2,0.1-0.4,0.2-0.5,0.2c-0.3,0-0.6-0.1-0.8-0.3c-0.2-0.2-0.3-0.5-0.3-0.8c0-0.4,0.2-0.8,0.6-1c0.8-0.5,1.6-0.8,2.5-1
			s1.7-0.3,2.5-0.3s1.5,0.1,2.2,0.3c0.7,0.2,1.3,0.5,1.9,1c0.5,0.4,1,1,1.3,1.6s0.5,1.4,0.5,2.2L163.2,37.5L163.2,37.5z M160.9,31.6
			h-3.8c-0.9,0-1.5,0.1-2.1,0.3c-0.5,0.2-0.9,0.4-1.2,0.7s-0.4,0.6-0.5,1c-0.1,0.3-0.1,0.7-0.1,1s0,0.7,0.1,1c0.1,0.4,0.3,0.7,0.5,1
			c0.3,0.3,0.7,0.6,1.2,0.7c0.5,0.2,1.2,0.3,2.1,0.3c1.3,0,2.6-0.2,3.8-0.6V31.6z"/>
		<path class="st5" d="M176.8,26.5l-3.4,12.3c-0.1,0.3-0.3,0.6-0.5,0.7c-0.2,0.2-0.5,0.3-0.8,0.3s-0.6-0.1-0.8-0.3s-0.4-0.4-0.5-0.7
			l-4.5-15.1c0-0.1-0.1-0.2-0.1-0.3c0-0.3,0.1-0.5,0.3-0.8c0.2-0.2,0.5-0.4,0.8-0.4c0.2,0,0.5,0.1,0.7,0.2s0.4,0.3,0.4,0.6l3.6,12.5
			l3.4-12.4c0.1-0.3,0.3-0.5,0.5-0.7s0.5-0.3,0.8-0.3s0.6,0.1,0.8,0.3c0.2,0.2,0.4,0.4,0.5,0.7l3.4,12.4L185,23
			c0.1-0.2,0.2-0.4,0.4-0.6c0.2-0.1,0.4-0.2,0.7-0.2s0.6,0.1,0.8,0.3c0.2,0.2,0.4,0.5,0.4,0.8c0,0.1,0,0.2-0.1,0.3l-4.5,15.1
			c-0.1,0.3-0.2,0.5-0.5,0.7c-0.2,0.2-0.5,0.3-0.8,0.3s-0.6-0.1-0.8-0.3s-0.4-0.4-0.5-0.7L176.8,26.5z"/>
	</g>
</g>
</svg>
