<svg id="Layer_1" data-name="Layer 1" xmlns="http://www.w3.org/2000/svg" width="10" height="10" viewBox="0 0 10 10"><defs><style>.cls-1{fill:#acacac;}.cls-2{fill:#fff;}</style></defs><title>twitter</title><rect class="cls-1" width="10" height="10"/><path class="cls-2" d="M7.37765,3.982a2.34055,2.34055,0,0,0,.604-.627,2.54077,2.54077,0,0,1-.696.19554,1.17447,1.17447,0,0,0,.53492-.67288,2.42782,2.42782,0,0,1-.77065.2933,1.14706,1.14706,0,0,0-.88-.3796A1.20752,1.20752,0,0,0,4.962,3.99923a1.10168,1.10168,0,0,0,.02871.27607A3.45642,3.45642,0,0,1,2.49461,3.00993a1.194,1.194,0,0,0-.16683.60971,1.1403,1.1403,0,0,0,.52344,1.00653,1.42236,1.42236,0,0,1-.57512-.14959v.01148a1.14686,1.14686,0,0,0,.28756.76785,1.20613,1.20613,0,0,0,.70749.417,1.14619,1.14619,0,0,1-.29345.0461,1.56067,1.56067,0,0,1-.22425-.023,1.22682,1.22682,0,0,0,.42847.59809,1.15318,1.15318,0,0,0,.6988.24161,2.3879,2.3879,0,0,1-1.50111.51755A2.31935,2.31935,0,0,1,2.09205,7.036a3.38375,3.38375,0,0,0,1.852.54065,3.50909,3.50909,0,0,0,1.2078-.20421,3.10362,3.10362,0,0,0,.96633-.54641,3.62921,3.62921,0,0,0,.69306-.78787,3.50145,3.50145,0,0,0,.43126-.93173,3.45359,3.45359,0,0,0,.14091-.96913c0-.06906-.00206-.1209-.00574-.15534Z"/></svg>