<svg id="Layer_1" data-name="Layer 1" xmlns="http://www.w3.org/2000/svg" width="10" height="10" viewBox="0 0 10 10"><defs><style>.cls-1{fill:#acacac;}.cls-2{fill:#fff;}</style></defs><title>youtube</title><rect class="cls-1" width="10" height="10"/><path class="cls-2" d="M8.39946,4.45652q.004.19563.00362.54348,0,.34785-.00362.54349c-.00278.13052-.0127.29535-.03079.4946a4.01421,4.01421,0,0,1-.08154.53449.84981.84981,0,0,1-.25008.44572.76393.76393,0,0,1-.44924.2101A23.65176,23.65176,0,0,1,5.15646,7.319,23.64945,23.64945,0,0,1,2.7251,7.2284.77359.77359,0,0,1,2.274,7.0183a.84017.84017,0,0,1-.25185-.44572,4.51684,4.51684,0,0,1-.07792-.53449q-.02712-.29888-.03079-.4946Q1.90942,5.34786,1.90983,5q0-.34785.00362-.54348.004-.19577.03079-.4946a3.985,3.985,0,0,1,.08154-.53449.84968.84968,0,0,1,.25-.44571.7638.7638,0,0,1,.44933-.2101A23.64816,23.64816,0,0,1,5.15646,2.681a23.65048,23.65048,0,0,1,2.43135.09064.774.774,0,0,1,.45109.2101.84077.84077,0,0,1,.25185.44571,4.55452,4.55452,0,0,1,.07792.53449C8.38676,4.16117,8.39668,4.326,8.39946,4.45652Zm-1.96031.73912a.23038.23038,0,0,0,0-.39127L4.58394,3.64487a.21912.21912,0,0,0-.23552-.00733.21616.21616,0,0,0-.11957.20295v2.319a.21593.21593,0,0,0,.11957.20287.25445.25445,0,0,0,.11233.029.20417.20417,0,0,0,.12319-.03626L6.43915,5.19564Z"/></svg>